<svg width="139" height="25" viewBox="0 0 139 25" fill="none" xmlns="http://www.w3.org/2000/svg">
<path fill-rule="evenodd" clip-rule="evenodd" d="M135.942 19.4395C135.527 19.4369 135.12 19.5571 134.773 19.785C134.426 20.0129 134.155 20.3382 133.992 20.7202C133.83 21.1021 133.784 21.5235 133.86 21.9315C133.937 22.3394 134.132 22.7157 134.422 23.0129C134.711 23.3101 135.083 23.515 135.488 23.6018C135.894 23.6886 136.317 23.6534 136.703 23.5008C137.089 23.3481 137.421 23.0847 137.658 22.7437C137.894 22.4027 138.025 21.9994 138.033 21.5844C138.033 21.0263 137.811 20.491 137.416 20.0963C137.022 19.7017 136.486 19.48 135.928 19.48L135.942 19.4395ZM135.942 23.3921C135.574 23.3946 135.214 23.2874 134.907 23.0842C134.601 22.8809 134.362 22.5908 134.221 22.2509C134.08 21.9111 134.044 21.537 134.117 21.1766C134.191 20.8161 134.37 20.4857 134.632 20.2275C134.894 19.9694 135.227 19.7953 135.588 19.7275C135.95 19.6597 136.323 19.7014 136.661 19.8471C136.999 19.9928 137.285 20.2359 137.484 20.5454C137.683 20.8549 137.784 21.2167 137.776 21.5844C137.778 21.8282 137.732 22.07 137.64 22.2958C137.548 22.5216 137.412 22.7269 137.24 22.8999C137.068 23.073 136.864 23.2103 136.639 23.3041C136.414 23.3978 136.172 23.446 135.928 23.446L135.942 23.3921Z" fill="white"/>
<path fill-rule="evenodd" clip-rule="evenodd" d="M137.004 20.9905C137.008 20.8889 136.985 20.7881 136.938 20.6981C136.891 20.6081 136.82 20.5322 136.734 20.4779C136.56 20.3865 136.364 20.3445 136.168 20.3565H135.143V22.7037H135.426V21.5841H135.952L136.626 22.6633H137.004L136.289 21.5841C136.382 21.6002 136.478 21.5954 136.568 21.5699C136.659 21.5445 136.743 21.4991 136.814 21.4371C136.886 21.375 136.942 21.2979 136.979 21.2113C137.017 21.1247 137.035 21.0308 137.031 20.9365L137.004 20.9905ZM135.871 21.4087H135.426V20.5723H136.1C136.397 20.5723 136.707 20.5723 136.707 20.977C136.707 21.3817 136.195 21.3952 135.871 21.3952V21.4087Z" fill="white"/>
<path fill-rule="evenodd" clip-rule="evenodd" d="M123.596 9.61844L127.9 5.03186C128.1 4.8192 128.231 4.5513 128.277 4.26293C128.277 3.92568 127.981 3.79078 127.077 3.79078H125.997V0.876953H137.747V3.77729H136.196C134.415 3.77729 134.078 4.04709 131.596 7.17676L124.851 14.5288V19.0209C124.851 20.1676 125.431 20.5723 127.09 20.5723H129.653V23.3647H113.142V20.5723H115.718C117.377 20.5723 117.957 20.1676 117.957 19.0209V14.5288L109.931 5.66589C108.582 4.11454 108.784 3.77729 105.102 3.77729V0.876953H119.941V3.77729H118.929C117.85 3.77729 117.391 3.97964 117.391 4.38434C117.476 4.72538 117.664 5.03172 117.931 5.26119L121.977 9.68589C122.068 9.81667 122.189 9.92354 122.33 9.99736C122.471 10.0712 122.628 10.1097 122.787 10.1097C122.946 10.1097 123.103 10.0712 123.244 9.99736C123.385 9.92354 123.506 9.81667 123.596 9.68589V9.61844Z" fill="white"/>
<path fill-rule="evenodd" clip-rule="evenodd" d="M23.7558 0.878082H27.3441V8.97205H24.0391C23.7125 7.69883 22.9176 6.59566 21.8133 5.88285C19.4198 4.07318 16.504 3.08861 13.5034 3.07694C9.59136 3.07694 6.28632 4.29104 6.28632 6.07171C6.28632 11.0225 28.6796 7.08346 28.6796 16.459C28.6796 21.3423 23.8772 24.0808 15.2706 24.0808C11.7592 24.0177 8.29955 23.2228 5.11269 21.747C4.27631 21.2614 3.92558 22.2057 3.7637 23.3793H0.0809397V15.0156H3.45343C3.94639 16.419 4.89654 17.6162 6.15142 18.415C7.77021 19.8989 11.5474 20.9781 15.1357 20.9376C20.4508 20.9376 22.2719 19.7235 22.2719 18.0373C22.2719 16.3511 20.4643 15.9464 14.6366 15.0425L9.69928 14.2331C4.06048 13.3833 0 12.1422 0 7.69051C0 3.23882 5.13967 0.176605 13.2606 0.176605C16.4126 0.0174837 19.5491 0.711896 22.3394 2.18661C23.0543 2.69923 23.7693 2.69923 23.7558 0.878082Z" fill="white"/>
<path fill-rule="evenodd" clip-rule="evenodd" d="M93.836 14.4213V5.3965C93.836 4.22287 93.229 3.81817 91.4753 3.81817H89.4518V1.05273H102.564V3.84515H100.851C99.0971 3.84515 98.4766 4.24985 98.4766 5.42348V23.5405H93.3504L76.7443 7.75724V19.1832C76.7443 20.3299 77.3648 20.7616 79.1185 20.7616H81.3983V23.4595H67.7734V20.7616H70.0263C71.78 20.7616 72.4005 20.3299 72.4005 19.1832V5.3965C72.4005 4.22287 71.78 3.81817 70.0263 3.81817H67.7734V1.05273H79.5502L93.836 14.4213Z" fill="white"/>
<path fill-rule="evenodd" clip-rule="evenodd" d="M49.8997 0C39.445 0 32.9023 4.61356 32.9023 12.033C32.9023 19.4525 39.3505 23.9042 49.5759 23.9042C60.3679 23.9042 66.7486 19.3851 66.7486 11.6688C66.7486 4.72148 59.9362 0 49.8997 0ZM49.6569 20.9634C43.8697 20.9634 40.5511 17.6314 40.5511 11.8577C40.5511 6.08397 44.0181 2.88685 49.9941 2.88685C55.6869 2.88685 59.0054 6.28632 59.0054 12.087C59.0054 17.8877 55.6329 20.9499 49.7108 20.9499L49.6569 20.9634Z" fill="white"/>
</svg>
