<svg fill="none" height="28" viewBox="0 0 239 28" width="239" xmlns="http://www.w3.org/2000/svg"><g fill="#fff"><path d="m172.616 0h-.96v27.9766h.96z"/><path d="m12.5149 3.45927 2.1765.54982.5122.64686v11.28765h-.1281l-11.39464-13.64868h-3.04071v.74389l1.82443 2.06994v14.29555l-2.46458.6792v.8409h6.68957v-.8409l-2.1125-.5498-.51212-.6792v-11.9022l11.71475 14.1338h1.0562v-16.97998l2.4966-.77623v-.87325h-6.8176z"/><path d="m26.1499 7.66602c-3.1368 0-6.4976 2.29634-6.4976 6.82438 0 4.5926 3.1688 6.7273 6.4976 6.7273 3.0727 0 6.5615-2.5551 6.5615-6.9537 0-4.52804-3.2968-6.59798-6.5615-6.59798zm.352 12.32258c-2.7846 0-4.289-2.7491-4.289-5.854 0-3.1373 1.1843-5.20721 3.5529-5.20721 2.6566 0 4.353 2.65211 4.353 5.78941.032 3.1049-1.2163 5.2718-3.6169 5.2718z"/><path d="m69.4231 18.9525v-6.9214c0-3.36365-2.1125-4.33394-4.353-4.33394-1.8244 0-4.4811 2.13463-4.4811 2.13463v-3.88114c0-2.16698.1281-5.01315.1281-5.01315h-.2881l-4.097 1.39074v.64686c1.3123 0 1.9205.6792 1.9205 3.10492v13.45468l-1.8244.7115v.7115h6.4335v-.7115l-1.7925-.6469-.5121-.6792v-5.9834-2.0699s1.1203-1.29375 2.8167-1.29375c2.0165 0 3.7449.61455 3.7449 3.75175l-.0961 6.1775-1.7604.6792v.7116h6.4335v-.7116l-1.7924-.6468z"/><path d="m98.6787 19.276c-2.4966 0-4.6731-1.6171-4.6731-5.4983h8.1624s.128-.7115.128-1.4877c0-3.00793-2.049-4.59273-4.6736-4.59273-3.3607 0-6.0814 2.87853-6.0814 6.85673 0 4.3662 2.8167 6.7273 5.9534 6.7273 2.3366 0 4.1606-1.4231 4.8336-2.1023l-.289-.5175c.032-.0323-1.824.6145-3.3603.6145zm-1.4083-10.28502c1.7604 0 2.5926.9056 2.5926 2.06992 0 1.3584-.4802 1.6172-1.7925 1.6819l-4.0649.1293c0-2.2316 1.4083-3.88112 3.2648-3.88112z"/><path d="m110.714 13.5513-1.248-.6468c-2.176-1.132-2.529-1.5525-2.529-2.4257 0-1.13205 1.057-1.5525 2.177-1.5525 1.696 0 2.529.74388 2.529 2.7815h1.12l.352-3.26665s-1.504-.74388-3.489-.74388c-2.785 0-4.577 1.19668-4.577 3.71943 0 2.0053.992 2.8462 3.009 3.8811l1.408.7439c1.056.5499 1.921 1.132 1.921 2.167 0 1.132-.641 1.9406-2.241 1.9406-1.568 0-2.785-1.1644-3.137-2.9756h-1.216l.16 2.6521c.032.5822.512.8733.704.938.8.3234 2.049.5175 3.457.5175 2.208 0 4.481-1.3584 4.481-3.6548.032-1.9082-.608-2.9108-2.881-4.0752z"/><path d="m132.831 19.276c-2.497 0-4.673-1.6171-4.673-5.4983h8.162s.128-.7115.128-1.4877c0-3.00793-2.049-4.59273-4.673-4.59273-3.361 0-6.082 2.87853-6.082 6.85673 0 4.3662 2.817 6.7273 5.954 6.7273 2.304 0 4.161-1.4231 4.833-2.1023l-.288-.5175c.032 0-1.825.6145-3.361.6145zm-1.408-10.28502c1.76 0 2.592.9056 2.592 2.06992 0 1.3584-.48 1.6172-1.792 1.6819l-4.065.1293c0-2.2316 1.408-3.88112 3.265-3.88112z"/><path d="m162.375 18.952.032-7.0508c0-3.26662-2.112-4.17222-4.257-4.20456-1.824 0-4.385 2.13463-4.385 2.13463 0-1.16435.064-2.23166.064-2.23166h-.224l-4.033 1.48777v.6792c1.537 0 1.953 1.39072 1.953 3.91352v5.854l-1.825.7116v.7115h6.338l.064-.7115-1.793-.6469-.544-.6792v-8.021s.96-1.32608 2.721-1.32608c1.792 0 3.649.64688 3.649 3.75178l-.096 6.2422-1.761.6792v.7115h6.338l.064-.7115-1.793-.6469z"/><path d="m86.2606 8.76537 1.8884.6792-2.9127 8.44153-2.8166-8.50621 1.6644-.51749v-.84092h-5.2813v.77623l.9602.2264.7362 2.16699-.5121 1.3584-2.1765 5.3042-2.4966-8.47381 1.6644-.54983v-.77623h-5.4413v.77623c.8962 0 1.1523.74388 1.6324 2.03764l3.3288 10.2203h1.1522l3.3928-8.2798 2.9447 8.2798h1.3123l3.3288-9.5411c.8962-2.29639 1.4403-2.58747 2.5606-2.74919v-.77623h-4.9612v.74389z"/><path d="m52.6513 19.5344c-1.2483 0-2.3686-.7116-2.3366-2.4257l.128-7.30954h4.097.032l.064-.4528.2881-2.29634-.5121-.09703-.3841.87326-.2241.19405-3.2647.12938h-.032v-3.33132l-1.6004.29109-.7042 3.1696-2.2725.2264v1.09965c1.2483 0 2.2725.09703 2.2725 1.3261 0 1.1966-.096 4.9808-.096 6.4685 0 2.8462 1.0883 3.9135 2.8807 3.9135 1.5363 0 2.8166-.6468 3.9689-1.5848l-.2881-.6468c-.096-.0647-.8642.4528-2.0164.4528z"/><path d="m122.109 19.5344c-1.248 0-2.368-.7116-2.336-2.4257l.096-7.30954h4.096l.065-.4528.288-2.29634-.513-.09703-.384.87326-.224.19405-3.264.12938v-3.33132l-1.601.29109-.704 3.1696-2.273.2264v1.09965c1.249 0 2.273.09703 2.273 1.3261 0 1.1966-.128 4.9808-.128 6.4685 0 2.8462 1.088 3.9135 2.881 3.9135 1.536 0 2.816-.6468 3.969-1.5848l-.288-.6468c0-.0324-.769.4528-1.953.4528z"/><path d="m42.5366 7.69664c-1.9205 0-3.9369 3.07256-3.9369 3.07256 0-1.71416.064-3.16959.064-3.16959h-.2561l-3.9369 1.48777v.6792c1.5044 0 1.9525 1.35842 1.9525 3.68712v6.0804l-1.8245.7116v.7115h6.3695v-.7115l-1.7924-.6469-.5441-.6792v-5.9834c0-1.8436 1.4403-2.8785 2.9767-2.8785.3201 0 .6401.0647.9282.1617l.4161.6468.5441.0324.4161-3.10493c0 .06468-.4801-.09703-1.3763-.09703z"/><path d="m142.593 10.7692c0-1.71416.064-3.16959.064-3.16959h-.224l-3.937 1.48777v.6792c1.504 0 1.953 1.35842 1.953 3.68712v6.0804l-1.825.7116v.7115h6.338v-.7115l-1.793-.6469-.544-.6792v-5.9834c0-1.8436 1.44-2.8785 2.977-2.8785.32 0 .64.0647.928.1617l.448.6468.544.0324.416-3.10493s-.48-.16172-1.376-.16172c-1.952.06469-3.969 3.13725-3.969 3.13725z"/><path d="m189.579 8.31332c-1.056-1.06732-2.496-1.5848-3.969-1.5848-1.472 0-2.912.51748-3.969 1.5848-1.504 1.52011-1.76 3.39598-1.76 5.69238 0 2.2963.256 4.1399 1.76 5.66 1.057 1.0673 2.497 1.5848 3.969 1.5848.832 0 1.665-.1617 2.433-.4852l1.28 1.6172 1.504-1.1967-1.216-1.5525c1.472-1.5201 1.729-3.3636 1.729-5.6276 0-2.2964-.257-4.17227-1.761-5.69238zm-1.504 9.34708-1.537-1.9406-1.536 1.1967 1.472 1.8759c-.288.097-.608.1294-.896.1294-.8 0-1.632-.3234-2.176-.938-.961-1.0026-.993-2.7168-.993-4.0105s.032-3.0079.993-4.0105c.544-.58217 1.376-.93794 2.176-.93794s1.633.32343 2.177.93794c.96 1.0026.992 2.7491.992 4.0105.032 1.1644 0 2.6845-.672 3.6871z"/><path d="m197.23 6.98633-4.865 14.00447h2.529l.896-2.6845h5.505l.897 2.6845h2.624l-4.865-13.97213h-2.721zm-.64 9.02367 1.985-5.8864 1.984 5.8864z"/><path d="m214.609 7.01953h-10.722v2.36103h4.097v11.61114h2.528v-11.61114h4.097z"/><path d="m218.867 7.01953-4.865 13.97217h2.529l.896-2.6845h5.505l.896 2.6845h2.625l-4.865-13.97217zm-.64 8.99137 1.984-5.8865 1.985 5.8865z"/><path d="m239 11.3535c0-2.26403-1.505-4.33397-4.802-4.33397h-5.825v13.97217h2.529v-5.2719h3.072l2.305 5.2719h2.721l-2.529-5.7247c1.536-.5499 2.529-2.0376 2.529-3.9135zm-4.77 2.0699h-3.36v-4.17221h3.328c1.409 0 2.273 1.00261 2.273 2.10231.032 1.326-.8 2.0699-2.241 2.0699z"/></g></svg>