<svg fill="none" height="38" viewBox="0 0 235 38" width="235" xmlns="http://www.w3.org/2000/svg"><g fill="#fff"><path d="m0 0 4.53701 6.26775 22.99509 9.38755v-4.4127zm10.9057 15.0089 16.6545 6.8018v-4.4128l-21.21965-8.65677zm6.3406 8.7692 10.2858 4.1879v-4.4127l-14.8228-6.0429zm8.9331 9.1346-1.6908-4.4127-5.4951-2.2485 3.5788 4.497h-1.099l6.0869 7.2515-2.5362-5.0873z"/><path d="m27.5332 11.2426v4.4127l22.995-9.38755 4.5652-6.26775zm21.1915-2.50147-21.1915 8.65677v4.4128l16.6545-6.8018zm-6.3405 8.76927-14.851 6.0429v4.4127l10.2858-4.1879zm-12.2866 15.4023-2.5362 5.0873 6.0869-7.2515h-1.099l3.5789-4.497-5.4952 2.2485-1.6908 4.4127z"/><path d="m77.9408 12.8245h-15.2455v-2.5296h15.2455zm0 5.0592h-15.2455v-2.5296h15.2455zm0 5.0592h-15.2455v-2.5296h15.2455z"/><path d="m95.6607 10.2949-6.3406 12.648h-2.5362l-6.3405-12.648h2.7898l4.8188 9.6124 4.8188-9.6124z"/><path d="m108.326 22.9429v-12.648h2.536v10.1184h10.145v-10.1184h2.536v12.648z"/><path d="m128.573 22.9429h-2.536v-12.648h15.246v12.6761h-2.537v-10.1184h-10.144v10.0903z"/><path d="m146.31 22.9429h-2.537v-12.648h2.537z"/><path d="m164.03 10.2949-6.341 12.648h-2.536l-6.341-12.648h2.79l4.791 9.6406 4.819-9.6125h2.818z"/><path d="m181.763 12.8245h-15.245v-2.5296h15.245zm0 5.0592h-15.245v-2.5296h15.245zm0 5.0592h-15.245v-2.5296h15.245z"/><path d="m186.771 22.9429h-2.537v-12.648h15.246v2.5296h-12.709z"/><path d="m201.967 22.9429v-2.5296h12.709v-2.5296h-12.709v-7.5888h15.245v2.5296h-12.709v2.5296h12.709v7.5888z"/><path d="m234.935 12.8245h-15.246v-2.5296h15.246zm0 5.0592h-15.246v-2.5296h15.246zm0 5.0592h-15.246v-2.5296h15.246z"/></g></svg>