<svg fill="none" height="39" viewBox="0 0 237 39" width="237" xmlns="http://www.w3.org/2000/svg"><g fill="#fff"><path d="m225.644 38.2957c-.406-.0009-.805-.1075-1.158-.3095-.353-.2019-.649-.4924-.858-.8433-.209-.3508-.324-.7501-.335-1.1592s.083-.8141.273-1.1757l8.397-15.991-8.397-15.28698c-.302-.55347-.374-1.20525-.199-1.81193.175-.60669.581-1.118588 1.131-1.423095.549-.30450727 1.195-.3766754 1.797-.2006284.602.1760474 1.11.5858884 1.412 1.1393634l8.999 16.40977c.191.3451.292.7327.296 1.1274s-.09.7841-.274 1.1328l-8.999 17.1283c-.2.3821-.501.7017-.868.9245-.367.2227-.788.34-1.217.3392z"/><path d="m219.427 34.3221c-.334-.0005-.663-.0878-.954-.2536-.29-.1657-.533-.4042-.705-.6922-.172-.2881-.267-.6159-.275-.9516-.009-.3356.07-.6678.227-.9642l6.821-12.8897-6.796-12.05048c-.126-.22234-.206-.46734-.238-.72103-.031-.25368-.012-.51107.056-.75748.067-.2464.183-.477.339-.67861.157-.20162.351-.37031.572-.49645.222-.12613.466-.20724.718-.23868.253-.03145.509-.01262.754.0554.245.06803.475.18392.676.34107.2.15714.368.35246.494.57479l7.325 12.98017c.16.2853.246.6064.251.9338.004.3274-.073.6506-.226.9402l-7.325 13.834c-.165.3125-.412.5739-.714.7561-.302.1823-.648.2786-1 .2785z"/><path d="m71.533 5.41797h-1.8064v28.54113h1.8064z"/><path d="m197.258 4.69727h4.099c2.273 5.42263 4.572 10.90613 6.9 16.45063v-16.4287h3.452v27.0741h-3.662l-7.417-17.4998v17.4925h-3.372z"/><path d="m139.325 21.3084v-16.61113h3.38v27.08143h-3.665l-7.33-17.3431v17.3577h-3.456v-27.0814h4.13z"/><path d="m91.2453 17.3474c.1258.1454.1762.2617.2588.2945 3.3787 1.334 4.2701 4.8056 3.7273 8.1389-.6182 3.7878-2.9365 5.8162-6.7537 5.9689-2.3722.0981-4.7517 0-7.1886 0v-26.89976c.2583-.07571.523-.12683.7907-.15267 2.1063 0 4.2162 0 6.326.02908 4.9853.10178 6.7573 4.32213 6.0385 8.18625-.4134 2.2428-.9202 2.8754-3.199 4.4348zm-5.9558 11.1162c2.2968.5598 4.3564.0799 5.1831-1.1778 1.0387-1.5813 1.0207-5.3473-.0971-6.8195-1.3479-1.7703-3.2349-1.2541-5.086-1.2613zm0-12.5848c2.5592.3635 3.8927 0 4.6403-1.1886.8734-1.4032.8555-4.4603-.0863-5.69988-1.2148-1.59581-2.9149-.95603-4.554-1.03964z"/><path d="m58.0365 18.3712c1.25 4.4704 2.4784 8.8714 3.7428 13.4002h-4.2233l-3.1974-12.2835h-2.9516v12.3054h-4.0789v-26.95006c.2358-.07136.4777-.12024.7226-.14597 2.1677 0 4.3028 0 6.4561.02554 4.6966.07664 7.0666 3.42304 6.774 8.07589-.1481 2.3721-1.0369 4.3463-3.2443 5.5725zm-6.6259-1.9962c1.922-.0912 3.8982.4963 5.1266-1.4597.9321-1.4926.8526-4.5689-.1554-5.83888-1.344-1.68597-3.1937-1.04005-4.9712-1.09479z"/><path d="m115.705 19.4673v12.326h-4.072v-26.84623c.115-.09493.169-.17526.22-.1716 2.838 0 5.712-.24463 8.504.13143 3.516.47464 5.475 3.58899 5.258 7.5577-.151 2.7748-.855 4.0965-3.246 5.9549l3.715 13.3592h-4.198l-3.21-12.3114zm.054-3.1143c1.861-.0694 3.808.5257 5.07-1.4057.978-1.4969.898-4.6259-.158-5.91105-1.356-1.65758-3.192-1.00404-4.912-1.07706z"/><path d="m45.5213 31.7933h-4.2498c-.4758-2.4626-.948-4.8999-1.4418-7.4275h-5.1258c-.4806 2.4289-.9612 4.9-1.4418 7.4131h-3.6371c1.8456-8.9369 3.6695-17.7762 5.5187-26.72031h4.686zm-6.2792-10.5436c-.6488-3.517-1.2724-6.904-1.8924-10.2946h-.2127c-.62 3.3798-1.24 6.7848-1.8816 10.2946z"/><path d="m21.7401 20.3718v11.4216h-4.037v-26.56126c.0969-.08672.1472-.17705.1974-.17344 2.9138.07949 5.8599-.06865 8.7307.32881 2.5119.36132 3.897 2.27636 4.4784 4.74789.5421 2.0636.3972 4.2493-.4127 6.222-1.0765 2.5293-3.0538 3.7723-5.6949 3.9999-1.0227.0867-2.0597.0145-3.2619.0145zm.0718-12.16232v9.00072c1.7009 0 3.5418.4986 4.5681-1.2502.5714-.9616.8773-2.0595.8862-3.1801.0088-1.1205-.2798-2.2231-.836-3.19376-.976-1.86445-2.8492-1.37666-4.6183-1.37666z"/><path d="m14.5208 10.5569-3.4363.8719c-.174-.5704-.3226-1.0899-.5002-1.6203-.5691-1.70026-1.97912-2.54312-3.66463-2.17982-1.44991.31608-2.30535 1.66756-2.17486 3.36782.11962 1.5913.92431 2.7429 2.20385 3.633 1.55865 1.0536 3.16444 2.0491 4.66504 3.1789 3.1681 2.3797 4.2917 5.9146 3.0883 9.6748-.3232 1.1575-.9735 2.1967-1.8726 2.9922-.8992.7954-2.0087 1.3132-3.19479 1.4909-3.41452.6358-7.06103-.2761-8.59793-3.7057-.405972-.9227-.674204-1.8964-1.03668-2.9645l3.47252-.8683c.26823.8174.45309 1.5586.75033 2.2561.32074.7844.90505 1.4316 1.65174 1.8297.7467.3981 1.60878.522 2.43698.3501 1.74713-.287 2.74393-1.4168 2.89983-3.3278.1667-2.0091-.7467-3.5095-2.31986-4.6321-1.39191-.9918-2.83094-1.9146-4.23372-2.9065-2.33435-1.6021-3.777003-3.7565-3.842249-6.692-.090619-3.56763 2.192979-6.43772 5.448019-6.87005 4.17931-.55948 7.14801 1.2643 8.11221 4.98088.0731.37668.1216.75777.145 1.14077z"/><path d="m145.244 25.2026 3.192-.783c.291.87.492 1.682.83 2.4288.657 1.45 2.102 2.175 3.762 2.0191s2.602-1.0295 2.979-2.7224c.414-1.8668-.097-3.5053-1.563-4.6835-1.466-1.1781-3.141-2.262-4.729-3.3712-2.376-1.6639-3.87-3.8353-3.91-6.8549-.054-4.1796 2.976-7.11223 7.126-6.88748 3.234.174 5.25 1.72913 6.246 4.84663.104.45298.173.91355.205 1.37745l-3.35.8519c-.253-.7886-.548-1.56299-.884-2.31998-.596-1.18175-1.638-1.6385-3.047-1.46812-.573.05814-1.111.30752-1.529.70867-.417.40114-.689.93116-.774 1.5062-.335 1.70373.104 3.22263 1.494 4.28833 1.391 1.0658 2.789 1.9249 4.18 2.9 1.7 1.1782 3.205 2.5158 3.992 4.5313 1.528 3.9331-.046 8.5477-3.575 9.9397-3.802 1.5008-9.527.6779-10.641-5.6731-.017-.2111-.018-.4231-.004-.6344z"/><path d="m98.2695 4.69727h11.9895v3.16431h-7.863v8.19792h5.981v3.4314h-5.984v9.043h8.16v3.2594h-12.2835z"/><path d="m175.582 4.69727h12.386v3.18023h-8.124v8.1537h6.138v3.4401h-6.142v9.0869h8.387v3.2351h-12.645z"/><path d="m160.047 8.22327v-3.16468h13.367v3.07905h-4.594v23.29446h-4.194v-23.20883z"/><path d="m190.035 4.69727h3.974v27.09603h-3.974z"/></g></svg>