<svg fill="none" height="52" viewBox="0 0 128 52" width="128" xmlns="http://www.w3.org/2000/svg"><g fill="#fff"><path d="m0 47.7715h24.8874v3.5626h-24.8874z"/><path d="m0 40.9375h24.8874v3.5752h-24.8874z"/><path d="m7.09961 34.1172h10.67509v3.5753h-10.67509z"/><path d="m7.09961 27.2969h10.67509v3.5753h-10.67509z"/><path d="m7.09961 20.4746h10.67509v3.5753h-10.67509z"/><path d="m7.09961 13.6426h10.67509v3.5753h-10.67509z"/><path d="m24.8874 6.82031h-24.8874v3.57529h24.8874z"/><path d="m24.8874 0h-24.8874v3.5753h24.8874z"/><path d="m28.4375 44.5128h38.2757c.6466-1.103 1.1284-2.3075 1.4201-3.5753h-39.6958z"/><path d="m63.7327 27.2969h-28.1839v3.5753h31.1633c-.8115-1.3694-1.8131-2.5737-2.9794-3.5753z"/><path d="m35.5488 20.4746v3.5753h28.1839c1.1918-1.0016 2.1932-2.2061 2.9794-3.5753z"/><path d="m66.7134 6.82031h-38.2759v3.57529h39.6958c-.3296-1.26783-.8114-2.47218-1.4199-3.57529z"/><path d="m54.9478 0h-26.5103v3.5753h35.6513c-2.3834-2.20608-5.6163-3.5753-9.141-3.5753z"/><path d="m46.2112 13.6426h-10.6624v3.5753h10.6624z"/><path d="m56.8887 17.2179h11.1568c.317-1.141.4818-2.3455.4818-3.5753h-11.6386z"/><path d="m35.5488 34.1172h10.6624v3.5753h-10.6624z"/><path d="m56.8887 34.1172v3.5753h11.6386c0-1.2298-.1648-2.4342-.4818-3.5753z"/><path d="m28.4375 51.3088 26.5104.038c3.5499 0 6.7575-1.3692 9.1536-3.5753h-35.664z"/><path d="m71.1133 47.7715h17.7748v3.5626h-17.7748z"/><path d="m71.1133 40.9375h17.7748v3.5752h-17.7748z"/><path d="m78.2129 34.1172h10.6751v3.5753h-10.6751z"/><path d="m78.2129 27.2969h10.6751v3.5753h-10.6751z"/><path d="m93.8328 6.82031h-22.7195v3.57529h23.9492z"/><path d="m91.4745 0h-20.3612v3.5753h21.591z"/><path d="m110.213 47.7715h17.788v3.5626h-17.788z"/><path d="m110.213 40.9375h17.788v3.5752h-17.788z"/><path d="m110.213 34.1172h10.675v3.5753h-10.675z"/><path d="m110.213 27.2969h10.675v3.5753h-10.675z"/><path d="m110.213 24.0499h10.675v-3.5753h-10.675-9.661l-1.0015 2.8908-1.0016-2.8908h-9.6609-10.6751v3.5753h10.6751v-3.2837l1.1284 3.2837h19.0686l1.128-3.2837z"/><path d="m120.889 13.6426h-17.978l-1.229 3.5753h19.207z"/><path d="m107.64 0-1.23 3.5753h21.591v-3.5753z"/><path d="m99.5501 51.3088 1.2299-3.5373h-2.4597z"/><path d="m97.1927 44.5127h4.7163l1.268-3.5752h-7.2395z"/><path d="m94.7962 37.6925h9.5088l1.255-3.5753h-12.019z"/><path d="m92.4134 30.8722h14.2886l1.217-3.5753h-16.7354z"/><path d="m78.2129 17.2179h19.2076l-1.2297-3.5753h-17.9779z"/><path d="m104.051 10.3956h23.949v-3.57529h-22.732z"/></g></svg>