<svg fill="none" height="90" viewBox="0 0 90 90" width="90" xmlns="http://www.w3.org/2000/svg" xmlns:xlink="http://www.w3.org/1999/xlink"><radialGradient id="a" cx="0" cy="0" gradientTransform="matrix(0 44 -44 0 45 45)" gradientUnits="userSpaceOnUse" r="1"><stop offset=".151042" stop-color="#158009"/><stop offset=".302083" stop-color="#158009"/><stop offset=".463542" stop-color="#158009"/><stop offset=".635417" stop-color="#158009"/><stop offset=".848958" stop-color="#158009"/><stop offset="1" stop-color="#158009"/></radialGradient><linearGradient id="b"><stop offset="0" stop-color="#158009"/><stop offset="1" stop-color="#158009"/></linearGradient><linearGradient id="c" gradientUnits="userSpaceOnUse" x1="58.4339" x2="22.3319" xlink:href="#b" y1="18.9359" y2="41.7709"/><linearGradient id="d" gradientUnits="userSpaceOnUse" x1="52.3013" x2="37.3194" xlink:href="#b" y1="29.5391" y2="44.3042"/><linearGradient id="e" gradientUnits="userSpaceOnUse" x1="68.0004" x2="51.8756" xlink:href="#b" y1="35.4721" y2="56.4531"/><circle cx="45" cy="45" r="44.5" stroke="url(#a)"/><path d="m34.2652 22.2524c-2.3556 0-4.2652 1.9096-4.2652 4.2652v36.9648c0 2.3557 1.9096 4.2652 4.2652 4.2652h19.9041c2.3556 0 4.2652-1.9095 4.2652-4.2652v-2.8434h-25.5911v-34.1214c0-.7852.6366-1.4217 1.4218-1.4217h.6608l1.5773 2.3659c.791 1.1866 2.1228 1.8993 3.5488 1.8993h8.3304c1.4259 0 2.7577-.7127 3.5487-1.8993l1.5773-2.3659h.6608c.7852 0 1.4217.6365 1.4217 1.4217v7.6904c.8732-.4193 1.8616-.6303 2.8435-.5713v-7.1191c0-2.3556-1.9096-4.2652-4.2652-4.2652z" fill="#158009"/><path d="m34.2652 22.2524c-2.3556 0-4.2652 1.9096-4.2652 4.2652v36.9648c0 2.3557 1.9096 4.2652 4.2652 4.2652h19.9041c2.3556 0 4.2652-1.9095 4.2652-4.2652v-2.8434h-25.5911v-34.1214c0-.7852.6366-1.4217 1.4218-1.4217h.6608l1.5773 2.3659c.791 1.1866 2.1228 1.8993 3.5488 1.8993h8.3304c1.4259 0 2.7577-.7127 3.5487-1.8993l1.5773-2.3659h.6608c.7852 0 1.4217.6365 1.4217 1.4217v7.6904c.8732-.4193 1.8616-.6303 2.8435-.5713v-7.1191c0-2.3556-1.9096-4.2652-4.2652-4.2652z" fill="url(#c)"/><path d="m52.3016 36.5818c-1.1388-3.3716-4.3279-5.799-8.0838-5.799-4.7111 0-8.5303 3.8191-8.5303 8.5303s3.8192 8.5304 8.5303 8.5304c.2032 0 .4047-.0072.6041-.0211l-3.3746-3.328c-1.8026-1.7777-1.8025-4.3103-.8952-6.1253.676-1.3522 1.8764-2.0257 2.9554-2.2661 1.0304-.2295 2.0527-.1061 2.886.1626l4.4527 1.4356z" fill="#158009"/><path d="m52.3016 36.5818c-1.1388-3.3716-4.3279-5.799-8.0838-5.799-4.7111 0-8.5303 3.8191-8.5303 8.5303s3.8192 8.5304 8.5303 8.5304c.2032 0 .4047-.0072.6041-.0211l-3.3746-3.328c-1.8026-1.7777-1.8025-4.3103-.8952-6.1253.676-1.3522 1.8764-2.0257 2.9554-2.2661 1.0304-.2295 2.0527-.1061 2.886.1626l4.4527 1.4356z" fill="url(#d)"/><path d="m55.752 37.5483c1.3173-.9164 3.196-.9863 4.4166.1839l6.9104 6.6253c1.4112 1.353 1.0922 3.484-.2127 4.7349l-5.9285 5.6839c-1.3002 1.2466-3.4929 1.5437-4.8903.2039l-1.017-.975-4.9709.9906c-.3991.0795-.8127-.0397-1.1028-.3178l-.7407-.71c-1.4112-1.353-1.0921-3.4839.2127-4.735l.8121-.7786-4.7494-4.5534c-1.0914-1.0463-1.1322-2.5764-.5343-3.7394.3807-.7405 1.0581-1.123 1.7121-1.2645.6313-.1368 1.2854-.0666 1.839.1069l4.436 1.3904 3.7739-2.8217c.0111-.0084.0223-.0165.0338-.0244z" fill="#158009"/><path d="m55.752 37.5483c1.3173-.9164 3.196-.9863 4.4166.1839l6.9104 6.6253c1.4112 1.353 1.0922 3.484-.2127 4.7349l-5.9285 5.6839c-1.3002 1.2466-3.4929 1.5437-4.8903.2039l-1.017-.975-4.9709.9906c-.3991.0795-.8127-.0397-1.1028-.3178l-.7407-.71c-1.4112-1.353-1.0921-3.4839.2127-4.735l.8121-.7786-4.7494-4.5534c-1.0914-1.0463-1.1322-2.5764-.5343-3.7394.3807-.7405 1.0581-1.123 1.7121-1.2645.6313-.1368 1.2854-.0666 1.839.1069l4.436 1.3904 3.7739-2.8217c.0111-.0084.0223-.0165.0338-.0244z" fill="url()"/></svg>