<svg fill="none" height="90" viewBox="0 0 90 90" width="90" xmlns="http://www.w3.org/2000/svg" xmlns:xlink="http://www.w3.org/1999/xlink"><radialGradient id="a" cx="0" cy="0" gradientTransform="matrix(0 44 -44 0 45 45)" gradientUnits="userSpaceOnUse" r="1"><stop offset=".151042" stop-color="#04e4ff"/><stop offset=".302083" stop-color="#04e4ff"/><stop offset=".463542" stop-color="#9536e5"/><stop offset=".635417" stop-color="#9536e5"/><stop offset=".848958" stop-color="#04e4ff"/><stop offset="1" stop-color="#04e4ff"/></radialGradient><linearGradient id="b" gradientUnits="userSpaceOnUse" x1="69" x2="26.873" y1="17.5" y2="57.6721"><stop offset="0" stop-color="#903ce6"/><stop offset="1" stop-color="#04e4ff"/></linearGradient><circle cx="45" cy="45" r="44.5" stroke="url(#a)"/><path d="m65.7179 46.1042-1.8971-1.0903 1.8971-1.0902c1.3926-.8001 2.4422-2.0845 2.9489-3.6085.5066-1.5241.435-3.1812-.2014-4.6558-.7812-1.82-1.7768-3.5402-2.9656-5.1243-.963-1.2822-2.3634-2.1661-3.9352-2.4837-1.5718-.3175-3.2055-.0467-4.5907.761l-1.8753 1.0903v-2.1805c.011-1.6105-.5725-3.1684-1.6387-4.3755-1.0662-1.207-2.5402-1.9783-4.1398-2.1662-1.9551-.2398-3.9323-.2398-5.8875 0-1.5995.1879-3.0735.9592-4.1397 2.1662-1.0662 1.2071-1.6497 2.765-1.6387 4.3755v2.1805l-1.8753-1.0903c-1.3852-.8077-3.0189-1.0785-4.5907-.761-1.5718.3176-2.9723 1.2015-3.9352 2.4837-1.1888 1.5841-2.1844 3.3043-2.9656 5.1243-.6364 1.4746-.7081 3.1317-.2014 4.6558.5067 1.524 1.5563 2.8084 2.9489 3.6085l1.8971 1.0902-1.8971 1.0903c-1.3926.8001-2.4422 2.0845-2.9489 3.6085s-.435 3.1812.2014 4.6558c.7812 1.82 1.7768 3.5402 2.9656 5.1243.9629 1.2822 2.3634 2.1661 3.9352 2.4836 1.5718.3176 3.2055.0468 4.5907-.761l1.8753-1.0902v2.1805c-.011 1.6105.5725 3.1684 1.6387 4.3755 1.0662 1.207 2.5402 1.9783 4.1397 2.1662 1.9557.2326 3.9319.2326 5.8875 0 1.5996-.1879 3.0736-.9592 4.1398-2.1662 1.0662-1.2071 1.6497-2.765 1.6387-4.3755v-2.1805l1.8753 1.0902c1.3852.8078 3.0189 1.0786 4.5907.761 1.5718-.3175 2.9722-1.2014 3.9352-2.4836 1.1888-1.5841 2.1844-3.3043 2.9656-5.1243.6364-1.4746.708-3.1318.2014-4.6558-.5067-1.524-1.5563-2.8084-2.9489-3.6085zm-1.2647 6.5417c-.638 1.4911-1.4583 2.8973-2.4423 4.1866-.3194.4335-.7879.7336-1.3153.8423s-1.0764.0184-1.5412-.2535l-3.0309-1.7663c-.3593-.2049-.7693-.3035-1.1825-.2842-.4131.0193-.8122.1557-1.1507.3933-.5772.3857-1.1822.7283-1.8099 1.0248-.3744.1783-.6902.4597-.9104.8112-.2201.3515-.3355.7584-.3325 1.1731v3.5107c.0033.5391-.1933 1.0602-.5517 1.4629-.3583.4027-.8532.6584-1.389.7177-1.6076.1962-3.2332.1962-4.8408 0-.5358-.0593-1.0307-.315-1.3891-.7177s-.5549-.9238-.5516-1.4629v-3.4889c.003-.4147-.1124-.8216-.3325-1.1731-.2202-.3515-.536-.6329-.9104-.8112-.6277-.2965-1.2327-.6391-1.8099-1.0248-.3828-.2676-.8414-.4052-1.3083-.3925-.382-.0027-.758.0951-1.0903.2834l-3.031 1.7663c-.4648.2719-1.0137.3622-1.5411.2535s-.996-.4087-1.3154-.8423c-.9839-1.2892-1.8042-2.6955-2.4422-4.1866-.2225-.4957-.252-1.0567-.0826-1.5729.1694-.5163.5255-.9507.9984-1.2182l3.0528-1.7445c.3599-.2059.6536-.5101.8467-.877s.2776-.7813.2436-1.1945c-.0946-.7238-.0946-1.4568 0-2.1806.034-.4132-.0505-.8275-.2436-1.1944s-.4868-.6712-.8467-.8771l-3.0528-1.7444c-.4729-.2675-.829-.7019-.9984-1.2182s-.1399-1.0772.0826-1.5729c.6648-1.4641 1.507-2.8409 2.5076-4.0995.3195-.4335.788-.7335 1.3154-.8422s1.0764-.0184 1.5412.2535l3.0309 1.7662c.3592.205.7693.3036 1.1825.2843.4131-.0193.8122-.1557 1.1507-.3933.5772-.3857 1.1822-.7283 1.8099-1.0248.3744-.1784.6902-.4598.9104-.8112.2201-.3515.3355-.7584.3325-1.1731v-3.5107c-.0033-.5391.1932-1.0603.5516-1.463.3584-.4026.8533-.6583 1.3891-.7176 1.6076-.1962 3.2332-.1962 4.8408 0 .5358.0593 1.0307.315 1.389.7176.3584.4027.555.9239.5517 1.463v3.5107c-.003.4147.1124.8216.3325 1.1731.2202.3514.536.6328.9104.8112.6277.2965 1.2327.6391 1.8099 1.0248.3385.2376.7376.374 1.1507.3933.4132.0193.8232-.0793 1.1825-.2843l3.0309-1.7662c.4648-.2719 1.0138-.3622 1.5412-.2535s.9959.4087 1.3153.8422c.984 1.2893 1.8043 2.6956 2.4423 4.1867.2225.4957.252 1.0566.0826 1.5729-.1695.5163-.5255.9507-.9985 1.2182l-3.0527 1.7444c-.3599.206-.6536.5102-.8467.8771s-.2776.7813-.2436 1.1945c.0948.7237.0948 1.4568 0 2.1805-.034.4132.0505.8276.2436 1.1945s.4868.6711.8467.877l3.0527 1.7445c.4522.2653.7937.6846.9619 1.1812s.1519 1.0372-.046 1.5227zm-12.1675-11.3825c.2044.2027.3666.4439.4773.7096s.1677.5507.1677.8386c0 .2878-.057.5728-.1677.8386-.1107.2657-.2729.5069-.4773.7096-.2027.2043-.4439.3666-.7096.4773s-.5507.1677-.8386.1677-.5729-.057-.8386-.1677-.5069-.273-.7096-.4773l-.6324-.6542v7.85c0 .5783-.2297 1.1329-.6386 1.5419-.409.4089-.9636.6386-1.5419.6386s-1.133-.2297-1.5419-.6386c-.4089-.409-.6387-.9636-.6387-1.5419v-7.8282l-.6323.6542c-.4106.4106-.9675.6413-1.5482.6413s-1.1376-.2307-1.5482-.6413-.6413-.9675-.6413-1.5482.2307-1.1376.6413-1.5482l4.3611-4.3611c.2027-.2044.4439-.3666.7096-.4773s.5507-.1677.8386-.1677.5729.057.8386.1677.5069.2729.7096.4773z" fill="#f2f2f2"/><path d="m65.7179 46.1042-1.8971-1.0903 1.8971-1.0902c1.3926-.8001 2.4422-2.0845 2.9489-3.6085.5066-1.5241.435-3.1812-.2014-4.6558-.7812-1.82-1.7768-3.5402-2.9656-5.1243-.963-1.2822-2.3634-2.1661-3.9352-2.4837-1.5718-.3175-3.2055-.0467-4.5907.761l-1.8753 1.0903v-2.1805c.011-1.6105-.5725-3.1684-1.6387-4.3755-1.0662-1.207-2.5402-1.9783-4.1398-2.1662-1.9551-.2398-3.9323-.2398-5.8875 0-1.5995.1879-3.0735.9592-4.1397 2.1662-1.0662 1.2071-1.6497 2.765-1.6387 4.3755v2.1805l-1.8753-1.0903c-1.3852-.8077-3.0189-1.0785-4.5907-.761-1.5718.3176-2.9723 1.2015-3.9352 2.4837-1.1888 1.5841-2.1844 3.3043-2.9656 5.1243-.6364 1.4746-.7081 3.1317-.2014 4.6558.5067 1.524 1.5563 2.8084 2.9489 3.6085l1.8971 1.0902-1.8971 1.0903c-1.3926.8001-2.4422 2.0845-2.9489 3.6085s-.435 3.1812.2014 4.6558c.7812 1.82 1.7768 3.5402 2.9656 5.1243.9629 1.2822 2.3634 2.1661 3.9352 2.4836 1.5718.3176 3.2055.0468 4.5907-.761l1.8753-1.0902v2.1805c-.011 1.6105.5725 3.1684 1.6387 4.3755 1.0662 1.207 2.5402 1.9783 4.1397 2.1662 1.9557.2326 3.9319.2326 5.8875 0 1.5996-.1879 3.0736-.9592 4.1398-2.1662 1.0662-1.2071 1.6497-2.765 1.6387-4.3755v-2.1805l1.8753 1.0902c1.3852.8078 3.0189 1.0786 4.5907.761 1.5718-.3175 2.9722-1.2014 3.9352-2.4836 1.1888-1.5841 2.1844-3.3043 2.9656-5.1243.6364-1.4746.708-3.1318.2014-4.6558-.5067-1.524-1.5563-2.8084-2.9489-3.6085zm-1.2647 6.5417c-.638 1.4911-1.4583 2.8973-2.4423 4.1866-.3194.4335-.7879.7336-1.3153.8423s-1.0764.0184-1.5412-.2535l-3.0309-1.7663c-.3593-.2049-.7693-.3035-1.1825-.2842-.4131.0193-.8122.1557-1.1507.3933-.5772.3857-1.1822.7283-1.8099 1.0248-.3744.1783-.6902.4597-.9104.8112-.2201.3515-.3355.7584-.3325 1.1731v3.5107c.0033.5391-.1933 1.0602-.5517 1.4629-.3583.4027-.8532.6584-1.389.7177-1.6076.1962-3.2332.1962-4.8408 0-.5358-.0593-1.0307-.315-1.3891-.7177s-.5549-.9238-.5516-1.4629v-3.4889c.003-.4147-.1124-.8216-.3325-1.1731-.2202-.3515-.536-.6329-.9104-.8112-.6277-.2965-1.2327-.6391-1.8099-1.0248-.3828-.2676-.8414-.4052-1.3083-.3925-.382-.0027-.758.0951-1.0903.2834l-3.031 1.7663c-.4648.2719-1.0137.3622-1.5411.2535s-.996-.4087-1.3154-.8423c-.9839-1.2892-1.8042-2.6955-2.4422-4.1866-.2225-.4957-.252-1.0567-.0826-1.5729.1694-.5163.5255-.9507.9984-1.2182l3.0528-1.7445c.3599-.2059.6536-.5101.8467-.877s.2776-.7813.2436-1.1945c-.0946-.7238-.0946-1.4568 0-2.1806.034-.4132-.0505-.8275-.2436-1.1944s-.4868-.6712-.8467-.8771l-3.0528-1.7444c-.4729-.2675-.829-.7019-.9984-1.2182s-.1399-1.0772.0826-1.5729c.6648-1.4641 1.507-2.8409 2.5076-4.0995.3195-.4335.788-.7335 1.3154-.8422s1.0764-.0184 1.5412.2535l3.0309 1.7662c.3592.205.7693.3036 1.1825.2843.4131-.0193.8122-.1557 1.1507-.3933.5772-.3857 1.1822-.7283 1.8099-1.0248.3744-.1784.6902-.4598.9104-.8112.2201-.3515.3355-.7584.3325-1.1731v-3.5107c-.0033-.5391.1932-1.0603.5516-1.463.3584-.4026.8533-.6583 1.3891-.7176 1.6076-.1962 3.2332-.1962 4.8408 0 .5358.0593 1.0307.315 1.389.7176.3584.4027.555.9239.5517 1.463v3.5107c-.003.4147.1124.8216.3325 1.1731.2202.3514.536.6328.9104.8112.6277.2965 1.2327.6391 1.8099 1.0248.3385.2376.7376.374 1.1507.3933.4132.0193.8232-.0793 1.1825-.2843l3.0309-1.7662c.4648-.2719 1.0138-.3622 1.5412-.2535s.9959.4087 1.3153.8422c.984 1.2893 1.8043 2.6956 2.4423 4.1867.2225.4957.252 1.0566.0826 1.5729-.1695.5163-.5255.9507-.9985 1.2182l-3.0527 1.7444c-.3599.206-.6536.5102-.8467.8771s-.2776.7813-.2436 1.1945c.0948.7237.0948 1.4568 0 2.1805-.034.4132.0505.8276.2436 1.1945s.4868.6711.8467.877l3.0527 1.7445c.4522.2653.7937.6846.9619 1.1812s.1519 1.0372-.046 1.5227zm-12.1675-11.3825c.2044.2027.3666.4439.4773.7096s.1677.5507.1677.8386c0 .2878-.057.5728-.1677.8386-.1107.2657-.2729.5069-.4773.7096-.2027.2043-.4439.3666-.7096.4773s-.5507.1677-.8386.1677-.5729-.057-.8386-.1677-.5069-.273-.7096-.4773l-.6324-.6542v7.85c0 .5783-.2297 1.1329-.6386 1.5419-.409.4089-.9636.6386-1.5419.6386s-1.133-.2297-1.5419-.6386c-.4089-.409-.6387-.9636-.6387-1.5419v-7.8282l-.6323.6542c-.4106.4106-.9675.6413-1.5482.6413s-1.1376-.2307-1.5482-.6413-.6413-.9675-.6413-1.5482.2307-1.1376.6413-1.5482l4.3611-4.3611c.2027-.2044.4439-.3666.7096-.4773s.5507-.1677.8386-.1677.5729.057.8386.1677.5069.2729.7096.4773z" fill="url(#b)"/></svg>