<svg fill="none" height="56" viewBox="0 0 242 56" width="242" xmlns="http://www.w3.org/2000/svg"><path d="m225.99 39.4991c-.532-.0079-1.054.142-1.5.4308s-.797.7035-1.007 1.1916c-.211.4881-.272 1.0278-.176 1.5506s.346 1.0054.716 1.3865c.371.3812.846.644 1.366.755s1.061.0652 1.555-.1314.918-.5353 1.219-.9733c.302-.4379.467-.9554.474-1.487.01-.3541-.05-.7067-.178-1.0369-.128-.3303-.322-.6313-.569-.8854-.247-.254-.542-.4558-.869-.5933-.326-.1375-.677-.208-1.031-.2072zm0 4.9799c-.459.0115-.911-.1149-1.298-.3628-.386-.248-.69-.6061-.871-1.0282s-.231-.8888-.145-1.3398c.087-.451.307-.8656.632-1.1904.325-.3247.739-.5447 1.19-.6315s.918-.0364 1.34.1447c.422.181.78.4844 1.028.871s.375.8387.363 1.2978c0 .5939-.236 1.1634-.656 1.5834-.42.4199-.989.6558-1.583.6558zm1.169-2.8796c.006-.1244-.015-.2487-.06-.3648-.045-.1162-.114-.2217-.202-.3098-.088-.088-.193-.1568-.309-.2018s-.241-.0653-.365-.0596h-1.245v3.1349h.389v-1.254h.547l.779 1.245h.542l-.855-1.245c.228-.0226.438-.1347.584-.3118.146-.177.216-.4046.195-.6331zm-1.792.5419v-1.1644h.856c.153.0148.295.0874.396.203.102.1157.155.2657.15.4195.002.0721-.011.1437-.038.2106s-.067.1276-.118.1784c-.051.0507-.112.0905-.179.1168s-.139.0386-.211.0361zm16.633-35.87143c-2.723 5.13663-6.27 6.92353-11.814 6.91453-4.505 0-9.1-1.236-13.533-2.7139v28.7151c0 3.5021.855 4.3574 4.823 4.3574v1.1062h-14.94v-1.1062c3.968 0 4.823-.8553 4.823-4.3574v-30.50639c-3.214-1.07476-6.579-1.62958-9.969-1.64354-9.337 0-12.091 4.47833-12.091 8.11923-.022 1.512.45 2.9899 1.343 4.2096l-.626.5732c-1.169-1.0121-2.293-3.4841-2.293-5.5889 0-4.43357 3.958-9.61947 16.01-9.62843 11.294 0 20.412 5.05156 28.419 5.03812 3.82 0 7.165-1.07928 9.114-3.87823zm-143.4499 45.75513.4747.7613c-2.6913 1.7198-5.8165 2.6378-9.0104 2.6467-16.9101 0-28.4418-19.9375-41.0036-35.6341-.0358-.0493 0 15.289 0 15.289 0 7.237 1.0569 8.4551 5.4905 8.4551v1.1062h-12.4722v-1.1062c4.5142 0 5.5935-1.3435 5.5128-8.8223v-16.6549c-7.4474-9.38658-15.4681-16.62357-26.14-16.63252-11.90336 0-16.69965 9.10442-16.69965 16.73102 0 5.374 2.14064 9.7762 6.34135 9.7762.8257.0348 1.6426-.1823 2.3421-.6225l.4479.7434c-.8554.6986-2.2974 1.1241-3.86036 1.1151-6.36371.0179-9.97324-5.1635-9.97324-11.0122 0-8.0834 6.7981-18.16409037 21.8184-18.16409037 21.9797-.07613163 34.3891 20.60029037 46.3955 36.12669037.0627.0806 0-12.1273 0-12.1273 0-7.0803-.9673-8.3924-5.4009-8.3924v-1.1554h12.4498v1.1554c-4.438 0-5.5979 1.648-5.5979 8.7327 0 0-.0493 13.5022 0 13.5649 7.1071 9.0149 13.7753 15.7548 22.3558 15.7548 2.3287 0 4.7426-.3673 6.5294-1.6346zm4.7199-17.2729h.703l-1.558 8.9566c-3.3259.9037-6.7553 1.3704-10.2017 1.3883-10.3405 0-16.4892-6.5876-16.4892-15.3025 0-9.185 6.7712-15.6428 16.6459-15.6741 2.4183 0 4.6754.403 7.0892.403 1.0458.0111 2.0898-.094 3.1128-.3134l.877 9.7224h-.698c-2.571-6.3816-5.7817-8.6029-10.1481-8.6118-7.7206.0089-11.0973 7.0713-11.0973 14.1381 0 7.3937 3.408 14.4291 11.0256 14.4291 5.6875 0 8.4818-3.8468 10.7388-9.1357zm-65.1325-.0807h.7031l-.936 9.9778h-24.9801v-1.1062c3.8916 0 4.438-1.0882 4.438-4.3574v-19.3777c0-3.2647-.5464-4.2007-4.438-4.2007v-1.142h24.7472l.5464 9.2343h-.7031c-1.3435-6.0681-3.8111-8.0923-11.4377-8.0923h-3.4259v27.9358h3.8917c6.7712 0 9.8075-1.9436 11.5944-8.8716zm82.8755 8.8716v1.0659h-14.16v-1.0659c3.892 0 4.433-1.0882 4.433-4.4335v-19.1449c0-3.1886-.541-4.3574-4.433-4.3574v-1.1285h14.16v1.1285c-3.887 0-4.357 1.1688-4.357 4.3574v19.1449c0 3.3453.47 4.4335 4.357 4.4335zm63.19-25.1369c-2.025-2.4093-3.189-3.6856-6.848-3.6856h-5.526v.8956c4.281 0 4.586 2.0556 4.586 6.5653v6.3726c0 13.6186.085 14.989-3.972 14.9801-3.413 0-3.803-1.0032-5.822-5.8219l-10.121-22.9604h-.762l-8.401 19.8435c-2.239 5.7233-4.062 8.9567-7.73 8.9567-2.167 0-2.713-1.1554-2.713-4.1156v-19.4718c0-3.1886.447-4.3574 4.438-4.3574v-1.1285h-14.147v1.1285c3.891 0 4.433 1.1688 4.433 4.3574v19.4449c0 3.2692-.542 4.1246-4.433 4.1246v1.1016h24.124v-1.0927c-3.269 0-4.232-1.4017-4.241-3.2781 0-1.657 1.545-5.5173 1.545-5.5173h10.748l1.523 3.4393c.466.8879.73 1.8685.77 2.8706 0 1.7197-1.312 2.499-3.65 2.499v1.1016h25.975v-1.1151c-5.374 0-6.01-1.7107-6.01-15.0964v-8.1685c0-.3896-.032-.5464.157-.5464.076 0 .237.1254.385.309l21.017 24.183c.103.112.179.1612.228.1612s.081-.0806.081-.2239v-6.7667c0-.7748-.001-.8554-.623-1.554-4.971-5.9159-15.011-17.4342-15.011-17.4342zm-35.052 14.989 4.769-11.263 5.061 11.2451zm44.47-14.5277c3.049 0 5.374-2.1496 5.374-5.9383h1.039c0 3.7887 2.283 5.9383 5.333 5.9383v1.0748c-3.05 0-5.324 2.0332-5.324 5.7905v2.987h-1.089v-2.987c0-3.7573-2.284-5.7905-5.333-5.7905zm-75.393 10.1076c.713.0121 1.42-.1192 2.081-.3859.661-.2668 1.262-.6636 1.766-1.1669.505-.5034.903-1.103 1.172-1.7632.268-.6603.401-1.3677.391-2.0804h.963c-.014.7104.116 1.4163.381 2.0755.265.6593.66 1.2585 1.162 1.762.501.5034 1.099.9009 1.757 1.1687.658.2679 1.363.4005 2.074.3902v.9225c-.713-.0061-1.419.1307-2.078.4022-.658.2716-1.256.6725-1.757 1.1789s-.895 1.1082-1.16 1.7696c-.264.6615-.393 1.3693-.379 2.0816h-.963c.01-.7133-.123-1.4214-.391-2.0824-.268-.6609-.667-1.2614-1.171-1.7658s-1.105-.9025-1.766-1.1708c-.661-.2682-1.369-.4011-2.082-.3909zm-94.045.1747c.7139.0121 1.423-.1197 2.0849-.3876s1.263-.6664 1.7675-1.1717c.5045-.5054.902-1.1072 1.1688-1.7695s.3975-1.3716.3841-2.0855h.9629c-.0133.7104.1164 1.4162.3815 2.0755.2651.6592.6601 1.2584 1.1615 1.7619s1.0989.901 1.757 1.1688c.6582.2678 1.3635.4005 2.074.3901v.9226c-.7124-.0061-1.4187.1306-2.0773.4022s-1.2561.6724-1.7571 1.1788c-.501.5065-.8954 1.1082-1.1598 1.7697-.2645.6615-.3936 1.3693-.3798 2.0815h-.9629c.0085-.7116-.1257-1.4176-.3945-2.0765-.2688-.6588-.6669-1.2572-1.1707-1.7598-.5038-.5025-1.1031-.8991-1.7627-1.1663-.6595-.2671-1.3659-.3995-2.0774-.3893z" fill="#fff"/></svg>