<svg fill="none" height="67" viewBox="0 0 137 67" width="137" xmlns="http://www.w3.org/2000/svg" xmlns:xlink="http://www.w3.org/1999/xlink"><clipPath id="a"><path d="m0 0h136.715v66.4586h-136.715z"/></clipPath><g clip-path="url(#a)" fill="#fff"><path d="m57.1762 42.5917-1.516-1.5154 1.9492-1.9483c3.2486-3.2471 3.2486-8.4967 0-11.6897l-1.9492-1.9483 1.516-1.5154 1.9492 1.9483c4.0609 4.059 4.0609 10.6615 0 14.7746z"/><path d="m33.2447 66.4586-33.2447-33.2293 33.2447-33.2293 19.8169 19.8077-1.516 1.5695-18.3009-18.2924-30.15846 30.1445 30.15846 30.1986 18.3009-18.3465 1.5701 1.5695z"/><path d="m95.9435 46.543v.0529l-.0529-.0529z"/><path d="m95.9435 46.543v.0529l-.0529-.0529z"/><path d="m95.9435 46.543v.0529l-.0529-.0529z"/><path d="m95.9435 46.543v.0529l-.0529-.0529z"/><path d="m96.1074 65.539 2.1116-1.7859v-14.9911l-2.1116-1.84zm3.4652-8.3343h7.0934v-2.0025h-7.0934zm12.3454-10.4992 7.58 18.9959h1.299l.433-1.0824-7.093-17.9135zm-28.1014 0h-3.9526l2.0034 2.0024h1.8409c2.5448 0 4.0608 1.353 4.0608 3.626s-1.4619 3.5178-4.0608 3.5178h-3.4111v-6.8191l-2.1117-2.1106v18.7794h2.1117v-7.7932h3.7901.2166c.2166 0 .4331-.0541.6497-.0541l.2166-.0541c.1624-.0541.3249-.0541.4331-.1083h.1083.0542.0541.0542c.1083 0 .2165-.0541.3248-.1082h.0542.1083c.4873-.1624.9746-.433 1.3536-.7036 1.4619-.9741 2.274-2.5977 2.274-4.4377-.1082-4.0049-3.1403-5.7367-6.1724-5.7367zm15.9185-43.67435-2.1117-1.84006v18.61711l2.1117-1.786zm1.3539 8.38855h7.093v-2.00247h-7.093zm-20.5211-5.7367 2.5448 3.3554.1624.2706 8.0134 10.6615h1.4078v-1.5153l-2.3282-3.0848-10.8289-14.395791h-1.3537v1.569461zm12.1825-4.708391h-2.0033v12.555691l2.0033 2.706zm24.5276 12.339191-3.736-12.339191h-2.166l4.765 15.640491zm17.326-12.339191-4.819 12.339191 1.083 3.2472 5.848-15.586391zm-35.248 24.840791-2.1116-1.84v18.617l2.1116-1.7859zm1.3 8.4426h7.092v-2.0024h-7.092zm-17.8682-10.4991h-2.9238l2.0575 2.0565h.758c5.0896 0 8.0134 2.706 8.0134 7.4685 0 4.7084-2.9779 7.4685-8.0134 7.4685h-.758l-2.0575 2.0565h2.9238c6.1184 0 10.0168-3.7342 10.0168-9.525s-3.8984-9.525-10.0168-9.525zm29.1842 0 7.58 18.9959h1.299l.434-1.0824-7.093-17.9135z"/><path d="m99.5185 64.7814-1.1371.9741h9.5836v-2.0024h-8.4465zm8.0675-16.0735v-2.0024h-9.2046l1.1371.9741v1.0283zm13.265 11.4733 1.083 2.706 6.389-16.1276h-2.165zm-34.3813-1.4612c-.1083.0541-.1625.0541-.1625.0541-.1083.0541-.2166.0541-.379.1083-.0541 0-.1624.0541-.2707.0541-.1624.0541-.3249.1082-.5415.1082l-.2165.0541c-.1083 0-.1625 0-.2708.0542l4.1692 6.5484h2.4365l-4.494-7.0896c-.1083.0541-.1625.1082-.2707.1082zm14.5653-39.7236-1.1375.9741h9.5835v-2.0024h-8.446zm0-16.01937h8.067v-2.002421h-9.2045l1.1375.974151zm-20.792 4.49191-2.0575-2.70597v15.20753h2.0575zm49.975 11.20276-1.245-3.6802-4.819-14.016891h-1.299l-3.086 9.092091-1.679 4.8707v.0541l-1.299 3.7884.162.5412.217.7035h1.299l5.036-14.6122 4.981 14.6122h1.299l.379-1.2447zm-29.562 23.1089-1.1375.9742h9.5835v-2.0024h-8.446zm8.067-16.0193v-2.0024h-9.2045l1.1375.9741v1.0283zm-30.5375 16.777 2.1117-2.1107v-14.3416l-2.1117-2.1106zm42.7205-5.3578 1.082 2.706 6.39-16.1276h-2.166z"/></g></svg>