<svg fill="none" height="90" viewBox="0 0 90 90" width="90" xmlns="http://www.w3.org/2000/svg" xmlns:xlink="http://www.w3.org/1999/xlink"><radialGradient id="a" cx="0" cy="0" gradientTransform="matrix(0 44 -44 0 45 45)" gradientUnits="userSpaceOnUse" r="1"><stop offset=".151042" stop-color="#04e4ff"/><stop offset=".302083" stop-color="#04e4ff"/><stop offset=".463542" stop-color="#9536e5"/><stop offset=".635417" stop-color="#9536e5"/><stop offset=".848958" stop-color="#04e4ff"/><stop offset="1" stop-color="#04e4ff"/></radialGradient><linearGradient id="b" gradientUnits="userSpaceOnUse" x1="67.9992" x2="27.6025" y1="18.6467" y2="59.5288"><stop offset="0" stop-color="#903ce6"/><stop offset="1" stop-color="#04e4ff"/></linearGradient><circle cx="45" cy="45" r="44.5" stroke="url(#a)"/><g clip-rule="evenodd" fill-rule="evenodd"><path d="m58.964 32.9477c1.2539 2.5743 1.9594 5.4603 1.9594 8.5144 0 4.7327-1.6962 9.076-4.5093 12.4508l11.0667 11.0689c.6923.69.6923 1.809 0 2.499-.69.6923-1.8112.6923-2.5013 0l-11.0667-11.0643c-3.3748 2.8131-7.7185 4.5071-12.451 4.5071-10.7418 0-19.4618-8.7199-19.4618-19.4615s8.72-19.4615 19.4618-19.4615c5.5267 0 10.5226 2.3088 14.0657 6.0176l-9.0518 11.0111-5.7211-4.2903c-.7652-.575-1.8466-.4357-2.4437.3096l-7.077 8.8461c-.6104.763-.4866 1.8754.2764 2.488.1172.0929.2455.1725.3804.2322l6.4203-8.028c.5971-.7453 1.6785-.8846 2.4437-.3097l5.7211 4.2904 13.6609-16.6194-1.0572.1039c-.9708.0951-1.8378-.6147-1.9351-1.5856-.0951-.9731.6148-1.84 1.5879-1.9351l5.2812-.5242c.073-.0044.146-.0088.2167-.0066.3915.0022.7829.1327 1.1102.4025.4667.3826.6856.9554.6392 1.5149l.4909 4.9582c.0974.9731-.6148 1.84-1.5857 1.9374-.9731.0928-1.84-.6148-1.9351-1.5879l-.0995-1.0062z" fill="#f2f2f2"/><path d="m58.964 32.9477c1.2539 2.5743 1.9594 5.4603 1.9594 8.5144 0 4.7327-1.6962 9.076-4.5093 12.4508l11.0667 11.0689c.6923.69.6923 1.809 0 2.499-.69.6923-1.8112.6923-2.5013 0l-11.0667-11.0643c-3.3748 2.8131-7.7185 4.5071-12.451 4.5071-10.7418 0-19.4618-8.7199-19.4618-19.4615s8.72-19.4615 19.4618-19.4615c5.5267 0 10.5226 2.3088 14.0657 6.0176l-9.0518 11.0111-5.7211-4.2903c-.7652-.575-1.8466-.4357-2.4437.3096l-7.077 8.8461c-.6104.763-.4866 1.8754.2764 2.488.1172.0929.2455.1725.3804.2322l6.4203-8.028c.5971-.7453 1.6785-.8846 2.4437-.3097l5.7211 4.2904 13.6609-16.6194-1.0572.1039c-.9708.0951-1.8378-.6147-1.9351-1.5856-.0951-.9731.6148-1.84 1.5879-1.9351l5.2812-.5242c.073-.0044.146-.0088.2167-.0066.3915.0022.7829.1327 1.1102.4025.4667.3826.6856.9554.6392 1.5149l.4909 4.9582c.0974.9731-.6148 1.84-1.5857 1.9374-.9731.0928-1.84-.6148-1.9351-1.5879l-.0995-1.0062z" fill="url(#b)"/></g></svg>