<svg fill="none" height="90" viewBox="0 0 91 90" width="91" xmlns="http://www.w3.org/2000/svg" xmlns:xlink="http://www.w3.org/1999/xlink"><radialGradient id="a" cx="0" cy="0" gradientTransform="matrix(0 44 -44.4541 0 45.5459 45)" gradientUnits="userSpaceOnUse" r="1"><stop offset=".151042" stop-color="#158009"/><stop offset=".302083" stop-color="#158009"/><stop offset=".463542" stop-color="#158009"/><stop offset=".635417" stop-color="#158009"/><stop offset=".848958" stop-color="#158009"/><stop offset="1" stop-color="#158009"/></radialGradient><linearGradient id="b"><stop offset="0" stop-color="#158009"/><stop offset="1" stop-color="#158009"/></linearGradient><linearGradient id="c" gradientUnits="userSpaceOnUse" x1="65.8323" x2="44.9787" xlink:href="#b" y1="25.368" y2="46.0174"/><linearGradient id="d" gradientUnits="userSpaceOnUse" x1="70.2927" x2="62.8375" xlink:href="#b" y1="22.0904" y2="29.5195"/><linearGradient id="e" gradientUnits="userSpaceOnUse" x1="63.7978" x2="26.5491" xlink:href="#b" y1="27.0004" y2="66.8833"/><path d="m45.5459 89.5c24.8226 0 44.9541-19.9185 44.9541-44.5s-20.1315-44.5-44.9541-44.5-44.954103 19.9185-44.954103 44.5 20.131503 44.5 44.954103 44.5z" stroke="url(#a)"/><path d="m61.996 25.7192-1.1213 1.088-2.5303 2.5044c-3.1499 3.1178-6.2925 6.2355-9.4424 9.3606-.2434.2409-.4574.5403-.6049.8397-.7525 1.5041-1.4975 3.0009-2.2426 4.4977l-.5311 1.0734c-.1328.2628-.2213.5184-.273.7812-.1401.774.3025 1.4603 1.0328 1.6283.2213.0511.4426.0511.7008 0 .2213-.0511.4721-.1461.7524-.2775l1.0328-.5038c1.2393-.5987 2.4787-1.2048 3.718-1.8181l.1623-.0803c.5532-.2702 1.1803-.5841 1.7557-1.1463 1.6672-1.6648 3.3417-3.3223 5.0163-4.9797l7.222-7.1701c.0516-.0438.0885-.0803.1254-.1169l.4869-.4526zm-10.04 17.02c-.6786.3285-1.3721.6717-2.0655 1.0222-.0664.0292-.1254.0511-.177.0511v.1095l-.0148-.1095c-.0443-.0073-.0959-.0219-.177-.0949-.0738-.0877-.155-.168-.2361-.2556-.0811-.073-.1697-.1606-.2508-.2482-.0369-.0511-.0664-.1534-.0295-.2191.3541-.7228.7082-1.4311 1.0696-2.1539l.2508-.5112c.0074-.0073.0148-.0219.0369-.0438l1.0697 1.0734c.3688.3577.7303.7228 1.1065 1.0952z" fill="url(#c)"/><path d="m70.2448 25.3023c-.8491-.8557-1.7071-1.6998-2.5731-2.5395-.8093-.7929-2.0604-.7155-2.9788.1797-.45.4366-.8867.8754-1.3301 1.3135l-.3629.3549c-.028.0336-.0649.073-.093.1066l-.028-.0263.3932.387.1158.1146 4.4291 4.3612.4714.4593.5304-.5192c.4161-.4103.8328-.8206 1.2437-1.2383.9177-.9163.9915-2.1335.1823-2.9535z" fill="url(#d)"/><path d="m66.5428 56.1156c0 2.3584-.9811 3.3441-3.3417 3.3441-4.4704.0073-8.9334.0073-13.4039 0 .0591.8762.1328 1.7305.1918 2.5775.0296.3723.1033.7155.2361 1.0222.0148.0292.0221.0584.0369.0876.2582.5987.7008 1.0733 1.3278 1.4457.1623.0949.3172.1898.4795.2848.0443.0292.0886.0511.1328.0803.3836.2263.7672.46 1.1508.679.2803.168.5385.3724.4721.7302-.0811.4016-.45.2993-.7377.2993-5.2449.0073-10.5047 0-15.7644 0-.1107 0-.2139.0146-.3246 0-.332-.0584-.4647-.2701-.3246-.5695.0885-.1752.2582-.3432.4426-.4527.3763-.2336.7599-.4527 1.1435-.6863.0221-.0146.0516-.0292.0737-.0438.2287-.1388.4574-.2775.6935-.4235.5532-.3432.959-.7959 1.195-1.3581.0295-.0657.059-.1387.0812-.2118.0737-.1898.118-.3942.1475-.606.1033-.7301.1328-1.4749.1844-2.2124.0148-.219.0369-.4307.0443-.6425h-13.5219c-2.2278 0-3.2532-1.0295-3.2532-3.2565v-25.3875c.0074-2.1174 1.0918-3.1762 3.2532-3.1762 9.922-.0073 19.0472-.0146 28.9691-.0073l-1.7114 1.6721c-.627.6206-1.2467 1.234-1.8737 1.8546l-24.0119.0073c-1.1877 0-1.2393.0438-1.2393 1.1755 0 6.4181.0074 12.8289-.0148 19.2396-.0073.8251.2287 1.1391 1.114 1.1391 11.1907-.0219 22.3815-.0146 33.5796-.0146 1.1656 0 1.2025-.0365 1.2025-1.2048l.0074-12.5514 3.3712-3.3514c.0074 7.1336 0 13.3911-.0074 20.5174z" fill="url(#e)"/></svg>