<svg fill="none" height="41" viewBox="0 0 245 41" width="245" xmlns="http://www.w3.org/2000/svg"><g fill="#fff"><path d="m109.533 30.8887h-109.533l23.0608-30.8887h109.5512l-23.061 30.8887m-59.7881-22.96012-7.5555 10.01092s-1.3594 1.8213-.7282 3.6425c.3341.8108.8899 1.5109 1.6038 2.0199.7138.509 1.5567.8063 2.4318.8577l3.5684.1761h.7282c1.5065.0408 3.0078-.1937 4.4301-.6921 1.5041-.7259 2.865-1.7171 4.0175-2.9262.2427-.2732 10.0193-13.12524 10.0193-13.12524h-7.6586l-7.5009 10.36304c-.2838.3731-.6514.6742-1.0731.8788s-.8857.307-1.3543.2989c-.8193 0-1.857-.9531-.7222-2.2219.4491-.5221 7.0761-9.28242 7.0761-9.28242zm-9.2972.07893h-.1456l-10.5837.04249-11.9553 16.1243h6.6755l2.9008-3.6h6.8576c4.7639 0 6.6755-2.9384 6.6755-2.9384l2.3182-3.1447s1.6022-2.1855.7586-4.4499c-.7039-1.88809-2.8765-2.02772-3.4955-2.02772m30.4342-.07892-12.1373 16.21534h6.6756l6.1657-7.7586.352 3.8004 7.0153-3.5697-5.7045 7.4672h7.0275l12.1373-16.20928h-8.0106l-7.0518 4.21928-.4551-4.17072h-6.0201m21.6832 12.90672h4.7518l-2.4275 3.2176h6.9785s6.379-8.0622 6.87-8.7846c.495-.7812.769-1.6819.794-2.6064.024-.9246-.202-1.8385-.654-2.6449-1.214-2.05199-3.933-2.13091-4.339-2.13091h-9.2793l-12.0645 16.16681h6.8819zm8.9148-5.051h-5.1158l2.0391-2.7622h3.4467c.171-.0243.345.0122.491.1032.147.091.256.2307.31.3946.066.2254.04.4677-.073.6738zm-67.5136-.1518h-2.2697l2.2212-2.9565h1.8691c.2792 0 1.0499.0486 1.2137.5585.2246.771-.6675 1.7545-1.0741 1.9974-.5944.2961-1.2543.436-1.9177.4067"/><path d="m221.914 30.8887h-109.721l23.079-30.8887h109.728l-23.061 30.8887m-44.726-13.4835c2.289.1018 4.546.586 6.675 1.4328 3.642 1.287 7.89 2.3494 7.89 2.3494 7.804 1.1413 16.992 4.626 18.812 5.1542.857.2776 1.747.4409 2.646.4857.704 0 1.214-.1943 1.287-.7103.152-1.0624-1.517-1.0624-2.573-1.0624-1.029-.1148-2.036-.3744-2.992-.771 0 0-4.934-2.9566-6.597-4.0918-1.663-1.1353-2.045-2.1248-.758-2.3494.246-.0461.496-.0684.746-.0668.995 0 1.93.3035 2.962.3642 1.298.0789 1.905-.0728 2.888.686.223.2013.508.3212.807.34.121-.0041.24-.0372.345-.0963.106-.0591.196-.1427.262-.2437.796-.5202 1.509-1.159 2.112-1.8941.534-.8317.079-1.2142.079-1.2142s-.303-.7588-1.135-2.8776c-.728-1.8819-3.077-2.2158-3.805-2.2158h-.206c-.034.0056-.069.0056-.103 0-.085-.0085-.168-.0339-.243-.0745-.075-.0407-.141-.0958-.194-.1623l-.753-.98349s-2.251 1.82129-3.902 1.82129c-.089.006-.178.006-.267 0-2.949-.4007-3.101-2.04591-11.209-3.03547-1.444-.16279-2.897-.23982-4.351-.23069-7.568 0-16.349 1.72413-17.854 1.97911-.448.06585-.9.09625-1.353.09105-1.176-.0207-2.348-.12828-3.508-.32174-4.228-.51386-8.485-.76123-12.744-.74065-4.796-.00129-9.589.24795-14.358.74672 0 0-2.501.30357-2.349 1.06237.152.7589 2.197.7589 2.197.7589h.443c1.08 0 7.282-.8256 11.913-.8256h.139c4.643 0 10.08.4431 10.08.4431h.049c1.607.0698 3.208.2381 4.794.5039.35.0523.685.1763.985.3643.3.1881.557.4361.757.7285.224.3521.121.7649-.304 1.3659-1.07 1.0716-2.25 2.0279-3.52 2.8533-.865.4681-1.846.6787-2.828.6071-.479 0-.958 0-1.438-.0364h-.133c-.392-.02-.782.0551-1.139.219-.356.1639-.667.4116-.906.722-1.412 1.4137-3.011 2.627-4.752 3.6061-.611.3201-1.197.6853-1.754 1.0928-.898.4657-1.88.7464-2.889.8256-.922.0789-.995.4796-.995.4796l-.686 1.1535c-.388.6071.316.6435.316.6435.705.1256 1.42.1946 2.136.2064 2.427 0 3.641-1.0685 6.797-2.9565 2.67-1.6088 4.248-1.9549 5.777-1.9549.789 0 1.584.0911 2.543.1518.607.0364 1.214.0607 1.821.0607 1.476.0605 2.946-.2199 4.296-.8195 2.238-1.1482 4.542-2.1619 6.9-3.0355.993-.3571 2.041-.534 3.095-.5221"/><path d="m24.2372 40.474h-2.8462c-.1456 0-.182 0-.182-.1821v-5.5609c0-.1579.0364-.1822.182-.1822h2.8341c.176 0 .2245 0 .2245.0972l-.0364.1214-.1638.5767c-.003.0216-.0102.0425-.0213.0612-.0112.0188-.0259.0352-.0434.0482-.0176.013-.0375.0224-.0587.0276s-.0432.0061-.0648.0026h-1.681v1.4267h1.4626c.1638 0 .1881 0 .1881.1821v.5464c0 .1579-.0364.1821-.1881.1821h-1.4626v1.6938h1.8206c.1639 0 .1882 0 .1882.1821v.5707c0 .1579 0 .1821-.176.1821"/><path d="m39.5978 40.474h-.5705c-.1213 0-.1517 0-.2002-.1214l-1.5779-2.9505c-.2194-.3648-.3849-.7594-.4915-1.1716v.947 3.1144c0 .1578 0 .1821-.176.1821h-.6069c-.1517 0-.176 0-.176-.1821v-5.5609c0-.1579 0-.1822.176-.1822h.71c.1275 0 .1518 0 .2003.1093l1.4261 2.6833c.2101.4008.3788.8218.5037 1.2567 0-.2732 0-.8803 0-1.1231v-2.744c0-.1579.0365-.1822.176-.1822h.6069c.1517 0 .1881 0 .1881.1822v5.5609c0 .1578 0 .1821-.1881.1821z"/><path d="m54.5204 40.474h-2.8401c-.1517 0-.1881 0-.1881-.1821v-5.5609c0-.1579.0364-.1822.1881-.1822h2.8401c.1639 0 .2124 0 .2124.0972v.1214l-.1638.5767c-.0102.0452-.0372.0847-.0756.1107-.0383.0259-.0851.0363-.1307.0289h-1.6993v1.4267h1.4626c.1638 0 .1881 0 .1881.1821v.5464c0 .1579-.0364.1821-.1881.1821h-1.4626v1.6938h1.857c.1518 0 .176 0 .176.1821v.5707c0 .1579 0 .1821-.176.1821"/><path d="m68.9689 40.6258c-.0486 0-.1153-.1093-.2003-.2732l-1.1712-2.3252h-.4188v2.2645c0 .1578 0 .1821-.1759.1821h-.8072c-.1396 0-.176 0-.176-.1821v-5.5609c0-.1579.0364-.1822.176-.1822h1.4019c.6675 0 2.0148.0486 2.0148 1.6695.0267.3369-.0541.6735-.2307.9615-.1767.288-.4401.5125-.7525.6412l1.2866 2.307.0789.1639-.1821.1093-.7282.2003h-.1153m-1.8206-5.1663v1.6573h.2245c.5705 0 1.0499-.085 1.0499-.8802 0-.7953-.5037-.7771-.9467-.7771z"/><path d="m83.2247 40.6248c-1.5293 0-2.3243-.9896-2.3243-3.084 0-2.0945.795-3.1326 2.3364-3.1326.7829 0 1.6143.3764 1.6143.5221l-.0546.1275-.2731.6071-.1032.085c-.3369-.2184-.7226-.3498-1.1227-.3825-.88 0-1.1591.8196-1.1591 2.143 0 1.3235.2124 2.2038 1.1591 2.2038.2096 0 .4167-.0456.6069-.1336v-1.287h-.6433c-.1396 0-.176 0-.176-.1761v-.5767c0-.1518.0364-.1821.176-.1821h1.5172c.1335 0 .1759.0303.1759.1821v2.4283c0 .3643-1.0256.68-1.7295.68"/><path d="m98.4335 40.4744h-.789c-.1578 0-.1942 0-.1942-.1821v-2.2463l-1.6264-3.1508-.0485-.1821.176-.0971.8678-.1336h.091l.1214.1154.71 1.4813c.1393.3036.253.6184.3399.941.0969-.3487.2249-.688.3823-1.0139l.6433-1.3477c.0728-.1761.0971-.1761.1395-.1761h.1336l.7338.1579.152.1092-.061.1397-1.6077 3.1508v2.2462c0 .1578-.0364.1821-.1881.1821"/></g></svg>