<svg fill="none" height="90" viewBox="0 0 90 90" width="90" xmlns="http://www.w3.org/2000/svg" xmlns:xlink="http://www.w3.org/1999/xlink"><radialGradient id="a" cx="0" cy="0" gradientTransform="matrix(0 44 -44 0 45 45)" gradientUnits="userSpaceOnUse" r="1"><stop offset=".151042" stop-color="#158009"/><stop offset=".302083" stop-color="#158009"/><stop offset=".463542" stop-color="#9536e5"/><stop offset=".635417" stop-color="#9536e5"/><stop offset=".848958" stop-color="#158009"/><stop offset="1" stop-color="#158009"/></radialGradient><linearGradient id="b" gradientUnits="userSpaceOnUse" x1="66" x2="38.0424" y1="15.5" y2="49.2942"><stop offset="0" stop-color="#158009"/><stop offset="1" stop-color="#158009"/></linearGradient><circle cx="45" cy="45" r="44.5" stroke="url(#a)"/><g clip-rule="evenodd" fill-rule="evenodd"><path d="m23 26.9286c0-2.722 2.2066-4.9286 4.9286-4.9286h32.8571c2.7221 0 4.9286 2.2066 4.9286 4.9286v9.8571h-3.2857v-4.9286h-17.0843l-1.7848 2.578c-.3069.4433-.8115.7078-1.3507.7078h-15.9231v19.7142c0 .9074.7356 1.6429 1.6429 1.6429h19.7143v3.2857h-19.7143c-2.722 0-4.9286-2.2065-4.9286-4.9286zm6.5714 3.2857c.9073 0 1.6429-.7356 1.6429-1.6429s-.7356-1.6428-1.6429-1.6428-1.6428.7355-1.6428 1.6428.7355 1.6429 1.6428 1.6429zm6.5715-1.6429c0 .9073-.7356 1.6429-1.6429 1.6429s-1.6429-.7356-1.6429-1.6429.7356-1.6428 1.6429-1.6428 1.6429.7355 1.6429 1.6428zm3.2857 1.6429c.9073 0 1.6428-.7356 1.6428-1.6429s-.7355-1.6428-1.6428-1.6428c-.9074 0-1.6429.7355-1.6429 1.6428s.7355 1.6429 1.6429 1.6429zm14.7851 37.7857c-2.722 0-4.9285-2.2065-4.9285-4.9286v-19.7143c0-2.722 2.2065-4.9285 4.9285-4.9285h9.8572c2.722 0 4.9285 2.2065 4.9285 4.9285v19.7143c0 2.7221-2.2065 4.9286-4.9285 4.9286zm11.5-24.6429v16.7186h-2.8778c-.0501-.8624-.7652-1.5463-1.64-1.5463h-4.1072c-.8748 0-1.5899.6839-1.64 1.5463h-2.8778v-16.7186c0-.9073.7355-1.6428 1.6428-1.6428h9.8572c.9073 0 1.6428.7355 1.6428 1.6428z" fill="#f2f2f2"/><path d="m23 26.9286c0-2.722 2.2066-4.9286 4.9286-4.9286h32.8571c2.7221 0 4.9286 2.2066 4.9286 4.9286v9.8571h-3.2857v-4.9286h-17.0843l-1.7848 2.578c-.3069.4433-.8115.7078-1.3507.7078h-15.9231v19.7142c0 .9074.7356 1.6429 1.6429 1.6429h19.7143v3.2857h-19.7143c-2.722 0-4.9286-2.2065-4.9286-4.9286zm6.5714 3.2857c.9073 0 1.6429-.7356 1.6429-1.6429s-.7356-1.6428-1.6429-1.6428-1.6428.7355-1.6428 1.6428.7355 1.6429 1.6428 1.6429zm6.5715-1.6429c0 .9073-.7356 1.6429-1.6429 1.6429s-1.6429-.7356-1.6429-1.6429.7356-1.6428 1.6429-1.6428 1.6429.7355 1.6429 1.6428zm3.2857 1.6429c.9073 0 1.6428-.7356 1.6428-1.6429s-.7355-1.6428-1.6428-1.6428c-.9074 0-1.6429.7355-1.6429 1.6428s.7355 1.6429 1.6429 1.6429zm14.7851 37.7857c-2.722 0-4.9285-2.2065-4.9285-4.9286v-19.7143c0-2.722 2.2065-4.9285 4.9285-4.9285h9.8572c2.722 0 4.9285 2.2065 4.9285 4.9285v19.7143c0 2.7221-2.2065 4.9286-4.9285 4.9286zm11.5-24.6429v16.7186h-2.8778c-.0501-.8624-.7652-1.5463-1.64-1.5463h-4.1072c-.8748 0-1.5899.6839-1.64 1.5463h-2.8778v-16.7186c0-.9073.7355-1.6428 1.6428-1.6428h9.8572c.9073 0 1.6428.7355 1.6428 1.6428z" fill="url(#b)"/></g></svg>