<svg width="209" height="46" viewBox="0 0 209 46" fill="none" xmlns="http://www.w3.org/2000/svg">
<path d="M165.366 22.993C165.366 36.1222 156.078 45.9691 142.939 45.9691C129.8 45.9691 120.554 36.6036 120.554 22.993C120.554 10.1263 129.517 0.0168386 143.026 0.0168386C156.165 0.0168386 165.366 9.79811 165.366 22.993ZM153.772 22.993C153.772 15.2905 150.813 8.44143 142.895 8.44143C134.977 8.44143 132.018 15.2905 132.018 22.993C132.018 30.6955 135.042 37.5664 142.895 37.5664C150.748 37.5664 153.881 30.6517 153.881 22.993H153.772ZM86.5319 18.901C86.2871 13.5732 84.0032 8.54707 80.1581 4.87465C76.2441 1.54195 71.2292 -0.191642 66.1054 0.0168386C61.1343 0.0571584 56.3161 1.74968 52.4007 4.83089C49.6978 7.05916 47.5322 9.87468 46.0665 13.0659C44.6009 16.2571 43.8733 19.7409 43.9386 23.2556C43.7966 26.3635 44.304 29.4668 45.4281 32.3652C46.5522 35.2636 48.2679 37.8927 50.4646 40.0829C55.1696 44.1758 61.2634 46.2844 67.4758 45.9691C72.9356 45.8604 78.2962 44.4824 83.1383 41.9428C84.1825 41.2864 84.5088 41.0238 84.2478 39.9516L82.377 34.6561C82.3159 34.4633 82.2113 34.2873 82.0715 34.1419C81.9316 33.9965 81.7602 33.8855 81.5706 33.8177C81.3811 33.7499 81.1786 33.7271 80.9788 33.7511C80.7791 33.7751 80.5875 33.8452 80.4192 33.9559C79.2468 34.5701 78.0412 35.118 76.8081 35.597C74.333 36.5878 71.7048 37.1358 69.0421 37.2163C63.7125 37.2163 60.667 35.7502 58.3394 33.0587C56.8333 31.2517 55.9212 29.0193 55.729 26.6692H85.0962C85.3394 26.6666 85.579 26.6086 85.7968 26.4995C86.0146 26.3904 86.205 26.233 86.3536 26.0393C86.5023 25.8455 86.6054 25.6204 86.6551 25.3808C86.7048 25.1412 86.6999 24.8934 86.6407 24.656V22.4678C86.6624 21.505 86.6189 19.8857 86.5319 18.901ZM75.9597 18.726H55.6202C55.8309 17.2578 56.2714 15.8323 56.9254 14.5028C57.7783 12.686 59.1314 11.1534 60.824 10.0869C62.5167 9.02027 64.478 8.4644 66.4752 8.48519C72.3704 8.48519 75.9597 12.5115 75.9597 18.4634V18.726ZM97.1041 6.38451C100.454 2.05187 105.653 0.0168386 114.159 0.0168386C116.17 0.0310141 118.174 0.250967 120.141 0.6733C120.35 0.727345 120.545 0.826867 120.712 0.964865C120.879 1.10286 121.014 1.27599 121.107 1.47205C121.201 1.66812 121.25 1.88238 121.252 2.09974C121.255 2.31711 121.209 2.53231 121.12 2.73021L120.119 7.7412C119.88 8.76966 119.684 8.94471 118.901 8.94471H118.314C117.509 8.76966 115.595 8.57272 114.768 8.57272C110.548 8.57272 108.525 9.64494 107.024 11.2642C105.523 12.8835 105.218 15.947 105.218 20.9361V43.1026C105.253 43.3984 105.221 43.6984 105.124 43.9799C105.027 44.2614 104.868 44.5171 104.658 44.7277C104.449 44.9384 104.195 45.0985 103.915 45.1961C103.635 45.2936 103.337 45.326 103.043 45.2908H96.2774C95.9851 45.3177 95.6904 45.2796 95.4143 45.1791C95.1383 45.0787 94.8875 44.9183 94.6799 44.7095C94.4723 44.5007 94.313 44.2485 94.2131 43.9708C94.1132 43.6931 94.0753 43.3967 94.1021 43.1026V21.2205C94.1021 13.4086 94.5589 9.6887 97.1041 6.38451ZM21.663 15.5969C25.1635 11.5306 28.1316 7.03006 30.4949 2.20504C30.6306 1.7358 30.9185 1.32574 31.3127 1.04021C31.7069 0.754672 32.1849 0.610101 32.6703 0.629536H39.9142C40.5668 0.629536 41.3499 0.935884 40.9149 2.20504C38.0434 10.7828 31.4738 18.3102 27.8628 22.2052C33.9917 28.3856 38.8549 35.7161 42.1766 43.7809C42.4811 44.5687 42.3288 45.4658 40.6756 45.4658H31.9742C31.4812 45.5255 30.984 45.3966 30.5811 45.1048C30.1781 44.813 29.8989 44.3795 29.7988 43.8903C27.7084 38.3837 24.5427 33.354 20.4883 29.0981C16.5351 33.4439 13.3033 38.4016 10.9168 43.7809C10.7812 44.2502 10.4933 44.6602 10.099 44.9458C9.70479 45.2313 9.22688 45.3759 8.74146 45.3564H0.866699C0.699486 45.3274 0.54182 45.2579 0.407348 45.1538C0.272876 45.0497 0.165651 44.9142 0.0949517 44.759C0.0242528 44.6038 -0.00778899 44.4337 0.00159978 44.2633C0.0109886 44.0928 0.061525 43.9273 0.148835 43.7809C3.07463 35.8914 7.79822 28.8016 13.9405 23.0805C8.74146 16.691 3.56413 8.76966 1.56281 2.20504C1.49077 2.04301 1.45984 1.86551 1.47281 1.68849C1.48577 1.51147 1.54223 1.34045 1.63711 1.19079C1.73198 1.04112 1.86231 0.917494 2.0164 0.830994C2.17049 0.744493 2.34352 0.697827 2.51996 0.695182H11.8305C12.2922 0.670468 12.7483 0.807372 13.121 1.08262C13.4938 1.35787 13.7603 1.75449 13.8753 2.20504C15.865 6.99879 18.4842 11.5028 21.663 15.5969ZM188.425 15.5969C191.956 11.5354 194.953 7.03461 197.344 2.20504C197.48 1.7358 197.768 1.32574 198.162 1.04021C198.556 0.754672 199.034 0.610101 199.519 0.629536H206.698C207.351 0.629536 208.134 0.935884 207.699 2.20504C204.827 10.7828 198.258 18.3102 194.647 22.2052C200.741 28.3958 205.574 35.7252 208.873 43.7809C209.178 44.5687 209.026 45.4658 207.372 45.4658H198.671C198.178 45.5255 197.681 45.3966 197.278 45.1048C196.875 44.813 196.596 44.3795 196.496 43.8903C194.393 38.4044 191.22 33.3972 187.163 29.1637C183.27 33.5004 180.09 38.435 177.744 43.7809C177.609 44.2502 177.321 44.6602 176.926 44.9458C176.532 45.2313 176.054 45.3759 175.569 45.3564H167.542C167.38 45.3188 167.23 45.243 167.103 45.1353C166.977 45.0276 166.877 44.8911 166.814 44.7372C166.75 44.5832 166.723 44.4161 166.737 44.2498C166.75 44.0836 166.802 43.9228 166.889 43.7809C169.793 35.9079 174.486 28.8266 180.594 23.1024C175.395 16.691 170.305 8.76966 168.303 2.20504C168.231 2.04301 168.2 1.86551 168.213 1.68849C168.226 1.51147 168.283 1.34045 168.378 1.19079C168.472 1.04112 168.603 0.917494 168.757 0.830994C168.911 0.744493 169.084 0.697827 169.26 0.695182H178.571C179.029 0.675628 179.48 0.814924 179.848 1.08976C180.216 1.36461 180.48 1.75832 180.594 2.20504C182.597 7.00119 185.231 11.5053 188.425 15.5969Z" fill="#1B2C5C"/>
</svg>
