<svg width="107" height="108" viewBox="0 0 107 108" fill="none" xmlns="http://www.w3.org/2000/svg">
<g opacity="0.9">
<path d="M51.0782 0.404856C60.7204 -0.0512007 70.3058 2.11494 78.8149 6.67286C87.324 11.2308 94.4385 18.01 99.4015 26.2893C104.365 34.5687 106.99 44.0385 107 53.6915C107.009 63.3444 104.402 72.8194 99.4556 81.1085C94.5953 89.2959 87.6293 96.0308 79.2827 100.612C70.9361 105.194 61.514 107.454 51.9973 107.158L62.7578 77.3648C62.7896 77.2946 62.8271 77.2271 62.8699 77.163H77.4638C78.5885 77.1745 79.7007 76.9279 80.7151 76.4421C81.7294 75.9563 82.6188 75.2443 83.3148 74.3608C83.7749 73.8089 84.1318 73.1786 84.3685 72.5001L96.1153 40.2411C96.5137 39.2106 96.7262 38.1176 96.743 37.0129C96.7834 35.6341 96.3651 34.2807 95.5537 33.1651C94.7424 32.0494 93.5837 31.2345 92.2595 30.8481C91.2799 30.5457 90.2582 30.4019 89.2331 30.4221H68.4967L41.1023 105.678C29.5944 102.955 19.3159 96.4888 11.8794 87.2939C4.4429 78.0989 0.26903 66.6955 0.0125662 54.8726C-0.243898 43.0496 3.43156 31.4759 10.4624 21.9671C17.4932 12.4584 27.4815 5.55246 38.8605 2.33278V2.64662L11.8921 76.9164H23.1009L37.5827 37.5061H46.1015L31.6869 77.0734C32.068 77.1854 41.9766 77.2303 42.8957 77.0734L43.0751 76.6474L56.3239 40.2635C56.645 39.4275 56.8559 38.5534 56.9516 37.6631C57.1687 36.049 56.7568 34.4134 55.8011 33.0947C54.8455 31.776 53.4194 30.8753 51.818 30.5791C50.993 30.4026 50.1507 30.3199 49.3072 30.3325H40.2505C40.2953 29.929 50.047 2.91564 51.0782 0.404856Z" fill="#00031F"/>
<path d="M77.31 37.5044H85.8288L73.925 70.0773H65.4062L77.31 37.5044Z" fill="#00031F"/>
</g>
</svg>
