<?xml version="1.0" encoding="UTF-8"?>
<svg xmlns="http://www.w3.org/2000/svg" width="139" height="50" viewBox="0 0 139 50" fill="none">
  <path d="M44.5549 1.74099H41.9386C41.299 1.74099 41.0684 2.14767 41.0684 2.67012V26.932C41.0684 32.9112 41.1844 35.116 42.6971 35.116H46.0124V36.8577H32.5154V35.1167H35.2492C35.8887 35.1167 36.1193 34.7108 36.1193 34.1876V5.63039L36.0033 5.5139L22.9761 36.2745C22.8594 36.5639 22.7433 36.6804 21.9291 36.6804C21.6389 36.6804 21.4055 35.9843 21.0588 35.2332L7.38702 6.26787L7.27101 6.38369V29.0203C7.27101 31.6912 7.38702 35.1153 9.13246 35.1153H12.215V36.857H1.57138V35.1167H3.72288C4.42047 35.1167 5.06077 34.8273 5.06077 33.959V8.41557C5.06077 3.7121 4.53794 1.74099 1.80343 1.74099H0V0H9.30644L23.3829 28.9661L36.2375 0.00289284H44.5549V1.74099Z" fill="#04E4FF"></path>
  <path d="M55.1412 2.90201C55.147 3.24866 55.0835 3.59299 54.9546 3.91494C54.8257 4.23688 54.6338 4.52998 54.3901 4.77717C54.1465 5.02436 53.856 5.22068 53.5356 5.35469C53.2152 5.48869 52.8712 5.5577 52.5238 5.5577C52.1764 5.5577 51.8324 5.48869 51.512 5.35469C51.1915 5.22068 50.901 5.02436 50.6574 4.77717C50.4138 4.52998 50.2219 4.23688 50.093 3.91494C49.964 3.59299 49.9006 3.24866 49.9063 2.90201C49.9178 2.21683 50.1986 1.56356 50.6882 1.08305C51.1778 0.602537 51.8371 0.333252 52.5238 0.333252C53.2105 0.333252 53.8697 0.602537 54.3593 1.08305C54.849 1.56356 55.1297 2.21683 55.1412 2.90201ZM59.7944 36.8566H47.4054V35.29H49.4409C49.9636 35.29 50.6627 35.0577 50.6627 34.3609V20.663C50.6627 13.6983 50.1972 13.6983 48.277 13.6983H46.0668V12.1309C46.9369 12.1309 48.9173 11.8986 50.7802 11.6664C52.7004 11.4348 54.5611 11.2025 55.2036 11.2025V26.1812C55.2036 32.5077 55.2615 35.2943 57.0063 35.2943H59.7981L59.7944 36.8566Z" fill="#04E4FF"></path>
  <path d="M73.5797 23.0435C67.6461 25.307 63.9814 27.2795 63.9814 31.2268C63.9814 33.1422 65.0294 34.3615 67.0067 34.3615C69.6824 34.3615 72.0671 32.5626 73.5797 30.5314V23.0435ZM73.5797 21.2439V18.2836C73.5797 15.6714 73.405 13.5238 69.275 13.5238C67.6015 13.5192 65.9629 14.0037 64.5618 14.9174C64.5618 18.0513 63.2824 20.3148 61.3045 20.3148C61.0978 20.3157 60.8935 20.2757 60.7024 20.1972C60.5114 20.1187 60.3378 20.0034 60.1919 19.8576C60.046 19.7119 59.9304 19.5387 59.8519 19.3482C59.7733 19.1577 59.7334 18.9535 59.7344 18.7475C59.7344 14.6851 65.8978 11.2017 72.0617 11.2017C77.8205 11.2017 78.1116 13.9876 78.1116 18.6896V27.5704C78.1116 32.3882 78.4599 33.9548 81.9498 34.8268L80.2052 37.7871C78.7239 37.7109 77.3083 37.1535 76.1741 36.1998C75.0399 35.2461 74.2493 33.9485 73.9232 32.5047C71.6549 34.7682 67.7594 37.7871 64.4997 37.7871C61.1846 37.7871 59.2651 35.5236 59.2651 32.3304C59.2651 27.3375 64.2092 25.0754 71.4801 22.1144L73.5797 21.2439Z" fill="#04E4FF"></path>
  <path d="M90.2163 26.177C90.2163 32.5035 90.2742 35.2901 92.0188 35.2901H94.5789V36.8575H82.4205V35.2901H84.4557C84.9794 35.2901 85.6778 35.0578 85.6778 34.361V20.6652C85.6778 13.7005 85.2126 13.7005 83.2932 13.7005H81.0797V12.1332C81.9499 12.1332 83.9302 11.9009 85.7929 11.6687C87.7117 11.4371 89.5733 11.2048 90.2163 11.2048V15.9618C93.241 13.5247 95.4509 11.2583 99.814 11.2583C103.071 11.2583 105.223 12.8257 105.803 15.8438C108.654 13.6383 111.155 11.2583 114.82 11.2004C120.869 11.2004 121.859 15.147 121.859 19.4424V26.1755C121.859 32.502 121.917 35.2886 123.661 35.2886H126.221V36.856H114.064V35.2886H116.098C116.623 35.2886 117.321 35.0564 117.321 34.3596V20.6652C117.321 15.3257 115.343 14.1644 112.726 14.1644C110.399 14.3388 108.012 15.6738 106.035 17.4727V26.1799C106.035 32.5064 106.094 35.293 107.839 35.293H110.399V36.8604H98.2405V35.293H100.279C100.801 35.293 101.498 35.0607 101.498 34.3639V20.6652C101.498 15.3257 99.5212 14.1644 96.9039 14.1644C93.9949 14.3388 92.2503 15.9633 90.2151 17.4727L90.2163 26.177Z" fill="#04E4FF"></path>
  <path d="M133.957 2.90201C133.947 3.58719 133.666 4.24046 133.176 4.72097C132.686 5.20148 132.027 5.47076 131.34 5.47076C130.654 5.47076 129.994 5.20148 129.504 4.72097C129.015 4.24046 128.734 3.58719 128.723 2.90201C128.734 2.21683 129.015 1.56356 129.504 1.08305C129.994 0.602537 130.654 0.333252 131.34 0.333252C132.027 0.333252 132.686 0.602537 133.176 1.08305C133.666 1.56356 133.947 2.21683 133.957 2.90201ZM138.611 36.8566H126.219V35.29H128.255C128.777 35.29 129.476 35.0577 129.476 34.3609V20.663C129.476 13.6983 129.011 13.6983 127.091 13.6983H124.882V12.1309C125.752 12.1309 127.731 11.8986 129.595 11.6664C131.515 11.4348 133.376 11.2025 134.019 11.2025V26.1812C134.019 32.5077 134.076 35.2943 135.821 35.2943H138.613L138.611 36.8566Z" fill="#04E4FF"></path>
  <path d="M7.10845 43.2349C6.99822 43.2349 6.98665 43.1858 6.96345 43.0034C6.9018 42.5656 5.89024 42.2364 5.15785 42.2364C2.91353 42.2364 1.62132 43.9405 1.62132 46.0578C1.59733 46.4993 1.66214 46.9413 1.81192 47.3575C1.9617 47.7737 2.19343 48.1558 2.49345 48.4813C2.79348 48.8068 3.15573 49.0691 3.5589 49.2527C3.96206 49.4364 4.39797 49.5377 4.84096 49.5506C5.93883 49.5506 7.14617 49.0521 7.23392 48.3705C7.24627 48.2728 7.25857 48.1533 7.39272 48.1533C7.49064 48.1533 7.51385 48.238 7.51385 48.3111C7.51385 48.4204 7.49064 48.6005 7.44129 49.3697C6.563 49.7785 5.60562 49.9904 4.63647 49.9906C2.20869 49.9906 0.514038 48.7243 0.514038 46.1931C0.514038 43.5772 2.69671 41.8 5.23326 41.8C5.95231 41.806 6.66388 41.9464 7.33106 42.2139C7.24627 43.1995 7.2332 43.2364 7.11357 43.2364" fill="#04E4FF"></path>
  <path d="M9.96204 45.6682C9.96204 48.4179 11.5965 49.5873 13.0352 49.5873C14.6812 49.5873 15.7907 48.334 15.7907 46.1183C15.7907 43.3686 14.1563 42.1992 12.7168 42.1992C11.0707 42.1992 9.96132 43.4532 9.96132 45.6682M8.92435 46.0098C8.90036 45.4638 8.98781 44.9186 9.18132 44.4073C9.37489 43.8961 9.67048 43.4294 10.0502 43.0356C10.4299 42.6418 10.8859 42.329 11.3904 42.1163C11.8949 41.9037 12.4375 41.7955 12.9851 41.7984C15.4368 41.7984 16.8284 43.404 16.8284 45.7782C16.8522 46.3242 16.7647 46.8693 16.5712 47.3805C16.3776 47.8917 16.082 48.3584 15.7023 48.7522C15.3226 49.146 14.8667 49.4587 14.3622 49.6714C13.8577 49.8842 13.3152 49.9924 12.7676 49.9896C10.3159 49.9896 8.92435 48.3825 8.92435 46.0098Z" fill="#04E4FF"></path>
  <path d="M17.9377 42.03H20.7658V42.3918H20.2183C20.1927 42.3896 20.1668 42.3931 20.1427 42.4023C20.1187 42.4115 20.097 42.426 20.0793 42.4447C20.0616 42.4634 20.0484 42.486 20.0407 42.5105C20.0331 42.535 20.031 42.561 20.0349 42.5865V47.1995C20.0349 48.9882 21.2176 49.4875 22.1073 49.4875C24.6323 49.4875 24.6685 47.5526 24.6685 46.5931V43.6711C24.6685 43.1118 24.6439 42.3933 24.2784 42.3933H23.6323V42.0315H25.8636V42.3933H25.4125C25.2675 42.3933 25.1319 42.4548 25.1319 42.6371V46.9694C25.1611 47.3785 25.1009 47.7891 24.9553 48.1727C24.8097 48.5563 24.5823 48.9037 24.2888 49.1909C23.9953 49.478 23.6427 49.6981 23.2555 49.8358C22.8683 49.9735 22.4558 50.0255 22.0464 49.9883C19.1313 49.9883 19.0008 48.0895 19.0008 46.8116V44.1097C19.0008 42.8564 18.9762 42.3933 18.6593 42.3933H17.9392L17.9377 42.03Z" fill="#04E4FF"></path>
  <path d="M33.8409 48.0548H33.8656V43.6734C33.8656 43.1126 33.8409 42.3947 33.4755 42.3947H32.8286V42.0329H35.0613V42.3947H34.6096C34.4645 42.3947 34.3289 42.4562 34.3289 42.6386V49.6699C34.3289 49.7792 34.3174 49.8646 34.2311 49.8646C34.1948 49.8646 34.1462 49.8277 34.0614 49.73L33.9164 49.5599L28.6359 43.2066H28.6112V48.112C28.6112 48.6713 28.6359 49.3899 29.0013 49.3899H29.6481V49.7516H27.4104V49.3899H27.8614C28.0064 49.3899 28.1427 49.3284 28.1427 49.1467V43.792C28.1427 42.8072 28.0318 42.3926 27.459 42.3926H27.0812V42.0308H28.8498L33.8409 48.0548Z" fill="#04E4FF"></path>
  <path d="M40.3172 47.6764C40.3172 48.9311 40.3419 49.3927 40.6587 49.3927H41.6015V49.7545H38.186V49.3927H39.1012C39.1268 49.395 39.1527 49.3914 39.1768 49.3823C39.2009 49.3731 39.2226 49.3586 39.2402 49.3399C39.2579 49.3211 39.271 49.2986 39.2788 49.274C39.2865 49.2495 39.2885 49.2236 39.2846 49.1981V42.4685H38.9794C37.553 42.4685 36.8576 42.7247 36.7357 43.0901C36.7103 43.1625 36.6632 43.2601 36.5639 43.2601C36.5468 43.2624 36.5295 43.2609 36.5131 43.2557C36.4966 43.2506 36.4816 43.2419 36.4689 43.2303C36.4562 43.2188 36.4461 43.2046 36.4395 43.1887C36.4329 43.1729 36.4298 43.1558 36.4305 43.1386C36.5243 42.7634 36.6383 42.3936 36.772 42.0308H42.8334C42.9672 42.3936 43.0812 42.7634 43.175 43.1386C43.1756 43.1558 43.1724 43.1731 43.1656 43.189C43.1589 43.2049 43.1487 43.2191 43.1358 43.2306C43.123 43.2422 43.1078 43.2509 43.0913 43.2559C43.0747 43.2611 43.0573 43.2625 43.0402 43.2601C42.9422 43.2601 42.8951 43.1617 42.8704 43.0901C42.7479 42.724 42.0532 42.4685 40.6261 42.4685H40.3208L40.3172 47.6764Z" fill="#04E4FF"></path>
  <path d="M47.0486 45.8883C48.0979 45.8883 49.1711 45.5106 49.1711 44.3174C49.1792 44.0743 49.1376 43.8321 49.0489 43.6056C48.9601 43.379 48.8261 43.1729 48.6549 42.9998C48.4837 42.8267 48.279 42.6902 48.0532 42.5986C47.8274 42.507 47.5853 42.4622 47.3416 42.4671H46.7201C46.6099 42.4671 46.4395 42.4808 46.4395 42.6386V45.8883H47.0486ZM45.4026 44.1111C45.4026 42.8579 45.3779 42.3948 45.061 42.3948H44.3409V42.033H47.7556C48.8296 42.033 50.2073 42.5807 50.2073 44.1263C50.1892 44.6299 49.9847 45.1089 49.6335 45.4709C49.2822 45.8328 48.8091 46.0522 48.3053 46.0866C50.3168 48.9948 50.7316 49.3964 51.0862 49.3964H51.3908V49.7582H49.9883C49.7077 49.7582 49.5736 49.7466 47.3416 46.2523H46.4395V47.6763C46.4395 48.9311 46.4642 49.3928 46.7818 49.3928H47.4764V49.7546H44.6484V49.3928H45.222C45.3554 49.3928 45.4047 49.3081 45.4047 49.1981L45.4026 44.1111Z" fill="#04E4FF"></path>
  <path d="M55.2479 47.6766C55.2479 48.9314 55.2726 49.393 55.5894 49.393H56.2848V49.7549H53.4568V49.393H54.0297C54.0554 49.3953 54.0812 49.3917 54.1053 49.3825C54.1294 49.3734 54.1511 49.3589 54.1687 49.3401C54.1864 49.3214 54.1996 49.2989 54.2073 49.2744C54.2149 49.2498 54.2169 49.2238 54.2131 49.1984V46.4364C52.8107 43.9891 52.3952 43.1498 51.9449 42.5781C51.9049 42.51 51.8449 42.4558 51.7731 42.423C51.7012 42.3901 51.6209 42.38 51.5431 42.3943H51.1277V42.0325H53.8723V42.3943H53.3103C53.2255 42.3943 53.1152 42.3943 53.1152 42.4435C53.1152 42.5528 54.1646 44.33 55.0797 45.9364C56.58 43.1244 56.7475 42.772 56.7475 42.5404C56.7475 42.4059 56.6496 42.3958 56.5038 42.3958H55.7961V42.034H58.0158V42.3958H57.5894C57.3943 42.3958 57.3327 42.6027 57.2479 42.7576L55.2471 46.3973L55.2479 47.6766Z" fill="#04E4FF"></path>
  <path d="M64.4557 47.8102C64.4557 49.3197 64.5889 49.3197 64.9553 49.3197H65.9316C68.0903 49.3197 68.846 47.6039 68.846 46.2284C68.846 43.551 67.1779 42.4656 65.4061 42.4656C64.6016 42.4656 64.4557 42.4656 64.4557 42.6827V47.8102ZM62.3579 42.03H65.9431C69.3829 42.03 69.9555 44.635 69.9555 45.7414C69.9808 46.2736 69.8952 46.8053 69.7036 47.3027C69.5119 47.8 69.2184 48.252 68.8424 48.6299C68.4657 49.0078 68.0149 49.3034 67.5178 49.4976C67.0206 49.6918 66.4878 49.7806 65.9545 49.7581H62.6623V49.3964H63.2354C63.2607 49.3985 63.2866 49.3948 63.3107 49.3856C63.3348 49.3764 63.3565 49.3618 63.374 49.3432C63.3915 49.3244 63.4047 49.302 63.4126 49.2775C63.4204 49.253 63.4222 49.2271 63.4186 49.2017V44.1104C63.4186 42.8578 63.3933 42.3947 63.0775 42.3947H62.3573L62.3579 42.03Z" fill="#04E4FF"></path>
  <path d="M74.5904 43.1866L73.2362 46.4233H75.6625L74.5904 43.1866ZM73.0675 46.8618C72.7583 47.5749 72.5215 48.3169 72.36 49.0768C72.36 49.3322 72.4823 49.393 72.6649 49.393H73.4327V49.7548H70.9673V49.393H71.2114C71.394 49.393 71.5778 49.356 71.6501 49.1983L74.735 41.9087C75.0406 41.8363 75.3823 41.7503 75.4552 41.7503C75.4714 41.7492 75.4877 41.7516 75.5034 41.7573C75.5184 41.763 75.5323 41.772 75.5438 41.7835C75.5552 41.795 75.5642 41.8088 75.5703 41.824C75.5757 41.8393 75.5781 41.8555 75.5769 41.8718C75.5769 42.0303 75.3593 42.0165 75.3593 42.2495C75.3593 42.772 76.8714 46.8372 77.4692 48.4559C77.7494 49.2229 77.8959 49.3966 78.2129 49.3966H78.5757V49.7584H75.8439V49.3966H76.5026C76.5881 49.3966 76.6731 49.3597 76.6731 49.275C76.6731 49.1904 76.3314 48.3343 75.8312 46.8654L73.0675 46.8618Z" fill="#04E4FF"></path>
  <path d="M82.0294 47.6766C82.0294 48.9314 82.0541 49.393 82.3711 49.393H83.066V49.7549H80.2378V49.393H80.8109C80.8362 49.3953 80.8621 49.3917 80.8862 49.3825C80.9103 49.3734 80.932 49.3589 80.9495 49.3401C80.9676 49.3214 80.9802 49.2989 80.988 49.2744C80.9959 49.2498 80.9977 49.2238 80.9941 49.1984V46.4364C79.5917 43.9891 79.1759 43.1498 78.7257 42.5781C78.686 42.51 78.6257 42.4558 78.5534 42.4229C78.4817 42.39 78.4015 42.38 78.3232 42.3943H77.9085V42.0325H80.653V42.3943H80.0913C80.0063 42.3943 79.8961 42.3943 79.8961 42.4435C79.8961 42.5528 80.9453 44.33 81.8607 45.9364C83.3607 43.1244 83.5282 42.772 83.5282 42.5404C83.5282 42.4059 83.4306 42.3958 83.2847 42.3958H82.579V42.034H84.798V42.3958H84.3719C84.1766 42.3958 84.1152 42.6027 84.0302 42.7576L82.0294 46.3973V47.6766Z" fill="#04E4FF"></path>
  <path d="M90.2 43.6367C90.2 44.6237 91.1148 44.9392 91.8826 45.2286C93.4441 45.8003 94.1871 46.2995 94.1871 47.6013C94.1871 48.6599 93.2602 49.9893 91.248 49.9893C90.599 49.9858 89.9553 49.8702 89.3455 49.6477C89.2123 48.8937 89.1629 48.6383 89.1629 48.5283C89.1611 48.5089 89.1641 48.4894 89.1707 48.4711C89.1773 48.4529 89.1882 48.4363 89.202 48.4226C89.2159 48.4088 89.2322 48.3982 89.2503 48.3914C89.2689 48.3848 89.2882 48.382 89.3075 48.3836C89.4298 48.3836 89.4666 48.5051 89.4907 48.6151C89.6625 49.2967 90.796 49.5515 91.3933 49.5515C92.3695 49.5515 93.3693 49.0644 93.3693 47.9697C93.3693 47.029 92.6624 46.6187 91.4547 46.1809C90.9057 45.9862 89.419 45.5116 89.419 44.026C89.419 42.5658 90.8822 41.7994 92.1857 41.7994C92.6564 41.7769 93.1265 41.8556 93.5634 42.0303C93.5754 42.3197 93.6007 42.6265 93.6007 42.9189C93.6007 43.0042 93.5634 43.0773 93.4657 43.0773C93.344 43.0773 93.3308 42.9797 93.3205 42.895C93.2349 42.3711 92.2478 42.2372 91.8567 42.2372C91.6554 42.2186 91.4523 42.2402 91.2595 42.3007C91.0666 42.3612 90.8876 42.4595 90.7328 42.5898C90.5785 42.7201 90.4519 42.8797 90.3597 43.0595C90.2675 43.2392 90.2127 43.4355 90.1976 43.6367" fill="#04E4FF"></path>
  <path d="M102.373 43.2349C102.263 43.2349 102.251 43.1858 102.228 43.0034C102.167 42.5656 101.154 42.2364 100.422 42.2364C98.1785 42.2364 96.8858 43.9405 96.8858 46.0578C96.8617 46.4993 96.9262 46.9413 97.0762 47.3575C97.2257 47.7737 97.4577 48.1558 97.7578 48.4813C98.0579 48.8068 98.4201 49.0691 98.8233 49.2527C99.2265 49.4364 99.6622 49.5377 100.105 49.5506C101.203 49.5506 102.41 49.0521 102.498 48.3705C102.51 48.2728 102.523 48.1533 102.657 48.1533C102.755 48.1533 102.779 48.238 102.779 48.3111C102.779 48.4204 102.754 48.6005 102.706 49.3697C101.827 49.7786 100.87 49.9905 99.9008 49.9906C97.4746 49.9906 95.7787 48.7243 95.7787 46.1931C95.7787 43.5772 97.9615 41.8 100.498 41.8C101.217 41.8059 101.929 41.9463 102.596 42.2139C102.511 43.1995 102.498 43.2364 102.378 43.2364" fill="#04E4FF"></path>
  <path d="M106.031 45.7623V47.6734C106.031 48.9267 106.056 49.3891 106.373 49.3891H107.067V49.7509H104.239V49.3891H104.812C104.838 49.3914 104.864 49.3877 104.888 49.3786C104.912 49.3694 104.933 49.3549 104.951 49.3362C104.969 49.3175 104.982 49.2949 104.99 49.2704C104.997 49.2458 104.999 49.2198 104.996 49.1944V44.1074C104.996 42.8541 104.971 42.3918 104.654 42.3918H103.934V42.0256H106.762V42.3918H106.213C106.08 42.3918 106.03 42.4764 106.03 42.5864V45.3282H110.043V44.1111C110.043 42.8578 110.018 42.3954 109.701 42.3954H108.981V42.0292H111.809V42.3954H111.26C111.234 42.3931 111.208 42.3967 111.185 42.4059C111.161 42.415 111.139 42.4295 111.121 42.4483C111.103 42.467 111.09 42.4895 111.082 42.5141C111.075 42.5387 111.073 42.5646 111.077 42.59V47.677C111.077 48.9303 111.102 49.3927 111.419 49.3927H112.114V49.7545H109.286V49.3927H109.859C109.885 49.395 109.911 49.3914 109.935 49.3822C109.959 49.373 109.981 49.3585 109.998 49.3398C110.016 49.3211 110.029 49.2986 110.037 49.274C110.044 49.2495 110.046 49.2235 110.043 49.198V45.7623H106.031Z" fill="#04E4FF"></path>
  <path d="M114.384 45.6682C114.384 48.4179 116.019 49.5873 117.458 49.5873C119.105 49.5873 120.214 48.334 120.214 46.1183C120.214 43.3686 118.579 42.1992 117.139 42.1992C115.494 42.1992 114.384 43.4532 114.384 45.6682ZM113.348 46.0098C113.325 45.4638 113.412 44.9186 113.606 44.4073C113.799 43.8961 114.094 43.4294 114.474 43.0356C114.854 42.6418 115.31 42.329 115.814 42.1163C116.319 41.9037 116.862 41.7955 117.409 41.7984C119.861 41.7984 121.252 43.404 121.252 45.7782C121.276 46.3242 121.189 46.8692 120.995 47.3804C120.801 47.8915 120.506 48.3582 120.126 48.752C119.746 49.1457 119.29 49.4585 118.786 49.6712C118.281 49.884 117.739 49.9923 117.192 49.9896C114.74 49.9896 113.348 48.3825 113.348 46.0098Z" fill="#04E4FF"></path>
  <path d="M123.776 45.6682C123.776 48.4179 125.411 49.5873 126.85 49.5873C128.497 49.5873 129.605 48.334 129.605 46.1183C129.605 43.3686 127.971 42.1992 126.532 42.1992C124.885 42.1992 123.776 43.4532 123.776 45.6682M122.74 46.0098C122.716 45.4638 122.803 44.9186 122.997 44.4073C123.19 43.8961 123.486 43.4294 123.866 43.0356C124.245 42.6418 124.701 42.329 125.206 42.1163C125.71 41.9037 126.253 41.7955 126.8 41.7984C129.251 41.7984 130.643 43.404 130.643 45.7782C130.668 46.3242 130.58 46.8693 130.387 47.3806C130.193 47.8919 129.897 48.3586 129.518 48.7524C129.138 49.1462 128.682 49.4589 128.177 49.6716C127.673 49.8843 127.131 49.9925 126.583 49.9896C124.132 49.9896 122.74 48.3825 122.74 46.0098Z" fill="#04E4FF"></path>
  <path d="M134.716 42.3956H134.167C134.142 42.3933 134.116 42.397 134.092 42.406C134.068 42.4151 134.046 42.4296 134.029 42.4483C134.011 42.4669 133.998 42.4893 133.99 42.5137C133.982 42.5382 133.98 42.5641 133.984 42.5895V47.811C133.984 49.3205 134.117 49.3205 134.485 49.3205H135.302C137.374 49.3205 137.851 49.0158 138.058 48.6751C138.093 48.6135 138.118 48.5419 138.202 48.5419C138.254 48.5419 138.301 48.6142 138.301 48.6751C138.22 49.0423 138.118 49.4047 137.996 49.7604H132.191V49.3987H132.765C132.9 49.3987 132.947 49.314 132.947 49.204V44.117C132.947 42.8637 132.924 42.4013 132.607 42.4013H131.887V42.0396H134.715L134.716 42.3956Z" fill="#04E4FF"></path>
</svg>
