<?xml version="1.0" encoding="UTF-8"?>
<svg xmlns="http://www.w3.org/2000/svg" width="190" height="46" viewBox="0 0 190 46" fill="none">
  <path d="M0 0.00244141V35.0178H4.00451V19.2659H20.4947V15.2697H4.01857V3.99961H20.7358V0.00244141H0ZM24.023 9.64019H27.5563V35.2947H24.023V9.64019ZM24.023 0.00244141H27.5563V3.9986H24.023V0.00244141ZM43.064 35.7883C44.776 35.818 46.4745 35.4812 48.0453 34.8008C49.6162 34.1203 51.023 33.1119 52.1711 31.8433L50.4632 29.2648C49.5777 30.2821 48.4851 31.0992 47.2584 31.6614C46.0317 32.2237 44.699 32.5183 43.3493 32.5256C38.4266 32.5256 35.4297 28.5294 35.1434 23.7416H53.6288V22.7383C53.6288 15.1132 49.55 9.11646 42.628 9.11646C36.0827 9.11646 31.3388 15.06 31.3388 22.4243C31.3388 30.3665 36.2244 35.7833 43.0529 35.7833M50.1598 20.6836H35.1303C35.3313 16.8459 37.7424 12.2678 42.625 12.2678C47.8421 12.2678 50.1196 16.9503 50.1658 20.6836M57.1772 0.00244141H60.7105V35.0258H57.1772V0.00244141ZM85.4378 35.0178V0.00244141H81.9055V13.4939C81.1033 12.1669 79.98 11.0626 78.6388 10.2824C77.2976 9.50227 75.7816 9.07131 74.23 9.02917C68.2946 9.02917 64.1032 14.2283 64.1032 22.3661C64.1032 30.6103 68.2946 35.6499 74.23 35.6499C75.7757 35.6078 77.2866 35.1823 78.6266 34.4116C79.9665 33.6409 81.0933 32.5494 81.9055 31.2353V35.0178H85.4378ZM75.0769 32.2085C70.4295 32.2085 67.6777 28.0528 67.6777 22.4263C67.6777 16.7998 70.4305 12.5939 75.0769 12.5939C76.4682 12.6538 77.8223 13.0607 79.0156 13.7775C80.2089 14.4943 81.2035 15.4982 81.9085 16.6974V28.1632C81.2005 29.3556 80.204 30.3514 79.0103 31.0591C77.8167 31.7668 76.4642 32.1637 75.0769 32.2135" fill="#1C2D5D"></path>
  <path d="M111.111 35.0173V28.4337H95.5666V20.4494H110.875V13.8677H95.5666V6.58168H111.111V0H88.7381V35.0234L111.111 35.0173ZM137.724 35.0073V0.00200661H131.596V12.9206C130.826 11.7313 129.771 10.7529 128.526 10.0743C127.281 9.39572 125.886 9.03839 124.468 9.03476C118.584 9.03476 114.221 14.0754 114.221 22.3205C114.221 30.8285 118.669 35.6575 124.468 35.6575C125.884 35.6418 127.274 35.2794 128.517 34.6018C129.76 33.9243 130.817 32.9525 131.596 31.7717V35.0173L137.724 35.0073ZM126.432 29.7761C122.97 29.7761 120.599 26.7782 120.599 22.3516C120.599 17.9852 122.97 14.9874 126.432 14.9874C127.465 15.0133 128.475 15.2903 129.376 15.7944C130.277 16.2984 131.041 17.0143 131.602 17.8799V26.8735C131.041 27.7393 130.277 28.4554 129.376 28.9596C128.475 29.4638 127.465 29.741 126.432 29.7671M151.508 45.5992C157.235 45.5992 164.093 43.2314 164.093 33.6077V9.90262H157.965V13.1634C157.175 11.9683 156.101 10.9873 154.839 10.308C153.576 9.62873 152.165 9.27229 150.732 9.27054C144.848 9.27054 140.461 13.8988 140.461 22.2132C140.461 30.6811 144.946 35.0996 150.732 35.0996C152.168 35.0806 153.578 34.7112 154.839 34.0234C156.1 33.3356 157.173 32.3504 157.965 31.1536V33.6268C157.965 38.7797 154.449 40.1482 151.503 40.1482C150.133 40.216 148.766 39.9717 147.505 39.4339C146.244 38.8961 145.122 38.0789 144.223 37.044L141.475 41.8298C142.797 43.1134 144.37 44.112 146.095 44.7635C147.82 45.4151 149.661 45.7056 151.503 45.6173M153.03 29.2634C149.568 29.2634 147.196 26.6347 147.196 22.2684C147.196 17.902 149.567 15.2733 153.03 15.2733C154.054 15.3119 155.054 15.5886 155.952 16.0816C156.849 16.5745 157.619 17.27 158.2 18.1127V26.3699C157.622 27.2196 156.854 27.9234 155.957 28.4256C155.06 28.9278 154.058 29.2146 153.03 29.2634M178.903 36.0939C182.387 36.1892 185.772 34.9257 188.34 32.5713L185.636 28.1567C183.994 29.7105 181.828 30.5926 179.566 30.6289C177.948 30.7043 176.362 30.1573 175.136 29.1006C173.91 28.0438 173.136 26.5577 172.973 24.9482H190V23.379C190 15.1218 185.399 9.43307 178.522 9.43307C171.598 9.43307 166.667 15.3756 166.667 22.7399C166.667 30.8928 171.932 36.0999 178.904 36.0999M184.233 20.2477H172.945C173.183 17.7244 174.794 14.8298 178.541 14.8298C182.525 14.8298 184.043 17.8277 184.232 20.2477" fill="#1C2D5D"></path>
</svg>
