<svg fill="none" height="90" viewBox="0 0 90 90" width="90" xmlns="http://www.w3.org/2000/svg" xmlns:xlink="http://www.w3.org/1999/xlink"><radialGradient id="a" cx="0" cy="0" gradientTransform="matrix(0 44 -44 0 45 45)" gradientUnits="userSpaceOnUse" r="1"><stop offset=".151042" stop-color="#04e4ff"/><stop offset=".302083" stop-color="#04e4ff"/><stop offset=".463542" stop-color="#9536e5"/><stop offset=".635417" stop-color="#9536e5"/><stop offset=".848958" stop-color="#04e4ff"/><stop offset="1" stop-color="#04e4ff"/></radialGradient><linearGradient id="b"><stop offset="0" stop-color="#903ce6"/><stop offset="1" stop-color="#04e4ff"/></linearGradient><linearGradient id="c" gradientUnits="userSpaceOnUse" x1="59.89" x2="38.0895" xlink:href="#b" y1="20.9568" y2="45.4759"/><linearGradient id="d" gradientUnits="userSpaceOnUse" x1="70.9991" x2="37.8156" xlink:href="#b" y1="25.3166" y2="68.3076"/><circle cx="45" cy="45" r="44.5" stroke="url(#a)"/><path d="m59.0436 30.9342c-.6861-.8407-1.6908-1.325-2.7685-1.3657l-5.8519-6.2083c-.7018-.7445-1.8722-.7778-2.6176-.0778-.7444.7018-.7787 1.8731-.0768 2.6176l3.4435 3.6528h-10.6435l3.4435-3.6528c.7018-.7445.6676-1.9158-.0769-2.6176-.7444-.7-1.9148-.6667-2.6176.0778l-5.887 6.2463c-.9482.1213-1.8194.5768-2.4324 1.3287-.7158.8777-.9954 2.0176-.7676 3.1259l2.1935 10.712c.3574 1.738 1.9037 3 3.6778 3h15.8796c1.7741 0 3.3204-1.262 3.6778-3.0009l2.1935-10.7102c.2278-1.1092-.0518-2.25-.7676-3.1268zm-18.225 12.2565c-.151.038-.3019.0556-.451.0556-.8296 0-1.5842-.5611-1.7944-1.4028l-1.3444-5.3769c-.2482-.9925.3555-1.9981 1.3472-2.2462.9916-.2473 1.9972.3546 2.2463 1.3472l1.3444 5.3768c.2482.9926-.3555 1.9982-1.3472 2.2463zm7.0333-1.7963c0 1.0222-.8296 1.8519-1.8518 1.8519-1.0223 0-1.8519-.8297-1.8519-1.8519v-5.3768c0-1.0223.8296-1.8519 1.8519-1.8519 1.0222 0 1.8518.8296 1.8518 1.8519zm6.9204-4.9278-1.3445 5.3769c-.2111.8417-.9657 1.4028-1.7944 1.4028-.1491 0-.3-.0185-.4509-.0556-.9917-.2481-1.5954-1.2537-1.3473-2.2463l1.3445-5.3768c.2491-.9926 1.2574-1.5945 2.2463-1.3472.9916.2481 1.5944 1.2537 1.3463 2.2462z" fill="#f2f2f2"/><path d="m59.0436 30.9342c-.6861-.8407-1.6908-1.325-2.7685-1.3657l-5.8519-6.2083c-.7018-.7445-1.8722-.7778-2.6176-.0778-.7444.7018-.7787 1.8731-.0768 2.6176l3.4435 3.6528h-10.6435l3.4435-3.6528c.7018-.7445.6676-1.9158-.0769-2.6176-.7444-.7-1.9148-.6667-2.6176.0778l-5.887 6.2463c-.9482.1213-1.8194.5768-2.4324 1.3287-.7158.8777-.9954 2.0176-.7676 3.1259l2.1935 10.712c.3574 1.738 1.9037 3 3.6778 3h15.8796c1.7741 0 3.3204-1.262 3.6778-3.0009l2.1935-10.7102c.2278-1.1092-.0518-2.25-.7676-3.1268zm-18.225 12.2565c-.151.038-.3019.0556-.451.0556-.8296 0-1.5842-.5611-1.7944-1.4028l-1.3444-5.3769c-.2482-.9925.3555-1.9981 1.3472-2.2462.9916-.2473 1.9972.3546 2.2463 1.3472l1.3444 5.3768c.2482.9926-.3555 1.9982-1.3472 2.2463zm7.0333-1.7963c0 1.0222-.8296 1.8519-1.8518 1.8519-1.0223 0-1.8519-.8297-1.8519-1.8519v-5.3768c0-1.0223.8296-1.8519 1.8519-1.8519 1.0222 0 1.8518.8296 1.8518 1.8519zm6.9204-4.9278-1.3445 5.3769c-.2111.8417-.9657 1.4028-1.7944 1.4028-.1491 0-.3-.0185-.4509-.0556-.9917-.2481-1.5954-1.2537-1.3473-2.2463l1.3445-5.3768c.2491-.9926 1.2574-1.5945 2.2463-1.3472.9916.2481 1.5944 1.2537 1.3463 2.2462z" fill="url(#c)"/><path d="m65.7287 28.1638h-3.112c-1.0223 0-1.8519.8296-1.8519 1.8519 0 1.0222.8296 1.8518 1.8519 1.8518h3.112c.8648 0 1.5676.7037 1.5676 1.5676v19.0454h-42.5926v-19.0454c0-.8648.7037-1.5676 1.5676-1.5676h3.112c1.0223 0 1.8519-.8296 1.8519-1.8518 0-1.0223-.8296-1.8519-1.8519-1.8519h-3.112c-2.9065 0-5.2713 2.3648-5.2713 5.2713v20.5074c0 2.9065 2.3648 5.2713 5.2713 5.2713h13.9417l-1.2778 4.3037h-1.2685c-1.0223 0-1.8519.8297-1.8519 1.8519s.8296 1.8518 1.8519 1.8518h16.6666c1.0223 0 1.8519-.8296 1.8519-1.8518s-.8296-1.8519-1.8519-1.8519h-1.2694l-1.2778-4.3037h13.9426c2.9074 0 5.2713-2.3648 5.2713-5.2713v-20.5074c0-2.9065-2.3648-5.2713-5.2713-5.2713zm-16.5278 35.3546h-6.4018l1.2778-4.3037h3.8453z" fill="#f2f2f2"/><path d="m65.7287 28.1638h-3.112c-1.0223 0-1.8519.8296-1.8519 1.8519 0 1.0222.8296 1.8518 1.8519 1.8518h3.112c.8648 0 1.5676.7037 1.5676 1.5676v19.0454h-42.5926v-19.0454c0-.8648.7037-1.5676 1.5676-1.5676h3.112c1.0223 0 1.8519-.8296 1.8519-1.8518 0-1.0223-.8296-1.8519-1.8519-1.8519h-3.112c-2.9065 0-5.2713 2.3648-5.2713 5.2713v20.5074c0 2.9065 2.3648 5.2713 5.2713 5.2713h13.9417l-1.2778 4.3037h-1.2685c-1.0223 0-1.8519.8297-1.8519 1.8519s.8296 1.8518 1.8519 1.8518h16.6666c1.0223 0 1.8519-.8296 1.8519-1.8518s-.8296-1.8519-1.8519-1.8519h-1.2694l-1.2778-4.3037h13.9426c2.9074 0 5.2713-2.3648 5.2713-5.2713v-20.5074c0-2.9065-2.3648-5.2713-5.2713-5.2713zm-16.5278 35.3546h-6.4018l1.2778-4.3037h3.8453z" fill="url(#d)"/></svg>