<svg width="70" height="71" viewBox="0 0 70 71" fill="none" xmlns="http://www.w3.org/2000/svg">
<g opacity="0.9">
<path d="M33.1498 0.88441C39.4076 0.588429 45.6286 1.99426 51.151 4.95235C56.6734 7.91045 61.2907 12.3102 64.5117 17.6835C67.7327 23.0568 69.4369 29.2027 69.4431 35.4675C69.4493 41.7323 67.7572 47.8815 64.5468 53.2612C61.3925 58.5748 56.8715 62.9458 51.4546 65.9191C46.0376 68.8924 39.9227 70.3594 33.7463 70.1673L40.7299 50.8315C40.7505 50.7859 40.7749 50.7421 40.8026 50.7006H50.2741C51.004 50.708 51.7259 50.548 52.3842 50.2327C53.0425 49.9174 53.6197 49.4553 54.0714 48.8819C54.37 48.5237 54.6016 48.1147 54.7552 47.6743L62.379 26.7382C62.6375 26.0694 62.7754 25.3601 62.7864 24.6431C62.8125 23.7482 62.5411 22.8699 62.0145 22.1458C61.4879 21.4218 60.736 20.8929 59.8765 20.6421C59.2407 20.4458 58.5777 20.3525 57.9124 20.3657H44.4545L26.6755 69.207C19.2068 67.4397 12.5361 63.243 7.70976 57.2755C2.88345 51.308 0.174601 43.9072 0.00815548 36.234C-0.15829 28.5609 2.22708 21.0496 6.79008 14.8784C11.3531 8.70715 17.8355 4.22521 25.2205 2.13563V2.33932L7.71797 50.5405H14.9925L24.3912 24.9632H29.9199L20.5648 50.6424C20.8122 50.7151 27.2429 50.7442 27.8394 50.6424L27.9558 50.3659L36.5543 26.7527C36.7626 26.2102 36.8996 25.6429 36.9617 25.065C37.1026 24.0175 36.8352 22.956 36.215 22.1001C35.5948 21.2443 34.6692 20.6598 33.6299 20.4675C33.0945 20.353 32.5479 20.2993 32.0004 20.3075H26.1226C26.1517 20.0456 32.4806 2.51391 33.1498 0.88441Z" fill="#04E4FF"/>
<path d="M50.1748 24.9622H55.7035L47.9779 46.102H42.4492L50.1748 24.9622Z" fill="#04E4FF"/>
</g>
</svg>
