<svg width="134" height="31" viewBox="0 0 134 31" fill="none" xmlns="http://www.w3.org/2000/svg">
<path d="M105.907 15.5214C105.907 23.8805 99.9583 30.1498 91.5435 30.1498C83.1287 30.1498 77.2077 24.187 77.2077 15.5214C77.2077 7.32953 82.9476 0.893045 91.5992 0.893045C100.014 0.893045 105.907 7.12055 105.907 15.5214ZM98.4815 15.5214C98.4815 10.6174 96.5868 6.25678 91.5156 6.25678C86.4445 6.25678 84.5498 10.6174 84.5498 15.5214C84.5498 20.4254 86.4863 24.8 91.5156 24.8C96.545 24.8 98.5512 20.3975 98.5512 15.5214H98.4815ZM55.4184 12.9162C55.2617 9.52406 53.7989 6.32404 51.3364 3.9859C48.8297 1.86405 45.6179 0.76031 42.3365 0.893045C39.1528 0.918716 36.067 1.9963 33.5595 3.95804C31.8284 5.37672 30.4415 7.1693 29.5028 9.20105C28.5642 11.2328 28.0982 13.4509 28.14 15.6886C28.0491 17.6673 28.374 19.6431 29.0939 21.4885C29.8138 23.3338 30.9127 25.0077 32.3195 26.4021C35.3328 29.008 39.2355 30.3505 43.2142 30.1498C46.7108 30.0806 50.144 29.2032 53.2451 27.5863C53.9138 27.1684 54.1228 27.0012 53.9556 26.3185L52.7574 22.9471C52.7183 22.8243 52.6514 22.7123 52.5618 22.6197C52.4722 22.5271 52.3624 22.4564 52.241 22.4133C52.1197 22.3701 51.9899 22.3556 51.862 22.3709C51.7341 22.3861 51.6114 22.4307 51.5036 22.5012C50.7527 22.8923 49.9806 23.2411 49.1909 23.5461C47.6057 24.1769 45.9225 24.5258 44.2173 24.5771C40.804 24.5771 38.8535 23.6436 37.3628 21.93C36.3982 20.7795 35.8141 19.3582 35.691 17.862H54.4989C54.6547 17.8603 54.8082 17.8234 54.9476 17.7539C55.0871 17.6845 55.2091 17.5843 55.3043 17.4609C55.3995 17.3376 55.4655 17.1942 55.4973 17.0417C55.5291 16.8891 55.526 16.7314 55.4881 16.5802V15.187C55.502 14.5741 55.4741 13.5431 55.4184 12.9162ZM48.6476 12.8047H35.6214C35.7563 11.8699 36.0384 10.9624 36.4573 10.1159C37.0035 8.9592 37.87 7.98346 38.9541 7.30439C40.0381 6.62532 41.2942 6.27141 42.5733 6.28464C46.3488 6.28464 48.6476 8.84809 48.6476 12.6375V12.8047ZM62.1893 4.94719C64.3347 2.1887 67.6644 0.893045 73.1118 0.893045C74.3997 0.90207 75.6834 1.04211 76.943 1.311C77.0771 1.34541 77.2019 1.40877 77.3089 1.49663C77.4158 1.58449 77.5022 1.69471 77.562 1.81955C77.6217 1.94438 77.6534 2.08079 77.6548 2.21918C77.6562 2.35757 77.6272 2.49459 77.5699 2.62059L76.9291 5.81096C76.7758 6.46576 76.6504 6.57721 76.1489 6.57721H75.7727C75.2573 6.46576 74.0313 6.34037 73.5019 6.34037C70.7991 6.34037 69.5034 7.02303 68.5421 8.05398C67.5809 9.08493 67.3858 11.0354 67.3858 14.2118V28.3247C67.4082 28.5131 67.3876 28.704 67.3255 28.8833C67.2634 29.0625 67.1615 29.2253 67.0273 29.3594C66.8932 29.4935 66.7304 29.5955 66.5512 29.6576C66.372 29.7197 66.181 29.7403 65.9926 29.7179H61.6599C61.4726 29.735 61.2839 29.7108 61.1071 29.6468C60.9303 29.5828 60.7697 29.4808 60.6367 29.3478C60.5038 29.2149 60.4017 29.0543 60.3378 28.8775C60.2738 28.7007 60.2495 28.512 60.2667 28.3247V14.3929C60.2667 9.41929 60.5592 7.05089 62.1893 4.94719ZM13.8738 10.8125C16.1157 8.22361 18.0166 5.3582 19.5302 2.28622C19.617 1.98747 19.8014 1.72639 20.0539 1.5446C20.3064 1.36281 20.6124 1.27076 20.9233 1.28313H25.5626C25.9806 1.28313 26.4821 1.47818 26.2035 2.28622C24.3645 7.74748 20.1571 12.54 17.8444 15.0199C21.7696 18.9547 24.8842 23.6219 27.0115 28.7566C27.2066 29.2581 27.109 29.8293 26.0502 29.8293H20.4775C20.1618 29.8673 19.8434 29.7853 19.5853 29.5995C19.3273 29.4137 19.1485 29.1377 19.0843 28.8263C17.7456 25.3203 15.7181 22.118 13.1215 19.4084C10.5897 22.1753 8.51993 25.3317 6.99155 28.7566C6.90468 29.0554 6.72031 29.3164 6.46782 29.4982C6.21533 29.68 5.90925 29.7721 5.59837 29.7597H0.555068C0.447978 29.7412 0.347003 29.6969 0.260882 29.6307C0.174761 29.5644 0.106089 29.4781 0.0608108 29.3793C0.0155324 29.2805 -0.00498837 29.1722 0.00102456 29.0637C0.0070375 28.9552 0.039403 28.8498 0.0953196 28.7566C1.96911 23.7335 4.99428 19.2196 8.92807 15.5771C5.59837 11.5091 2.28261 6.46576 1.00089 2.28622C0.954745 2.18306 0.934939 2.07005 0.943244 1.95735C0.951549 1.84464 0.987704 1.73576 1.04847 1.64047C1.10923 1.54518 1.1927 1.46647 1.29138 1.4114C1.39007 1.35633 1.50088 1.32661 1.61388 1.32493H7.57668C7.87242 1.3092 8.16448 1.39636 8.40322 1.5716C8.64196 1.74685 8.81265 1.99936 8.88627 2.28622C10.1606 5.33829 11.838 8.20588 13.8738 10.8125ZM120.675 10.8125C122.936 8.22661 124.856 5.3611 126.387 2.28622C126.474 1.98747 126.658 1.72639 126.911 1.5446C127.163 1.36281 127.469 1.27076 127.78 1.28313H132.378C132.796 1.28313 133.297 1.47818 133.018 2.28622C131.179 7.74748 126.972 12.54 124.659 15.0199C128.563 18.9613 131.658 23.6277 133.771 28.7566C133.966 29.2581 133.868 29.8293 132.809 29.8293H127.237C126.921 29.8673 126.603 29.7853 126.345 29.5995C126.086 29.4137 125.908 29.1377 125.844 28.8263C124.497 25.3335 122.465 22.1456 119.867 19.4502C117.373 22.2112 115.337 25.353 113.834 28.7566C113.747 29.0554 113.563 29.3164 113.311 29.4982C113.058 29.68 112.752 29.7721 112.441 29.7597H107.3C107.197 29.7357 107.101 29.6875 107.02 29.6189C106.938 29.5503 106.875 29.4634 106.834 29.3654C106.793 29.2674 106.776 29.161 106.785 29.0552C106.793 28.9493 106.827 28.8469 106.882 28.7566C108.742 23.744 111.748 19.2356 115.659 15.5911C112.33 11.5091 109.07 6.46576 107.788 2.28622C107.742 2.18306 107.722 2.07005 107.73 1.95735C107.739 1.84464 107.775 1.73576 107.836 1.64047C107.896 1.54518 107.98 1.46647 108.078 1.4114C108.177 1.35633 108.288 1.32661 108.401 1.32493H114.364C114.657 1.31248 114.946 1.40117 115.182 1.57615C115.418 1.75114 115.586 2.00181 115.659 2.28622C116.942 5.33982 118.629 8.20748 120.675 10.8125Z" fill="#04E4FF"/>
</svg>
