<svg fill="none" height="27" viewBox="0 0 150 27" width="150" xmlns="http://www.w3.org/2000/svg" xmlns:xlink="http://www.w3.org/1999/xlink"><radialGradient id="a" cx="22.9312" cy="17.7482" gradientUnits="userSpaceOnUse" r="3.87011"><stop offset="0" stop-color="#fff"/><stop offset="1" stop-color="#7a7d82"/></radialGradient><path d="m80.1042 26.1722v-12.5962c.0122-1.6049-.2115-2.9263-.6699-3.96339-.4577-1.03833-1.2002-1.80423-2.232-2.31125-1.0311-.50021-2.401-.74732-4.1207-.74732h-4.8863c-1.2844 0-2.3464.12658-3.1911.37369-.8448.25309-1.5145.63353-2.003 1.13952-.4889.51332-.8444 1.1529-1.0677 1.9251-.2292-.7722-.5858-1.41178-1.068-1.9251-.4824-.50599-1.1466-.88643-1.9906-1.13952-.8387-.24711-1.9185-.37369-3.2396-.37369h-4.742c-1.7136 0-3.0885.24711-4.1206.74732-1.0311.50702-1.7731 1.27292-2.2317 2.31125-.4525 1.03709-.6755 2.35849-.6692 3.96339v12.5962h5.2478v-11.8004c-.0058-.8021.0967-1.4356.296-1.9063.1984-.4638.5184-.7955.9526-.9948.4401-.1932 1.0082-.2898 1.7193-.2838h3.4391c.8262 0 1.5082.0487 2.0393.1632.5311.1085.9404.2827 1.2365.5311.2958.2471.5009.5786.6154.9831.1148.4096.1688.9108.1628 1.5075v11.8004h4.7421v-11.8004c-.0064-.5967.054-1.0979.1743-1.5075.1215-.4045.3317-.736.6274-.9831.2963-.2484.7065-.4226 1.2304-.5311.5252-.1145 1.1829-.1632 1.9858-.1632h3.5106c.6872-.006 1.2491.0906 1.6894.2838.4346.1993.7605.531.9714.9948.2044.4707.3073 1.1042.3073 1.9063v11.8004zm-67.7609 0 10.9132-19.11191h-5.5014l-10.91268 19.11191zm-6.84187 0 10.91267-19.11191h-5.5011l-10.913 19.11191zm84.26747 0v-19.11191h-5.5016v19.11191zm20.3791 0c1.822.006 3.343-.1447 4.56-.4463 1.219-.3076 2.19-.7897 2.909-1.4537.711-.6642 1.224-1.5388 1.532-2.6189.307-1.086.452-2.4009.446-3.951v-17.483142c-3.094.230014-5.407 2.454932-5.393 4.364912v1.96997h-10.895c-1.829-.00675-3.3547.14438-4.5787.44653-1.2317.30683-2.2024.79-2.9205 1.45947-.7174.66317-1.2304 1.54406-1.5383 2.63016-.3022 1.0858-.452 2.4069-.4462 3.9702v2.6419c-.0058 1.5501.144 2.865.4462 3.951.3079 1.0801.8209 1.9547 1.5383 2.6189.7181.664 1.6888 1.1461 2.9205 1.4537 1.224.3016 2.7497.4523 4.5787.4463zm30.912 0c1.731.006 3.173-.1266 4.331-.3865 1.152-.2652 2.069-.6933 2.745-1.284.675-.5918 1.159-1.3703 1.447-2.3474.284-.9715.423-2.1658.417-3.5834v-4.7779c.006-1.6647-.284-3.0288-.869-4.09649-.59-1.06727-1.528-1.86531-2.812-2.37632-1.284-.51126-2.964-.76615-5.043-.76615h-12.955c-.027 1.75679.941 3.73736 4.049 3.83656h8.906c.796 0 1.438.0806 1.925.2591.493.1804.85.501 1.073.9653.224.4583.339 1.0982.332 1.9248v.4345h-14.514c-1.352 0-2.468.1144-3.355.3438-.886.2289-1.58.5667-2.08 1.0072-.508.4464-.863.9831-1.068 1.6287-.212.6396-.309 1.3698-.302 2.1957v1.846c-.007.797.102 1.5142.325 2.154.223.6334.604 1.1765 1.14 1.6288.538.4522 1.267.797 2.203 1.0321.929.241 2.093.3616 3.498.3616zm-106.1133 0-14.9017-26.17199845h5.5012l14.9016 26.17199845zm109.6593-7.203c0 .7295-.066 1.3208-.21 1.7854-.139.4646-.357.8209-.645 1.068-.296.2531-.671.4284-1.129.5191-.459.0964-1.002.1443-1.635.1383h-10.135c-.694.0123-1.236-.1263-1.623-.4043-.387-.283-.578-.7601-.585-1.4416v-1.3389c0-.5131.084-.9177.241-1.2064.163-.2961.392-.4952.7-.6157.301-.1145.663-.1754 1.085-.1693h13.936zm-45.3904-3.7288c-.0051-.8744.0669-1.574.2057-2.1172.144-.5366.3928-.9472.7417-1.2241.35-.2841.833-.4711 1.448-.5739.622-.0959 1.4-.1443 2.347-.1383h10.244v6.4067c.006.8091-.054 1.4786-.174 2.0034-.128.5243-.34.9349-.646 1.2302-.308.289-.737.4944-1.285.615-.55.1157-1.25.175-2.094.1695h-6.009c-.953.0055-1.743-.0422-2.365-.1507-.62-.1025-1.11-.3016-1.466-.5859-.3489-.289-.5977-.6993-.7417-1.2365-.1388-.5306-.2108-1.2244-.2057-2.0809zm-11.329-9.80911c.6814 0 1.1648-.13255 1.4535-.39747.2957-.27174.4345-.69409.4288-1.26713v-2.09931c.0057-.5733-.1331-.989933-.4288-1.249067-.2887-.259135-.7721-.3857121-1.4535-.3796693h-1.773c-.6641-.0060428-1.1411.1205343-1.4239.3796693-.29.259134-.4282.675767-.4224 1.249067v2.09931c-.0058.57304.1324.99539.4224 1.26713.2828.26492.7598.39747 1.4239.39747z" fill="#fff"/><path clip-rule="evenodd" d="m23.4835 16.1582c1.9087 0 3.4558 1.5468 3.4558 3.4548 0 1.909-1.5471 3.4563-3.4558 3.4563-1.9083 0-3.4552-1.5473-3.4552-3.4563 0-1.908 1.5469-3.4548 3.4552-3.4548z" fill="#fff" fill-rule="evenodd"/><path d="m22.9522 23.0874v-.0643h-.3214v-.0643h-.1928v-.0643h-.2572v-.0642h-.1285v-.0643h-.1286v-.0643h-.1286v-.0643h-.1286v-.0643h-.0642v-.0643h-.1286v-.0643h-.0643v-.0642h-.0643v-.0643h-.1286v-.0643h-.0642v-.0643h-.0643v-.0643h-.0643v-.0643h-.0643v-.0643h-.0643v-.0642h-.0643v-.0643h-.0643v-.1286h-.0642v-.0643h-.0643v-.0643h-.0643v-.1285h-.0643v-.1286h-.0643v-.0643h-.0643v-.1286h-.0643v-.1285h-.0642v-.1929h-.0643v-.1928h-.0643v-.1929h-.0643v-.3857h-.0643v-.9h.0643v-.3857h.0643v-.1929h.0643v-.1928h.0643v-.1929h.0642v-.1286h.0643v-.1285h.0643v-.0643h.0643v-.1286h.0643v-.1286h.0643v-.0642h.0643v-.0643h.0642v-.1286h.0643v-.0643h.0643v-.0643h.0643v-.0643h.0643v-.0642h.0643v-.0643h.0643v-.0643h.0642v-.0643h.1286v-.0643h.0643v-.0643h.0643v-.0643h.0643v-.0642h.1285v-.0643h.1286v-.0643h.1286v-.0643h.1286v-.0643h.1285v-.0643h.2572v-.0643h.1928v-.0642h.2572v-.0643h1.1571v.0643h.3214v.0642h.1929v.0643h.1928v.0643h.1929v.0643h.1286v.0643h.0643v.0643h.1285v.0643h.1286v.0642h.1286v.0643h.0643v.0643h.0642v.0643h.0643v.0643h.0643v.0643h.1286v.0643h.0643v.0642h.0642v.1286h.0643v.0643h.0643v.0643h.0643v.0643h.0643v.0643h.0643v.1285h.0643v.1286h.0642v.0643h.0643v.1286h.0643v.1285h.0643v.1286h.0643v.1928h.0643v.2572h.0643v.1928h.0642v.5143h.0643v.3857h-.0643v.5143h-.0642v.1929h-.0643v.2571h-.0643v.1929h-.0643v.1286h-.0643v.1285h-.0643v.1286h-.0643v.0643h-.0642v.1286h-.0643v.1285h-.0643v.0643h-.0643v.0643h-.0643v.0643h-.0643v.0643h-.0643v.1285h-.0642v.0643h-.0643v.0643h-.1286v.0643h-.0643v.0643h-.0643v.0643h-.0642v.0642h-.1286v.0643h-.0643v.0643h-.1286v.0643h-.1285v.0643h-.1286v.0643h-.0643v.0643h-.1929v.0642h-.1928v.0643h-.1929v.0643h-.3214v.0643" fill="url(#a)"/><path clip-rule="evenodd" d="m26.9393 19.6135c0 1.9085-1.5471 3.4558-3.4556 3.4558-1.9082 0-3.4554-1.5473-3.4554-3.4558 0-1.9082 1.5472-3.4553 3.4554-3.4553 1.9085 0 3.4556 1.5471 3.4556 3.4553z" fill="#fff" fill-rule="evenodd"/></svg>