<svg fill="none" height="28" viewBox="0 0 150 28" width="150" xmlns="http://www.w3.org/2000/svg"><path d="m8.33719 5.46518c-1.26561-1.26561-2.53122-2.53122-3.79683-3.79683-.91775-.725321-2.23147-.5847-2.92348.24424-.6143.73272-.625406 1.86141.0185 2.66444l2.3906 2.3906c.75862.75863 1.96872.77713 2.76066.06661.24794-.30345.51438-.5995.79933-.88075.23684-.24794.49218-.46997.75122-.68831z" fill="#fff"/><path d="m8.35129 5.48013c-.0037-.0037-.0074-.0074-.01481-.0148-.25904.21834-.51438.44038-.75862.68462-.28125.28124-.54769.57729-.79563.88074.0259-.0259.05921-.04441.08511-.07031z" fill="#3d8dcc"/><g fill="#fff"><path d="m7.58209 22.6067c-1.99463-1.9946-3.11221-4.5333-3.35645-7.1385-.05551-.3034-.09622-.6069-.12212-.9178-.09252-1.1323-1.08428-1.9724-2.21667-1.8799-1.128688.0926-1.9724283 1.0843-1.87991298 2.2167.26644398 3.2454 1.68008298 6.3059 3.98556298 8.6113 5.36959 5.3659 14.103 5.3659 19.4689-.0037 1.0732-1.0731 1.9318-2.2832 2.5757-3.5748-.5218.9622-1.1842 1.8726-1.9984 2.6867-4.5443 4.5443-11.9123 4.5443-16.45661 0z"/><path d="m24.0393 6.14996c2.4979 2.49791 3.6155 5.85064 3.3675 9.11834.4367-4.0078-.8733-8.17468-3.9411-11.24249-5.3696-5.3696-14.10308-5.36589-19.46897 0-1.37662 1.37662-2.36099.54399-2.36099.54399s1.96503 1.96502 2.36099 2.36099c.77343.77343 2.00204.79193 2.80877.07771.24424-.29605.50328-.5847.77713-.86224 4.54437-4.54066 11.91227-4.54066 16.45667.0037z"/><path d="m24.0387 6.14996c-4.5444-4.54435-11.9123-4.54435-16.45666 0-.27754.27755-.53659.5662-.77713.86225.02961-.02961.06661-.04811.09622-.07772 3.76727-3.76722 9.89177-3.76722 13.65897 0 3.7672 3.76721 3.7635 9.89171 0 13.65901-3.7635 3.7672-9.8917 3.7672-13.65897 0-1.39883-1.3989-2.32769-3.19-2.67554-5.1217.24424 2.6052 1.36182 5.1439 3.35645 7.1385 4.54436 4.5444 11.91226 4.5444 16.45666 0 .8141-.8141 1.4765-1.7208 1.9983-2.6866.7364-1.4729 1.1916-3.0494 1.3655-4.6517.2517-3.2714-.8659-6.62412-3.3638-9.12204z"/><path d="m8.82939 10.298-.08881.0852c-1.05468 1.0213-1.08058 2.7051-.05551 3.7561l2.90863 3.0086c1.0436 1.0806 2.7644 1.1065 3.845.0629l1.7171-1.669-5.0181-5.1956c-.8992-.9252-2.37946-.9474-3.30831-.0482z"/><path d="m18.9691 10.3539c-1.0214-1.05472-2.7052-1.08062-3.7561-.0556l-2.7496 2.7422c-.2146.2257-.8437.8289-1.8725 1.0362-1.08428.2183-1.93542-.1369-2.21297-.2665l3.21957 3.3306c1.0435 1.0806 2.7643 1.1065 3.8449.0629l3.5637-3.4564c.1147-.1147.6957-.7031.7105-1.6431.0148-1.0139-.6402-1.6504-.7475-1.7503z"/><path d="m34.3818 22.2624v-13.45543h2.9346l.1888 1.22123h.1924c.6661-.91408 1.5061-1.48767 3.0678-1.48767 2.25 0 4.4037 1.63937 4.4037 5.18457 0 3.5267-2.1537 5.1845-4.4037 5.1845-1.5617 0-2.4017-.5513-3.0678-1.4876h-.1924v4.8404zm7.5678-8.5373c0-1.7911-.9326-2.6311-2.25-2.6311-1.3544 0-2.287 1.0657-2.287 2.6311 0 1.5616.9326 2.6311 2.287 2.6311 1.3174-.0037 2.25-.84 2.25-2.6311z"/><path d="m46.6934 18.6397v-9.83257h2.9345l.1888 1.48767h.1924c.6661-.95478 1.4877-1.48767 3.201-1.48767v2.87907c-.2479-.037-.4958-.037-.7253-.037-1.6949 0-2.6681.84-2.6681 2.8199v4.1743h-3.1233z"/><path d="m53.5176 13.7251c0-3.5082 2.3055-5.18457 5.488-5.18457 3.201 0 5.488 1.67637 5.488 5.18457s-2.287 5.1845-5.488 5.1845c-3.1825-.0037-5.488-1.68-5.488-5.1845zm7.7565 0c0-1.8503-.9141-2.7237-2.287-2.7237-1.4099 0-2.25.8771-2.25 2.7237 0 1.8503.8771 2.7236 2.287 2.7236 1.3729 0 2.25-.877 2.25-2.7236z"/><path d="m66.0186 18.6395v-5.5065c0-3.23805 1.6393-4.59247 4.3445-4.59247 1.7356 0 2.9346.55139 3.6414 1.80957h.1924c.7068-1.25818 1.9058-1.80957 3.6414-1.80957 2.7052 0 4.3445 1.35442 4.3445 4.59247v5.5065h-3.127v-5.5065c0-1.199-.5144-1.9428-1.6949-1.9428s-1.6948.7438-1.6948 1.9428v5.5065h-3.1271v-5.5065c0-1.199-.5143-1.9428-1.6948-1.9428s-1.6949.7438-1.6949 1.9428v5.5065z"/><path d="m84.085 22.2624v-13.45543h2.9345l.1888 1.22123h.1924c.6661-.91408 1.5062-1.48767 3.0678-1.48767 2.25 0 4.4037 1.63937 4.4037 5.18457 0 3.5267-2.1537 5.1845-4.4037 5.1845-1.5616 0-2.4017-.5513-3.0678-1.4876h-.1924v4.8404zm7.5677-8.5373c0-1.7911-.9325-2.6311-2.25-2.6311-1.3544 0-2.2869 1.0657-2.2869 2.6311 0 1.5616.9325 2.6311 2.2869 2.6311 1.3138-.0037 2.25-.84 2.25-2.6311z"/><path d="m97.3887 18.6395v-7.1829h-2.0391v-2.64968h2.0391v-2.63114h3.1273v2.63114h2.42v2.64968h-2.42v7.1866h-3.1273z"/><path d="m103.409 13.7251c0-3.5082 2.209-5.18457 5.433-5.18457 2.383 0 4.725 1.27671 4.918 4.11507h-2.994c-.285-1.3137-1.162-1.6579-1.961-1.6579-1.314 0-2.173.8771-2.173 2.7237 0 1.8503.859 2.7236 2.173 2.7236.799 0 1.676-.3441 1.961-1.6578h2.994c-.193 2.8383-2.535 4.115-4.918 4.115-3.224.0037-5.433-1.6726-5.433-5.1771z"/><path d="m114.9 13.7251c0-3.5452 2.154-5.18457 4.404-5.18457 1.562 0 2.402.56989 3.068 1.48767h.192l.189-1.22123h2.935v9.83253h-2.935l-.189-1.2212h-.192c-.666.9326-1.506 1.4876-3.068 1.4876-2.25 0-4.404-1.6578-4.404-5.1808zm7.757 0c0-1.5617-.933-2.6311-2.287-2.6311-1.314 0-2.25.84-2.25 2.6311s.932 2.6311 2.25 2.6311c1.354-.0037 2.287-1.0695 2.287-2.6311z"/><path d="m127.593 18.6397v-9.83257h2.934l.189 1.48767h.193c.666-.95478 1.487-1.48767 3.201-1.48767v2.87907c-.248-.037-.496-.037-.726-.037-1.695 0-2.668.84-2.668 2.8199v4.1743h-3.123z"/><path d="m134.417 13.7251c0-3.5082 2.191-5.18457 5.432-5.18457 3.05 0 4.974 1.80957 4.974 4.85887 0 .3627-.018.7439-.078 1.1435h-7.223c.192 1.3915 1.066 2.0983 2.287 2.0983.744 0 1.373-.285 1.713-.7624h3.049c-.569 1.7541-2.209 3.0308-4.725 3.0308-3.297-.0037-5.429-1.7355-5.429-5.1845zm7.316-1.1842c-.211-1.2397-1.162-1.7356-2.076-1.7356-.932 0-1.81.6291-2.076 1.7356z"/><path d="m146.332 9.23245h-.766v-.23684h1.792v.23684h-.767v2.03905h-.255v-2.03905z"/><path d="m147.824 8.99561h.259l.829 1.24339.829-1.24339h.259v2.27589h-.255v-1.84292l-.829 1.22122h-.015l-.829-1.21752v1.83922h-.252v-2.27589z"/></g></svg>