<svg fill="none" height="37" viewBox="0 0 164 37" width="164" xmlns="http://www.w3.org/2000/svg"><g fill="#fff"><path d="m48.3915 10.3713c-8.2262 0-13.3592 6.0092-13.3592 13.316 0 7.3568 5.032 13.3127 13.4131 13.3127 8.3878 0 13.4703-5.9593 13.4703-13.3127 0-7.3035-5.2912-13.3127-13.5242-13.316zm.0572 20.8258c-4.6651 0-7.0212-3.6268-7.0212-7.5098 0-3.8331 2.41-7.563 7.0212-7.563 4.2983 0 7.0247 3.7299 7.0247 7.563 0 3.8797-2.3595 7.5098-7.0247 7.5098z"/><path d="m73.4237 36.431h-6.3414v-36.208068h6.3414z"/><path d="m85.9785 36.431h-6.338v-36.208068h6.338z"/><path d="m99.6811 3.69335c0 4.9178-7.5464 4.9178-7.5464 0 0-4.92447 7.5464-4.92447 7.5464 0z"/><path d="m92.7069 36.431h6.3952v-25.6438h-6.3952z"/><path d="m125.08 36.431v-13.3659c0-3.883-2.147-6.8377-6.237-6.8377-3.935 0-6.604 3.2642-6.604 7.1472v13.0564h-6.341v-25.5905h5.708l.421 3.4737c2.619-2.5421 5.241-3.8364 8.489-3.8364 6.082 0 10.949 4.5085 10.949 12.5341v13.4191z"/><path d="m6.92029 24.2862h-6.92029v12.1448h6.92029z"/><path d="m21.4239 23.5742c6.9338-1.4108 9.2327-6.4284 9.2327-11.3895 0-6.26869-4.5608-11.965096-13.2078-12.018333-5.8129 0-11.63253-.04991-17.4488-.04991v8.651083l24.2648 27.66016h8.2228v-.4658zm-4.729-5.4269v-.0033l-9.77461-11.21981v-.38264h10.52851c4.3521 0 6.2875 2.89811 6.2875 5.80285 0 2.8981-1.8849 5.8029-6.2875 5.8029z"/><path d="m151.997 22.9087 10.535-11.6556v-.3627h-7.65l-7.792 9.1868v5.8361l9.205 10.5177h7.705v-.4691z"/><path d="m137.295 36.431h6.345v-36.208068h-6.345z"/></g></svg>