<svg fill="none" height="67" viewBox="0 0 201 67" width="201" xmlns="http://www.w3.org/2000/svg"><g fill="#fff"><path d="m201 42.2818c-.304.1029-.614.187-.929.2519-.492.0672-.671-.2127-.66-.6829.026-.6634-.019-1.3277-.135-1.9815-.196.2463-.403.4925-.593.7444-.313.4143-.605.4087-.907 0-.192-.2815-.444-.5167-.739-.6885v1.8361c0 .6101-.196.7948-.783.7948-.588 0-.778-.2519-.767-.8116.028-1.1867 0-2.3734 0-3.5601 0-.2911.117-.7557.302-.8285.216-.1004.46-.123.691-.0638.23.0592.433.1965.574.3885.37.5038.722 1.0132 1.12 1.5841.391-.5598.722-1.0467 1.086-1.5169.092-.1304.212-.2395.35-.3198.138-.0804.292-.1302.451-.1461s.32.0024.471.0538c.152.0514.29.1347.407.2441z"/><path d="m.00092019 33.1183c.01058181-6.5904 1.98401981-13.0283 5.66858981-18.4924 3.68458-5.46419 8.91329-9.70697 15.01909-12.18718 6.1059-2.4802221 12.8122-3.085451 19.2635-1.738493 6.4512 1.346963 12.355 4.585053 16.9584 9.301273 4.6033 4.7162 7.6975 10.6967 8.8878 17.1787 1.1904 6.4819.4229 13.1716-2.2044 19.2156-2.6274 6.044-6.9956 11.1684-12.5473 14.7196-5.5518 3.5512-12.0356 5.3682-18.6243 5.2191-17.9627-.3862-32.555723-15.2815-32.42137981-33.2162zm63.81287981.0391c-.0022-6.0552-1.7991-11.9739-5.1637-17.0083s-8.1458-8.95864-13.7397-11.27689c-5.5939-2.31824-11.7493-2.92649-17.6887-1.74788s-11.3963 4.09118-15.6811 8.36977c-4.28478 4.2785-7.20532 9.7311-8.39259 15.6688-1.18728 5.9376-.58803 12.094 1.72204 17.6912 2.31008 5.5973 6.22735 10.3843 11.25685 13.7562s10.9455 5.1775 17.0007 5.1885c8.1294-.0044 15.9252-3.2327 21.6777-8.9768s8.9922-13.5352 9.0085-21.6646z"/><path d="m109.035 50.0171c1.679 1.9984 3.605 3.4873 6.157 4.0975 3.102.7077 6.304.865 9.46.4646 1.78-.1959 2.385-.112 2.273 2.0095v1.2091c0 1.03-.425 1.6009-1.45 1.6793-2.631.1287-5.267.2799-7.892.1679-1.761-.1045-3.503-.4183-5.189-.9348-2.665-.778-4.781-2.4685-6.6-4.5397-.605-.6885-1.282-1.321-1.864-2.0207-.183-.2666-.438-.476-.735-.6038-.298-.1278-.625-.1688-.944-.1183-.397.0254-.796.0254-1.193 0 0 .3247-.044.5598-.044.8453v5.5976c0 1.2762-.471 1.724-1.7525 1.7296-.806 0-1.6121 0-2.4181 0-1.0916 0-1.5954-.5597-1.5954-1.6289 0-6.9634 0-13.925 0-20.8847 0-1.1195.4982-1.6009 1.601-1.6009 2.5917 0 5.189-.0504 7.781.0336 1.206.0486 2.402.2365 3.565.5597 1.388.3442 2.625 1.1317 3.524 2.243s1.411 2.4857 1.458 3.9144c.098 1.0212.081 2.0501-.05 3.0675-.156.8632-.501 1.6812-1.01 2.3954s-1.169 1.3069-1.935 1.7357c-.369.1567-.744.3526-1.147.5821zm-6.04-3.1179v-.0391c.56 0 1.164.0391 1.741 0 1.864-.1512 3.095-1.2763 3.219-2.8996.123-1.7241-.862-3.0171-2.799-3.3586-1.261-.1524-2.532-.2067-3.801-.1623-.129 0-.364.3526-.364.5597-.033 1.7857 0 3.5769 0 5.3626 0 .3974.118.5597.532.5597s.991-.0224 1.472-.0224z"/><path d="m88.8193 46.8031c1.4191.4997 2.6112 1.4931 3.3586 2.7988 2.1383 3.9183.1175 8.3964-4.3214 9.4376-1.4848.311-2.995.4853-4.5117.5205-2.211.084-4.4221 0-6.6387 0-1.3715 0-1.8584-.4814-1.8584-1.8528v-20.4089c0-1.3994.4646-1.8752 1.836-1.8584 2.6812.0336 5.3737 0 8.0382.1847 1.373.1467 2.7153.5035 3.9799 1.058.8206.3189 1.533.8655 2.0536 1.5755s.8277 1.5538.8851 2.4324c.1959 1.7688 0 3.4593-1.2483 4.8419-.4897.4646-1.0157.8895-1.5729 1.2707zm-8.1837 8.0885c1.1923 0 2.3062.0448 3.4145 0 .6675-.0434 1.3264-.1751 1.9592-.3918.4926-.1326.9224-.4351 1.2134-.8541.2909-.419.4243-.9275.3763-1.4353.0363-.5312-.1146-1.0584-.4264-1.4899-.3119-.4315-.7651-.7401-1.2808-.8723-1.7129-.5598-3.4762-.2631-5.2562-.3191zm-.028-14.8617v4.9203c.0287.0913.0803.1737.1498.2394.0696.0656.1549.1123.2476.1357.9604.0319 1.9218-.0037 2.8772-.1064.6106-.055 1.1779-.3388 1.5879-.7946.4101-.4558.6327-1.0497.6232-1.6627.0315-.3062.001-.6155-.0898-.9096s-.2399-.5668-.4384-.802c-.1986-.2351-.4425-.4278-.7172-.5665-.2748-.1387-.5746-.2207-.8817-.2409-1.1148-.1324-2.236-.2034-3.3586-.2127z"/><path d="m88.7351 19.6489c1.9424.778 3.3586 1.9759 3.8791 3.9183.9181 3.4985-.0503 7.5176-5.3793 8.4468-1.6382.2464-3.2917.3774-4.9483.3918-1.9199.0616-3.8455 0-5.7655 0-1.1755 0-1.6793-.4926-1.6793-1.6792 0-6.9336 0-13.8691 0-20.8064 0-1.11953.5598-1.67929 1.6513-1.63451 2.6813 0 5.3681 0 8.0438.14554 2.1103.12315 4.1198.67172 5.7599 2.19987 2.0488 1.9032 2.0096 7.2209-1.1867 8.7491-.1312.0806-.2565.1703-.375.2687zm-8.1278 8.2788c1.7353-.1343 3.3586-.1511 4.9651-.4086.5843-.0527 1.1246-.3327 1.5046-.7797s.5694-1.0253.5274-1.6105c0-1.3658-.627-2.239-2.0544-2.4797-1.5276-.1719-3.064-.2542-4.6012-.2463-.1119 0-.3303.2407-.3359.3694-.0056 1.6345-.0056 3.2634-.0056 5.1554zm0-14.9904v4.9147c0 .1288.2295.3695.3471.3639 1.1109.0213 2.2215-.0536 3.3194-.2239 1.2874-.2687 1.8808-1.2763 1.8192-2.6029.0108-.5574-.1899-1.0982-.5616-1.5136-.3718-.4154-.8872-.6746-1.4423-.7255-1.1084-.2015-2.2503-.1735-3.4818-.2407z"/><path d="m135.194 43.9599v.8285 13.0256c0 1.3043-.42 1.7297-1.719 1.7409-.828 0-1.679 0-2.485 0-1.12 0-1.556-.431-1.556-1.545 0-7.0082 0-14.0127 0-21.0134 0-1.0748.503-1.461 1.567-1.573.994-.146 2.009-.0255 2.941.3492.933.3747 1.749.9902 2.365 1.7835 1.708 1.9816 3.673 3.7336 5.514 5.5977.161.1865.305.3869.431.5989l.19-.1119c0-.1792.051-.3639.051-.5598 0-1.948 0-3.8904 0-5.8383 0-1.4162.386-1.8025 1.78-1.8025h2.015c1.64 0 1.976.3359 1.976 1.948v14.3635 6.107c0 1.2371-.453 1.6793-1.679 1.6793-.762 0-1.523 0-2.284 0-1.349 0-1.775-.4198-1.78-1.7577 0-2.0599 0-4.1198 0-6.1573.001-.2789-.094-.5497-.269-.7669-2.239-2.2391-4.478-4.4781-6.745-6.7172-.09-.0615-.157-.0839-.313-.1791z"/><path d="m116.336 20.3278v-10.1373c0-1.43854.448-1.88635 1.892-1.86956 2.323 0 4.657-.06717 6.969.13995 2.368.24493 4.594 1.24954 6.345 2.86381 1.75 1.6142 2.931 3.7514 3.367 6.0924.56 3.1234.509 6.2189-1.019 9.0905-.824 1.651-2.069 3.0554-3.609 4.0716s-3.32 1.6082-5.162 1.7164c-2.419.2071-4.87.1119-7.305.1175-.985 0-1.467-.5598-1.472-1.6793 0-2.1047 0-4.2038 0-6.3085zm5.838 7.0866h1.68c1.151-.0208 2.266-.4065 3.185-1.1016.918-.6951 1.592-1.6637 1.925-2.7663.693-2.0299.673-4.2354-.056-6.2526-.439-1.3629-1.371-2.5129-2.613-3.2243-1.243-.7114-2.706-.9329-4.104-.6212z"/><path d="m172.681 22.9462h-7.938v.7333 7.1873c0 1.1196-.408 1.5394-1.528 1.5506-.895 0-1.791 0-2.681 0-1.08 0-1.523-.4422-1.528-1.5002v-21.08622c0-1.06914.453-1.51135 1.511-1.51695h2.754c1.036 0 1.472.44221 1.472 1.47217v7.5176c0 .5598.157.6885.683.6773h6.572c.56 0 .711-.1903.705-.7277-.028-2.4181 0-4.8363 0-7.27688 0-1.33783.358-1.67929 1.719-1.67929h2.552c.197-.02196.397.00049.584.06569.187.06521.357.17152.498.31112.14.1396.248.30894.315.49559.066.18665.09.38586.07.58299v21.14778c.028.2005.011.4049-.052.5975s-.168.3683-.309.5137-.314.2565-.505.3249c-.19.0684-.394.0922-.595.0697-.985.028-1.971.028-2.95 0-.187.0219-.375.0005-.552-.0625s-.337-.1659-.467-.3008c-.131-.1348-.229-.298-.286-.4767s-.072-.3683-.044-.5538c0-2.3902 0-4.786 0-7.1818z"/><path d="m137.658 20.3112c0-3.3585 0-6.7171 0-10.0757 0-1.48895.431-1.93676 1.903-1.91997 2.301 0 4.618-.07277 6.902.12875 2.402.23768 4.659 1.255 6.428 2.89652 1.769 1.6415 2.952 3.817 3.368 6.194.56 3.2019.442 6.3589-1.209 9.2529-.854 1.5862-2.102 2.926-3.623 3.8906-1.522.9646-3.266 1.5216-5.064 1.6174-2.379.1904-4.781.1064-7.171.112-1.013 0-1.528-.5598-1.534-1.6233 0-2.5525 0-5.105 0-7.6576zm5.816-6.8794v13.994c.616 0 1.198.0392 1.769 0 2.34-.1959 4.064-1.3154 4.904-3.5545.446-1.1416.66-2.3606.63-3.5859s-.303-2.4325-.804-3.551c-.534-1.2176-1.473-2.2124-2.658-2.8146-1.185-.6023-2.543-.7748-3.841-.488z"/><path d="m151.62 47.5223v-10.2268c0-1.3994.453-1.8528 1.836-1.8528 1.97 0 3.918-.0336 5.905 0 2.793.0553 5.467 1.1438 7.505 3.0554 2.038 1.9115 3.295 4.5104 3.528 7.2946.308 2.247.064 4.5353-.711 6.6667-1.718 4.2598-4.971 6.5828-9.516 6.9803-2.289.1959-4.601.1063-6.902.1119-1.153 0-1.679-.5597-1.679-1.7129.019-3.4406.03-6.8794.034-10.3164zm5.771 7.0362h1.707c1.171-.0248 2.303-.4225 3.232-1.1352.93-.7128 1.607-1.7035 1.935-2.8279.408-1.3518.53-2.7741.358-4.1758-.297-3.7-2.799-5.9671-6.437-5.9839-.667 0-.812.2127-.812.8397.028 4.159 0 8.318 0 12.4771z"/><path d="m95.0827 17.4162c0-2.5022 0-5.0099 0-7.51762 0-1.11952.4814-1.57853 1.6009-1.58413h2.5469c1.1195 0 1.6005.487 1.6065 1.59532v13.49583c.025.8673.201 1.7235.521 2.5302.431 1.1195 1.393 1.5561 2.569 1.5953 1.265.0448 2.368-.3191 2.871-1.5338.354-.8663.544-1.7906.56-2.726.056-4.3605 0-8.7267 0-13.0872 0-1.47781.392-1.86965 1.864-1.86965h2.284c1.12 0 1.618.49819 1.623 1.6457v4.97065c0 3.0172.034 6.0399 0 9.0626-.018 1.0484-.138 2.0926-.358 3.1179-.22 1.2679-.819 2.4392-1.719 3.3596-.899.9204-2.056 1.5465-3.319 1.7958-2.417.6101-4.949.6101-7.366 0-3.0341-.7557-4.8589-2.8772-5.1444-6.1966-.1959-2.3118-.1231-4.646-.1679-6.969.0168-.5654.028-1.1252.028-1.6849z"/><path d="m180.961 35.0527c1.69.0533 3.356.4157 4.915 1.0692 1.015.4412 1.899 1.1367 2.567 2.0191.667.8825 1.096 1.9222 1.245 3.0187.202 1.1587-.129 1.6289-1.271 1.8473-.985.1847-1.976.3414-2.972.4814-.599.0839-.946-.14-1.041-.8117-.375-2.6421-3.689-3.1515-5.239-2.1383-.282.1792-.514.4258-.676.7175-.162.2916-.248.6191-.252.9527-.003.3336.077.6627.233.9575.156.2949.383.5461.661.7309.775.4442 1.588.8189 2.429 1.1195 1.568.6437 3.208 1.1195 4.702 1.9144 3.157 1.6793 4.159 4.6964 3.443 7.8982-.189.9399-.62 1.8142-1.25 2.5367-.631.7225-1.438 1.2682-2.344 1.5832-2.86 1.1193-6.011 1.2532-8.956.3806-2.676-.8004-4.249-2.7036-4.758-5.4521-.185-.9851.14-1.433 1.12-1.6289.979-.1959 1.886-.3526 2.838-.4926.951-.1399 1.147.0672 1.309.9516.086.4444.286.8588.58 1.2024.295.3435.674.6044 1.1.7568 1.025.4194 2.166.4591 3.218.112.427-.1134.806-.3604 1.082-.7049s.435-.7684.452-1.2095c.068-.4173-.012-.8453-.228-1.2088-.217-.3634-.554-.6391-.953-.7784-1.12-.4814-2.301-.834-3.454-1.2483-.946-.3414-1.914-.6213-2.827-1.0299-3.213-1.4442-4.343-3.7616-4.153-6.8179.081-1.4549.63-2.8447 1.565-3.9622.935-1.1176 2.206-1.9033 3.624-2.24 1.087-.2319 2.186-.4076 3.291-.5262z"/><path d="m192.594 28.1769h-5.53c-.198.8732-.394 1.7409-.588 2.6029-.274 1.2483-.767 1.6401-2.049 1.6401-.918 0-1.836 0-2.748 0-.913 0-1.394-.5598-1.12-1.4946 2.026-7.0903 4.06-14.1713 6.102-21.24295.081-.41027.313-.77538.649-1.02386.337-.24847.754-.36243 1.17-.31957h2.754c1.175 0 1.679.36385 1.981 1.48897 1.825 6.34401 3.652 12.68791 5.48 19.03191l.56 1.9312c.319 1.1195-.045 1.6289-1.198 1.6345h-2.754c-.486.0491-.973-.0936-1.355-.3979-.383-.3043-.632-.746-.693-1.231-.196-.8285-.375-1.6793-.56-2.4854-.017-.0391-.056-.0727-.101-.1343zm-2.676-12.2364h-.173l-1.836 8.3237h3.89c-.638-2.8212-1.259-5.5697-1.881-8.3237z"/><path d="m125.388 52.2455h-.559c-1.383 0-1.764-.2463-2.049-1.5954-.006-.1439-.044-.2847-.112-.4119-.068-.1271-.163-.2375-.279-.3229s-.25-.1437-.392-.1706c-.141-.0268-.287-.0216-.426.0154-.983.056-1.968.056-2.95 0-.56 0-.834.1288-.89.6997-.033.264-.103.522-.207.7669-.097.303-.288.5668-.546.7524-.258.1855-.569.2829-.887.2776-.622 0-1.248 0-1.875 0-1.058 0-1.411-.4646-1.12-1.4946.621-2.1439 1.26-4.2822 1.892-6.4205l2.15-7.2769c.375-1.2594.867-1.6233 2.177-1.6233h1.942c1.148 0 1.68.3862 1.999 1.4946 1.164 3.9108 2.325 7.8292 3.481 11.755.196.6605.398 1.3266.588 1.9927.314 1.1196-.039 1.5618-1.17 1.5674zm-5.037-11.296h-.152c-.459 1.7688-.923 3.5377-1.388 5.3345h2.866z"/><path d="m193.768 38.6437v3.0731c0 .5597-.162.8452-.8.8396-.639-.0056-.734-.319-.728-.8396 0-.9964 0-1.9984 0-3.0563-.246 0-.437-.056-.627-.056-.47 0-.683-.2239-.677-.7109.005-.487.263-.6045.683-.6045h2.742c.431 0 .683.1343.694.5989.012.4646-.184.7165-.666.7165-.151 0-.341.0224-.621.0392z"/><path d="m39.6894 49.0546c-1.2897-.1122-2.5328-.5367-3.6216-1.2371-.8708-.5817-1.8944-.8922-2.9416-.8922-1.0471 0-2.0708.3105-2.9415.8922-1.2129.7783-2.6177 1.2049-4.0585 1.2326s-2.8611-.3447-4.1029-1.0759c-.89-.4758-1.1699-1.209-.7836-1.9255.3862-.7165 1.1475-.8789 2.0319-.3863.8552.5185 1.841.7813 2.8408.7575.9999-.0238 1.972-.3332 2.8016-.8918 1.2457-.8182 2.7021-1.2574 4.1924-1.2643 1.4904-.007 2.9507.4186 4.204 1.2251 1.976 1.1643 3.9184 1.2651 5.8943.1008.1478-.1025.3152-.1733.4916-.208.1765-.0347.3582-.0326.5338.0063s.3412.1137.4865.2197.2671.2409.3577.3962c.0883.1572.1439.3306.1634.5098.0196.1792.0027.3605-.0496.5331-.0523.1725-.1389.3327-.2546.4709-.1158.1382-.2583.2516-.4189.3334-1.4568.8628-3.1339 1.2811-4.8252 1.2035z"/><path d="m22.3922 25.1303c-2.0748.0213-4.0798.7522-5.6815 2.0711-.9292.7445-1.6793.8005-2.2391.1567-.5598-.6437-.3806-1.4162.5878-2.2054 2.1448-1.7284 4.8212-2.662 7.5757-2.6426 2.7545.0193 5.4176.9905 7.5378 2.7489.2602.1884.4637.4447.5881.7408.1243.2962.1649.6208.1172.9385-.291 2.3062-.5597 4.618-.834 6.9243-.0166.1734-.069.3416-.1539.4937-.0849.1522-.2004.2851-.3393.3903s-.2981.1805-.4676.221c-.1695.0406-.3455.0455-.517.0145-.1797-.021-.353-.0792-.5089-.171-.1558-.0919-.2908-.2153-.3962-.3623s-.1789-.3145-.2158-.4916c-.037-.1771-.0365-.3599.0014-.5368.2183-1.8864.4254-3.7784.6885-5.6592.0511-.228.0236-.4665-.0781-.6769-.1016-.2103-.2713-.3802-.4817-.4818-1.5406-1.0004-3.3469-1.5135-5.1834-1.4722z"/><path d="m43.7514 22.522c2.8031-.0252 5.5221.956 7.6632 2.7652.7837.6437.9236 1.461.4086 2.0879-.2866.2656-.6652.4094-1.0558.4011-.3906-.0084-.7628-.1683-1.0377-.4459-1.4962-1.2845-3.3664-2.0528-5.3336-2.1909-1.9671-.1381-3.9263.3612-5.5874 1.424-.2446.1226-.4407.3241-.5565.572-.1159.2479-.1446.5276-.0816.7939.2575 1.8136.4534 3.6384.6549 5.4576.1008.918-.3358 1.5282-1.1195 1.6122-.7837.0839-1.321-.3527-1.4442-1.2763-.291-2.3062-.5597-4.618-.8396-6.9243-.0377-.278.0012-.5611.1127-.8186s.2912-.4796.5198-.6423c2.1422-1.8359 4.8756-2.8358 7.6967-2.8156z"/><path d="m33.1782 41.7892c-1.6065 0-3.2186 0-4.8308 0-2.0487 0-3.5545-1.1867-3.9183-3.0619-.0864-.4352-.0652-.8848.0616-1.3099.0874-.2603.2674-.4794.5058-.6156.2384-.1363.5186-.1801.7872-.1233.2821.0172.5498.1304.7585.3209.2088.1904.3461.4466.389.7259.3191 1.3098.515 1.4721 1.8529 1.4721h8.9561c1.1644 0 1.4834-.2798 1.6793-1.4329.0447-.3404.2223-.6492.4939-.8589.2717-.2098.6154-.3035.9559-.2607.3329.0552.6326.234.8392.5008.2065.2668.3047.6018.2747.9378-.0174.9125-.3689 1.7868-.9879 2.4574s-1.4625 1.0908-2.3706 1.1811c-1.8081.1007-3.6217 0-5.4353 0z"/><path d="m22.521 18.8111c-2.1553.0665-4.274.5752-6.2246 1.4945-.4348.2049-.9318.235-1.3882.084-.1903-.1263-.352-.2913-.4745-.4841-.1225-.1929-.203-.4094-.2364-.6354-.0261-.259.0345-.5193.1723-.7402.1377-.2208.3449-.3897.589-.4801 1.6689-.8709 3.4787-1.4394 5.3457-1.6793 3.2823-.45 6.6238.1063 9.5832 1.5953.4199.2249.7572.5779.9628 1.0076.093.2331.102.4913.0254.7304-.0766.239-.234.4439-.4453.5794-.2203.1541-.4783.2453-.7465.2641-.2682.0187-.5364-.0358-.776-.1577-1.2763-.459-2.5525-.9348-3.8624-1.2819-.8325-.1641-1.6766-.2633-2.5245-.2966z"/><path d="m43.4715 16.248c2.6682-.0404 5.3073.5585 7.6968 1.7465.3953.221.7077.5649.89.9796.0871.2346.0931.4917.017.7301s-.2299.4445-.4368.5853c-.2027.1613-.4488.2587-.707.2796-.2582.021-.5168-.0355-.7428-.1621-1.4391-.7261-2.988-1.2103-4.5845-1.4329-2.772-.353-5.5868.11-8.0997 1.3322-.3855.2093-.8375.2595-1.2595.1399-.4087-.2383-.7066-.6287-.8284-1.0859-.0452-.2684.005-.5442.1421-.7794.137-.2352.3521-.415.6079-.5081 1.7469-.8988 3.6445-1.4681 5.5977-1.6793.6885-.0895 1.3378-.1175 1.7072-.1455z"/><path d="m33.2117 51.5723h4.758c.9684 0 1.5226.487 1.5226 1.3042 0 .8173-.5598 1.3155-1.517 1.3155-3.1944 0-6.3925 0-9.5943 0-.974 0-1.5338-.4702-1.5506-1.2763s.5598-1.3378 1.5506-1.3434z"/><path d="m34.7667 13.7845c.0023.2116-.0377.4215-.1177.6174-.0799.196-.1982.374-.3478.5236s-.3276.2679-.5235.3478c-.196.0799-.4059.12-.6175.1177-.4216.0052-.828-.1573-1.1298-.4517-.3018-.2945-.4743-.6968-.4795-1.1184s.1573-.8281.4518-1.1299c.2944-.3018.6967-.4742 1.1183-.4794.2117-.006.4224.0301.62.1061.1976.0761.3781.1905.5312.3368.153.1463.2756.3215.3605.5155.0848.1939.1304.4028.134.6145z"/></g></svg>