<svg fill="none" height="12" viewBox="0 0 150 12" width="150" xmlns="http://www.w3.org/2000/svg"><g fill="#fff"><path d="m69.2246.508301h3.115l5.7541 6.792459h.0433v-6.792459h3.115v11.075599h-3.1583l-5.7108-6.79246h-.0433v6.79246h-3.115z"/><path d="m87.3936 2.97435v1.81709l3.5477.04327v2.42278h-3.5477v1.90362h3.7207v2.46609l-6.8789-.0433.0432-11.075599h6.8357v2.466049z"/><path d="m98.1255 7.69013h.0432l2.5093-7.138565h2.509l2.337 7.138565h.043l2.293-7.138565h3.245l-3.851 11.075635h-3.201l-2.12-6.44638-2.3798 6.44638h-3.2015l-3.591-11.118899h3.2881z"/><path d="m6.01761 7.04128c.38937.77875.73548 1.5575 1.12486 2.24973h.04327c.43264-.77876.86528-1.64404 1.29792-2.46605l1.55754-3.15828c.7355-1.51424 1.2114-2.42279 1.2114-3.201541.5624.043264.9085.043264 1.2546.043264.4327 0 .9518 0 1.471-.043264.0865.086528.0865.346112 0 .432641l-.3461.043264c-1.0384.086526-1.1682.432636-1.1682 1.557506.0433 1.77383.0433 4.80231.1731 7.18183.0433.82202.0433 1.25462.822 1.34122l.5192.0432c.0865.0866.0865.3461-.0433.4327-.6922-.0433-1.3412-.0433-1.9469-.0433-.5624 0-1.3411 0-1.9901.0433-.12979-.0866-.12979-.3029-.04327-.4327l.47587-.0432c.8221-.0866.8221-.3461.8221-1.42774l-.0433-6.92225c-.1298.17305-.7355 1.51424-1.0816 2.1632l-1.47099 2.94195c-.73549 1.47098-1.51424 3.02844-1.77382 3.76394-.04327.0433-.08653.0866-.17306.0866-.04326 0-.12979 0-.12979-.0866-.25959-.8652-1.0816-2.50928-1.47098-3.33129l-1.47098-3.20154c-.38937-.73549-.73549-1.60078-1.0816-2.37953h-.04326c-.08653 1.03834-.1298 1.99015-.17306 2.98522-.04326.99508-.12979 2.46605-.12979 3.89377 0 1.21137.08653 1.47097.73549 1.55747l.64896.0433c.12979.0865.08653.3461 0 .4326-.56244-.0432-1.2114-.0432-1.81709-.0432-.51917 0-1.124868 0-1.6873008.0432-.08652808-.0865-.1297921-.3461-.043264-.4326l.3461128-.0865c.692222-.0866.908542-.2164 1.038342-1.34122.08652-1.0816.17305-1.99014.30284-3.63418.08653-1.38445.17306-2.7689.17306-3.67744.04326-1.03834-.08653-1.29792-1.124866-1.427716l-.259584-.086528c-.086528-.086529-.086528-.346113.086528-.432641.475902.043264.908542.043264 1.297922.043264s.82202 0 1.38445-.043264c-.08653.692225.30285 1.730565.82202 2.768895z"/><path d="m22.6281 7.60391c-.1298-.34611-.173-.43264-.6922-.43264h-2.5093c-.4327 0-.5192.04327-.649.38938l-.5624 1.73056c-.2596.73549-.3461 1.21139-.3461 1.38449 0 .2163.0865.3028.4759.3461l.5624.0432c.1298.0866.1298.3462-.0433.4327-.4326-.0433-.9518-.0433-1.7305-.0433-.5625 0-1.1249.0433-1.6008.0433-.0865-.0865-.1298-.3461-.0433-.4327l.5625-.0432c.3894-.0433.7787-.2163.9951-.822.3028-.7788.7787-1.81713 1.4709-3.67749l1.6873-4.4562c.2164-.60569.3461-.90854.3029-1.168126.3894-.129792.6922-.43264.8653-.648961.0865 0 .2163.043264.2595.129793.2164.735484.4759 1.470974.7355 2.206464l2.2498 6.70593c.4759 1.42769.6922 1.68729 1.3844 1.77379l.4327.0433c.1297.0865.0865.3461 0 .4326-.6923-.0432-1.2547-.0432-1.9902-.0432-.7787 0-1.4277.0432-1.9036.0432-.1298-.0865-.1298-.3461-.0433-.4326l.4759-.0433c.3461-.0432.5625-.1298.5625-.3028 0-.1731-.0866-.4759-.2164-.86529zm-3.2881-1.47097c-.1297.38937-.1297.38937.3462.38937h2.0334c.4759 0 .5191-.08653.3461-.51917l-.9086-2.68237c-.1298-.38937-.2595-.86528-.3893-1.03834h-.0433c-.0433.08653-.2163.47591-.3894.99508z"/><path d="m32.2338 8.98811c0 1.73059.0433 1.99019.9951 2.07669l.5192.0432c.0865.0866.0865.3462-.0433.4327-.9518-.0433-1.5142-.0433-2.1632-.0433s-1.2547 0-2.293.0433c-.0865-.0433-.1298-.3461 0-.4327l.6057-.0432c.9518-.0865 1.0383-.3461 1.0383-2.07669v-7.39816c0-.51916 0-.51916-.4759-.51916h-.9085c-.6922 0-1.6441.04326-2.0334.43264-.3894.34611-.5625.73549-.7355 1.12486-.1298.08653-.3461 0-.4327-.12979.2596-.73549.5192-1.817091.649-2.466052 0-.043264.1731-.043264.2596 0 .0865.519169.6489.519169 1.4277.519169h6.7059c.9086 0 1.0384-.043264 1.298-.4759049.0865-.0432641.2595 0 .3028.0432639-.2163.692225-.3461 2.033414-.3028 2.509314-.0866.12979-.3462.12979-.4327.04327-.0433-.43264-.173-1.03834-.4326-1.2114-.3894-.30285-.9951-.43264-1.9036-.43264h-1.1682c-.4759 0-.4759 0-.4759.56243z"/><path d="m39.7613 3.06118c0-1.55751-.0433-1.86036-.7355-1.94689l-.5192-.08653c-.1297-.086523-.1297-.346108 0-.432636.9086-.086528 2.0767-.129792 3.6775-.129792 1.0383 0 1.9901.086528 2.7689.519169.7787.432639 1.3844 1.168129 1.3844 2.336259 0 1.55751-1.2546 2.42279-2.0766 2.7689-.0866.08653 0 .25958.0865.38938 1.3412 2.11993 2.2065 3.46112 3.3313 4.41296.2596.2596.6923.4326 1.1249.4759.0865.0432.0865.173 0 .2163-.1298.0433-.4326.0865-.7355.0865-1.4277 0-2.2497-.4326-3.4179-2.07665-.4326-.6057-1.1248-1.77383-1.6007-2.50932-.2596-.34611-.5192-.51917-1.1682-.51917-.7354 0-.7787 0-.7787.34612v2.07667c0 1.73055.0433 1.94685.9951 2.07665l.3461.0433c.0865.0865.0865.3461-.0433.4326-.7355-.0432-1.2979-.0432-1.9901-.0432-.6923 0-1.298 0-2.0767.0432-.0865-.0432-.1298-.3028-.0433-.4326l.4327-.0433c.9518-.1298.995-.3461.995-2.07665zm1.3412 2.33625c0 .30285 0 .47591.0433.56244.0432.04326.3028.08653 1.1248.08653.6057 0 1.2114-.04327 1.6873-.43265.4327-.34611.822-.90854.822-2.03341 0-1.29792-.822-2.55258-2.6391-2.55258-1.0383 0-1.0816.08653-1.0816.51917z"/><path d="m51.7048 3.06118c0-1.77383-.0432-2.03342-.9951-2.119943l-.4326-.043264c-.0865-.086529-.0865-.346113.0433-.432641.822.043264 1.3844.043264 2.0766.043264.649 0 1.2114 0 2.0335-.043264.0865.043264.1297.346112.0432.432641l-.4326.043264c-.9951.086523-.9951.346113-.9951 2.119943v5.88391c0 1.77381.0433 1.99011.9951 2.11991l.4326.0433c.0865.0865.0865.3461-.0432.4326-.8221-.0432-1.3845-.0432-2.0335-.0432-.6922 0-1.2546 0-2.0766.0432-.0866-.0432-.1298-.3028-.0433-.4326l.4326-.0433c.9951-.1298.9951-.3461.9951-2.11991z"/><path d="m67.4079 11.1516c.1298.0865.0865.3461 0 .4326-.7788-.0433-1.4277-.0433-2.0767-.0433-.7355 0-1.5575 0-2.1199.0433-.0866-.0865-.1298-.3029-.0433-.4326l.4759-.0433c.3894-.0433.5624-.0865.5624-.2163 0-.0866-.0432-.2596-.3461-.7355-.6922-.99509-1.644-2.37954-2.3795-3.33135-.4326.56243-1.6873 2.37952-2.3363 3.50435-.1298.2164-.2163.4327-.2163.5192s.1298.1731.4759.2163l.4327.0433c.1298.0865.0865.3461 0 .4326-.6057-.0432-1.2114-.0432-1.7739-.0432-.5624 0-1.1681 0-1.6873.0432-.1298-.0865-.173-.3028-.0432-.4326l.4326-.0433c.9086-.0865 1.471-.822 1.9902-1.47095.2163-.25958 1.3412-1.73056 2.2497-3.02849.1298-.17305.1298-.25958.1298-.34611 0-.04326-.0865-.21632-.2163-.38937l-2.4661-3.54766c-.5624-.77875-.8653-1.12486-1.4277-1.25466l-.5192-.129787c-.0865-.086529-.0865-.346113.0433-.432641.7787.043264 1.3412.043264 1.9036.043264.649 0 1.3845 0 1.8604-.043264.1298.043264.1298.302848.0432.432641l-.4759.043264c-.3028 0-.4759.129793-.4759.216323 0 .12979.1731.43264.4759.90854.5625.77876 1.5143 2.293 2.12 3.02849.4326-.51917 1.9036-2.8987 2.2064-3.3746.1298-.21632.2164-.43264.2164-.56243 0-.08653-.2596-.173059-.5625-.216323l-.4326-.043264c-.0865-.129793-.0865-.346113.0432-.432641.5625.043264 1.1249.043264 1.7739.043264.6057 0 1.0816 0 1.6007-.043264.1298.086528.1298.302848.0433.432641l-.3894.043264c-.4759.043264-1.0816.562433-1.7738 1.384453-.649.82201-1.3412 1.81709-2.1632 2.94195-.0865.1298-.1731.25959-.1731.30285 0 .04327 0 .17306.2164.43264l2.8121 3.93703c.5625.77874.9951 1.03834 1.5143 1.08164z"/><path d="m123.522 6.08957c0 3.20154-2.639 5.71083-5.798 5.71083-3.158 0-5.797-2.55255-5.754-5.71083 0-3.15828 2.639-5.754121 5.798-5.754121 3.158 0 5.797 2.552581 5.754 5.754121zm-10.297-.04326c0 2.50931 2.033 4.58599 4.543 4.58599 2.509 0 4.542-2.07668 4.542-4.58599 0-2.50932-1.99-4.586-4.542-4.586-2.553 0-4.543 2.07668-4.543 4.586z"/><path d="m127.07 11.6274h-1.255v-11.075642h1.601c2.12 0 4.067.562432 4.067 3.071752 0 1.68729-1.082 2.89869-2.769 3.07174l3.505 4.97535h-1.515l-3.331-4.88882h-.303zm0-5.97048h.389c1.385 0 2.813-.25959 2.813-1.99015 0-1.81709-1.342-1.99015-2.813-1.99015h-.346z"/><path d="m135.983 10.459h3.072v1.1682h-4.326l.043-11.118899 1.211.043264z"/><path d="m141.78.551758h2.076c1.644 0 3.029.21632 4.327 1.341182 1.254 1.08161 1.817 2.59585 1.817 4.23988 0 1.60077-.606 3.02849-1.817 4.11008-1.342 1.1681-2.639 1.3845-4.37 1.3845h-2.077zm2.12 9.950742c1.341 0 2.466-.1731 3.504-1.12487.908-.86528 1.384-2.03341 1.384-3.24481 0-1.25466-.476-2.46605-1.427-3.33133-.995-.90855-2.12-1.0816-3.461-1.0816h-.909v8.78261z"/></g></svg>