<svg fill="none" height="61" viewBox="0 0 150 61" width="150" xmlns="http://www.w3.org/2000/svg" xmlns:xlink="http://www.w3.org/1999/xlink"><clipPath id="a"><path d="m0 0h150v60.7595h-150z"/></clipPath><g clip-path="url(#a)" fill="#fff"><path d="m6.14464 57.732.17098-1.3397.34196-1.9h1.85634l-1.0503 5.9192h-1.80749l-1.56323-3.2154-.17098 1.3398-.31753 1.8756h-1.85634l1.05029-5.9192h1.80749zm2.32043 2.6795 3.17533-5.9192h1.9785l1.0747 5.9192h-1.9296l-.0977-.7795h-1.9297l-.3663.7795zm3.83483-4.141-.977 2.1192h1.2212zm3.3463-1.7782h5.4469l-.2687 1.559h-1.7586l-.7572 4.3602h-1.9541l.7816-4.3602h-1.7586zm5.6178 5.9192 1.0503-5.9192h1.9541l-1.0503 5.9192zm9.9901-2.9961c-.3664 2.0218-1.9052 3.1423-3.6638 3.1423-1.8564 0-2.9067-1.1449-2.5403-3.1667.3175-1.8513 1.8075-3.0692 3.6394-3.0692 2.1006.0243 2.8334 1.5346 2.5647 3.0936zm-4.2745 0c-.1221.7551-.0733 1.7051.8549 1.7051.8305 0 1.2946-.7308 1.4655-1.7051.1466-.8039-.0244-1.6564-.9037-1.6321-.8793 0-1.2945.9013-1.4167 1.6321zm9.3794.3166.171-1.3397.3175-1.9h1.8808l-1.0503 5.9192h-1.8319l-1.5388-3.2154-.171 1.3398-.342 1.8756h-1.8563l1.0503-5.9192h1.8319zm2.296 2.6795 3.1753-5.9192h1.9785l1.0747 5.9192h-1.9296l-.0977-.7795h-1.9296l-.3664.7795zm3.8348-4.141-.977 2.1192h1.2213zm3.444 4.141 1.0503-5.9192h1.9541l-.8061 4.5551h2.6624l-.2442 1.3641zm14.6065.0244h-1.2457l.0244-.5846c-.3908.3897-.977.7307-1.9296.7307-1.5144 0-2.7112-.9743-2.3448-3.0448.3419-1.9 1.7586-3.1911 3.6638-3.1911 1.4167 0 2.4425.7308 2.4181 2.1923h-1.8563c-.0489-.4871-.3664-.7551-.8549-.7551-.7572 0-1.2457.6821-1.4411 1.7295-.1466.8282-.0244 1.6077.9526 1.6077.3908 0 .9526-.2679 1.1236-.6821h-.8549l.2198-1.291h2.6624zm7.9383-3.0205c-.3664 2.0218-1.9052 3.1423-3.6638 3.1423-1.8564 0-2.9067-1.1449-2.5403-3.1667.3176-1.8513 1.8075-3.0692 3.6394-3.0692 2.125.0243 2.8578 1.5346 2.5647 3.0936zm-4.2745 0c-.1221.7551-.0732 1.7051.8549 1.7051.8305 0 1.2946-.7308 1.4656-1.7051.1465-.8039-.0245-1.6564-.9038-1.6321-.8549 0-1.2701.9013-1.4167 1.6321zm5.0317 2.9961 1.0503-5.9192h1.954l-.806 4.5551h2.6624l-.2443 1.3641zm5.8133 0 1.0503-5.9192h4.6164l-.2443 1.3885h-2.6623l-.1954 1.0717h2.125l-.2443 1.3885h-2.125l-.3664 2.0705zm8.9153 0 1.0259-5.9192h4.6408l-.2442 1.3885h-2.6868l-.1954 1.0717h2.125l-.2443 1.3885h-2.125l-.3664 2.0705zm12.286-2.9961c-.3663 2.0218-1.9052 3.1423-3.6638 3.1423-1.8563 0-2.9066-1.1449-2.5402-3.1667.3175-1.8513 1.8074-3.0692 3.6394-3.0692 2.1006.0243 2.8333 1.5346 2.5646 3.0936zm-4.2744 0c-.1222.7551-.0733 1.7051.8549 1.7051.8304 0 1.2945-.7308 1.4655-1.7051.1466-.8039-.0244-1.6564-.9038-1.6321-.8793 0-1.2945.9013-1.4166 1.6321zm6.0087-2.9231h1.954l-.6351 3.532c-.0977.5847-.0732 1.0962.7324 1.0962.709 0 .977-.4385 1.1-1.0962l.635-3.532h1.954l-.587 3.3372c-.342 1.9-1.367 2.7282-3.3459 2.7282-1.8319 0-2.7356-.7064-2.3692-2.7282zm10.5763 3.2397.146-1.3397.342-1.9h1.857l-1.051 5.9192h-1.807l-1.563-3.2154-.147 1.3398-.342 1.8756h-1.856l1.05-5.9192h1.808zm2.736 2.6795 1.05-5.9192h2.613c1.906 0 2.956.9013 2.59 2.8256-.391 2.2167-1.784 3.0936-3.689 3.0936zm2.198-1.3641h.415c.904 0 1.49-.4872 1.685-1.6077.22-1.2423-.122-1.5589-1.172-1.5589h-.366zm4.103 1.3641 3.176-5.9192h1.978l1.075 5.9192h-1.93l-.097-.7795h-1.93l-.366.7795zm3.835-4.141-.977 2.1192h1.221zm3.371-1.7782h5.447l-.293 1.559h-1.735l-.781 4.3602h-1.93l.757-4.3602h-1.734zm5.593 5.9192 1.051-5.9192h1.954l-1.051 5.9192zm9.99-2.9961c-.366 2.0218-1.905 3.1423-3.663 3.1423-1.857 0-2.907-1.1449-2.541-3.1667.318-1.8513 1.808-3.0692 3.664-3.0692 2.101.0243 2.833 1.5346 2.54 3.0936zm-4.274 0c-.122.7551-.073 1.7051.855 1.7051.83 0 1.294-.7308 1.465-1.7051.147-.8039-.024-1.6564-.903-1.6321-.855 0-1.295.9013-1.417 1.6321zm9.379.3166.171-1.3397.342-1.9h1.857l-1.051 5.9192h-1.807l-1.563-3.2154-.171 1.3398-.318 1.8756h-1.856l1.026-5.9192h1.832z"/><path d="m74.6333 49.0359s7.8406.4872 13.5561-5.1154c-15.4369.0487-26.6482.0244-26.6482.0244s4.3477 5.0423 13.0921 5.091zm14.8995-5.1884h10.4298l-.8061 4.3602h-9.99zm-41.157 0-.7572 4.3602h-13.6294l-2.125-4.3602zm-44.67428 0-.73277 4.4089h14.50875l.7328-4.4333zm100.97548 0-.758 4.3602h15.144l.758-4.3602zm-3.884-5.0667h-9.184-33.8782s-.0244-.0487-.0488-.0975c-1.5877-3.6051-2.1006-8.2333-1.0992-13.9089 2.6135-14.7372 13.6539-24.8705914 28.6267-24.8705914 11.1136 0 19.0275 5.3589814 18.8805 16.6858914h-14.3862c-.4152-3.7756-2.8333-5.4077-6.7414-5.4077-5.9843 0-9.7458 5.3834-11.1869 13.5193-1.148 6.5282-.1466 11.5461 7.4986 11.6679 3.4929.0488 7.5475-2.9474 8.8909-6.1384h-6.6926l1.7587-9.9872h20.7619zm-96.21216-.0244 6.64376-37.56157h14.1912l12.0662 25.18717 1.2946-10.4987 2.5891-14.68847h14.5088l-6.6194 37.58597-19.8579-.0244-7.5475-15.6628-1.6854 9.6461-1.0503 6.0167m86.418.0244 6.643-37.56161h35.979l-1.905 10.74231h-20.811l-1.49 8.4039h16.585l-1.905 10.7666h-16.585l-1.368 7.6488z"/><path d="m4.19051 40.8027-.17098 1.3398h144.28147v-1.3398z"/></g></svg>