<svg fill="none" height="36" viewBox="0 0 150 36" width="150" xmlns="http://www.w3.org/2000/svg" xmlns:xlink="http://www.w3.org/1999/xlink"><clipPath id="a"><path d="m0 0h150v35.7616h-150z"/></clipPath><g clip-path="url(#a)" fill="#fff"><path d="m98.7355 6.74585c4.9245 0 10.6565 1.95063 10.6565 5.52675v3.4136h-3.633v-2.0319c0-2.357-3.633-3.4948-6.9427-3.4948-6.5393 0-10.5759 4.4702-10.5759 10.891 0 6.5021 4.198 11.2161 10.7373 11.2161 2.5023 0 7.4273-.7315 7.4273-3.4949v-3.6574h-5.409v-3.0885h9.042v7.8838c0 4.3077-7.185 5.8519-11.3832 5.8519-8.5576 0-14.5318-6.2583-14.5318-14.5485.0808-8.2901 5.9742-14.46715 14.6125-14.46715z"/><path d="m113.428 32.2667h2.987v-13.248c0-.569-.323-.8941-.888-.8941h-2.503v-3.0072h4.521c1.696 0 2.584.7315 2.584 2.357v1.3004c0 .8128-.081 1.3817-.081 1.3817h.081c.888-2.9259 3.229-5.2017 6.297-5.2017.484 0 .969.0813.969.0813v3.82s-.485-.0813-1.131-.0813c-4.278 0-6.054 4.3077-6.054 8.2902v5.283h2.987v3.0072h-9.769z"/><path d="m139.263 14.7109c5.974 0 10.737 4.389 10.737 10.4847s-4.844 10.5659-10.737 10.5659c-5.974 0-10.738-4.4702-10.738-10.5659s4.764-10.4847 10.738-10.4847zm0 17.7183c3.713 0 6.862-3.0072 6.862-7.2336 0-4.1451-3.149-7.1523-6.862-7.1523-3.795 0-6.862 3.0072-6.862 7.1523 0 4.2264 3.067 7.2336 6.862 7.2336z"/><path d="m0 32.1855h3.47148v-21.8634h-3.47148v-3.08846h12.6749c2.0183 0 3.4715.16256 4.9247.81277 2.1797.97531 3.7944 3.33229 3.7944 6.33959 0 2.7634-1.3725 4.9578-3.4715 6.0144v.0813c2.9871.894 4.6017 3.5761 4.6017 6.7459 0 3.6575-2.2605 6.5021-5.0861 7.4775-1.3724.4063-2.6641.4876-4.1981.4876h-13.24zm13.24-13.1668c2.5027 0 4.1174-1.7068 4.1174-4.3076 0-1.6256-.6459-3.0073-1.7761-3.6575-.8073-.4064-1.6954-.5689-2.9064-.5689h-5.24756v8.534zm.0808 13.0042c.8073 0 1.6953-.0812 2.5027-.4064 1.6146-.6502 2.6641-2.4382 2.6641-4.5514 0-2.926-1.8568-4.7953-4.8439-4.7953h-6.21636v9.7531z"/><path d="m34.6341 14.7109c5.6513 0 8.6384 4.2264 8.6384 9.4281 0 .4877-.0808 1.463-.0808 1.463h-14.6125c.2422 4.4702 3.31 6.8272 6.8623 6.8272 3.4714 0 5.9741-2.2758 5.9741-2.2758l1.6147 2.8447s-2.9871 2.7634-7.7503 2.7634c-6.2971 0-10.5759-4.5515-10.5759-10.4846 0-6.4209 4.2788-10.566 9.93-10.566zm4.6825 8.3715c-.0807-3.4949-2.2605-5.3642-4.7632-5.3642-2.9063 0-5.2476 1.9506-5.8127 5.3642z"/><path d="m45.6947 32.2666h3.1485v-13.248c0-.569-.3229-.8941-.888-.8941h-2.422v-3.0072h4.521c1.6954 0 2.5027.7315 2.5027 2.1945v1.0566c0 .6502-.0808 1.1378-.0808 1.1378.4037-1.0566 2.7449-4.8766 7.7503-4.8766 4.6017 0 6.62 2.6009 6.62 7.7213v9.9157h3.1486v3.0072h-6.943v-12.0289c0-2.8446-.5651-5.0391-3.7136-5.0391-4.0366 0-6.6201 3.6574-6.6201 7.7212v6.3396h3.1486v3.0072h-10.1722z"/><path d="m72.3363 32.2668h3.1485v-14.1421h-3.31v-2.926h7.1044v17.0681h3.1486v3.0072h-10.0915z"/><path d="m79.2788 7.47754h-3.7944v3.81996h3.7944z"/><path d="m139.101 13.248c-.969.4877-2.987.9754-5.571-.8127-3.148-2.1132-2.987-6.2583-2.987-6.2583s4.602 1.62553 6.297 1.7068c-.161 1.62553.162 2.5196.646 3.4949-1.13-.4064-2.422-1.0566-3.794-2.1132-.081 0 2.018 3.0072 5.409 3.9825z"/><path d="m139.909 0s-.323 2.68212-1.615 6.33955c-1.614 4.47025 1.211 6.33955 2.342 6.90845.403-.7314 1.776-3.9825.968-8.20887 0 0 1.696 2.35702.404 8.37147.727-.3251 3.956-2.1945 3.471-6.90849-.565-4.55148-5.57-6.50211-5.57-6.50211z"/></g></svg>