<?xml version="1.0" encoding="UTF-8"?>
<svg xmlns="http://www.w3.org/2000/svg" width="190" height="69" viewBox="0 0 190 69" fill="none">
  <path d="M61.0725 2.38642H57.4862C56.6096 2.38642 56.2935 2.94386 56.2935 3.65999V36.9163C56.2935 45.1121 56.4525 48.1344 58.526 48.1344H63.0704V50.5218H44.5696V48.1354H48.3169C49.1936 48.1354 49.5096 47.5789 49.5096 46.8618V7.71771L49.3506 7.55803L31.494 49.7224C31.3339 50.119 31.1749 50.2788 30.0587 50.2788C29.661 50.2788 29.341 49.3246 28.8659 48.295L10.1256 8.59153L9.96656 8.75029V39.7789C9.96656 43.4399 10.1256 48.1334 12.5181 48.1334H16.7435V50.5208H2.15393V48.1354H5.10304C6.05924 48.1354 6.93692 47.7386 6.93692 46.5484V11.5354C6.93692 5.08827 6.22027 2.38642 2.47201 2.38642H0V0H12.7566L32.0516 39.7045L49.6716 0.00396529H61.0725V2.38642Z" fill="#1C2D5D"></path>
  <path d="M75.5834 3.97784C75.5913 4.45301 75.5043 4.92499 75.3276 5.36629C75.1509 5.80758 74.8878 6.20935 74.5539 6.54818C74.22 6.887 73.8217 7.15611 73.3825 7.33979C72.9433 7.52348 72.4719 7.61807 71.9957 7.61807C71.5194 7.61807 71.0479 7.52348 70.6087 7.33979C70.1695 7.15611 69.7712 6.887 69.4374 6.54818C69.1034 6.20935 68.8404 5.80758 68.6637 5.36629C68.4869 4.92499 68.4 4.45301 68.4078 3.97784C68.4235 3.03865 68.8085 2.14321 69.4796 1.48456C70.1507 0.825903 71.0544 0.456787 71.9957 0.456787C72.9369 0.456787 73.8406 0.825903 74.5117 1.48456C75.1828 2.14321 75.5677 3.03865 75.5834 3.97784ZM81.9616 50.5202H64.9797V48.3728H67.7698C68.4864 48.3728 69.4446 48.0545 69.4446 47.0993V28.3232C69.4446 18.7765 68.8065 18.7765 66.1744 18.7765H63.1449V16.6281C64.3376 16.6281 67.0521 16.3097 69.6056 15.9914C72.2377 15.674 74.7882 15.3555 75.6689 15.3555V35.8872C75.6689 44.5591 75.7483 48.3788 78.1399 48.3788H81.9667L81.9616 50.5202Z" fill="#1C2D5D"></path>
  <path d="M100.858 31.5864C92.7242 34.689 87.7009 37.3928 87.7009 42.8035C87.7009 45.429 89.1374 47.1003 91.8477 47.1003C95.5154 47.1003 98.7841 44.6344 100.858 41.8503V31.5864ZM100.858 29.1197V25.0619C100.858 21.4813 100.618 18.5375 94.957 18.5375C92.6631 18.5312 90.417 19.1953 88.4964 20.4478C88.4964 24.7435 86.7427 27.8461 84.0316 27.8461C83.7482 27.8473 83.4682 27.7925 83.2063 27.6849C82.9445 27.5774 82.7066 27.4192 82.5066 27.2194C82.3065 27.0197 82.1481 26.7823 82.0404 26.5212C81.9327 26.26 81.878 25.9801 81.8794 25.6977C81.8794 20.1293 90.3278 15.3545 98.7767 15.3545C106.671 15.3545 107.07 19.1732 107.07 25.6184V37.7916C107.07 44.3954 107.547 46.5428 112.331 47.738L109.939 51.7958C107.909 51.6914 105.968 50.9273 104.414 49.6201C102.859 48.3128 101.775 46.5341 101.328 44.5551C98.2191 47.6577 92.8795 51.7958 88.4113 51.7958C83.8672 51.7958 81.2362 48.6932 81.2362 44.3161C81.2362 37.4722 88.0132 34.3716 97.9796 30.3129L100.858 29.1197Z" fill="#1C2D5D"></path>
  <path d="M123.662 35.8815C123.662 44.5534 123.741 48.3731 126.132 48.3731H129.642V50.5215H112.976V48.3731H115.765C116.483 48.3731 117.441 48.0547 117.441 47.0995V28.3264C117.441 18.7797 116.803 18.7797 114.172 18.7797H111.138V16.6313C112.331 16.6313 115.045 16.3129 117.598 15.9946C120.229 15.6771 122.78 15.3587 123.662 15.3587V21.8793C127.808 18.5387 130.837 15.4321 136.818 15.4321C141.282 15.4321 144.232 17.5806 145.027 21.7176C148.934 18.6944 152.362 15.4321 157.387 15.3528C165.678 15.3528 167.035 20.7625 167.035 26.6502V35.8795C167.035 44.5514 167.114 48.3711 169.505 48.3711H173.015V50.5195H156.35V48.3711H159.138C159.858 48.3711 160.815 48.0527 160.815 47.0976V28.3264C160.815 21.0074 158.103 19.4155 154.516 19.4155C151.327 19.6546 148.054 21.4845 145.345 23.9503V35.8855C145.345 44.5574 145.425 48.377 147.818 48.377H151.327V50.5255H134.661V48.377H137.454C138.17 48.377 139.126 48.0587 139.126 47.1035V28.3264C139.126 21.0074 136.416 19.4155 132.829 19.4155C128.841 19.6546 126.45 21.8813 123.66 23.9503L123.662 35.8815Z" fill="#1C2D5D"></path>
  <path d="M183.619 3.97784C183.604 4.91704 183.219 5.81249 182.547 6.47113C181.876 7.12979 180.973 7.49889 180.031 7.49889C179.09 7.49889 178.186 7.12979 177.515 6.47113C176.844 5.81249 176.459 4.91704 176.444 3.97784C176.459 3.03865 176.844 2.14321 177.515 1.48456C178.186 0.825903 179.09 0.456787 180.031 0.456787C180.973 0.456787 181.876 0.825903 182.547 1.48456C183.219 2.14321 183.604 3.03865 183.619 3.97784ZM189.997 50.5202H173.011V48.3728H175.802C176.518 48.3728 177.475 48.0545 177.475 47.0993V28.3232C177.475 18.7765 176.838 18.7765 174.207 18.7765H171.178V16.6281C172.371 16.6281 175.085 16.3097 177.64 15.9914C180.271 15.674 182.822 15.3555 183.703 15.3555V35.8872C183.703 44.5591 183.781 48.3788 186.174 48.3788H190L189.997 50.5202Z" fill="#1C2D5D"></path>
  <path d="M9.74372 59.2632C9.59264 59.2632 9.57678 59.1959 9.54498 58.9459C9.46047 58.3458 8.0739 57.8945 7.06999 57.8945C3.99365 57.8945 2.22239 60.2304 2.22239 63.1326C2.1895 63.7378 2.27834 64.3436 2.48365 64.9142C2.68895 65.4846 3.00658 66.0084 3.41784 66.4546C3.82909 66.9007 4.32564 67.2603 4.87827 67.512C5.43089 67.7637 6.0284 67.9025 6.63562 67.9203C8.14049 67.9203 9.79544 67.2369 9.91571 66.3026C9.93264 66.1687 9.9495 66.005 10.1334 66.005C10.2676 66.005 10.2994 66.1211 10.2994 66.2212C10.2994 66.371 10.2676 66.618 10.2 67.6723C8.99606 68.2326 7.68377 68.5231 6.35533 68.5234C3.02751 68.5234 0.704605 66.7876 0.704605 63.318C0.704605 59.7324 3.69645 57.2964 7.17336 57.2964C8.15898 57.3046 9.13434 57.497 10.0489 57.8637C9.93264 59.2147 9.91472 59.2653 9.75075 59.2653" fill="#1C2D5D"></path>
  <path d="M13.6552 62.5985C13.6552 66.3676 15.8956 67.9704 17.8676 67.9704C20.1239 67.9704 21.6447 66.2525 21.6447 63.2154C21.6447 59.4464 19.4043 57.8434 17.4313 57.8434C15.1749 57.8434 13.6542 59.5624 13.6542 62.5985M12.2328 63.0666C12.1999 62.3183 12.3198 61.571 12.5851 60.8701C12.8504 60.1694 13.2556 59.5297 13.7761 58.9898C14.2966 58.4501 14.9216 58.0213 15.6131 57.7298C16.3046 57.4383 17.0483 57.2901 17.7991 57.294C21.1596 57.294 23.0671 59.4949 23.0671 62.7492C23.0998 63.4976 22.9798 64.2448 22.7145 64.9456C22.4492 65.6463 22.044 66.286 21.5235 66.8258C21.003 67.3655 20.3781 67.7942 19.6866 68.0858C18.9951 68.3774 18.2515 68.5257 17.5008 68.5219C14.1402 68.5219 12.2328 66.319 12.2328 63.0666Z" fill="#1C2D5D"></path>
  <path d="M24.5877 57.6116H28.4642V58.1075H27.7138C27.6786 58.1044 27.6431 58.1093 27.6101 58.1219C27.5771 58.1344 27.5474 58.1543 27.5232 58.18C27.4989 58.2057 27.4809 58.2365 27.4703 58.2701C27.4598 58.3038 27.457 58.3394 27.4623 58.3743V64.6974C27.4623 67.1494 29.0834 67.8338 30.303 67.8338C33.7641 67.8338 33.8138 65.1815 33.8138 63.8662V59.8611C33.8138 59.0944 33.78 58.1095 33.279 58.1095H32.3934V57.6136H35.4519V58.1095H34.8336C34.6348 58.1095 34.4489 58.1938 34.4489 58.4437V64.3821C34.489 64.9429 34.4064 65.5057 34.2068 66.0315C34.0073 66.5573 33.6956 67.0335 33.2933 67.4271C32.8909 67.8207 32.4077 68.1224 31.8769 68.3111C31.3462 68.4998 30.7807 68.5712 30.2196 68.5201C26.2238 68.5201 26.0449 65.9175 26.0449 64.1658V60.4622C26.0449 58.7442 26.0111 58.1095 25.5767 58.1095H24.5897L24.5877 57.6116Z" fill="#1C2D5D"></path>
  <path d="M46.3866 65.8699H46.4203V59.8641C46.4203 59.0954 46.3866 58.1114 45.8856 58.1114H44.999V57.6155H48.0594V58.1114H47.4402C47.2414 58.1114 47.0555 58.1957 47.0555 58.4457V68.0837C47.0555 68.2335 47.0396 68.3506 46.9214 68.3506C46.8716 68.3506 46.805 68.3 46.6887 68.166L46.49 67.9329L39.2519 59.2243H39.2181V65.9482C39.2181 66.7149 39.2519 67.6998 39.7528 67.6998H40.6394V68.1958H37.5721V67.6998H38.1903C38.3891 67.6998 38.5759 67.6156 38.5759 67.3666V60.0268C38.5759 58.6769 38.4239 58.1085 37.6387 58.1085H37.1208V57.6125H39.5451L46.3866 65.8699Z" fill="#1C2D5D"></path>
  <path d="M55.2638 65.3511C55.2638 67.071 55.2976 67.7038 55.7319 67.7038H57.0242V68.1997H52.3425V67.7038H53.5969C53.6321 67.7069 53.6675 67.702 53.7006 67.6894C53.7336 67.6769 53.7634 67.657 53.7876 67.6313C53.8118 67.6056 53.8298 67.5748 53.8404 67.5411C53.8509 67.5075 53.8537 67.4719 53.8484 67.437V58.2126H53.43C51.4748 58.2126 50.5216 58.5638 50.3546 59.0646C50.3198 59.1638 50.2552 59.2977 50.119 59.2977C50.0957 59.3008 50.0719 59.2987 50.0494 59.2916C50.0269 59.2846 50.0062 59.2727 49.9888 59.2568C49.9713 59.241 49.9576 59.2215 49.9485 59.1998C49.9395 59.1781 49.9352 59.1546 49.9362 59.1311C50.0648 58.6169 50.221 58.11 50.4043 57.6125H58.7129C58.8962 58.11 59.0525 58.6169 59.1811 59.1311C59.1818 59.1547 59.1774 59.1783 59.1682 59.2001C59.1589 59.2219 59.145 59.2414 59.1274 59.2572C59.1098 59.2731 59.089 59.285 59.0662 59.2919C59.0436 59.2989 59.0197 59.3009 58.9962 59.2977C58.862 59.2977 58.7974 59.1628 58.7636 59.0646C58.5956 58.5628 57.6434 58.2126 55.6873 58.2126H55.2688L55.2638 65.3511Z" fill="#1C2D5D"></path>
  <path d="M64.4907 62.9004C65.9289 62.9004 67.4 62.3826 67.4 60.747C67.4111 60.4138 67.3542 60.0819 67.2326 59.7714C67.1109 59.4608 66.9272 59.1783 66.6925 58.941C66.4578 58.7037 66.1772 58.5166 65.8677 58.391C65.5581 58.2654 65.2263 58.2041 64.8922 58.2108H64.0404C63.8893 58.2108 63.6557 58.2296 63.6557 58.4458V62.9004H64.4907ZM62.2344 60.4643C62.2344 58.7464 62.2005 58.1116 61.7662 58.1116H60.7792V57.6157H65.4598C66.9319 57.6157 68.8204 58.3665 68.8204 60.4852C68.7955 61.1754 68.5153 61.832 68.0338 62.3282C67.5523 62.8243 66.9038 63.125 66.2132 63.1721C68.9705 67.1585 69.5391 67.709 70.0251 67.709H70.4426V68.2049H68.5202C68.1356 68.2049 67.9517 68.189 64.8922 63.3992H63.6557V65.3512C63.6557 67.0711 63.6896 67.704 64.1249 67.704H65.0771V68.1999H61.2007V67.704H61.9869C62.1698 67.704 62.2374 67.5879 62.2374 67.4372L62.2344 60.4643Z" fill="#1C2D5D"></path>
  <path d="M75.7296 65.3516C75.7296 67.0715 75.7635 67.7043 76.1978 67.7043H77.151V68.2003H73.2746V67.7043H74.0598C74.095 67.7074 74.1304 67.7024 74.1634 67.6899C74.1964 67.6774 74.2262 67.6575 74.2504 67.6318C74.2746 67.6061 74.2927 67.5753 74.3033 67.5416C74.3137 67.5079 74.3165 67.4724 74.3113 67.4375V63.6515C72.389 60.297 71.8194 59.1465 71.2022 58.3629C71.1474 58.2696 71.0651 58.1953 70.9666 58.1503C70.8681 58.1052 70.7581 58.0914 70.6514 58.111H70.0819V57.615H73.8441V58.111H73.0738C72.9574 58.111 72.8064 58.111 72.8064 58.1784C72.8064 58.3282 74.2447 60.7642 75.4991 62.9662C77.5556 59.1117 77.7852 58.6287 77.7852 58.3113C77.7852 58.1268 77.651 58.113 77.4512 58.113H76.4811V57.617H79.5236V58.113H78.9392C78.6718 58.113 78.5873 58.3966 78.4711 58.6089L75.7286 63.598L75.7296 65.3516Z" fill="#1C2D5D"></path>
  <path d="M88.3511 65.5346C88.3511 67.6037 88.5336 67.6037 89.0359 67.6037H90.3741C93.333 67.6037 94.3689 65.2519 94.3689 63.3664C94.3689 59.6965 92.0824 58.2086 89.6538 58.2086C88.551 58.2086 88.3511 58.2086 88.3511 58.5062V65.5346ZM85.4756 57.6116H90.3898C95.1049 57.6116 95.8897 61.1822 95.8897 62.6988C95.9244 63.4284 95.8071 64.1572 95.5444 64.8389C95.2817 65.5206 94.8794 66.1402 94.364 66.6582C93.8477 67.1762 93.2298 67.5813 92.5483 67.8475C91.8668 68.1138 91.1366 68.2355 90.4055 68.2047H85.8927V67.7088H86.6783C86.713 67.7117 86.7485 67.7066 86.7816 67.694C86.8146 67.6814 86.8444 67.6615 86.8683 67.6359C86.8923 67.6102 86.9104 67.5795 86.9212 67.5459C86.9319 67.5123 86.9344 67.4768 86.9294 67.4419V60.4632C86.9294 58.7462 86.8947 58.1115 86.4619 58.1115H85.4747L85.4756 57.6116Z" fill="#1C2D5D"></path>
  <path d="M102.243 59.1969L100.387 63.6336H103.712L102.243 59.1969ZM100.155 64.2346C99.7317 65.2121 99.407 66.2291 99.1856 67.2708C99.1856 67.6209 99.3533 67.7042 99.6036 67.7042H100.656V68.2002H97.2766V67.7042H97.6112C97.8615 67.7042 98.1134 67.6536 98.2125 67.4374L102.441 57.4453C102.86 57.3461 103.328 57.2281 103.428 57.2281C103.451 57.2266 103.473 57.2299 103.494 57.2378C103.515 57.2456 103.534 57.2579 103.55 57.2737C103.565 57.2895 103.578 57.3084 103.586 57.3293C103.593 57.3502 103.597 57.3724 103.595 57.3947C103.595 57.6119 103.297 57.5931 103.297 57.9124C103.297 58.6286 105.369 64.2009 106.189 66.4198C106.573 67.4711 106.774 67.7091 107.208 67.7091H107.706V68.2051H103.961V67.7091H104.864C104.981 67.7091 105.098 67.6586 105.098 67.5425C105.098 67.4265 104.629 66.2531 103.944 64.2396L100.155 64.2346Z" fill="#1C2D5D"></path>
  <path d="M112.44 65.3516C112.44 67.0715 112.474 67.7043 112.908 67.7043H113.861V68.2003H109.984V67.7043H110.769C110.804 67.7074 110.84 67.7024 110.873 67.6899C110.906 67.6774 110.935 67.6575 110.959 67.6318C110.984 67.6061 111.002 67.5753 111.012 67.5416C111.023 67.5079 111.026 67.4724 111.021 67.4375V63.6515C109.098 60.297 108.528 59.1465 107.911 58.3629C107.857 58.2695 107.774 58.1952 107.675 58.1501C107.577 58.105 107.467 58.0913 107.359 58.111H106.791V57.615H110.553V58.111H109.783C109.667 58.111 109.515 58.111 109.515 58.1784C109.515 58.3282 110.954 60.7642 112.208 62.9662C114.264 59.1117 114.494 58.6287 114.494 58.3113C114.494 58.1268 114.36 58.113 114.16 58.113H113.193V57.617H116.235V58.113H115.651C115.383 58.113 115.299 58.3966 115.182 58.6089L112.44 63.598V65.3516Z" fill="#1C2D5D"></path>
  <path d="M123.639 59.8138C123.639 61.1667 124.893 61.5992 125.946 61.9959C128.086 62.7795 129.105 63.4638 129.105 65.2482C129.105 66.6993 127.834 68.5214 125.076 68.5214C124.186 68.5167 123.304 68.3583 122.468 68.0533C122.285 67.0197 122.218 66.6696 122.218 66.5189C122.215 66.4923 122.219 66.4655 122.228 66.4405C122.238 66.4155 122.252 66.3928 122.271 66.374C122.29 66.3551 122.313 66.3405 122.338 66.3313C122.363 66.3221 122.39 66.3184 122.416 66.3205C122.584 66.3205 122.634 66.4871 122.667 66.6378C122.903 67.5722 124.456 67.9213 125.275 67.9213C126.613 67.9213 127.984 67.2538 127.984 65.7531C127.984 64.4637 127.015 63.9013 125.359 63.3012C124.607 63.0344 122.569 62.3838 122.569 60.3475C122.569 58.3459 124.574 57.2954 126.361 57.2954C127.006 57.2646 127.651 57.3725 128.25 57.6119C128.266 58.0087 128.301 58.4292 128.301 58.8299C128.301 58.9469 128.25 59.0471 128.116 59.0471C127.949 59.0471 127.931 58.9132 127.917 58.7972C127.799 58.079 126.446 57.8955 125.91 57.8955C125.634 57.87 125.356 57.8996 125.092 57.9826C124.827 58.0655 124.582 58.2003 124.37 58.3788C124.158 58.5574 123.985 58.7763 123.858 59.0226C123.732 59.269 123.657 59.538 123.636 59.8138" fill="#1C2D5D"></path>
  <path d="M140.325 59.2632C140.175 59.2632 140.158 59.1959 140.126 58.9459C140.043 58.3458 138.655 57.8945 137.651 57.8945C134.576 57.8945 132.804 60.2304 132.804 63.1326C132.771 63.7378 132.859 64.3436 133.065 64.9142C133.27 65.4846 133.588 66.0084 133.999 66.4546C134.41 66.9007 134.907 67.2603 135.46 67.512C136.012 67.7637 136.609 67.9025 137.217 67.9203C138.722 67.9203 140.376 67.2369 140.497 66.3026C140.513 66.1687 140.531 66.005 140.714 66.005C140.849 66.005 140.882 66.1211 140.882 66.2212C140.882 66.371 140.848 66.618 140.782 67.6723C139.577 68.2328 138.265 68.5232 136.937 68.5234C133.611 68.5234 131.286 66.7876 131.286 63.318C131.286 59.7324 134.278 57.2964 137.755 57.2964C138.741 57.3044 139.716 57.4969 140.631 57.8637C140.515 59.2147 140.497 59.2653 140.332 59.2653" fill="#1C2D5D"></path>
  <path d="M145.339 62.7275V65.347C145.339 67.0649 145.373 67.6987 145.808 67.6987H146.76V68.1946H142.883V67.6987H143.669C143.704 67.7018 143.739 67.6969 143.772 67.6843C143.805 67.6718 143.835 67.6519 143.859 67.6262C143.884 67.6005 143.901 67.5697 143.912 67.5361C143.922 67.5024 143.925 67.4667 143.92 67.4319V60.459C143.92 58.7411 143.886 58.1073 143.452 58.1073H142.464V57.6055H146.341V58.1073H145.589C145.406 58.1073 145.338 58.2234 145.338 58.3742V62.1323H150.838V60.464C150.838 58.7461 150.804 58.1123 150.37 58.1123H149.383V57.6104H153.259V58.1123H152.507C152.471 58.1092 152.436 58.1141 152.404 58.1267C152.371 58.1392 152.341 58.1591 152.316 58.1848C152.292 58.2104 152.274 58.2413 152.263 58.275C152.253 58.3087 152.25 58.3443 152.256 58.3791V65.3519C152.256 67.0699 152.29 67.7037 152.725 67.7037H153.677V68.1996H149.801V67.7037H150.586C150.622 67.7068 150.657 67.7018 150.69 67.6893C150.723 67.6767 150.753 67.6568 150.777 67.6312C150.801 67.6055 150.819 67.5747 150.83 67.541C150.841 67.5073 150.843 67.4718 150.838 67.4368V62.7275H145.339Z" fill="#1C2D5D"></path>
  <path d="M156.789 62.5985C156.789 66.3676 159.03 67.9704 161.003 67.9704C163.26 67.9704 164.78 66.2525 164.78 63.2154C164.78 59.4464 162.539 57.8434 160.566 57.8434C158.31 57.8434 156.789 59.5624 156.789 62.5985ZM155.369 63.0666C155.337 62.3183 155.457 61.571 155.722 60.8701C155.987 60.1694 156.392 59.5297 156.912 58.9898C157.434 58.4501 158.058 58.0213 158.749 57.7298C159.442 57.4383 160.185 57.2901 160.936 57.294C164.296 57.294 166.204 59.4949 166.204 62.7492C166.236 63.4976 166.116 64.2447 165.851 64.9454C165.585 65.6461 165.18 66.2857 164.66 66.8255C164.139 67.3652 163.514 67.7938 162.823 68.0854C162.131 68.3771 161.388 68.5256 160.638 68.5219C157.277 68.5219 155.369 66.319 155.369 63.0666Z" fill="#1C2D5D"></path>
  <path d="M169.663 62.5985C169.663 66.3676 171.904 67.9704 173.876 67.9704C176.135 67.9704 177.653 66.2525 177.653 63.2154C177.653 59.4464 175.413 57.8434 173.44 57.8434C171.183 57.8434 169.662 59.5624 169.662 62.5985M168.242 63.0666C168.209 62.3183 168.329 61.571 168.594 60.8701C168.86 60.1694 169.265 59.5297 169.786 58.9898C170.306 58.4501 170.931 58.0213 171.623 57.7298C172.314 57.4383 173.058 57.2901 173.808 57.294C177.168 57.294 179.076 59.4949 179.076 62.7492C179.109 63.4977 178.989 64.2449 178.724 64.9457C178.459 65.6465 178.054 66.2863 177.533 66.826C177.013 67.3659 176.388 67.7945 175.696 68.086C175.005 68.3775 174.261 68.5259 173.51 68.5219C170.151 68.5219 168.242 66.319 168.242 63.0666Z" fill="#1C2D5D"></path>
  <path d="M184.659 58.1128H183.906C183.871 58.1097 183.836 58.1147 183.803 58.1271C183.77 58.1396 183.74 58.1594 183.716 58.185C183.692 58.2105 183.674 58.2412 183.663 58.2747C183.653 58.3083 183.65 58.3437 183.655 58.3786V65.5359C183.655 67.6049 183.838 67.6049 184.341 67.6049H185.462C188.302 67.6049 188.956 67.1873 189.239 66.7202C189.288 66.6358 189.322 66.5377 189.437 66.5377C189.508 66.5377 189.572 66.6368 189.572 66.7202C189.461 67.2236 189.322 67.7204 189.155 68.208H181.198V67.7121H181.984C182.169 67.7121 182.234 67.596 182.234 67.4452V60.4724C182.234 58.7545 182.203 58.1207 181.767 58.1207H180.78V57.6248H184.657L184.659 58.1128Z" fill="#1C2D5D"></path>
</svg>
