<svg fill="none" height="60" viewBox="0 0 150 60" width="150" xmlns="http://www.w3.org/2000/svg"><g fill="#fff"><path clip-rule="evenodd" d="m146.061 3.93939h-142.12161v51.21211h142.12161zm-146.061-3.93939v59.0909h150v-59.0909z" fill-rule="evenodd"/><path d="m78.6367 42.7275h20v3.9394h-20z"/><path d="m34.9853 39.7728v-16.4363h-5.9345v-3.9273h16.4073v3.9273h-6.1091v16.4363z"/><path d="m54.8801 39.7728v-20.3636h9.0182c1.2606 0 2.4048.2909 3.4327.8727 1.0279.5624 1.8327 1.3285 2.4146 2.2982.6012.9697.9018 2.0751.9018 3.3164 0 1.2218-.3006 2.3369-.9018 3.3454-.5819.9891-1.3867 1.7746-2.4146 2.3564s-2.1721.8727-3.4327.8727h-4.8v7.3018zm11.5491 0-5.1782-9.1927 4.48-.7273 5.76 9.9491zm-7.3309-10.8509h4.5963c.5237 0 .9794-.1164 1.3673-.3491.4073-.2521.7176-.5915.9309-1.0182.2134-.446.32-.9406.32-1.4836 0-.5818-.126-1.0861-.3782-1.5127-.2521-.4267-.6206-.7564-1.1054-.9891-.4849-.2521-1.0473-.3782-1.6873-.3782h-4.0436z"/><path d="m78.653 39.7728 7.971-20.3636h3.8981l7.9419 20.3636h-4.48l-4.1019-10.9673c-.1163-.3103-.2618-.7078-.4363-1.1927-.1552-.4848-.32-.9988-.4946-1.5418-.1745-.543-.3394-1.057-.4945-1.5418-.1552-.5043-.2715-.9212-.3491-1.2509l.7855-.0291c-.1164.446-.2522.9115-.4073 1.3963-.1358.4655-.2812.9503-.4364 1.4546-.1551.4848-.32.96-.4945 1.4254-.1746.4655-.3394.9213-.4946 1.3673l-4.1018 10.88zm3.6946-4.2763 1.4255-3.52h9.3381l1.4546 3.52z"/><path d="m110.136 39.7728v-10.1527l.203 1.4254-8.233-11.6363h5.033l6.284 9.0182-1.978-.0873 5.672-8.9309h4.859l-7.884 11.9563.436-1.9781v10.3854z"/></g></svg>