<svg fill="none" height="196" viewBox="0 0 122 196" width="122" xmlns="http://www.w3.org/2000/svg" xmlns:xlink="http://www.w3.org/1999/xlink"><clipPath id="a"><path d="m0 0h122v196h-122z" transform="matrix(1 0 0 -1 0 196)"/></clipPath><g clip-path="url(#a)"><path clip-rule="evenodd" d="m74.0423 189.718-.4254-162.7449c-1.1017-1.0962-3.2507-.7652-4.0906-.521l-5.596 1.7257c-.6908-2.2615-1.5871-4.4557-2.678-6.5554-3.9707-7.5431-9.7739-11.5317-16.7989-11.5425h-.0218c-.4691 0-.9327.0434-1.4017.0814l-.0546.0054c-.2031-.24896-.4141-.49147-.6327-.72717-3.0543-3.25599-6.9813-4.846-11.6828-4.71034-9.0649.26048-18.0915 6.78331-25.41649 18.36921-5.1541949 8.1563-9.06484 18.3964-10.18294 26.3247l-17.85157 5.5081c-5.2523 1.6443-5.416 1.8071-6.1086 6.7399-.5182 3.7335-14.2682 109.6569-14.2682 109.6569l115.2359 19.85zm-37.7538-177.5489c-1.5326-1.0039-3.3271-1.4706-5.4542-1.4272-13.9954.4016-26.20185 22.1788-29.31619 36.6896l13.40639-4.1351 2.3944-.738c1.7562-9.2144 6.1632-18.7762 11.9282-24.93 2.0158-2.2051 4.3953-4.0514 7.0359-5.4593zm-12.3428 28.3435 19.2423-5.9368c.06-4.9925-.4854-12.3728-2.9943-17.5824-2.6726 1.0962-4.9197 3.0173-6.5341 4.7375-4.3252 4.6289-7.854 11.689-9.7085 18.7817zm25.2692-7.7927 8.9449-2.7622c-1.429-4.6235-4.8215-12.3728-11.6993-13.6752 2.1381 5.4972 2.6889 11.8627 2.7544 16.4374z" fill="#95bf47" fill-rule="evenodd"/><path d="m99.8609 39.0798c-.6872-.0543-14.0063-.2605-14.0063-.2605s-11.1429-10.7774-12.2447-11.879c-.4265-.3917-.9669-.6387-1.5435-.7054v164.9161l49.9326-12.367s-20.376-137.246-20.507-138.1848c-.063-.3987-.259-.7649-.555-1.0403-.297-.2754-.672-.444-1.0761-.4791z" fill="#5e8e3e"/><path d="m44.395 64.6886-5.8033 21.6198s-6.4686-2.9358-14.1427-2.4528c-11.2465.7055-11.3665 7.7764-11.2519 9.5509.6108 9.6595 26.1418 11.7755 27.5763 34.4215 1.129 17.816-9.4848 30.009-24.7783 30.964-18.35335 1.156-28.4599-9.632-28.4599-9.632l3.88878-16.486s10.17205 7.646 18.30968 7.13c5.32324-.331 7.22134-4.639 7.03044-7.689-.8018-12.606-21.59309-11.868-22.90755-32.5872-1.10175-17.4467 10.39021-35.1105 35.75755-36.7059 9.7739-.6187 14.7809 1.8722 14.7809 1.8722" fill="#fff"/></g></svg>