<svg fill="none" height="196" viewBox="0 0 122 196" width="122" xmlns="http://www.w3.org/2000/svg" xmlns:xlink="http://www.w3.org/1999/xlink"><clipPath id="a"><path d="m0 0h122v196h-122z" transform="matrix(1 0 0 -1 0 196)"/></clipPath><mask id="b" height="198" maskUnits="userSpaceOnUse" width="196" x="-73" y="-1"><path d="m-72.541-.00054932h195.235v196.77254932h-195.235z" fill="#fff"/></mask><g clip-path="url(#a)"><g mask="url(#b)"><path d="m102.266 58.2121c6.562 12.0673 10.296 25.9156 10.296 40.6465 0 31.2574-16.8074 58.5474-41.7993 73.2334l25.6756-74.8209c4.7957-12.0873 6.3927-21.7523 6.3927-30.3463 0-3.1193-.204-6.0143-.565-8.7127zm-62.1813.9224c5.0609-.2682 9.6211-.8048 9.6211-.8048 4.5296-.5405 3.9953-7.2497-.5363-6.9825 0 0-13.6164 1.077-22.4064 1.077-8.2597 0-22.13936-1.077-22.13936-1.077-4.5335377-.2672-5.064856 6.7123-.5333 6.9825 0 0 4.28815.5366 8.81776.8048l13.096 36.1681-18.39933 55.6074-30.61077-91.7755c5.0649-.2682 9.6202-.8048 9.6202-.8048 4.52657-.5405 3.99228-7.2497-.5373-6.9825 0 0-13.6135 1.077-22.4045 1.077-1.5771 0-3.4363-.0389-5.4102-.1027 15.0314-22.9998 40.867171-38.1884 70.2372-38.1884 21.8841 0 41.8111 8.4335 56.7662 22.2449-.3621-.0219-.7154-.0678-1.0884-.0678-8.2577 0-14.1171 7.2498-14.1171 15.037 0 6.9825 3.9973 12.8901 8.2578 19.8716 3.1968 5.6432 6.9309 12.892 6.9309 23.3668 0 7.2504-2.7674 15.6664-6.3967 27.3894l-8.3873 28.236zm-11.5852 124.4565c-8.2518 0-16.2156-1.219-23.74911-3.452l25.22531-73.869 25.8378 71.35c.1702.419.379.805.6016 1.168-8.7376 3.1-18.1262 4.803-27.9156 4.803zm-84.0634-84.7324c0-12.2837 2.6141-23.9441 7.2792-34.4807l40.10036 110.7331c-28.04516-13.732-47.37956-42.716-47.37956-76.2524zm84.0634-94.23397c-51.5559 0-93.4995 42.27297-93.4995 94.23397 0 51.9634 41.9436 94.2414 93.4995 94.2414 51.5549 0 93.5005-42.278 93.5005-94.2414 0-51.961-41.9456-94.23397-93.5005-94.23397z" fill="#3b7bce"/></g></g></svg>