<svg width="218" height="217" viewBox="0 0 218 217" fill="none" xmlns="http://www.w3.org/2000/svg">
<path d="M179.985 82.44C180.65 83.1722 181.316 83.9044 182.015 84.6034C185.709 88.4974 189.403 92.3581 193.098 96.2521C196.326 99.6136 199.554 103.042 202.783 106.403C203.315 106.969 203.815 107.468 204.414 108.101C204.414 104.007 204.414 100.013 204.414 95.9859C204.414 91.9587 204.414 88.0314 204.414 84.0043C205.778 84.0043 207.11 84.0043 208.474 84.0043C208.474 95.2869 208.474 106.603 208.474 117.985C200.32 109.432 192.199 100.912 184.012 92.3581C184.012 100.479 184.012 108.567 184.012 116.654C182.614 116.654 181.249 116.654 179.918 116.654C179.918 105.205 179.918 93.8225 179.918 82.4067C179.951 82.44 179.951 82.44 179.985 82.44Z" fill="white"/>
<path d="M50.4819 120.116C49.4835 119.45 48.4517 118.818 47.5198 118.085C43.4927 114.89 40.9299 110.796 40.1977 105.671C39.3324 99.6137 41.0631 94.2552 45.1901 89.7954C48.485 86.2009 52.5787 84.1707 57.4046 83.4718C65.7585 82.2736 73.9792 86.0678 78.2393 93.3233C79.3709 95.2537 80.1031 97.3172 80.5358 99.5471C80.5691 99.647 80.5691 99.7801 80.5691 99.9798C80.4359 99.9132 80.3028 99.8799 80.203 99.8134C74.0125 97.2174 67.7554 96.9178 61.6315 99.9132C55.441 102.909 51.6801 107.868 50.5485 114.691C50.249 116.454 50.2157 118.252 50.4819 120.116Z" fill="white"/>
<path d="M159.214 117.386C149.562 117.386 141.974 109.698 142.107 100.113C142.207 91.3596 149.596 83.2388 159.314 83.2721C168.933 83.3386 176.554 91.2598 176.388 100.679C176.221 109.898 168.833 117.386 159.214 117.386ZM172.294 100.113C172.261 99.7468 172.261 99.181 172.194 98.5819C171.728 94.9541 170.131 91.9255 167.202 89.7288C164.173 87.4324 160.745 86.7334 157.018 87.3325C154.222 87.7985 151.826 88.9966 149.895 91.0601C146.7 94.4549 145.668 98.5153 146.5 103.042C147.765 109.931 154.621 114.657 161.477 113.392C167.735 112.228 172.327 106.736 172.294 100.113Z" fill="white"/>
<path d="M32.4762 116.687C31.1116 116.687 29.8136 116.687 28.4157 116.687C28.4157 111.462 28.4157 106.27 28.4157 101.012C23.2237 101.012 18.0982 101.012 12.9062 101.012C12.9062 106.237 12.9062 111.429 12.9062 116.654C11.5084 116.654 10.2104 116.654 8.84578 116.654C8.8125 105.804 8.8125 94.9209 8.8125 84.0376C10.1771 84.0376 11.4751 84.0376 12.8729 84.0376C12.8729 88.3976 12.8729 92.7575 12.8729 97.1508C18.065 97.1508 23.1904 97.1508 28.3824 97.1508C28.3824 92.7908 28.3824 88.4308 28.3824 84.0376C29.7803 84.0376 31.0783 84.0376 32.4762 84.0376C32.4762 94.9209 32.4762 105.771 32.4762 116.687Z" fill="white"/>
<path d="M86.9259 84.0377C87.0258 84.0377 87.1256 84.0044 87.1922 84.0044C89.8881 84.0377 92.6172 84.0377 95.3131 84.1042C97.2434 84.1708 99.1405 84.5702 100.771 85.6685C103.634 87.6654 104.832 90.4279 104.732 93.8226C104.665 96.0526 103.867 98.0162 102.369 99.7136C101.038 101.178 99.3735 102.043 97.4764 102.376C97.3433 102.409 97.1769 102.443 96.9772 102.476C100.405 107.202 103.833 111.895 107.261 116.654C107.062 116.654 106.962 116.688 106.795 116.688C105.431 116.688 104.1 116.688 102.702 116.688C102.402 116.688 102.202 116.588 102.036 116.355C99.0074 111.961 95.9454 107.601 92.8834 103.208C92.717 102.975 92.5506 102.875 92.2178 102.909C91.8517 102.942 91.419 102.909 90.9531 102.909C90.9531 107.535 90.9531 112.095 90.9531 116.721C89.5552 116.721 88.1907 116.721 86.8594 116.721C86.9259 105.771 86.9259 94.921 86.9259 84.0377ZM91.0197 99.3808C92.118 99.3808 93.2496 99.4473 94.3146 99.3808C95.7457 99.2809 97.1436 98.9481 98.4416 98.3157C99.4733 97.7832 100.206 96.9845 100.605 95.8861C101.038 94.688 101.071 93.4898 100.871 92.2584C100.605 90.4944 99.6065 89.263 97.9423 88.6306C96.5112 88.0648 95.0135 87.7986 93.4825 87.732C92.6838 87.6987 91.885 87.732 91.0529 87.732C91.0196 91.626 91.0197 95.52 91.0197 99.3808Z" fill="white"/>
<path d="M120.142 87.7652C120.142 86.5005 120.142 85.3023 120.142 84.0376C127.065 84.0376 133.988 84.0376 140.977 84.0376C135.486 93.6561 129.994 103.275 124.469 112.927C129.994 112.927 135.452 112.927 140.944 112.927C140.944 114.225 140.944 115.423 140.944 116.687C133.222 116.687 125.534 116.687 117.746 116.687C123.271 107.069 128.763 97.4503 134.287 87.7652C129.561 87.7652 124.868 87.7652 120.142 87.7652Z" fill="white"/>
<path d="M114.385 116.654C113.02 116.654 111.722 116.654 110.324 116.654C110.324 105.771 110.324 94.921 110.324 84.0044C111.689 84.0044 112.987 84.0044 114.385 84.0044C114.385 94.921 114.385 105.771 114.385 116.654Z" fill="white"/>
<path d="M151.361 133.761C150.595 131.731 149.83 129.834 149.064 127.77C148.265 129.834 147.533 131.731 146.768 133.761C145.636 130.866 144.505 128.103 143.406 125.274C143.506 125.241 143.539 125.241 143.573 125.241C144.505 125.208 144.505 125.208 144.837 126.04C145.47 127.604 146.069 129.168 146.668 130.733C146.701 130.799 146.734 130.866 146.801 130.999C147.567 128.969 148.332 127.072 149.098 125.008C149.896 127.072 150.628 128.969 151.394 130.999C151.461 130.832 151.527 130.733 151.56 130.566C152.193 128.969 152.858 127.338 153.424 125.707C153.557 125.341 153.724 125.108 154.19 125.174C154.356 125.208 154.522 125.174 154.789 125.174C153.624 128.103 152.492 130.866 151.361 133.761Z" fill="white"/>
<path d="M36.8388 131.232C36.8388 129.168 36.8388 127.238 36.8388 125.274C37.1716 125.274 37.5377 125.274 37.8372 125.274C37.8372 128.07 37.8372 130.866 37.8372 133.761C35.7737 131.598 33.8101 129.534 31.7466 127.404C31.7466 129.468 31.7466 131.431 31.7466 133.428C31.4138 133.428 31.0477 133.428 30.7148 133.428C30.7148 130.599 30.7148 127.804 30.7148 124.875C32.7783 126.972 34.742 129.068 36.8388 131.232Z" fill="white"/>
<path d="M179.551 125.141C180.649 125.241 181.781 125.208 182.812 125.407C184.643 125.773 185.775 127.205 185.808 129.068C185.841 131.165 184.843 132.63 182.946 133.162C181.847 133.462 180.682 133.395 179.551 133.395C179.551 130.666 179.551 127.97 179.551 125.141ZM180.549 132.397C180.982 132.397 181.315 132.43 181.648 132.397C183.911 132.197 185.076 130.666 184.676 128.536C184.377 126.905 182.346 125.74 180.549 126.206C180.549 128.27 180.549 130.333 180.549 132.397Z" fill="white"/>
<path d="M65.7268 133.395C65.2609 133.395 64.9614 133.428 64.6285 133.395C64.5287 133.395 64.3956 133.262 64.2957 133.162C63.5968 132.197 62.9312 131.232 62.2655 130.266C62.1657 130.133 61.966 130.067 61.7996 129.934C61.7663 129.967 61.733 130 61.6664 130.034C61.6664 131.132 61.6664 132.263 61.6664 133.395C61.3336 133.395 61.0008 133.395 60.668 133.395C60.668 130.699 60.668 128.003 60.668 125.174C61.5999 125.208 62.5318 125.208 63.4637 125.341C64.4288 125.474 65.1278 126.406 65.161 127.471C65.1943 128.569 64.562 129.501 63.5968 129.767C63.4969 129.801 63.3971 129.834 63.264 129.867C64.0295 131.032 64.8615 132.197 65.7268 133.395ZM61.6664 129.168C62.2988 129.035 62.8979 128.968 63.3971 128.835C63.863 128.702 64.0627 128.303 64.096 127.837C64.1293 127.338 64.096 126.872 63.6301 126.572C63.031 126.206 62.3321 126.106 61.5999 126.206C61.6664 127.138 61.6664 128.103 61.6664 129.168Z" fill="white"/>
<path d="M171.163 129.867C171.163 131.165 171.163 132.263 171.163 133.395C170.83 133.395 170.497 133.395 170.164 133.395C170.164 130.732 170.164 128.003 170.164 125.174C171.096 125.241 172.028 125.208 172.993 125.374C173.992 125.54 174.591 126.439 174.624 127.537C174.657 128.602 174.025 129.468 173.06 129.801C172.96 129.834 172.86 129.867 172.727 129.9C173.559 131.099 174.391 132.197 175.256 133.428C174.824 133.428 174.491 133.462 174.158 133.428C174.025 133.428 173.892 133.262 173.825 133.162C173.126 132.197 172.461 131.232 171.795 130.266C171.662 130.067 171.429 130 171.163 129.867ZM171.196 129.068C171.861 129.102 172.494 129.068 173.026 128.802C173.526 128.569 173.625 128.136 173.659 127.67C173.659 127.205 173.559 126.772 173.093 126.539C172.494 126.239 171.861 126.173 171.196 126.239C171.196 127.138 171.196 128.103 171.196 129.068Z" fill="white"/>
<path d="M165.906 133.362C164.807 133.428 164.707 133.462 164.408 132.496C164.108 131.531 163.543 131.132 162.544 131.298C161.845 131.398 161.146 131.332 160.447 131.298C160.214 131.298 160.081 131.365 159.948 131.598C159.782 132.064 159.515 132.463 159.349 132.929C159.216 133.262 159.049 133.428 158.65 133.395C158.484 133.362 158.284 133.395 157.984 133.395C159.316 130.533 160.58 127.737 161.912 124.842C163.31 127.737 164.608 130.566 165.906 133.362ZM161.978 127.138C161.479 128.27 161.046 129.335 160.547 130.366C161.512 130.366 162.411 130.366 163.376 130.366C162.943 129.301 162.477 128.303 161.978 127.138Z" fill="white"/>
<path d="M69.1875 133.395C70.5188 130.5 71.7835 127.737 73.1148 124.842C74.4461 127.737 75.7108 130.533 77.0421 133.395C76.676 133.395 76.3764 133.428 76.0769 133.395C75.977 133.395 75.8772 133.262 75.8106 133.162C75.5777 132.663 75.3447 132.164 75.1117 131.664C75.0451 131.531 74.8455 131.398 74.679 131.398C73.6473 131.365 72.6156 131.398 71.5838 131.365C71.3508 131.365 71.2177 131.431 71.0846 131.664C70.8849 132.164 70.6519 132.596 70.4522 133.062C70.3524 133.329 70.2192 133.495 69.8864 133.428C69.72 133.362 69.487 133.395 69.1875 133.395ZM71.7169 130.4C72.6821 130.4 73.5807 130.4 74.5792 130.4C74.08 129.335 73.6473 128.27 73.1481 127.171C72.6156 128.303 72.1496 129.301 71.7169 130.4Z" fill="white"/>
<path d="M132.156 133.395C133.488 130.5 134.752 127.737 136.084 124.842C137.415 127.737 138.68 130.5 140.011 133.395C139.645 133.395 139.312 133.428 139.046 133.395C138.946 133.395 138.846 133.262 138.779 133.162C138.546 132.663 138.28 132.164 138.08 131.631C137.981 131.431 137.881 131.365 137.615 131.365C136.583 131.365 135.518 131.365 134.486 131.365C134.353 131.365 134.153 131.498 134.12 131.598C133.887 132.064 133.654 132.496 133.488 132.962C133.354 133.295 133.188 133.462 132.822 133.428C132.655 133.362 132.423 133.395 132.156 133.395ZM134.652 130.4C135.618 130.4 136.516 130.4 137.481 130.4C136.982 129.335 136.55 128.27 136.05 127.171C135.618 128.27 135.152 129.301 134.652 130.4Z" fill="white"/>
<path d="M51.4141 133.362C51.4141 130.666 51.4141 127.97 51.4141 125.241C52.8785 125.241 54.3096 125.241 55.8073 125.241C55.8073 125.507 55.8073 125.84 55.8073 126.14C54.709 126.14 53.5774 126.14 52.4791 126.14C52.4791 126.905 52.4791 127.637 52.4791 128.403C53.5441 128.403 54.6092 128.403 55.6742 128.403C55.6742 128.736 55.6742 129.035 55.6742 129.335C54.6092 129.335 53.5441 129.335 52.4458 129.335C52.4458 130.366 52.4458 131.398 52.4458 132.397C53.5441 132.397 54.6424 132.397 55.7408 132.397C55.7408 132.73 55.7408 133.029 55.7408 133.329C54.3096 133.362 52.8452 133.362 51.4141 133.362Z" fill="white"/>
<path d="M117.147 125.241C118.611 125.241 120.075 125.241 121.54 125.241C121.54 125.541 121.54 125.807 121.54 126.14C120.441 126.14 119.343 126.14 118.212 126.14C118.212 126.905 118.212 127.637 118.212 128.403C119.243 128.403 120.342 128.403 121.407 128.403C121.407 128.736 121.407 129.035 121.407 129.335C120.375 129.335 119.277 129.335 118.212 129.335C118.212 130.366 118.212 131.398 118.212 132.43C119.31 132.43 120.408 132.43 121.506 132.43C121.506 132.763 121.506 133.062 121.506 133.362C120.042 133.362 118.578 133.362 117.113 133.362C117.147 130.666 117.147 127.97 117.147 125.241Z" fill="white"/>
<path d="M189.969 131.298C190.268 131.232 190.601 131.165 190.901 131.099C191.001 131.365 191.034 131.631 191.134 131.831C191.4 132.397 192.032 132.696 192.698 132.63C193.297 132.563 193.763 132.097 193.963 131.498C194.129 130.832 193.963 130.266 193.33 129.9C192.997 129.701 192.598 129.568 192.232 129.335C191.899 129.168 191.533 129.035 191.2 128.802C189.902 127.97 189.969 126.239 191.267 125.441C192.532 124.675 194.196 125.108 194.795 126.339C194.562 126.472 194.262 126.639 193.996 126.838C193.563 126.206 192.997 125.94 192.265 126.139C191.766 126.273 191.4 126.572 191.333 127.105C191.267 127.637 191.566 127.937 191.999 128.136C192.465 128.369 192.931 128.503 193.43 128.769C194.828 129.401 195.327 130.366 195.028 131.698C194.761 132.929 193.63 133.728 192.365 133.628C191.1 133.528 190.102 132.563 189.969 131.298Z" fill="white"/>
<path d="M87.259 126.772C85.5616 125.64 83.8975 125.773 82.6993 127.071C81.6343 128.303 81.6343 130.233 82.6661 131.498C83.598 132.596 85.3619 133.195 87.259 131.798C87.259 132.164 87.259 132.563 87.259 132.863C87.259 132.962 87.1259 133.029 87.0261 133.096C85.4951 133.861 83.6313 133.628 82.2667 132.463C81.0019 131.398 80.536 129.534 81.0685 127.904C81.601 126.306 83.132 125.141 84.7629 125.008C85.4951 124.941 86.194 125.041 86.8596 125.308C87.1592 125.441 87.3589 125.574 87.2923 125.973C87.2257 126.239 87.259 126.506 87.259 126.772Z" fill="white"/>
<path d="M112.853 125.241C111.655 128.136 110.49 130.932 109.292 133.861C108.06 130.932 106.929 128.136 105.73 125.241C106.063 125.241 106.396 125.208 106.696 125.241C106.829 125.274 106.962 125.441 106.995 125.574C107.694 127.304 108.393 129.035 109.125 130.799C109.159 130.899 109.225 130.999 109.292 131.232C109.458 130.766 109.624 130.366 109.824 129.967C110.423 128.536 110.956 127.105 111.522 125.707C111.655 125.374 111.788 125.208 112.187 125.241C112.387 125.241 112.587 125.241 112.853 125.241Z" fill="white"/>
<path d="M44.0611 133.362C44.0611 130.965 44.0611 128.602 44.0611 126.173C43.3955 126.173 42.7631 126.173 42.1641 126.173C42.1641 125.84 42.1641 125.54 42.1641 125.274C43.7949 125.274 45.3924 125.274 47.0233 125.274C47.0233 125.574 47.0233 125.873 47.0233 126.173C46.3909 126.173 45.7585 126.173 45.1262 126.173C45.1262 128.569 45.1262 130.965 45.1262 133.395C44.7601 133.362 44.4273 133.362 44.0611 133.362Z" fill="white"/>
<path d="M94.2491 133.362C93.883 133.362 93.5502 133.362 93.2174 133.362C93.2174 130.966 93.2174 128.569 93.2174 126.14C92.5517 126.14 91.9194 126.14 91.3203 126.14C91.3203 125.84 91.3203 125.541 91.3203 125.241C92.9511 125.241 94.5487 125.241 96.1795 125.241C96.1795 125.507 96.1795 125.807 96.1795 126.14C95.5472 126.14 94.9481 126.14 94.3157 126.14C94.2491 128.569 94.2491 130.932 94.2491 133.362Z" fill="white"/>
<path d="M24.6875 125.241C25.0203 125.241 25.3531 125.241 25.686 125.241C25.686 127.937 25.686 130.633 25.686 133.362C25.3864 133.362 25.0203 133.362 24.6875 133.362C24.6875 130.666 24.6875 127.97 24.6875 125.241Z" fill="white"/>
<path d="M100.539 125.241C100.872 125.241 101.205 125.241 101.538 125.241C101.538 127.937 101.538 130.666 101.538 133.362C101.205 133.362 100.872 133.362 100.539 133.362C100.539 130.666 100.539 127.97 100.539 125.241Z" fill="white"/>
</svg>
