<svg width="138" height="64" viewBox="0 0 138 64" fill="none" xmlns="http://www.w3.org/2000/svg">
<path d="M42.9333 18.2857H32.2C28.54 18.2857 25.0299 19.7306 22.4419 22.3025C19.8539 24.8745 18.4 28.3628 18.4 32C18.4 35.6373 19.8539 39.1255 22.4419 41.6975C25.0299 44.2694 28.54 45.7143 32.2 45.7143H44.206C44.6818 45.7143 45.1381 45.5265 45.4745 45.1921C45.811 44.8578 46 44.4043 46 43.9314V12.4495C46.0033 9.7064 46.9181 7.04115 48.6023 4.86786C50.2866 2.69457 52.6459 1.13493 55.3138 0.431269C57.9817 -0.272395 60.8088 -0.0806864 63.3558 0.976609C65.9028 2.0339 68.0271 3.89759 69.3987 6.2781L82.8 29.5771V12.4495C82.8033 9.7064 83.7181 7.04115 85.4023 4.86786C87.0866 2.69457 89.4459 1.13493 92.1138 0.431269C94.7817 -0.272395 97.6088 -0.0806864 100.156 0.976609C102.703 2.0339 104.827 3.89759 106.199 6.2781L119.6 29.5771V0H127.267L128.8 1.52381L130.333 0H138V51.5505C137.997 54.2936 137.082 56.9589 135.398 59.1322C133.713 61.3054 131.354 62.8651 128.686 63.5687C126.018 64.2724 123.191 64.0807 120.644 63.0234C118.097 61.9661 115.973 60.1024 114.601 57.7219L101.2 34.4229V51.5505C101.197 54.2936 100.282 56.9589 98.5977 59.1322C96.9134 61.3054 94.5541 62.8651 91.8862 63.5687C89.2183 64.2724 86.3912 64.0807 83.8442 63.0234C81.2972 61.9661 79.1729 60.1024 77.8013 57.7219L64.4 34.4229V51.5505C64.4 54.8523 63.0802 58.0189 60.7308 60.3536C58.3815 62.6884 55.1951 64 51.8727 64H32.2C23.66 64 15.4698 60.6286 9.43116 54.6274C3.39249 48.6263 0 40.4869 0 32C0 23.5131 3.39249 15.3738 9.43116 9.37259C15.4698 3.37142 23.66 0 32.2 0H42.9333V7.61905L41.4 9.14286L42.9333 10.6667V18.2857Z" fill="white"/>
</svg>
