<svg width="258" height="63" viewBox="0 0 258 63" fill="none" xmlns="http://www.w3.org/2000/svg">
<g clip-path="url(#clip0_5739_71421)">
<path d="M66.0069 38.1086C64.8095 38.1086 63.7118 38.6875 63.1131 39.6523C62.5144 40.6171 62.5144 41.8713 63.1131 42.8361C63.7118 43.8008 64.8095 44.4279 66.0069 44.3797C67.8031 44.3315 69.2001 42.9325 69.2001 41.2442C69.25 39.5558 67.8031 38.1569 66.0069 38.1086Z" fill="white"/>
<path d="M61.8683 46.3093C60.3216 46.3093 59.0742 47.5153 59.0742 48.9625C59.0742 50.4579 60.3216 51.6638 61.8683 51.6638C63.415 51.6638 64.6623 50.4579 64.6623 48.9625C64.6623 47.5153 63.415 46.3093 61.8683 46.3093Z" fill="white"/>
<path d="M55.8107 57.3516C57.1325 57.3091 58.1685 56.2385 58.1244 54.9605C58.0804 53.6825 56.9731 52.6809 55.6513 52.7235C54.3294 52.766 53.2935 53.8366 53.3375 55.1146C53.3815 56.3926 54.4888 57.3942 55.8107 57.3516Z" fill="white"/>
<path d="M48.7974 57.0667C47.6998 57.0667 46.8516 57.8867 46.8516 58.948C46.8516 60.0092 47.6998 60.8293 48.7974 60.8293C49.8951 60.8293 50.7433 60.0092 50.7433 58.948C50.7433 57.8867 49.8951 57.0667 48.7974 57.0667Z" fill="white"/>
<path d="M42.0098 59.3337C41.1117 59.3337 40.3633 60.0573 40.3633 60.9256C40.3633 61.7939 41.1117 62.5175 42.0098 62.5175C42.9079 62.5175 43.6563 61.7939 43.6563 60.9256C43.7062 60.0573 42.9578 59.3337 42.0098 59.3337Z" fill="white"/>
<path d="M35.6735 60.2505C34.8752 60.2505 34.2266 60.8776 34.2266 61.6494C34.2266 62.4212 34.8752 63.0483 35.6735 63.0483C36.4718 63.0483 37.1204 62.4212 37.1204 61.6494C37.0705 60.8776 36.4219 60.2505 35.6735 60.2505Z" fill="white"/>
<path d="M29.291 59.3337C28.3929 59.3337 27.6445 60.0573 27.6445 60.9256C27.6445 61.7939 28.3929 62.5175 29.291 62.5175C30.1891 62.5175 30.9375 61.7939 30.9375 60.9256C30.9375 60.0573 30.1891 59.3337 29.291 59.3337Z" fill="white"/>
<path d="M22.5013 57.0183C21.8028 57.0183 21.1542 57.356 20.8049 57.9348C20.4557 58.5137 20.4557 59.2373 20.8049 59.8162C21.1542 60.395 21.8028 60.7327 22.5013 60.7327C23.5491 60.7327 24.4471 59.9126 24.4471 58.8514C24.3973 57.8866 23.5491 57.0665 22.5013 57.0183Z" fill="white"/>
<path d="M15.5651 52.7251C14.7169 52.7251 13.9186 53.1592 13.4696 53.8828C13.0206 54.6064 13.0206 55.4747 13.4696 56.1983C13.9186 56.9219 14.667 57.356 15.5651 57.356C16.8624 57.356 17.96 56.343 17.96 55.0406C17.96 53.7864 16.9123 52.7251 15.5651 52.7251Z" fill="white"/>
<path d="M9.43076 46.3093C7.88406 46.3093 6.63672 47.5153 6.63672 49.0107C6.63672 50.5061 7.88406 51.7121 9.43076 51.7121C10.9775 51.7121 12.2248 50.5061 12.2248 49.0107C12.1749 47.5153 10.9775 46.3093 9.43076 46.3093Z" fill="white"/>
<path d="M5.28819 38.1088C4.09074 38.0606 2.99308 38.6877 2.39436 39.6524C1.79563 40.6172 1.79563 41.8714 2.39436 42.8362C2.99308 43.801 4.09074 44.4281 5.28819 44.3799C7.08436 44.3316 8.48138 42.9327 8.48138 41.2443C8.48138 39.556 7.03446 38.157 5.28819 38.1088Z" fill="white"/>
<path d="M3.79192 27.8821C1.69638 27.8821 0 29.5222 0 31.5482C0 33.5743 1.69638 35.2144 3.79192 35.2144C5.88745 35.2144 7.58383 33.5743 7.58383 31.5482C7.53394 29.5222 5.88745 27.8821 3.79192 27.8821Z" fill="white"/>
<path d="M5.28819 18.6204C4.09074 18.6204 2.99308 19.1992 2.39436 20.164C1.79563 21.1288 1.79563 22.383 2.39436 23.3478C2.99308 24.3126 4.09074 24.9397 5.28819 24.8914C7.08436 24.8432 8.48138 23.4443 8.48138 21.7559C8.48138 20.0675 7.03446 18.6686 5.28819 18.6204Z" fill="white"/>
<path d="M9.42837 11.3362C8.43049 11.3362 7.48251 11.8186 6.98358 12.6869C6.48464 13.5069 6.48464 14.5682 6.98358 15.3882C7.48251 16.2083 8.43049 16.7389 9.42837 16.7389C10.9252 16.6907 12.1725 15.533 12.1725 14.0376C12.1226 12.5904 10.9252 11.3844 9.42837 11.3362Z" fill="white"/>
<path d="M15.5668 5.64404C14.2695 5.64404 13.1719 6.65706 13.1719 7.95951C13.1719 9.21372 14.2196 10.275 15.5668 10.275C16.864 10.275 17.9617 9.26196 17.9617 7.95951C17.9617 6.7053 16.9139 5.64404 15.5668 5.64404Z" fill="white"/>
<path d="M22.5044 2.21899C21.4567 2.21899 20.5586 3.03906 20.5586 4.10031C20.5586 5.11333 21.4068 5.98163 22.5044 5.98163C23.5522 5.98163 24.4503 5.16157 24.4503 4.10031C24.4004 3.08729 23.5522 2.21899 22.5044 2.21899Z" fill="white"/>
<path d="M29.2901 0.482422C28.3422 0.482422 27.5938 1.20601 27.5938 2.12254C27.5938 3.03908 28.3422 3.76267 29.2901 3.76267C30.1882 3.76267 30.9366 3.03908 30.9366 2.17078C30.8867 1.20601 30.1882 0.482422 29.2901 0.482422Z" fill="white"/>
<path d="M35.6227 0C34.8244 0 34.1758 0.627106 34.1758 1.39893C34.1758 2.17075 34.8244 2.79786 35.6227 2.79786C36.421 2.79786 37.0696 2.17075 37.0696 1.39893C37.0696 0.627106 36.421 0 35.6227 0Z" fill="white"/>
<path d="M42.0098 0.482422C41.1117 0.482422 40.3633 1.20601 40.3633 2.07431C40.3633 2.94261 41.1117 3.66619 42.0098 3.66619C42.9079 3.66619 43.6563 2.94261 43.6563 2.07431C43.7062 1.20601 42.9578 0.482422 42.0098 0.482422Z" fill="white"/>
<path d="M48.7943 2.21899C48.0958 2.21899 47.4471 2.55667 47.0979 3.13553C46.7486 3.7144 46.7486 4.43798 47.0979 5.01685C47.4471 5.59572 48.0958 5.93339 48.7943 5.93339C49.842 5.93339 50.7401 5.11333 50.7401 4.05207C50.7401 2.99082 49.8919 2.21899 48.7943 2.21899Z" fill="white"/>
<path d="M55.7308 5.69238C54.4336 5.69238 53.3359 6.7054 53.3359 8.00785C53.3359 9.26206 54.3837 10.3233 55.7308 10.3233C57.0281 10.3233 58.1257 9.3103 58.1257 8.00785C58.1257 6.7054 57.0281 5.69238 55.7308 5.69238Z" fill="white"/>
<path d="M61.8683 11.3362C60.3216 11.3362 59.0742 12.5422 59.0742 14.0376C59.0742 15.533 60.3216 16.7389 61.8683 16.7389C63.415 16.7389 64.6623 15.533 64.6623 14.0376C64.6623 12.5422 63.415 11.3362 61.8683 11.3362Z" fill="white"/>
<path d="M66.0069 18.6204C64.8095 18.6204 63.7118 19.1992 63.1131 20.164C62.5144 21.1288 62.5144 22.383 63.1131 23.3478C63.7118 24.3126 64.8095 24.9397 66.0069 24.8914C67.8031 24.8432 69.2001 23.4443 69.2001 21.7559C69.2001 20.0193 67.8031 18.6204 66.0069 18.6204Z" fill="white"/>
<path d="M51.0429 36.324C50.4941 36.324 49.9952 36.5652 49.7457 36.9993C49.4962 37.4335 49.4962 38.0123 49.7457 38.4465C49.9952 38.8806 50.4941 39.1701 51.0429 39.1218C51.8412 39.0736 52.4399 38.4465 52.4399 37.7229C52.4898 36.9993 51.8412 36.3722 51.0429 36.324Z" fill="white"/>
<path d="M47.3984 41.582C46.8496 41.582 46.3506 41.8232 46.1012 42.2574C45.8517 42.6915 45.8517 43.2704 46.1012 43.7046C46.3506 44.1387 46.8995 44.4281 47.3984 44.3799C48.1967 44.3317 48.7954 43.7046 48.7954 42.981C48.7954 42.2574 48.1967 41.6303 47.3984 41.582Z" fill="white"/>
<path d="M41.9614 44.9585C41.4126 44.9585 40.8637 45.2479 40.5644 45.7303C40.265 46.2127 40.265 46.7916 40.5644 47.274C40.8637 47.7563 41.3627 48.0458 41.9614 48.0458C42.8595 48.0458 43.558 47.3704 43.558 46.5021C43.558 45.6338 42.8595 44.9585 41.9614 44.9585Z" fill="white"/>
<path d="M35.5751 45.8752C34.3777 45.8752 33.4297 46.7918 33.4297 47.9495C33.4297 49.1072 34.3777 50.0238 35.5751 50.0238C36.7726 50.0238 37.7205 49.1072 37.7205 47.9495C37.6707 46.7918 36.7227 45.8752 35.5751 45.8752Z" fill="white"/>
<path d="M29.1401 44.6211C27.793 44.6211 26.6953 45.6824 26.6953 46.9848C26.6953 48.2873 27.793 49.3485 29.1401 49.3485C30.4872 49.3485 31.5849 48.2873 31.5849 46.9848C31.5849 45.6824 30.4872 44.6211 29.1401 44.6211Z" fill="white"/>
<path d="M23.3505 40.6653C21.8537 40.6653 20.6562 41.823 20.6562 43.2702C20.6562 44.7173 21.8537 45.8751 23.3505 45.8751C24.8473 45.8751 26.0448 44.7173 26.0448 43.2702C26.0448 41.823 24.8473 40.6653 23.3505 40.6653Z" fill="white"/>
<path d="M19.5069 35.3591C18.2596 35.3591 17.2617 36.3239 17.2617 37.5299C17.2617 38.7359 18.2596 39.7006 19.5069 39.7006C20.7543 39.7006 21.7521 38.7359 21.7521 37.5299C21.802 36.3721 20.7543 35.3591 19.5069 35.3591Z" fill="white"/>
<path d="M18.6096 29.5703C17.6616 29.5703 16.8633 30.3421 16.8633 31.2587C16.8633 32.1752 17.6616 32.947 18.6096 32.947C19.5575 32.947 20.3558 32.1752 20.3558 31.2587C20.3558 30.2939 19.6074 29.5703 18.6096 29.5703Z" fill="white"/>
<path d="M20.1579 23.8784C19.3596 23.8784 18.7109 24.5055 18.7109 25.2773C18.7109 26.0492 19.3596 26.6763 20.1579 26.6763C20.9562 26.6763 21.6048 26.0492 21.6048 25.2773C21.6547 24.5055 20.9562 23.8784 20.1579 23.8784Z" fill="white"/>
<path d="M23.8515 18.6685C23.3027 18.6685 22.8038 18.9096 22.5543 19.3438C22.3048 19.7779 22.3048 20.3568 22.5543 20.791C22.8038 21.2251 23.3526 21.5145 23.8515 21.4663C24.6498 21.4663 25.2984 20.8392 25.2984 20.0674C25.2485 19.2956 24.5999 18.6685 23.8515 18.6685Z" fill="white"/>
<path d="M29.2411 15.0022C28.343 15.0022 27.6445 15.6775 27.6445 16.5458C27.6445 17.4141 28.343 18.0895 29.2411 18.0895C30.1392 18.0895 30.8377 17.4141 30.8377 16.5458C30.8377 15.7258 30.1392 15.0022 29.2411 15.0022Z" fill="white"/>
<path d="M37.8077 15.153C37.8532 14.0083 36.9302 13.0446 35.7461 13.0006C34.562 12.9567 33.5653 13.849 33.5198 14.9938C33.4744 16.1386 34.3974 17.1023 35.5814 17.1463C36.7655 17.1902 37.7622 16.2978 37.8077 15.153Z" fill="white"/>
<path d="M42.0581 13.7C40.7109 13.7 39.6133 14.7612 39.6133 16.0637C39.6133 17.3661 40.7109 18.4274 42.0581 18.4274C43.4052 18.4274 44.5029 17.3661 44.5029 16.0637C44.5029 14.7612 43.4052 13.7 42.0581 13.7Z" fill="white"/>
<path d="M47.8466 17.1731C46.3498 17.1731 45.1523 18.3308 45.1523 19.778C45.1523 21.2252 46.3498 22.3829 47.8466 22.3829C49.3434 22.3829 50.5409 21.2252 50.5409 19.778C50.5409 18.3308 49.3434 17.1731 47.8466 17.1731Z" fill="white"/>
<path d="M51.6905 23.2996C50.4432 23.2996 49.4453 24.2643 49.4453 25.4703C49.4453 26.6763 50.4432 27.6411 51.6905 27.6411C52.9379 27.6411 53.9357 26.6763 53.9357 25.4703C53.9357 24.2643 52.9379 23.2996 51.6905 23.2996Z" fill="white"/>
<path d="M45.8042 35.5038C46.5482 35.5038 47.1513 34.9207 47.1513 34.2014C47.1513 33.4821 46.5482 32.8989 45.8042 32.8989C45.0602 32.8989 44.457 33.4821 44.457 34.2014C44.457 34.9207 45.0602 35.5038 45.8042 35.5038Z" fill="white"/>
<path d="M43.1598 36.9509C42.0621 36.9509 41.1641 37.8192 41.1641 38.8805C41.1641 39.9417 42.0621 40.81 43.1598 40.81C44.2575 40.81 45.1556 39.9417 45.1556 38.8805C45.2054 37.8192 44.3074 36.9509 43.1598 36.9509Z" fill="white"/>
<path d="M38.0174 39.5559C36.8699 39.5559 35.9219 40.4724 35.9219 41.5819C35.9219 42.6914 36.8699 43.608 38.0174 43.608C39.165 43.608 40.1129 42.6914 40.1129 41.5819C40.1129 40.4724 39.165 39.5559 38.0174 39.5559Z" fill="white"/>
<path d="M31.9328 39.4111C31.2841 39.4111 30.6355 39.7488 30.3362 40.3277C29.9869 40.9065 29.9869 41.5819 30.3362 42.1125C30.6854 42.6914 31.2841 43.029 31.9328 43.029C32.9805 43.029 33.7788 42.209 33.7788 41.2442C33.8287 40.2312 32.9805 39.4111 31.9328 39.4111Z" fill="white"/>
<path d="M27.4409 36.4685C26.6925 36.4685 26.0938 37.0474 26.0938 37.771C26.0938 38.4945 26.6925 39.0734 27.4409 39.0734C28.1893 39.0734 28.788 38.4945 28.788 37.771C28.8379 37.0956 28.1893 36.4685 27.4409 36.4685Z" fill="white"/>
<path d="M25.6424 32.6577C25.0936 32.6577 24.6445 33.0919 24.6445 33.6225C24.6445 34.1531 25.0936 34.5873 25.6424 34.5873C26.1912 34.5873 26.6403 34.1531 26.6403 33.6225C26.6403 33.0919 26.1912 32.6577 25.6424 32.6577Z" fill="white"/>
<path d="M25.5424 27.6892C24.794 27.6892 24.1953 28.2681 24.1953 28.9917C24.1953 29.7152 24.794 30.2941 25.5424 30.2941C26.2908 30.2941 26.8896 29.7152 26.8896 28.9917C26.8896 28.2681 26.2908 27.6892 25.5424 27.6892Z" fill="white"/>
<path d="M28.1911 22.3347C27.0934 22.3347 26.1953 23.203 26.1953 24.2643C26.1953 25.3255 27.0934 26.1938 28.1911 26.1938C29.2887 26.1938 30.1868 25.3255 30.1868 24.2643C30.1868 23.203 29.2887 22.3347 28.1911 22.3347Z" fill="white"/>
<path d="M33.3299 19.5369C32.1824 19.5369 31.2344 20.4534 31.2344 21.5629C31.2344 22.6724 32.1824 23.5889 33.3299 23.5889C34.4775 23.5889 35.4254 22.6724 35.4254 21.5629C35.4254 20.4534 34.4775 19.5369 33.3299 19.5369Z" fill="white"/>
<path d="M39.4162 20.1638C38.7177 20.1638 38.119 20.5015 37.7698 21.0321C37.4205 21.611 37.4205 22.2863 37.7698 22.8652C38.119 23.4441 38.7676 23.7817 39.4162 23.7335C40.4141 23.6853 41.2124 22.9134 41.2124 21.9487C41.2124 20.9839 40.4141 20.2121 39.4162 20.1638Z" fill="white"/>
<path d="M43.8549 24.0229C43.1065 24.0229 42.5078 24.6018 42.5078 25.3254C42.5078 26.049 43.1065 26.6279 43.8549 26.6279C44.6034 26.6279 45.2021 26.049 45.2021 25.3254C45.252 24.6018 44.6532 24.0229 43.8549 24.0229Z" fill="white"/>
<path d="M45.7518 28.6057C45.2029 28.6057 44.7539 29.0399 44.7539 29.5705C44.7539 30.1011 45.2029 30.5353 45.7518 30.5353C46.3006 30.5353 46.7497 30.1011 46.7497 29.5705C46.7497 29.0399 46.3006 28.6057 45.7518 28.6057Z" fill="white"/>
<path d="M52.5861 30.1011C51.6381 30.1011 50.8398 30.8729 50.8398 31.7894C50.8398 32.706 51.6381 33.4778 52.5861 33.4778C53.5341 33.4778 54.3324 32.706 54.3324 31.7894C54.3324 30.8729 53.5341 30.1011 52.5861 30.1011Z" fill="white"/>
<path d="M59.8226 32.1753C58.7749 32.1753 57.9766 32.9954 57.9766 33.9601C57.9766 34.9731 58.8248 35.745 59.8226 35.745C60.8704 35.745 61.6687 34.9249 61.6687 33.9601C61.6687 32.9954 60.8704 32.1753 59.8226 32.1753Z" fill="white"/>
<path d="M57.9767 38.4946C57.0288 38.4946 56.2305 39.2665 56.2305 40.183C56.2305 41.0995 57.0288 41.8714 57.9767 41.8714C58.9247 41.8714 59.723 41.0995 59.723 40.183C59.723 39.2665 58.9746 38.4946 57.9767 38.4946Z" fill="white"/>
<path d="M54.8327 43.801C54.0344 43.801 53.3359 44.4281 53.3359 45.2482C53.3359 46.02 53.9846 46.6954 54.8327 46.6954C55.631 46.6954 56.2797 46.02 56.2797 45.2482C56.2797 44.4764 55.631 43.8493 54.8327 43.801Z" fill="white"/>
<path d="M51.0417 47.7566C50.5926 47.7566 50.1436 47.9978 49.8941 48.3837C49.6447 48.7696 49.6447 49.252 49.8941 49.6379C50.1436 50.0238 50.5428 50.265 51.0417 50.265C51.7402 50.265 52.3389 49.7344 52.3389 49.0108C52.3389 48.3355 51.7402 47.7566 51.0417 47.7566Z" fill="white"/>
<path d="M47.0469 50.6509C46.4482 50.6509 45.9492 51.1333 45.9492 51.7121C45.9492 52.291 46.4482 52.7734 47.0469 52.7734C47.6456 52.7734 48.1445 52.291 48.1445 51.7121C48.1445 51.1333 47.6456 50.6509 47.0469 50.6509Z" fill="white"/>
<path d="M42.5082 52.291C41.8097 52.291 41.2109 52.8216 41.2109 53.5452C41.2109 54.2206 41.7598 54.7994 42.5082 54.7994C43.2067 54.7994 43.8054 54.2688 43.8054 53.5452C43.7555 52.8216 43.2067 52.291 42.5082 52.291Z" fill="white"/>
<path d="M37.1726 53.1111C36.3743 53.1111 35.6758 53.7382 35.6758 54.5583C35.6758 55.3301 36.3244 56.0054 37.1726 56.0054C37.9709 56.0054 38.6694 55.3783 38.6694 54.5583C38.6195 53.7382 37.9709 53.1111 37.1726 53.1111Z" fill="white"/>
<path d="M31.0835 52.532C30.0357 52.532 29.1875 53.352 29.1875 54.3651C29.1875 55.3781 30.0357 56.1981 31.0835 56.1981C32.1312 56.1981 32.9794 55.3781 32.9794 54.3651C32.9794 53.352 32.1312 52.532 31.0835 52.532Z" fill="white"/>
<path d="M24.6476 50.3132C23.4002 50.3132 22.4023 51.278 22.4023 52.484C22.4023 53.69 23.4002 54.6547 24.6476 54.6547C25.8949 54.6547 26.8928 53.69 26.8928 52.484C26.9427 51.278 25.8949 50.3132 24.6476 50.3132Z" fill="white"/>
<path d="M19.0122 46.1646C18.0642 46.1646 17.1661 46.6469 16.6672 47.4188C16.1682 48.2388 16.1682 49.2036 16.6672 50.0237C17.1661 50.8437 18.0642 51.3261 19.0122 51.2779C20.4591 51.2296 21.6066 50.1201 21.6066 48.7212C21.6066 47.3705 20.4591 46.2128 19.0122 46.1646Z" fill="white"/>
<path d="M14.2688 39.99C12.6722 39.99 11.375 41.2442 11.375 42.7878C11.375 44.3315 12.6722 45.5857 14.2688 45.5857C15.8654 45.5857 17.1627 44.3315 17.1627 42.7878C17.1627 41.196 15.8654 39.99 14.2688 39.99Z" fill="white"/>
<path d="M13.8821 35.8787C13.9719 34.6563 13.0198 33.5949 11.7554 33.508C10.491 33.4211 9.39318 34.3417 9.30332 35.5641C9.21347 36.7866 10.1656 37.848 11.43 37.9349C12.6944 38.0218 13.7922 37.1012 13.8821 35.8787Z" fill="white"/>
<path d="M13.2965 29.1482C13.3529 28.1639 12.5733 27.3218 11.5553 27.2673C10.5373 27.2128 9.66628 27.9665 9.6099 28.9507C9.55352 29.935 10.3331 30.7771 11.3511 30.8316C12.3691 30.8861 13.2401 30.1324 13.2965 29.1482Z" fill="white"/>
<path d="M13.3244 21.1287C12.3764 21.1287 11.5781 21.9005 11.5781 22.817C11.5781 23.7336 12.3764 24.5054 13.3244 24.5054C14.2724 24.5054 15.0707 23.7336 15.0707 22.817C15.0707 21.9005 14.2724 21.1287 13.3244 21.1287Z" fill="white"/>
<path d="M16.4648 16.353C15.916 16.353 15.417 16.5942 15.1676 17.0766C14.9181 17.5108 14.9181 18.0896 15.1676 18.5238C15.417 18.9579 15.9659 19.2474 16.4648 19.2474C17.2631 19.2474 17.9117 18.572 17.9117 17.8002C17.9117 16.9801 17.2631 16.353 16.4648 16.353Z" fill="white"/>
<path d="M20.2582 12.7832C19.5597 12.7832 18.9609 13.3138 18.9609 14.0374C18.9609 14.7128 19.5098 15.2916 20.2582 15.2916C21.0066 15.2916 21.5554 14.761 21.5554 14.0374C21.5554 13.3621 20.9567 12.7832 20.2582 12.7832Z" fill="white"/>
<path d="M24.25 10.2749C23.6513 10.2749 23.1523 10.7573 23.1523 11.3362C23.1523 11.915 23.6513 12.3974 24.25 12.3974C24.8487 12.3974 25.3477 11.915 25.3477 11.3362C25.3477 10.7091 24.8487 10.2749 24.25 10.2749Z" fill="white"/>
<path d="M28.7855 8.29688C28.087 8.29688 27.4883 8.8275 27.4883 9.55109C27.4883 10.2264 28.0371 10.8053 28.7855 10.8053C29.484 10.8053 30.0828 10.2747 30.0828 9.55109C30.0828 8.8275 29.484 8.29688 28.7855 8.29688Z" fill="white"/>
<path d="M34.125 7.04272C33.5761 7.04272 33.0772 7.28392 32.8277 7.76631C32.5783 8.20046 32.5783 8.77932 32.8277 9.21347C33.0772 9.64762 33.626 9.93706 34.125 9.93706C34.9233 9.93706 35.5719 9.26171 35.5719 8.48989C35.5719 7.71807 34.9233 7.09096 34.125 7.04272Z" fill="white"/>
<path d="M40.2161 6.80176C39.5176 6.80176 38.869 7.13943 38.5198 7.7183C38.1705 8.29716 38.1705 9.02075 38.5198 9.59961C38.869 10.1785 39.5176 10.5162 40.2161 10.5162C41.2639 10.5162 42.1121 9.64785 42.1121 8.63484C42.1121 7.62182 41.2639 6.80176 40.2161 6.80176Z" fill="white"/>
<path d="M46.4514 8.20044C45.204 8.20044 44.1562 9.16522 44.1562 10.4194C44.1562 11.6254 45.1541 12.6384 46.4514 12.6384C47.6987 12.6384 48.7465 11.6736 48.7465 10.4194C48.7465 9.21346 47.6987 8.20044 46.4514 8.20044Z" fill="white"/>
<path d="M52.3358 11.6738C50.839 11.6738 49.6914 12.8316 49.6914 14.2305C49.6914 15.6294 50.8889 16.7872 52.3358 16.7872C53.8326 16.7872 54.9801 15.6294 54.9801 14.2305C54.9801 12.8316 53.7827 11.6738 52.3358 11.6738Z" fill="white"/>
<path d="M57.0265 17.4626C55.9787 17.4626 55.0308 17.9933 54.4819 18.8616C53.9331 19.7299 53.9331 20.7911 54.4819 21.6594C55.0308 22.5277 55.9787 23.0584 57.0265 23.0584C58.6231 23.0101 59.8705 21.8041 59.8705 20.2605C59.8206 18.7651 58.5732 17.5109 57.0265 17.4626Z" fill="white"/>
<path d="M59.674 25.1326C58.8757 25.1326 58.0774 25.5185 57.6783 26.1938C57.2791 26.8692 57.2791 27.7375 57.6783 28.4128C58.0774 29.0882 58.8757 29.5223 59.674 29.4741C60.9214 29.4258 61.8693 28.4611 61.8693 27.3033C61.8693 26.1456 60.9214 25.1808 59.674 25.1326Z" fill="white"/>
<path d="M71.2948 31.4999C71.2948 33.5259 69.5984 35.1661 67.5029 35.1661C65.4073 35.1661 63.7109 33.5259 63.7109 31.4999C63.7109 29.4739 65.4073 27.8337 67.5029 27.8337C69.5984 27.882 71.2948 29.5221 71.2948 31.4999Z" fill="white"/>
<path d="M258 37.144C258 33.6708 255.955 31.8377 252.762 30.5835C250.267 29.6188 248.072 28.7987 246.375 28.1233C244.729 27.4962 243.282 26.3867 243.282 25.1808C243.282 23.5407 245.377 22.5759 248.171 22.5759C251.464 22.5759 254.059 23.01 256.504 23.2512H256.603C257.003 23.2512 257.252 22.9618 257.252 22.5759V19.8745C257.252 19.5368 256.953 19.2474 256.554 19.1992C255.256 18.9097 251.963 18.2344 248.371 18.2344C241.386 18.2344 238.043 21.1287 238.043 25.1808C238.043 27.7374 239.191 30.2459 242.484 31.5483C245.776 32.8508 252.512 34.3944 252.512 37.0958C252.512 39.2183 251.514 40.376 248.121 40.376C244.629 40.376 241.086 39.8936 239.59 39.7007H239.49C239.091 39.7007 238.791 39.9901 238.791 40.376V42.9809C238.791 43.3668 239.141 43.6563 239.49 43.7045C241.286 44.0904 244.679 44.6693 248.022 44.6693C255.655 44.7658 258 40.8102 258 37.144Z" fill="white"/>
<path d="M184.161 22.7689H176.627V43.7046C176.627 44.0905 176.277 44.4282 175.878 44.4282H172.136C171.737 44.4282 171.388 44.0905 171.388 43.7046V22.7689H163.854C163.455 22.7689 163.105 22.5278 163.105 22.0936V19.1993C163.105 18.8134 163.455 18.5239 163.854 18.5239H184.161C184.56 18.5239 184.909 18.8134 184.909 19.1993V22.0936C184.909 22.5278 184.56 22.7689 184.161 22.7689Z" fill="white"/>
<path d="M159.81 34.4426V19.2474C159.81 18.8615 159.46 18.572 159.061 18.572H155.319C154.92 18.572 154.571 18.8615 154.571 19.2474V34.3944C154.571 38.5429 152.575 40.5207 148.534 40.5207C144.492 40.5207 142.497 38.5429 142.497 34.3944V19.2474C142.497 18.8615 142.147 18.572 141.748 18.572H138.006C137.607 18.572 137.258 18.8615 137.258 19.2474V34.3944C137.258 42.1608 142.497 44.7175 148.534 44.7175C154.571 44.7175 159.81 42.2091 159.81 34.4426Z" fill="white"/>
<path d="M193.587 33.1883H205.662C206.061 33.1883 206.41 32.8506 206.41 32.4647V29.8116C206.41 29.4257 206.061 29.088 205.662 29.088H193.587V25.7595C193.587 22.7205 193.687 22.624 196.581 22.624H206.111C206.51 22.624 206.859 22.2863 206.859 21.9004V19.5849C206.859 19.0543 206.66 18.9096 206.111 18.8131C204.913 18.6201 202.468 18.2825 197.978 18.2825C191.741 18.2825 188.398 18.2342 188.398 25.7595V37.2886C188.398 44.8139 191.741 44.7656 197.978 44.7656C202.468 44.7656 204.913 44.428 206.111 44.235C206.66 44.1868 206.859 43.9938 206.859 43.4632V41.1477C206.859 40.7618 206.51 40.4241 206.111 40.4241H196.581C193.737 40.4241 193.587 40.3277 193.587 37.2886V33.1883Z" fill="white"/>
<path d="M119.095 33.1883H131.169C131.569 33.1883 131.918 32.8506 131.918 32.4647V29.8116C131.918 29.4257 131.569 29.088 131.169 29.088H119.095V25.7595C119.095 22.7205 119.195 22.624 122.089 22.624H131.618C132.018 22.624 132.367 22.2863 132.367 21.9004V19.5849C132.367 19.0543 132.167 18.9096 131.618 18.8131C130.421 18.6201 127.976 18.2825 123.486 18.2825C117.249 18.2825 113.906 18.2342 113.906 25.7595V37.2886C113.906 44.8139 117.249 44.7656 123.486 44.7656C127.976 44.7656 130.421 44.428 131.618 44.235C132.167 44.1868 132.367 43.9938 132.367 43.4632V41.1477C132.367 40.7618 132.018 40.4241 131.618 40.4241H122.089C119.245 40.4241 119.095 40.3277 119.095 37.2886V33.1883Z" fill="white"/>
<path d="M234.9 43.7044L229.012 33.9601C232.106 32.8024 234.101 30.6799 234.101 26.8208V26.5313C234.101 20.3085 228.763 18.2825 222.925 18.2825C220.181 18.2825 215.94 18.4754 213.994 18.7649C213.246 18.8613 212.797 19.1508 212.797 19.8744V43.7526C212.797 44.1385 213.146 44.4762 213.545 44.4762H217.337C217.736 44.4762 218.036 44.1385 218.036 43.7526V34.7319C218.884 34.7802 221.927 34.8767 222.925 34.8767H223.773L229.212 43.7044C229.411 44.042 229.561 44.428 229.96 44.428H234.551C234.85 44.428 235 44.235 235 43.9938C235 43.8973 234.95 43.8008 234.9 43.7044ZM228.863 26.8208C228.863 30.0045 226.767 30.7281 222.875 30.7281C222.227 30.7281 218.585 30.6316 217.986 30.6316V22.7687C218.634 22.6722 222.077 22.624 222.875 22.624C226.667 22.624 228.863 23.7817 228.863 26.5313V26.8208Z" fill="white"/>
<path d="M109.813 43.7044L103.876 33.9601C106.969 32.8024 108.965 30.6799 108.965 26.8208V26.5313C108.965 20.3085 103.626 18.2825 97.7886 18.2825C95.0444 18.2825 90.8035 18.4754 88.8576 18.7649C88.1092 18.8613 87.6602 19.1508 87.6602 19.8744V43.7526C87.6602 44.1385 88.0094 44.4762 88.4086 44.4762H92.2005C92.5996 44.4762 92.899 44.1385 92.899 43.7526V34.7319C93.7472 34.7802 96.7907 34.8767 97.7886 34.8767H98.6368L104.075 43.7044C104.275 44.042 104.424 44.428 104.824 44.428H109.414C109.713 44.428 109.863 44.235 109.863 43.9938C109.863 43.8973 109.863 43.8008 109.813 43.7044ZM103.776 26.8208C103.776 30.0045 101.68 30.7281 97.8385 30.7281C97.1898 30.7281 93.5476 30.6316 92.9489 30.6316V22.7687C93.5975 22.6722 97.0402 22.624 97.8385 22.624C101.63 22.624 103.776 23.7817 103.776 26.5313V26.8208Z" fill="white"/>
</g>
<defs>
<clipPath id="clip0_5739_71421">
<rect width="258" height="63" fill="white"/>
</clipPath>
</defs>
</svg>
