<svg width="124" height="98" viewBox="0 0 124 98" fill="none" xmlns="http://www.w3.org/2000/svg">
<g clip-path="url(#clip0_5739_71505)">
<path d="M16.3286 21.4478C11.3738 25.8833 9.57042 35.9337 18.5025 41.8089L54.1364 65.9845L36.8587 26.8411C33.2381 17.6042 23.3335 15.5899 16.3286 21.4478Z" fill="white"/>
<path d="M47.0057 2.41629C41.2134 2.533 32.5156 9.35391 36.3863 19.7696L54.2563 61.4454L60.5357 17.6105C61.9887 6.71849 53.6533 1.69051 47.0057 2.41629Z" fill="white"/>
<path d="M63.3245 15.9386H66.7035C66.7035 15.9386 68.5079 15.9386 68.7535 16.7804C67.4238 17.8542 63.8045 17.9888 64.2851 23.7245L69.9653 61.4394L87.7132 19.6543C91.3435 10.3245 83.7236 2.53264 76.9643 2.2945C76.6487 2.2721 76.3318 2.25391 76.0038 2.25391C69.937 2.25373 62.9848 6.61385 63.3245 15.9386Z" fill="white"/>
<path d="M86.9975 27.196L70.2109 65.8698L105.834 41.5666C114.046 35.8069 112.722 26.5985 108.125 22.0467C106.198 19.9044 102.66 18.2495 98.9117 18.2495C94.4836 18.2486 89.7447 20.5712 86.9975 27.196Z" fill="white"/>
<path d="M101.845 47.0692L68.3906 70.1772H109.583C118.034 70.1772 123.465 61.5606 121.051 53.6532C119.434 48.683 114.65 44.7815 109.097 44.7759C106.759 44.7768 104.281 45.473 101.845 47.0692Z" fill="white"/>
<path d="M15.3707 70.1773H55.9555L22.4922 47.0693C14.7614 42.1575 6.0687 45.0316 2.9305 53.1827C0.270399 62.5134 6.91216 70.1773 15.3707 70.1773Z" fill="white"/>
<path d="M0.128906 86.901C0.128906 90.8365 3.38229 98 15.8048 98C27.2581 98 30.8754 92.803 30.8754 90.42H22.0085C22.0085 90.42 21.5874 93.5683 16.5855 93.5683C11.5804 93.5683 10.2268 89.437 10.2268 87.0481C10.2268 84.6684 11.5804 80.7602 16.5855 80.7602C21.5874 80.7602 22.0085 83.5011 22.0085 83.5011H30.8754C30.8754 81.1154 28.2214 75.9917 15.8048 75.9917C3.38229 75.9917 0.128906 83.6208 0.128906 86.901Z" fill="white"/>
<path d="M93.1211 86.901C93.1211 90.8365 96.3778 98 108.797 98C120.249 98 123.868 92.803 123.868 90.42H115.007C115.007 90.42 114.584 93.5683 109.581 93.5683C104.575 93.5683 103.22 89.437 103.22 87.0481C103.22 84.6684 104.575 80.7602 109.581 80.7602C114.584 80.7602 115.007 83.5011 115.007 83.5011H123.868C123.868 81.1154 121.217 75.9917 108.797 75.9917C96.378 75.9917 93.1211 83.6208 93.1211 86.901Z" fill="white"/>
<path d="M55.1111 76.3594V89.6819L44.7919 76.3594H33.1836V97.4611H41.1418V83.9855L51.2804 97.4611H63.0698V76.3594H55.1111Z" fill="white"/>
<path d="M80.6107 92.4198V92.4476H73.9797V88.5731H80.6107V88.5857C82.0265 88.5857 83.1708 89.4462 83.1708 90.5058C83.1708 91.5628 82.0265 92.4198 80.6107 92.4198ZM74.0406 80.4635H80.4298V80.4724C81.5124 80.4724 82.3901 81.1767 82.3901 82.0435C82.3901 82.9136 81.5124 83.6118 80.4298 83.6118V83.6212H74.0406V80.4635ZM87.1233 86.2426C88.5721 86.2426 91.6013 84.5795 91.6013 81.3576C91.6013 76.7697 82.9618 76.3594 81.6366 76.3594H65.7188V97.4611H81.6366C89.2924 97.4611 92.3678 95.0694 92.3678 91.0755C92.3678 87.0816 87.1233 86.2426 87.1233 86.2426Z" fill="white"/>
</g>
<defs>
<clipPath id="clip0_5739_71505">
<rect width="124" height="98" fill="white"/>
</clipPath>
</defs>
</svg>
