<svg width="219" height="43" viewBox="0 0 219 43" fill="none" xmlns="http://www.w3.org/2000/svg">
<path d="M0 0H16.0555C19.1137 0 21.4073 0.813026 23.1063 2.16807C24.9752 3.79412 25.9946 6.14286 25.9946 9.03362C25.9946 12.3761 24.7203 14.4538 22.1719 15.7185V15.8992C25.5698 17.0735 27.5237 20.3256 27.5237 24.2101C27.5237 27.9139 26.1645 30.8046 23.9558 32.6113C22.0869 34.0567 19.7083 34.6891 16.4802 34.6891H0V0ZM14.4414 13.5504C16.1404 13.5504 17.4147 12.5567 17.4147 10.479C17.4147 8.4916 16.1404 7.4979 14.3565 7.4979H8.83476V13.4601H14.4414V13.5504ZM15.206 27.0105C17.1598 27.0105 18.604 25.7458 18.604 23.4874C18.604 21.0483 17.0749 19.9643 15.206 19.9643H8.91971V27.1008H15.206V27.0105Z" fill="white"/>
<path d="M28.9688 0H37.3788V34.7794H28.9688V0Z" fill="white"/>
<path d="M39.0781 22.4034C39.0781 14.5442 43.8353 9.30469 51.2259 9.30469C58.6165 9.30469 63.2888 14.6345 63.2888 22.4034C63.2888 30.2627 58.6165 35.5022 51.2259 35.5022C43.8353 35.5022 39.0781 30.2627 39.0781 22.4034ZM54.8788 22.4034C54.8788 18.0673 53.6045 15.3572 51.056 15.3572C48.5075 15.3572 47.3182 18.0673 47.3182 22.4034C47.3182 26.7396 48.5075 29.54 51.056 29.54C53.6045 29.4496 54.8788 26.7396 54.8788 22.4034Z" fill="white"/>
<path d="M64.2227 22.4034C64.2227 14.5442 68.9798 9.30469 76.3704 9.30469C83.761 9.30469 88.3483 14.5442 88.3483 22.4034C88.3483 30.2627 83.6761 35.5022 76.2855 35.5022C68.9798 35.5022 64.2227 30.2627 64.2227 22.4034ZM80.0233 22.4034C80.0233 18.0673 78.749 15.3572 76.2005 15.3572C73.652 15.3572 72.4628 18.0673 72.4628 22.4034C72.4628 26.7396 73.652 29.54 76.2005 29.54C78.749 29.4496 80.0233 26.7396 80.0233 22.4034Z" fill="white"/>
<path d="M90.043 9.9368H97.8583V13.6406H98.0282C99.5573 10.7498 101.681 9.21411 105.079 9.21411C108.052 9.21411 110.261 10.7498 111.365 13.4599H111.535C113.404 10.2078 115.868 9.21411 118.756 9.21411C124.193 9.21411 126.486 13.4599 126.486 19.1511V34.6889H118.331V20.6868C118.331 18.1574 117.567 16.5313 115.528 16.5313C113.489 16.5313 112.47 18.5187 112.47 21.2288V34.6889H104.314V20.6868C104.314 18.1574 103.55 16.5313 101.511 16.5313C99.4724 16.5313 98.453 18.5187 98.453 21.2288V34.6889H90.043V9.9368Z" fill="white"/>
<path d="M136.771 31.437H136.686V34.6891H128.871V0H137.026V12.4664H137.196C138.725 10.2983 140.849 9.12395 143.822 9.12395C149.684 9.12395 153.082 14.7248 153.082 22.2227C153.082 30.624 149.429 35.5021 143.313 35.5021C140.764 35.5021 138.131 34.2374 136.771 31.437ZM144.672 22.1324C144.672 18.1576 143.313 15.5378 140.849 15.5378C138.3 15.5378 136.771 18.1576 136.771 22.1324C136.771 26.1071 138.385 28.7269 140.849 28.7269C143.313 28.7269 144.672 26.1975 144.672 22.1324Z" fill="white"/>
<path d="M154.012 22.3129C154.012 14.5439 158.854 9.21411 165.82 9.21411C169.303 9.21411 171.936 10.3885 173.975 12.4662C176.693 15.2666 177.883 19.6028 177.798 24.6616H162.167C162.507 27.733 163.866 29.3591 166.329 29.3591C167.774 29.3591 169.048 28.6364 169.558 27.0103H177.458C176.099 32.7015 171.936 35.5019 166.075 35.5019C158.854 35.4116 154.012 30.1721 154.012 22.3129ZM162.167 19.6931H169.642C169.473 16.712 167.943 15.1763 165.99 15.1763C163.696 15.086 162.422 16.8023 162.167 19.6931Z" fill="white"/>
<path d="M187.058 14.1828H187.227C188.926 10.7501 191.135 9.39502 193.938 9.39502C194.618 9.39502 195.043 9.48536 195.298 9.66603V17.2543H195.128C190.286 16.3509 187.482 18.79 187.482 24.3908V34.7795H179.242V9.93704H187.058V14.1828Z" fill="white"/>
<path d="M196.147 34.7795H204.048C204.388 35.8635 205.407 36.8572 207.361 36.8572C209.994 36.8572 210.929 35.1408 210.929 32.5211V30.7144H210.759C209.484 32.3404 207.701 33.5148 205.152 33.5148C200.14 33.5148 195.723 29.54 195.723 21.7711C195.723 14.6345 199.291 9.12402 204.727 9.12402C207.87 9.12402 209.739 10.4791 211.014 12.5568H211.183V9.84671H218.999V31.3467C218.999 35.3215 217.725 38.3929 215.771 40.1997C213.732 42.0967 210.844 42.9097 207.531 42.9097C201.244 43.0001 196.912 40.29 196.147 34.7795ZM211.268 21.4097C211.268 18.3383 209.909 15.8089 207.531 15.8089C205.237 15.8089 203.793 17.977 203.793 21.4097C203.793 24.7522 205.237 27.1009 207.531 27.1009C209.824 27.1009 211.268 24.6618 211.268 21.4097Z" fill="white"/>
</svg>
