<svg width="190" height="66" viewBox="0 0 190 66" fill="none" xmlns="http://www.w3.org/2000/svg">
<path d="M73.3375 19.252C71.9637 17.8286 70.4905 16.962 69.4732 16.962H68.5583V16.1729H69.3212C69.6749 16.1729 73.8462 16.3393 74.2525 16.3393C74.916 16.3393 76.8423 16.1729 77.2515 16.1729H78.0642L97.4091 37.2499V20.6236C97.4091 17.9807 96.2398 16.962 93.2963 16.962H92.4311V16.1729H93.346C93.4483 16.1729 97.8154 16.3393 98.1691 16.3393C98.6748 16.3393 101.572 16.1729 102.13 16.1729H102.691L102.741 16.962C100.046 17.1658 99.3354 17.8803 99.3354 20.219V46.5042H98.4234L75.3194 21.3381V40.2773C75.3194 44.2487 76.2372 45.3162 79.5871 45.3162H80.4494V46.1656H79.4818C78.7715 46.1656 75.2697 45.9934 74.4542 45.9934C73.9982 45.9934 70.7448 46.1656 70.0345 46.1656H69.2189V45.3162C72.6272 45.0092 73.3405 44.4496 73.3405 42.0076V19.252H73.3375ZM108.356 19.5561C108.356 17.5733 107.593 16.962 105.202 16.962H104.442V16.1729H106.424C107.798 16.1729 115.216 16.3393 115.269 16.3393C116.333 16.3393 123.386 16.1729 124.904 16.1729H126.935L127.037 22.7069H126.248C126.093 19.2979 124.553 17.9233 121.001 17.9233H113.898V29.4762H120.037C122.422 29.4762 123.743 28.3571 124.097 25.961L125.003 26.0126V35.1321H124.146C123.743 32.2826 122.27 31.1635 118.718 31.1635H113.848V41.7006C113.848 43.4309 114.714 44.2975 116.435 44.2975H121.51C124.801 44.2975 127.192 42.8197 128.613 39.7636H129.531L127.394 46.1627C125.918 46.1627 118.923 45.9963 116.59 45.9963C115.015 45.9963 107.441 46.1111 105.711 46.1627H104.389V45.3162H105.202C107.593 45.2674 108.359 44.6562 108.359 42.6676V19.5561H108.356ZM157.174 46.5587H155.751L149.951 30.7446L144.003 46.5616H142.629L132.708 20.0153C131.948 17.9779 131.232 17.1658 129.911 16.9161V16.17H130.776C131.334 16.17 134.135 16.3393 134.795 16.3393C135.354 16.3393 138.25 16.1729 138.861 16.1729H139.779V16.962C138.303 17.0166 137.692 17.4212 137.692 18.2333C137.692 18.6924 137.844 19.3524 138.101 20.0669L145.067 38.8826L149.034 28.1505L146.441 20.9306C145.321 17.8286 144.354 17.0166 141.91 16.962V16.1729H142.728C143.439 16.1729 147.101 16.3393 147.97 16.3393C148.677 16.3393 152.34 16.1729 153.152 16.1729H154.371V16.962H153.152C151.474 16.962 150.662 17.3695 150.662 18.2333C150.662 18.6924 150.866 19.5073 151.17 20.3194L157.934 39.0347L163.275 23.166C163.935 21.1315 164.239 19.8086 164.239 18.9966C164.239 17.5733 163.529 16.9592 161.954 16.9592H161.039V16.1729H161.293C162.003 16.1729 163.78 16.3393 164.85 16.3393C165.356 16.3393 167.338 16.1729 168.3 16.1729H168.659V16.962C167.385 17.3207 166.73 18.2333 165.716 21.3381L157.171 46.5616L157.174 46.5587ZM168.896 39.204C169.708 41.1783 170.416 42.0966 171.784 43.1095C173.508 44.4295 175.788 45.0895 178.323 45.0895C182.681 45.0895 185.622 42.8053 185.622 39.5053C185.622 37.0662 184.201 35.7462 178.951 33.264C173.865 30.8249 172.596 29.6082 171.532 28.5924C169.963 26.9166 169.305 25.3957 169.305 23.364C169.305 18.6953 173.105 15.6047 178.849 15.6047C180.579 15.6047 182.462 15.8573 184.499 16.3623C185.312 16.5632 186.127 16.6665 186.586 16.6665C186.99 16.6665 187.197 16.566 187.346 16.2274H188.223L188.323 22.6237H187.601C187.145 21.1 186.841 20.4428 186.177 19.6106C184.751 17.932 182.512 17.0194 179.638 17.0194C175.99 17.0194 173.605 18.744 173.605 21.3353C173.605 23.5678 174.979 24.8361 179.843 27.0686C186.081 29.9612 189.857 32.5524 189.857 37.3216C189.857 42.8025 185.364 46.5042 178.729 46.5042C176.918 46.4891 175.116 46.2686 173.356 45.8471C172.757 45.7108 172.147 45.6254 171.532 45.5917C170.922 45.5917 170.723 45.695 170.319 46.1656H169.457L169.355 45.454C169.01 43.4453 168.601 41.4423 168.133 39.4566L168.896 39.2012V39.204ZM11.6051 27.9266C10.8392 27.9266 10.1143 28.0988 9.47125 28.4087C7.7554 29.2438 6.67386 30.9626 6.67971 32.8451C6.67971 35.5597 8.88663 37.7635 11.6022 37.7635C14.3236 37.7635 16.5246 35.5597 16.5246 32.8451C16.5246 30.1276 14.3236 27.9238 11.6022 27.9238L11.6051 27.9266ZM32.8237 27.9266C30.1052 27.9266 27.8983 30.1276 27.8983 32.8451C27.8983 35.5597 30.1023 37.7635 32.8237 37.7635C35.5422 37.7635 37.7462 35.5597 37.7462 32.8451C37.7462 30.1276 35.5392 27.9238 32.8237 27.9238V27.9266Z" fill="white"/>
<path d="M53.9892 42.6848C48.5465 42.6848 44.1385 38.28 44.1385 32.8422C44.1385 27.4101 48.5465 23.0054 53.9892 23.0054C58.6545 23.0054 62.5597 26.2537 63.5769 30.6097H58.3738C57.9696 29.8062 57.3451 29.1291 56.5706 28.6547C55.7961 28.1802 54.9022 27.9271 53.9892 27.9238C51.2649 27.9238 49.0609 30.1276 49.0609 32.8451C49.0609 35.5597 51.2649 37.7635 53.9863 37.7635C54.9015 37.7602 55.7975 37.5059 56.5732 37.0293C57.349 36.5526 57.9737 35.8727 58.3768 35.0661L63.5886 35.0174C62.5977 39.4078 58.6778 42.6848 53.9863 42.6848H53.9892ZM32.8232 42.6848C27.4068 42.6848 23.0134 38.3174 22.9754 32.914L22.8585 15.6507H27.8394L27.8686 24.9136C29.3272 23.7773 31.0168 23.0054 32.8232 23.0054C38.2602 23.0054 42.6682 27.4101 42.6682 32.8451C42.6682 38.28 38.2572 42.6848 32.8232 42.6848ZM16.6118 42.6848L16.5914 40.2199C15.4748 41.3361 13.5426 42.6848 11.2597 42.6848C5.82277 42.6848 1.75677 38.28 1.75677 32.8422C1.75677 27.4101 6.16477 23.0054 11.6017 23.0054C12.4494 23.0054 13.2766 23.1115 14.0658 23.3153C18.3131 24.4057 21.4495 28.2595 21.4495 32.8422V32.8709L21.508 42.6848H16.6089H16.6118ZM32.8232 0.0488281C14.6943 0.0488281 0 14.7324 0 32.8451C0 50.9578 14.6943 65.6442 32.8232 65.6442C50.9463 65.6442 65.6435 50.9578 65.6435 32.8451C65.6435 14.7324 50.9463 0.0488281 32.8232 0.0488281Z" fill="white"/>
</svg>
