<svg fill="none" height="644" viewBox="0 0 1281 644" width="1281" xmlns="http://www.w3.org/2000/svg"><g fill="#fff"><path clip-rule="evenodd" d="m611.066 153.028c-6.95-18.324-7.959-29.088 3.792-46.127 7.226-10.4784 11.767-14.3451 17.284-19.0437 4.131-3.5179 8.81-7.5022 15.573-15.0773 15.376-17.2199 11.702-32.0714 9.762-39.9148-.1-.4046-.195-.7905-.283-1.1572-3.418-14.2402-12.484-26.93977-15.163-30.69319-.293-.410344-.51-.713766-.634-.900585-1.264-1.895625-15.166 20.219375-17.061 35.385075-1.031 8.2484 1.678 13.2264 3.927 17.3589.662 1.2169 1.285 2.3606 1.76 3.4928 2.869 6.8367 4.423 18.3244-4.423 20.2201-8.847 1.8956-17.983-9.5922-15.165-18.9563 1.175-3.9053-12.586 19.3601-18.615 44.1172-5.357 22.002 6.905 36.5 15.106 46.197 1.584 1.872 3.016 3.566 4.14 5.099zm50.49-36.866c-9.478 8.214-3.792 22.116 5.055 18.956 12.271-4.383 19.415-16.734 23.845-33.489.798 15.797-1.351 24.643-4.889 34.753-4.423 12.637-15.165 19.588-20.852 22.116-5.687 2.527-21.484 7.582-34.753-.632-13.27-8.215-14.107-22.795-13.27-30.33 1.264-11.374 6.951-22.187 30.33-42.9683 16.623-14.7758 17.216-33.0358 17.441-39.9913.083-2.5627.117-3.5908.884-2.3444l.185.3016c5.01 8.1375 10.637 17.2791 13.716 33.1879 3.791 19.5877-10.94 34.5875-17.692 40.4405zm-133.556 43.071 112.474 171.239v-84.501c-5.307-7.522-10.98-16.372-16.716-25.319v-.001c-12.705-19.818-25.717-40.116-35.73-47.517-10.679-7.893-32.001-10.448-48.811-12.463-4.077-.488-7.887-.945-11.217-1.438zm112.474 171.239 112.474-171.239c-3.329.493-7.14.95-11.216 1.438-16.811 2.015-38.132 4.57-48.812 12.463-10.013 7.401-23.025 27.699-35.73 47.517v.001c-5.736 8.947-11.409 17.797-16.716 25.319zm-72.111 35.007-6.242-19.211-6.242 19.211h-20.199l16.342 11.873-6.243 19.211 16.342-11.873 16.342 11.873-6.242-19.211 16.342-11.873zm78.353 0-6.242-19.211-6.242 19.211h-20.2l16.342 11.873-6.242 19.211 16.342-11.873 16.342 11.873-6.242-19.211 16.342-11.873zm72.111-19.211 6.242 19.211h20.2l-16.342 11.873 6.242 19.211-16.342-11.873-16.342 11.873 6.242-19.211-16.342-11.873h20.2zm-108.683-171.869 30.33 44.863 29.698-46.127-29.698 7.582z" fill-rule="evenodd"/><path d="m33.3506 621.563v-26.45h33.5422c8.1779 0 15.3336-1.597 21.4671-4.792 6.1334-3.322 10.8613-8.114 14.1831-14.375 3.323-6.261 4.984-13.672 4.984-22.234 0-8.561-1.725-15.908-5.175-22.042-3.3225-6.133-8.0504-10.861-14.1838-14.183-6.0057-3.323-13.0975-4.984-21.2754-4.984h-34.5006v-26.259h34.884c10.2224 0 19.6142 1.662 28.1754 4.984 8.6894 3.194 16.2284 7.858 22.6174 13.992 6.516 6.005 11.5 13.161 14.95 21.467 3.578 8.178 5.367 17.25 5.367 27.217 0 9.839-1.789 18.911-5.367 27.217-3.45 8.306-8.37 15.461-14.759 21.467s-13.928 10.67-22.6167 13.992c-8.5612 3.322-17.8892 4.983-27.9838 4.983zm-20.317 0v-135.319h30.0921v135.319zm148.3344 0v-135.319h30.092v135.319zm23.001 0v-26.067h74.176v26.067zm0-56.542v-25.109h67.467v25.109zm0-52.901v-25.876h73.217v25.876zm136.019 111.552c-11.117 0-20.7-1.789-28.75-5.367-7.923-3.706-15.206-9.264-21.851-16.675l19.551-19.359c4.344 4.984 9.136 8.881 14.375 11.692 5.367 2.683 11.564 4.025 18.592 4.025 6.389 0 11.309-1.15 14.759-3.45 3.577-2.3 5.366-5.495 5.366-9.583 0-3.706-1.15-6.709-3.45-9.009s-5.366-4.281-9.2-5.942c-3.705-1.661-7.858-3.258-12.458-4.791-4.473-1.534-8.945-3.259-13.417-5.176-4.473-2.044-8.625-4.536-12.459-7.475-3.705-3.066-6.708-6.836-9.008-11.308-2.3-4.6-3.45-10.35-3.45-17.251 0-8.305 1.98-15.461 5.941-21.467 4.089-6.005 9.712-10.541 16.867-13.608 7.156-3.195 15.398-4.792 24.726-4.792 9.455 0 18.081 1.661 25.875 4.984 7.923 3.322 14.439 7.858 19.551 13.608l-19.551 19.359c-4.089-4.217-8.242-7.348-12.458-9.392-4.089-2.045-8.753-3.067-13.992-3.067s-9.392 1.022-12.459 3.067c-3.067 1.917-4.6 4.728-4.6 8.433 0 3.45 1.15 6.262 3.45 8.434 2.3 2.044 5.303 3.833 9.009 5.367 3.833 1.533 7.986 3.066 12.458 4.6 4.6 1.533 9.136 3.322 13.609 5.366 4.472 2.045 8.561 4.664 12.267 7.859 3.833 3.067 6.9 7.028 9.2 11.883 2.3 4.728 3.45 10.606 3.45 17.634 0 12.906-4.6 23.064-13.8 30.476-9.201 7.283-21.915 10.925-38.143 10.925zm74.945-2.109v-135.319h30.092v135.319zm123.813 2.109c-9.839 0-19.103-1.789-27.793-5.367-8.561-3.578-16.036-8.497-22.425-14.759-6.389-6.389-11.436-13.8-15.142-22.233-3.578-8.561-5.367-17.762-5.367-27.601s1.853-18.975 5.559-27.408c3.705-8.434 8.817-15.781 15.333-22.043 6.645-6.389 14.376-11.308 23.192-14.758 8.817-3.578 18.273-5.367 28.368-5.367 11.628 0 22.169 2.108 31.625 6.325 9.584 4.217 17.506 10.031 23.767 17.442l-20.508 20.509c-4.345-5.622-9.456-9.839-15.334-12.65-5.878-2.812-12.522-4.217-19.934-4.217-7.922 0-15.014 1.789-21.275 5.367-6.261 3.45-11.181 8.369-14.759 14.758-3.45 6.261-5.175 13.609-5.175 22.042 0 8.434 1.725 15.845 5.175 22.234s8.178 11.372 14.184 14.95 12.906 5.367 20.7 5.367c7.923 0 14.631-1.469 20.126-4.408 5.622-3.067 9.903-7.412 12.842-13.034 3.066-5.75 4.6-12.714 4.6-20.892l19.933 13.417-60.376-.958v-25.493h71.11v4.409c0 16.228-2.939 29.9-8.817 41.017-5.75 10.989-13.8 19.295-24.15 24.917-10.223 5.623-22.042 8.434-35.459 8.434zm90.498-2.109v-135.319h21.083l9.009 27.026v108.293zm93.343 0-79.735-102.16 7.475-33.159 79.735 102.161zm0 0-8.05-27.025v-108.294h30.092v135.319zm74.997-55.775v-22.234h28.559c6.005 0 10.605-1.534 13.8-4.6 3.322-3.067 4.983-7.22 4.983-12.459 0-4.855-1.597-8.881-4.791-12.075-3.195-3.195-7.795-4.792-13.801-4.792h-28.75v-23.384h32.2c8.945 0 16.804 1.726 23.576 5.176 6.772 3.322 12.075 7.986 15.908 13.991 3.834 6.006 5.751 12.906 5.751 20.701 0 7.922-1.917 14.886-5.751 20.892-3.833 5.878-9.2 10.478-16.1 13.8s-15.014 4.984-24.342 4.984zm-23 55.775v-135.319h30.092v135.319zm73.601 0-42.168-58.267 27.601-7.475 50.217 65.742zm106.706 2.109c-11.117 0-20.956-2.364-29.517-7.092-8.434-4.728-15.078-11.245-19.934-19.55-4.728-8.434-7.092-18.017-7.092-28.751v-82.035h30.284v83.76c0 5.367 1.15 10.031 3.45 13.992s5.431 7.028 9.392 9.2c4.089 2.045 8.561 3.067 13.417 3.067 5.111 0 9.584-1.022 13.417-3.067 3.833-2.172 6.836-5.175 9.008-9.008 2.3-3.961 3.451-8.625 3.451-13.992v-83.952h30.283v82.227c0 10.733-2.364 20.253-7.091 28.559-4.728 8.305-11.309 14.822-19.742 19.55-8.434 4.728-18.209 7.092-29.326 7.092zm123.119 0c-11.12 0-20.7-1.789-28.75-5.367-7.93-3.706-15.21-9.264-21.85-16.675l19.55-19.359c4.34 4.984 9.13 8.881 14.37 11.692 5.37 2.683 11.57 4.025 18.59 4.025 6.39 0 11.31-1.15 14.76-3.45 3.58-2.3 5.37-5.495 5.37-9.583 0-3.706-1.15-6.709-3.45-9.009s-5.37-4.281-9.2-5.942c-3.71-1.661-7.86-3.258-12.46-4.791-4.47-1.534-8.94-3.259-13.42-5.176-4.47-2.044-8.62-4.536-12.45-7.475-3.71-3.066-6.71-6.836-9.01-11.308-2.3-4.6-3.45-10.35-3.45-17.251 0-8.305 1.98-15.461 5.94-21.467 4.09-6.005 9.71-10.541 16.87-13.608 7.15-3.195 15.39-4.792 24.72-4.792 9.46 0 18.08 1.661 25.88 4.984 7.92 3.322 14.44 7.858 19.55 13.608l-19.55 19.359c-4.09-4.217-8.25-7.348-12.46-9.392-4.09-2.045-8.76-3.067-13.99-3.067-5.24 0-9.4 1.022-12.46 3.067-3.07 1.917-4.6 4.728-4.6 8.433 0 3.45 1.15 6.262 3.45 8.434 2.3 2.044 5.3 3.833 9.01 5.367 3.83 1.533 7.98 3.066 12.45 4.6 4.6 1.533 9.14 3.322 13.61 5.366 4.48 2.045 8.56 4.664 12.27 7.859 3.83 3.067 6.9 7.028 9.2 11.883 2.3 4.728 3.45 10.606 3.45 17.634 0 12.906-4.6 23.064-13.8 30.476-9.2 7.283-21.91 10.925-38.14 10.925zm74.94-2.109v-135.319h30.09v135.319zm83.76 0v-135.319h30.29v135.319zm-65.74-56.542v-26.067h75.71v26.067z"/></g></svg>