<svg width="211" height="34" viewBox="0 0 211 34" fill="none" xmlns="http://www.w3.org/2000/svg">
<g clip-path="url(#clip0_5739_69258)">
<path d="M0.987367 16.0083C1.73205 12.0442 5.15758 9.2998 9.92354 9.2998C15.4342 9.2998 19.7533 11.7393 19.7533 19.3626V33.542H14.9874L14.3916 30.4926C12.7533 32.6272 10.5193 33.9994 7.24269 33.9994C3.22141 33.9994 0.09375 31.4074 0.09375 26.681C0.09375 21.9545 4.26396 18.9052 10.0725 18.9052H13.9448V17.8379C13.9448 15.0935 12.0086 14.3312 9.7746 14.3312C8.1363 14.3312 6.498 14.9411 5.75332 17.0756L0.987367 16.0083ZM8.58311 28.968C11.264 28.968 13.9448 27.1384 13.9448 24.089V23.6316H10.2214C7.68949 23.4792 6.20013 24.5464 6.20013 26.681C6.20013 27.7482 7.09375 28.968 8.58311 28.968Z" fill="white"/>
<path d="M113.284 16.0083C114.029 12.0442 117.454 9.2998 122.22 9.2998C127.731 9.2998 132.05 11.7393 132.05 19.3626V33.542H127.284L126.688 30.4926C125.05 32.6272 122.816 33.9994 119.54 33.9994C115.518 33.9994 112.391 31.4074 112.391 26.681C112.391 21.9545 116.561 18.9052 122.369 18.9052H126.242V17.8379C126.242 15.0935 124.306 14.3312 122.071 14.3312C120.433 14.3312 118.795 14.9411 118.05 17.0756L113.284 16.0083ZM120.88 28.968C123.561 28.968 126.242 27.1384 126.242 24.089V23.6316H122.369C119.837 23.6316 118.348 24.5464 118.348 26.681C118.497 27.7482 119.391 28.968 120.88 28.968Z" fill="white"/>
<path d="M137.266 33.6944V9.60474H143.074V13.5689C144.712 10.672 147.393 9.2998 149.925 9.2998C150.968 9.2998 151.861 9.45227 152.755 9.7572L151.712 15.246C150.968 14.7886 150.223 14.4837 149.329 14.4837C145.904 14.4837 143.074 17.3805 143.074 25.0038V33.542L137.266 33.6944Z" fill="white"/>
<path d="M165.117 9.30045C167.5 9.30045 169.734 10.5202 170.777 11.8924V0H176.586V33.6951H170.777V31.2556C170.032 32.4753 167.947 34.1525 165.117 34.1525C158.117 34.1525 154.543 29.1211 154.543 21.8027C154.543 14.4843 158.117 9.30045 165.117 9.30045ZM166.011 28.9686C168.99 28.9686 171.373 26.3767 171.373 21.6502C171.373 16.9238 168.99 14.3318 166.011 14.3318C163.032 14.3318 160.649 16.9238 160.649 21.6502C160.649 26.3767 163.032 28.9686 166.011 28.9686Z" fill="white"/>
<path d="M197.434 13.1127L194.008 16.3145C192.966 14.7898 191.327 14.18 190.136 14.18C188.944 14.18 187.902 14.9423 187.902 16.162C187.902 17.2293 188.795 17.9916 190.136 18.449C193.412 19.6687 198.625 20.736 198.625 25.7674C198.625 30.1889 195.349 33.6956 190.285 33.6956C185.37 33.6956 182.093 30.1889 181.051 27.2921L185.668 24.7001C186.561 26.9871 188.051 28.6643 190.434 28.6643C192.221 28.6643 193.412 27.7495 193.412 26.0723C193.412 24.0903 190.434 23.6329 187.604 22.4131C185.072 21.3459 182.838 19.6687 182.838 16.0095C182.838 12.3504 185.817 8.99609 190.285 8.99609C193.264 9.14856 196.093 10.8257 197.434 13.1127Z" fill="white"/>
<path d="M77.3932 9.60498L73.223 26.2238L69.2017 9.60498H63.84L59.9677 26.2238L56.6911 16.6184L56.2443 17.6857L54.457 23.9368L57.4358 33.6947H62.4996L66.5209 18.1431L70.5421 33.6947H75.7549L83.2017 9.60498H77.3932Z" fill="white"/>
<path d="M105.241 9.60498L101.071 26.2238L97.0499 9.60498H91.6882L87.8158 26.2238L84.5392 16.6184L84.0924 17.6857L82.1562 23.9368L85.2839 33.6947H90.3477L94.369 18.1431L98.3903 33.6947H103.454L111.05 9.60498H105.241Z" fill="white"/>
<path d="M55.349 9.60498L47.9022 33.5422H42.8383L38.8171 18.1431L34.7958 33.6947H29.732L22.2852 9.75745H28.0937L32.2639 26.2238L36.2852 9.75745H41.6469L45.6681 26.2238L49.8384 9.75745L55.349 9.60498Z" fill="white"/>
<path d="M206.22 25.9192C208.454 25.9192 210.092 27.5963 210.092 29.8833C210.092 32.1703 208.454 33.8474 206.22 33.8474C203.986 33.8474 202.348 32.1703 202.348 29.8833C202.348 27.5963 203.986 25.9192 206.22 25.9192Z" fill="white"/>
</g>
<defs>
<clipPath id="clip0_5739_69258">
<rect width="210" height="34" fill="white" transform="translate(0.09375)"/>
</clipPath>
</defs>
</svg>
