<svg width="302" height="98" viewBox="0 0 302 98" fill="none" xmlns="http://www.w3.org/2000/svg">
<path d="M157 67.1615L197.798 62.0418L181.832 24.1515L173.728 38.1869C130.409 13.1766 106.893 57.3582 106.893 57.3582C106.893 57.3582 125.33 30.1608 165.104 53.1246L157 67.1615Z" fill="#90C404"/>
<path d="M234.148 65H230.523L236.047 49H240.406L245.922 65H242.297L238.289 52.6562H238.164L234.148 65ZM233.922 58.7109H242.484V61.3516H233.922V58.7109ZM247.848 65V49H258.441V51.7891H251.23V55.6016H257.738V58.3906H251.23V65H247.848ZM260.107 51.7891V49H273.248V51.7891H268.35V65H265.006V51.7891H260.107ZM275.412 65V49H286.193V51.7891H278.795V55.6016H285.639V58.3906H278.795V62.2109H286.225V65H275.412ZM288.883 65V49H295.195C296.404 49 297.435 49.2161 298.289 49.6484C299.148 50.0755 299.802 50.6823 300.25 51.4688C300.703 52.25 300.93 53.1693 300.93 54.2266C300.93 55.2891 300.701 56.2031 300.242 56.9687C299.784 57.7292 299.12 58.3125 298.25 58.7187C297.385 59.125 296.339 59.3281 295.109 59.3281H290.883V56.6094H294.563C295.208 56.6094 295.745 56.5208 296.172 56.3438C296.599 56.1667 296.917 55.901 297.125 55.5469C297.339 55.1927 297.445 54.7526 297.445 54.2266C297.445 53.6953 297.339 53.2474 297.125 52.8828C296.917 52.5182 296.596 52.2422 296.164 52.0547C295.737 51.862 295.198 51.7656 294.547 51.7656H292.266V65H288.883ZM297.523 57.7188L301.5 65H297.766L293.875 57.7188H297.523Z" fill="#90C404"/>
<path d="M1.39062 65V49H7.79687C8.97396 49 9.95573 49.1745 10.7422 49.5234C11.5286 49.8724 12.1198 50.3568 12.5156 50.9766C12.9115 51.5911 13.1094 52.2995 13.1094 53.1016C13.1094 53.7266 12.9844 54.276 12.7344 54.75C12.4844 55.2187 12.1406 55.6042 11.7031 55.9062C11.2708 56.2031 10.776 56.4141 10.2188 56.5391V56.6953C10.8281 56.7214 11.3984 56.8932 11.9297 57.2109C12.4661 57.5286 12.901 57.974 13.2344 58.5469C13.5677 59.1146 13.7344 59.7917 13.7344 60.5781C13.7344 61.4271 13.5234 62.1849 13.1016 62.8516C12.6849 63.513 12.0677 64.0365 11.25 64.4219C10.4323 64.8073 9.42448 65 8.22656 65H1.39062ZM4.77344 62.2344H7.53125C8.47396 62.2344 9.16146 62.0547 9.59375 61.6953C10.026 61.3307 10.2422 60.8464 10.2422 60.2422C10.2422 59.7995 10.1354 59.4089 9.92188 59.0703C9.70833 58.7318 9.40365 58.4661 9.00781 58.2734C8.61719 58.0807 8.15104 57.9844 7.60938 57.9844H4.77344V62.2344ZM4.77344 55.6953H7.28125C7.74479 55.6953 8.15625 55.6146 8.51563 55.4531C8.88021 55.2865 9.16667 55.0521 9.375 54.75C9.58854 54.4479 9.69531 54.0859 9.69531 53.6641C9.69531 53.0859 9.48958 52.6198 9.07813 52.2656C8.67188 51.9115 8.09375 51.7344 7.34375 51.7344H4.77344V55.6953ZM15.9355 65V49H26.7168V51.7891H19.3184V55.6016H26.1621V58.3906H19.3184V62.2109H26.748V65H15.9355ZM29.4062 65V49H40V51.7891H32.7891V55.6016H39.2969V58.3906H32.7891V65H29.4062ZM56.9785 57C56.9785 58.7448 56.6478 60.2292 55.9863 61.4531C55.3301 62.6771 54.4342 63.612 53.2988 64.2578C52.1686 64.8984 50.8978 65.2187 49.4863 65.2187C48.0645 65.2187 46.7884 64.8958 45.6582 64.25C44.528 63.6042 43.6348 62.6693 42.9785 61.4453C42.3223 60.2214 41.9941 58.7396 41.9941 57C41.9941 55.2552 42.3223 53.7708 42.9785 52.5469C43.6348 51.3229 44.528 50.3906 45.6582 49.75C46.7884 49.1042 48.0645 48.7812 49.4863 48.7812C50.8978 48.7812 52.1686 49.1042 53.2988 49.75C54.4342 50.3906 55.3301 51.3229 55.9863 52.5469C56.6478 53.7708 56.9785 55.2552 56.9785 57ZM53.5488 57C53.5488 55.8698 53.3796 54.9167 53.041 54.1406C52.7077 53.3646 52.2363 52.776 51.627 52.375C51.0176 51.974 50.304 51.7734 49.4863 51.7734C48.6686 51.7734 47.9551 51.974 47.3457 52.375C46.7363 52.776 46.2624 53.3646 45.9238 54.1406C45.5905 54.9167 45.4238 55.8698 45.4238 57C45.4238 58.1302 45.5905 59.0833 45.9238 59.8594C46.2624 60.6354 46.7363 61.224 47.3457 61.625C47.9551 62.026 48.6686 62.2266 49.4863 62.2266C50.304 62.2266 51.0176 62.026 51.627 61.625C52.2363 61.224 52.7077 60.6354 53.041 59.8594C53.3796 59.0833 53.5488 58.1302 53.5488 57ZM59.4844 65V49H65.7969C67.0052 49 68.0365 49.2161 68.8906 49.6484C69.75 50.0755 70.4036 50.6823 70.8516 51.4688C71.3047 52.25 71.5313 53.1693 71.5313 54.2266C71.5313 55.2891 71.3021 56.2031 70.8438 56.9687C70.3854 57.7292 69.7214 58.3125 68.8516 58.7187C67.987 59.125 66.9401 59.3281 65.7109 59.3281H61.4844V56.6094H65.1641C65.8099 56.6094 66.3464 56.5208 66.7734 56.3438C67.2005 56.1667 67.5182 55.901 67.7266 55.5469C67.9401 55.1927 68.0469 54.7526 68.0469 54.2266C68.0469 53.6953 67.9401 53.2474 67.7266 52.8828C67.5182 52.5182 67.1979 52.2422 66.7656 52.0547C66.3385 51.862 65.7995 51.7656 65.1484 51.7656H62.8672V65H59.4844ZM68.125 57.7188L72.1016 65H68.3672L64.4766 57.7188H68.125ZM73.9219 65V49H84.7031V51.7891H77.3047V55.6016H84.1484V58.3906H77.3047V62.2109H84.7344V65H73.9219Z" fill="#90C404"/>
</svg>
