<svg width="188" height="74" viewBox="0 0 188 74" fill="none" xmlns="http://www.w3.org/2000/svg">
<g clip-path="url(#clip0_276_568)">
<rect width="188" height="74" rx="3" fill="url(#paint0_linear_276_568)"/>
<rect width="188" height="74" rx="3" fill="url(#paint1_linear_276_568)"/>
<path d="M-144.134 396H-168L-144.134 359.743V-40H119L-144.134 359.743V396Z" fill="url(#paint2_linear_276_568)"/>
<path opacity="0.5" d="M-98.1339 396H-122L-98.1339 359.743V-40H165L-98.1339 359.743V396Z" fill="url(#paint3_linear_276_568)"/>
<path fill-rule="evenodd" clip-rule="evenodd" d="M26.9703 30.5225C26.136 28.3045 26.0149 27.0017 27.4253 24.9393C28.2927 23.671 28.8377 23.203 29.4999 22.6343C29.9958 22.2084 30.5573 21.7262 31.3692 20.8093C33.2146 18.725 32.7738 16.9274 32.5408 15.978C32.5288 15.929 32.5174 15.8823 32.5068 15.8379C32.0966 14.1143 31.0084 12.5771 30.6868 12.1228C30.6517 12.0732 30.6257 12.0364 30.6107 12.0138C30.459 11.7844 28.7905 14.4612 28.563 16.2968C28.4392 17.2952 28.7644 17.8978 29.0343 18.398C29.1138 18.5452 29.1885 18.6837 29.2456 18.8207C29.59 19.6482 29.7765 21.0387 28.7147 21.2682C27.6529 21.4976 26.5562 20.1071 26.8944 18.9737C27.0355 18.501 25.3838 21.317 24.6602 24.3137C24.0171 26.9767 25.4889 28.7316 26.4733 29.9053C26.6634 30.132 26.8353 30.3369 26.9703 30.5225ZM33.0304 26.0602C31.8927 27.0545 32.5754 28.7372 33.6372 28.3547C35.11 27.8242 35.9675 26.3293 36.4993 24.3012C36.595 26.2132 36.3372 27.284 35.9124 28.5078C35.3815 30.0374 34.0922 30.8787 33.4096 31.1847C32.727 31.4906 30.8309 32.1025 29.2382 31.1082C27.6455 30.1139 27.545 28.3492 27.6455 27.437C27.7972 26.0602 28.4798 24.7515 31.286 22.2361C33.2812 20.4477 33.3523 18.2375 33.3793 17.3956C33.3893 17.0854 33.3934 16.9609 33.4855 17.1118L33.5076 17.1483C34.1089 18.1333 34.7844 19.2398 35.154 21.1654C35.6091 23.5363 33.8409 25.3518 33.0304 26.0602ZM17 31.2735L30.5 52.0003L44 31.2735C43.6003 31.3332 43.143 31.3886 42.6536 31.4476C40.6361 31.6914 38.0768 32.0007 36.7949 32.9562C35.5931 33.8519 34.0314 36.3087 32.5063 38.7076C31.8179 39.7906 31.1369 40.8618 30.5 41.7723C29.8631 40.8618 29.1821 39.7906 28.4936 38.7076C26.9687 36.3087 25.4069 33.8519 24.2051 32.9562C22.9232 32.0007 20.364 31.6914 18.3463 31.4476C17.857 31.3886 17.3996 31.3332 17 31.2735ZM21.8447 56.2377L21.0955 53.9123L20.3463 56.2377H17.9218L19.8832 57.6748L19.134 60L21.0955 58.5629L23.057 60L22.3078 57.6748L24.2692 56.2377H21.8447ZM31.2492 56.2377L30.5 53.9123L29.7508 56.2377H27.3263L29.2877 57.6748L28.5385 60L30.5 58.5629L32.4614 60L31.7123 57.6748L33.6737 56.2377H31.2492ZM39.9045 53.9123L40.6537 56.2377H43.0782L41.1168 57.6748L41.8659 60L39.9045 58.5629L37.9431 60L38.6922 57.6748L36.7308 56.2377H39.1553L39.9045 53.9123ZM26.8596 33.1091L30.5 38.5394L34.0646 32.9562L30.5 33.8739L26.8596 33.1091Z" fill="white"/>
</g>
<defs>
<linearGradient id="paint0_linear_276_568" x1="94" y1="-36.8287" x2="94" y2="74" gradientUnits="userSpaceOnUse">
<stop stop-color="#0E0F11"/>
<stop offset="1" stop-color="#062657"/>
</linearGradient>
<linearGradient id="paint1_linear_276_568" x1="133.95" y1="81.1944" x2="108.733" y2="-6.46731" gradientUnits="userSpaceOnUse">
<stop offset="0.302246"/>
<stop offset="1" stop-color="#091B5E"/>
</linearGradient>
<linearGradient id="paint2_linear_276_568" x1="24.4198" y1="-7.70374" x2="-254.112" y2="364.891" gradientUnits="userSpaceOnUse">
<stop stop-color="#08378F"/>
<stop offset="1"/>
</linearGradient>
<linearGradient id="paint3_linear_276_568" x1="70.4198" y1="-7.70374" x2="-208.112" y2="364.891" gradientUnits="userSpaceOnUse">
<stop stop-color="#08378F"/>
<stop offset="1"/>
</linearGradient>
<linearGradient id="paint4_linear_276_568" x1="97.5" y1="52" x2="106.5" y2="59" gradientUnits="userSpaceOnUse">
<stop offset="0.319622" stop-color="#FDED9B"/>
<stop offset="0.356309" stop-color="#F3C03F"/>
</linearGradient>
<linearGradient id="paint5_linear_276_568" x1="114.5" y1="52" x2="123.5" y2="59" gradientUnits="userSpaceOnUse">
<stop offset="0.319622" stop-color="#FDED9B"/>
<stop offset="0.356309" stop-color="#F3C03F"/>
</linearGradient>
<linearGradient id="paint6_linear_276_568" x1="131.5" y1="52" x2="140.5" y2="59" gradientUnits="userSpaceOnUse">
<stop offset="0.319622" stop-color="#FDED9B"/>
<stop offset="0.356309" stop-color="#F3C03F"/>
</linearGradient>
<linearGradient id="paint7_linear_276_568" x1="148.5" y1="52" x2="157.5" y2="59" gradientUnits="userSpaceOnUse">
<stop offset="0.319622" stop-color="#FDED9B"/>
<stop offset="0.356309" stop-color="#F3C03F"/>
</linearGradient>
<linearGradient id="paint8_linear_276_568" x1="165.5" y1="52" x2="174.5" y2="59" gradientUnits="userSpaceOnUse">
<stop offset="0.319622" stop-color="#FDED9B"/>
<stop offset="0.356309" stop-color="#F3C03F"/>
</linearGradient>
<clipPath id="clip0_276_568">
<rect width="188" height="74" rx="3" fill="white"/>
</clipPath>
</defs>
</svg>
