<?xml version="1.0" encoding="UTF-8"?>
<svg xmlns="http://www.w3.org/2000/svg" width="160" height="53" viewBox="0 0 160 53" fill="none">
  <g clip-path="url(#clip0_12_7)">
    <path d="M23.2978 17.9109C23.2978 17.4889 23.2978 17.1891 23.2978 16.8783C23.2978 11.9927 23.2978 7.11817 23.2978 2.23262C23.2978 1.05565 24.2338 0.03412 25.335 0.000809342C26.4583 -0.0325014 27.4824 0.966817 27.4824 2.18821C27.4934 9.97181 27.4824 17.7554 27.4824 25.5501C27.4824 25.5945 27.4604 25.6389 27.4273 25.8277C27.2071 25.6278 27.0198 25.4835 26.8547 25.3169C24.1126 22.5966 20.82 21.2308 16.9767 21.2752C10.6226 21.353 5.03948 26.5606 4.35672 32.8785C3.90523 37.1311 5.0505 40.8065 7.95772 43.871C10.1381 46.1583 12.8802 47.4686 16.0297 47.7573C19.4875 48.0793 22.7031 47.3131 25.5002 45.1479C28.3083 42.9716 29.9491 40.0847 30.3786 36.5316C30.4997 35.4989 30.5108 34.444 30.5108 33.4004C30.5217 23.0962 30.5108 12.781 30.5217 2.4769C30.5217 1.08896 31.3807 0.178466 32.6802 0.200673C33.7043 0.211777 34.5742 1.00013 34.7064 2.03276C34.7174 2.1549 34.7174 2.26594 34.7174 2.38808C34.7174 13.314 34.7615 24.251 34.6844 35.1769C34.6514 39.5295 33.0326 43.3269 30.1033 46.547C27.4384 49.4783 24.1567 51.2882 20.2914 51.8989C15.2368 52.7095 10.6337 51.5547 6.5922 48.3347C2.83704 45.3478 0.645602 41.4171 0.117015 36.6426C-0.444608 31.5127 1.02003 26.9603 4.41179 23.0629C7.24194 19.8095 10.7879 17.8665 15.0166 17.1336C17.5383 16.7006 19.9941 17.0781 22.4388 17.711C22.6591 17.7776 22.8903 17.8221 23.2978 17.9109Z" fill="#04E4FF"></path>
    <path d="M71.219 34.444C71.2408 39.8625 69.2037 44.3817 65.2062 47.9792C59.2596 53.3312 50.1526 53.5643 43.8205 48.5788C37.4885 43.5933 35.231 34.8215 38.4466 27.3932C41.0674 21.3306 45.6706 17.722 52.1677 16.8559C57.1123 16.2008 61.5392 17.6998 65.3163 21.0308C68.7741 24.0843 70.6791 27.9595 71.219 32.523C71.2851 33.1559 71.219 33.7999 71.219 34.444ZM54.5354 47.8571C55.053 47.7904 55.956 47.746 56.8259 47.5462C62.332 46.3137 66.3956 41.6613 66.9572 35.9319C67.4527 30.9797 65.7679 26.8935 61.9576 23.7735C56.6057 19.3986 48.798 20.3424 44.3271 25.7165C39.79 31.1795 40.2856 39.8847 45.8027 44.6815C48.2144 46.78 50.9895 47.8127 54.5354 47.8571Z" fill="#04E4FF"></path>
    <path d="M7.28654 34.6659C7.18741 29.2474 11.6474 24.4618 17.3627 24.384C22.8358 24.2952 27.505 29.1031 27.494 34.7215C27.483 40.3288 22.8799 45.0145 17.3847 44.9923C11.7025 44.9589 7.17645 40.1844 7.28654 34.6659ZM23.2653 34.5882C23.2543 31.2461 20.6884 28.6478 17.3958 28.6478C14.0481 28.6478 11.4822 31.2349 11.4822 34.6105C11.4822 37.9748 14.0811 40.573 17.4068 40.5619C20.6884 40.5509 23.2763 37.9193 23.2653 34.5882Z" fill="#04E4FF"></path>
    <path d="M126.838 30.7576C127.014 30.6133 127.356 30.3801 127.664 30.1136C129.459 28.5814 132.113 28.6369 133.533 30.2913C133.875 30.691 134.106 31.2018 134.469 31.8014C134.877 31.4016 135.229 31.0464 135.593 30.691C136.98 29.3697 138.621 28.8034 140.526 29.081C142.619 29.3919 144.182 31.446 143.731 33.5447C143.125 36.3982 142.354 39.2186 141.627 42.05C141.539 42.3831 141.319 42.694 141.088 42.9605C140.603 43.5045 139.888 43.6045 139.282 43.2492C138.665 42.8938 138.599 42.3165 138.753 41.7058C139.249 39.7738 139.788 37.8529 140.251 35.9097C140.427 35.1547 140.493 34.3663 140.471 33.5891C140.449 32.6563 139.865 32.0679 138.962 31.868C137.366 31.5016 135.681 32.2455 134.987 33.8778C134.403 35.2435 134.051 36.7092 133.644 38.1415C133.291 39.374 133.038 40.6398 132.63 41.8501C132.454 42.372 132.091 42.9494 131.639 43.227C131.287 43.449 130.637 43.3602 130.196 43.1936C129.679 43.0049 129.591 42.4275 129.701 41.9056C129.955 40.7731 130.263 39.6516 130.538 38.519C130.847 37.2755 131.199 36.0319 131.43 34.7771C131.606 33.8333 131.617 32.8229 130.681 32.2122C129.657 31.546 128.545 31.6348 127.521 32.2011C126.563 32.7341 125.869 33.578 125.561 34.6439C124.911 36.8757 124.327 39.1409 123.711 41.3727C123.589 41.8279 123.413 42.2832 123.193 42.694C122.862 43.3269 122.059 43.6045 121.431 43.3824C120.825 43.1603 120.473 42.5719 120.649 41.8168C121.002 40.2623 121.42 38.73 121.827 37.1866C122.378 35.0769 122.917 32.9561 123.523 30.8465C123.655 30.369 123.931 29.8582 124.283 29.5252C124.724 29.0921 125.418 28.9589 125.924 29.3364C126.288 29.614 126.475 30.1803 126.838 30.7576Z" fill="#04E4FF"></path>
    <path d="M57.1451 1.76611C63.356 1.91046 68.8953 3.898 73.8063 7.75093C76.7687 10.0716 78.993 12.9696 80.689 16.3007C81.1078 17.1223 80.7442 18.2216 79.8965 18.688C79.0706 19.1432 77.9915 18.7768 77.4958 17.8219C76.4936 15.8899 75.2599 14.1577 73.7627 12.581C70.5137 9.16107 66.5825 7.00698 62.0235 6.00767C58.2133 5.17491 54.4471 5.26374 50.725 6.52954C49.6127 6.90709 48.6877 6.3852 48.3353 5.28594C48.038 4.35325 48.5335 3.44275 49.5796 3.05413C52.0244 2.16584 54.5462 1.76611 57.1451 1.76611Z" fill="#04E4FF"></path>
    <path d="M95.3933 43.6262C90.9331 43.6373 88.1028 40.0064 89.0941 35.5539C90.0194 31.4011 93.8621 28.6141 98.0473 29.0694C101.042 29.3914 103.311 31.9563 103.443 34.9876C103.652 39.5956 99.7317 43.6373 95.3933 43.6262ZM100.459 35.2097C100.436 34.0882 100.074 32.8446 98.7956 32.1451C97.3862 31.3678 95.8999 31.4122 94.5559 32.2894C92.7394 33.4775 91.8802 35.2097 91.9244 37.4192C91.9796 39.7843 93.7082 41.3055 96.0429 40.9724C98.4987 40.6171 100.459 38.1743 100.459 35.2097Z" fill="#04E4FF"></path>
    <path d="M57.1592 9.32739C61.3989 9.46064 65.7047 11.1151 69.4815 14.2352C71.3981 15.8119 72.8409 17.7439 73.8867 19.9868C74.3272 20.9195 74.0739 21.8411 73.3249 22.3075C72.4882 22.8183 71.5629 22.5295 70.9685 21.6301C70.2087 20.4865 69.4707 19.3317 68.623 18.2657C67.0482 16.3116 64.9999 14.9569 62.6984 14.0353C59.5268 12.7584 56.2452 12.5474 52.9085 13.2248C52.501 13.3025 52.0385 13.3469 51.6641 13.2358C51.0143 13.0471 50.5959 12.5474 50.5409 11.8368C50.4858 11.1262 50.7942 10.571 51.4329 10.2712C53.0186 9.49394 54.7585 9.34964 57.1592 9.32739Z" fill="#04E4FF"></path>
    <path d="M152.768 43.6263C150.863 43.5819 149.178 42.9379 147.647 41.8053C147.02 41.339 146.898 40.6062 147.306 39.9844C147.702 39.3737 148.286 39.2737 149.024 39.7179C149.486 39.9954 149.916 40.3286 150.389 40.595C151.48 41.2169 152.68 41.3057 153.891 41.1947C154.64 41.128 155.345 40.5284 155.466 39.951C155.643 39.1294 155.444 38.663 154.552 38.1634C153.649 37.6637 152.669 37.2973 151.755 36.8087C149.354 35.5429 148.76 33.5554 150.213 31.2569C150.665 30.5463 151.446 29.9023 152.217 29.5581C154.739 28.4478 157.162 29.0474 159.43 30.4131C160.069 30.8017 160.168 31.6011 159.739 32.2341C159.342 32.8337 158.67 32.9891 158.021 32.5228C157.074 31.8455 156.05 31.4013 154.883 31.368C154.42 31.3569 153.947 31.4235 153.495 31.5457C152.834 31.7233 152.47 32.2119 152.383 32.8781C152.295 33.5554 152.68 34.0217 153.23 34.3105C154.09 34.7546 155.003 35.1099 155.829 35.5985C156.534 36.0093 157.272 36.4645 157.778 37.0863C158.957 38.5187 158.45 41.1169 156.92 42.3161C155.697 43.271 154.309 43.6596 152.768 43.6263Z" fill="#04E4FF"></path>
    <path d="M83.0897 29.3032C83.8053 29.3032 84.5324 29.2699 85.2589 29.3144C86.3714 29.3699 86.944 30.4358 86.2945 31.3352C86.0963 31.6128 85.6442 31.8127 85.2922 31.846C84.5433 31.9237 83.7835 31.9126 83.0345 31.8571C82.4293 31.8127 82.2196 32.068 82.0875 32.6121C81.3385 35.5546 80.5569 38.497 79.7637 41.4283C79.6425 41.8836 79.456 42.3278 79.2027 42.7164C78.7622 43.4048 78.0351 43.6047 77.3631 43.316C76.7687 43.0495 76.5263 42.5387 76.7135 41.6948C76.9886 40.4735 77.3304 39.252 77.6606 38.0417C78.1454 36.2319 78.6294 34.4109 79.1033 32.601C79.1585 32.4011 79.1693 32.1902 79.2136 31.9459C79.0264 31.9126 78.8943 31.8904 78.7622 31.8571C78.0902 31.7238 77.6606 31.2131 77.6824 30.5691C77.6939 29.9361 78.1889 29.2811 78.8282 29.3365C79.9183 29.4476 80.0946 28.848 80.3036 27.9708C81.1186 24.7285 83.7174 23.1297 86.8119 23.8625C87.7147 24.0735 88.1225 24.6287 87.968 25.4281C87.8032 26.2386 87.2524 26.5607 86.3053 26.3497C84.3234 25.9278 83.0788 27.2935 83.0897 29.3032Z" fill="#04E4FF"></path>
    <path d="M113.223 31.968C113.808 31.324 114.193 30.7244 114.721 30.3358C115.393 29.8473 116.153 29.4476 116.935 29.1589C117.65 28.9035 118.29 29.3143 118.521 29.9806C118.752 30.6356 118.477 31.4351 117.882 31.7793C117.662 31.9126 117.42 32.0458 117.177 32.1124C113.94 32.8675 112.288 35.0993 111.495 38.1749C111.186 39.3964 110.889 40.6177 110.503 41.817C110.35 42.2944 110.041 42.7608 109.678 43.105C109.215 43.5602 108.609 43.5713 108.048 43.216C107.542 42.9051 107.398 42.4165 107.53 41.8614C108.147 39.463 108.764 37.0757 109.403 34.6884C109.766 33.3116 110.118 31.9347 110.526 30.5579C110.823 29.5586 111.352 29.1478 112.156 29.1589C113.004 29.1699 113.543 29.8251 113.411 30.68C113.367 31.0465 113.312 31.4129 113.223 31.968Z" fill="#04E4FF"></path>
    <path d="M64.0439 34.466C64.088 39.9955 59.65 44.8145 54.0558 44.8256C48.6819 44.8367 44.2659 40.0733 44.2659 34.4105C44.277 28.6921 48.7479 24.062 54.254 24.073C59.595 24.0841 64.0549 28.8143 64.0439 34.466ZM54.1769 28.4145C51.1376 28.2369 48.5167 30.9906 48.4726 34.3327C48.4286 37.6416 51.0385 40.4841 54.0778 40.4952C57.1833 40.5063 59.8262 37.7083 59.8482 34.3883C59.8703 31.1238 57.3155 28.4256 54.1769 28.4145Z" fill="#04E4FF"></path>
  </g>
  <defs>
    <clipPath id="clip0_12_7">
      <rect width="160" height="52.1739" fill="white"></rect>
    </clipPath>
  </defs>
</svg>
