<?xml version="1.0" encoding="UTF-8"?>
<svg xmlns="http://www.w3.org/2000/svg" width="200" height="27" viewBox="0 0 200 27" fill="none">
  <path d="M5.35922 21.2816H8.38835C11.1845 21.2816 13.2816 20.6602 14.5243 19.3398C15.8447 18.0194 16.466 16 16.466 13.2039C16.466 10.4078 15.8447 8.38835 14.5243 7.06796C13.2039 5.74757 11.1845 5.12621 8.38835 5.12621H5.35922V21.2816ZM0 25.7864V0.621359H6.83495C9.5534 0.621359 11.6505 0.776699 13.2039 1.16505C14.7573 1.5534 16.1553 2.17476 17.3204 3.02913C18.8738 4.19418 20.0388 5.59223 20.8155 7.30097C21.5922 9.00971 21.9806 11.0291 21.9806 13.2039C21.9806 15.4563 21.5922 17.3981 20.7379 19.1845C19.9612 20.8932 18.7961 22.3689 17.2427 23.4563C16.0777 24.3107 14.835 24.8544 13.4369 25.2427C12.0388 25.6311 9.94175 25.7864 7.30097 25.7864H0ZM26.6408 0.621359H32V25.7864H26.6408V0.621359ZM48.6214 12.5049H61.7476C61.7476 12.6602 61.7476 12.8155 61.8253 12.9709V13.7476C61.8253 17.5534 60.7379 20.5825 58.5631 22.9126C56.3884 25.2427 53.5922 26.4078 50.1748 26.4078C46.2913 26.4078 43.0291 25.1651 40.5437 22.6796C37.9806 20.1942 36.7379 17.0097 36.7379 13.2039C36.7379 9.39806 37.9806 6.21359 40.5437 3.72816C43.1068 1.24272 46.2913 0 50.1748 0C52.1942 0 54.1359 0.466019 55.8447 1.32039C57.5534 2.17476 59.1068 3.49515 60.4272 5.20388L56.7767 7.92233C55.9223 6.75728 54.9126 5.90291 53.9029 5.43689C52.8932 4.97087 51.7282 4.66019 50.4078 4.66019C47.9223 4.66019 45.9029 5.43689 44.4272 6.99029C42.9515 8.54369 42.1748 10.6408 42.1748 13.2039C42.1748 15.767 42.9515 17.7864 44.4272 19.3398C45.9029 20.8932 47.8447 21.6699 50.2524 21.6699C52.0389 21.6699 53.4369 21.2816 54.5243 20.4272C55.6117 19.5728 56.1554 18.4854 56.1554 17.1651V16.8544H52.3495L48.6214 12.5049ZM66.1748 0.621359H71.534V25.7864H66.1748V0.621359ZM86.6796 5.20388V25.7864H81.3204V5.20388H75.1068V0.621359H95.1457L93.4369 5.20388H86.6796ZM107.184 0.621359H101.049L91.4952 25.7864H97.2428C97.2428 25.7864 103.845 5.51456 104 4.66019C104.155 5.51456 107.495 16.1553 107.495 16.1553H102.835L110.835 25.7087H116.971L107.184 0.621359ZM119.612 25.7864V0.621359H124.971V21.2039H131.029L134.913 25.7864H119.612Z" fill="#1B398F"></path>
  <path d="M156.817 0.621359H162.176V25.7864H156.817V0.621359ZM179.419 21.2816H173.283V0.621359H167.924V25.8641H183.224L179.419 21.2816ZM190.681 12.1165L199.691 0.621359H193.477L185.089 12.0388V0.621359H179.652V14.3689L185.089 20.7379V12.5825L193.555 25.7864H200.001L190.681 12.1165ZM150.758 14.5243C149.749 13.2816 148.118 12.1942 146.021 11.1845C145.71 11.0291 145.322 10.8738 144.856 10.6408C142.292 9.5534 140.972 8.31068 140.972 6.99029C140.972 6.13592 141.283 5.43689 141.982 4.8932C142.603 4.34952 143.457 4.11651 144.545 4.11651C145.399 4.11651 146.176 4.27185 146.797 4.6602C147.419 5.04854 147.962 5.59223 148.273 6.29126L151.457 3.26214C150.603 2.09709 149.593 1.32039 148.506 0.776699C147.419 0.23301 146.098 0 144.545 0C141.904 0 139.807 0.699029 138.176 2.01942C136.545 3.33981 135.69 5.04855 135.69 7.14563C135.69 8.69903 136.079 9.94175 136.933 11.0291C137.788 12.1165 139.341 13.2816 141.516 14.3689L143.38 15.301C145.788 16.466 147.03 17.6311 147.03 18.8738C147.03 19.8835 146.642 20.6602 145.943 21.2816C145.244 21.9029 144.234 22.2136 142.914 22.2136C141.904 22.2136 140.894 21.9806 140.118 21.4369C139.263 20.8932 138.642 20.1942 138.331 19.2621L135.535 19.3398L141.516 26.4078C142.137 26.4854 142.758 26.5631 143.457 26.5631C146.176 26.5631 148.351 25.8641 149.982 24.466C151.613 23.068 152.39 21.2039 152.39 18.7961C152.312 17.1651 151.768 15.767 150.758 14.5243Z" fill="#1B398F"></path>
</svg>
