<svg xmlns="http://www.w3.org/2000/svg" width="78" height="33" viewBox="0 0 78 33" fill="none">
<path d="M0.431065 24.8783C0.431065 24.8783 9.18396 13.8405 26.9263 17.1095C26.9263 17.1095 35.8731 18.7369 45.1643 24.0844L41.2862 31.01C41.2062 31.1531 41.1654 31.3147 41.1677 31.4786C41.1701 31.6425 41.2155 31.8029 41.2995 31.9438C41.3835 32.0846 41.5031 32.2008 41.6463 32.2808C41.7894 32.3608 41.9511 32.4018 42.115 32.3996L59.493 32.1755L76.8734 31.9542C77.0376 31.9521 77.1984 31.9068 77.3395 31.8229C77.4807 31.739 77.5972 31.6194 77.6774 31.4762C77.7576 31.333 77.7986 31.1711 77.7964 31.007C77.7942 30.8428 77.7488 30.6821 77.6647 30.541L68.7689 15.6101L59.8779 0.677859C59.7946 0.536387 59.6755 0.419386 59.5325 0.338703C59.3895 0.25802 59.2278 0.216519 59.0636 0.218394C58.8995 0.220267 58.7388 0.265453 58.5978 0.349377C58.4568 0.433304 58.3404 0.552987 58.2606 0.696322L53.868 8.54074C40.7346 0.614263 28.9945 3.46496 28.9945 3.46496C11.6267 6.16114 0.431065 24.8783 0.431065 24.8783Z" fill="#90C404"></path>
</svg>