<?xml version="1.0" encoding="UTF-8"?>
<svg xmlns="http://www.w3.org/2000/svg" width="160" height="39" viewBox="0 0 160 39" fill="none">
  <path d="M0 0.00195312V29.4886H3.37221V16.2238H17.2587V12.8586H3.38406V3.36799H17.4617V0.00195312H0ZM20.2299 8.11795H23.2053V29.7217H20.2299V8.11795ZM20.2299 0.00195312H23.2053V3.36714H20.2299V0.00195312ZM36.2644 30.1374C37.7061 30.1624 39.1364 29.8788 40.4592 29.3058C41.7821 28.7328 42.9667 27.8836 43.9335 26.8153L42.4953 24.644C41.7496 25.5006 40.8296 26.1887 39.7966 26.6622C38.7635 27.1357 37.6413 27.3837 36.5047 27.3898C32.3592 27.3898 29.8356 24.0247 29.5944 19.9929H45.1611V19.148C45.1611 12.7268 41.7263 7.67692 35.8973 7.67692C30.3855 7.67692 26.3906 12.682 26.3906 18.8835C26.3906 25.5716 30.5048 30.1332 36.2551 30.1332M42.2398 17.4176H29.5834C29.7526 14.1859 31.7831 10.3307 35.8947 10.3307C40.2881 10.3307 42.206 14.2738 42.2449 17.4176M48.1492 0.00195312H51.1247V29.4953H48.1492V0.00195312ZM71.9476 29.4886V0.00195312H68.973V11.3632C68.2975 10.2457 67.3516 9.31575 66.2222 8.65878C65.0927 8.00181 63.8161 7.6389 62.5095 7.60341C57.5112 7.60341 53.9817 11.9816 53.9817 18.8345C53.9817 25.777 57.5112 30.0208 62.5095 30.0208C63.8111 29.9854 65.0835 29.6271 66.2118 28.9781C67.3402 28.3291 68.2891 27.4099 68.973 26.3033V29.4886H71.9476ZM63.2227 27.1229C59.309 27.1229 56.9918 23.6233 56.9918 18.8852C56.9918 14.1471 59.3099 10.6053 63.2227 10.6053C64.3943 10.6558 65.5345 10.9984 66.5394 11.602C67.5443 12.2056 68.3819 13.051 68.9756 14.0609V23.7163C68.3794 24.7204 67.5402 25.559 66.535 26.1549C65.5298 26.7509 64.3909 27.0852 63.2227 27.1271" fill="#04E4FF"></path>
  <path d="M93.5676 29.4883V23.9441H80.4772V17.2205H93.3687V11.678H80.4772V5.54247H93.5676V0H74.7268V29.4934L93.5676 29.4883ZM115.978 29.4798V0.00168978H110.818V10.8805C110.169 9.87896 109.281 9.05508 108.232 8.48363C107.184 7.91219 106.01 7.61127 104.815 7.60822C99.8602 7.60822 96.186 11.8529 96.186 18.7962C96.186 25.9609 99.9321 30.0273 104.815 30.0273C106.008 30.0142 107.178 29.7089 108.225 29.1384C109.272 28.5679 110.162 27.7495 110.818 26.7551V29.4883L115.978 29.4798ZM106.469 25.0746C103.554 25.0746 101.557 22.5501 101.557 18.8224C101.557 15.1455 103.554 12.6209 106.469 12.6209C107.339 12.6428 108.189 12.8761 108.948 13.3005C109.707 13.725 110.35 14.3278 110.823 15.0568V22.6303C110.35 23.3594 109.707 23.9624 108.948 24.3871C108.19 24.8117 107.339 25.045 106.469 25.067M127.586 38.3993C132.408 38.3993 138.184 36.4054 138.184 28.3012V8.33905H133.023V11.0849C132.358 10.0786 131.453 9.25249 130.391 8.68045C129.328 8.10841 128.139 7.80824 126.932 7.80677C121.978 7.80677 118.283 11.7042 118.283 18.7058C118.283 25.8367 122.06 29.5576 126.932 29.5576C128.141 29.5416 129.329 29.2305 130.391 28.6513C131.452 28.0721 132.356 27.2425 133.023 26.2346V28.3173C133.023 32.6566 130.062 33.809 127.582 33.809C126.428 33.8661 125.277 33.6604 124.215 33.2075C123.153 32.7546 122.208 32.0664 121.451 31.195L119.137 35.2251C120.25 36.3061 121.575 37.147 123.027 37.6956C124.48 38.2443 126.03 38.489 127.582 38.4145M128.868 24.6429C125.952 24.6429 123.955 22.4293 123.955 18.7523C123.955 15.0753 125.951 12.8617 128.868 12.8617C129.73 12.8942 130.572 13.1273 131.328 13.5424C132.084 13.9575 132.732 14.5432 133.221 15.2528V22.2062C132.734 22.9217 132.088 23.5144 131.332 23.9373C130.576 24.3602 129.733 24.6018 128.868 24.6429M150.655 30.3949C153.589 30.4751 156.44 29.4112 158.602 27.4285L156.325 23.7109C154.942 25.0194 153.118 25.7622 151.213 25.7927C149.851 25.8563 148.516 25.3956 147.483 24.5057C146.45 23.6158 145.798 22.3644 145.662 21.009H160V19.6876C160 12.7342 156.125 7.94364 150.334 7.94364C144.504 7.94364 140.351 12.9479 140.351 19.1494C140.351 26.015 144.784 30.3999 150.656 30.3999M155.144 17.0507H145.638C145.839 14.9258 147.195 12.4883 150.35 12.4883C153.706 12.4883 154.984 15.0128 155.143 17.0507" fill="#04E4FF"></path>
</svg>
