<?xml version="1.0" encoding="UTF-8"?>
<svg xmlns="http://www.w3.org/2000/svg" width="190" height="62" viewBox="0 0 190 62" fill="none">
  <g clip-path="url(#clip0_12_52)">
    <path d="M27.6661 21.2692C27.6661 20.7681 27.6661 20.4121 27.6661 20.0429C27.6661 14.2413 27.6661 8.45283 27.6661 2.65124C27.6661 1.25358 28.7776 0.0405175 30.0853 0.000961093C31.4192 -0.0385954 32.6354 1.1481 32.6354 2.59851C32.6484 11.8415 32.6354 21.0845 32.6354 30.3408C32.6354 30.3935 32.6092 30.4462 32.57 30.6704C32.3084 30.433 32.0861 30.2617 31.8899 30.0638C28.6337 26.8335 24.7238 25.2116 20.1599 25.2643C12.6144 25.3567 5.98438 31.5407 5.17361 39.0432C4.63745 44.0932 5.99747 48.4577 9.44979 52.0968C12.039 54.813 15.2952 56.3689 19.0353 56.7117C23.1414 57.0942 26.9599 56.1843 30.2815 53.6132C33.6161 51.0288 35.5646 47.6005 36.0746 43.3812C36.2184 42.155 36.2315 40.9023 36.2315 39.6629C36.2446 27.4268 36.2315 15.1775 36.2446 2.94132C36.2446 1.29314 37.2646 0.211929 38.8077 0.238299C40.0239 0.251485 41.0569 1.18766 41.2138 2.41391C41.2269 2.55894 41.2269 2.6908 41.2269 2.83584C41.2269 15.8103 41.2792 28.798 41.1877 41.7726C41.1485 46.9413 39.2262 51.4507 35.7476 55.2745C32.5831 58.7555 28.6861 60.9047 24.096 61.6299C18.0937 62.5925 12.6275 61.2212 7.82824 57.3974C3.36898 53.8505 0.766652 49.1828 0.138955 43.513C-0.527972 37.4213 1.21129 32.0153 5.239 27.3872C8.5998 23.5238 12.8106 21.2164 17.8322 20.3462C20.8267 19.832 23.743 20.2802 26.6461 21.0318C26.9076 21.111 27.1822 21.1637 27.6661 21.2692Z" fill="#1C2D5D"></path>
    <path d="M84.5726 40.9021C84.5985 47.3366 82.1794 52.7031 77.4324 56.9752C70.3708 63.3306 59.5562 63.6074 52.0369 57.6872C44.5176 51.7669 41.8368 41.3504 45.6553 32.5292C48.7676 25.33 54.2338 21.0447 61.9492 20.0162C67.8209 19.2383 73.0778 21.0184 77.5632 24.974C81.6693 28.6 83.9315 33.2017 84.5726 38.6209C84.6511 39.3725 84.5726 40.1372 84.5726 40.9021ZM64.7608 56.8301C65.3754 56.751 66.4478 56.6982 67.4808 56.4609C74.0193 54.9974 78.8447 49.4726 79.5117 42.6689C80.1001 36.7882 78.0994 31.9359 73.5747 28.2308C67.2193 23.0357 57.9477 24.1565 52.6384 30.5382C47.2507 37.0255 47.8392 47.3629 54.3908 53.0591C57.2546 55.5511 60.55 56.7774 64.7608 56.8301Z" fill="#1C2D5D"></path>
    <path d="M8.65276 41.1658C8.53504 34.7313 13.8313 29.0484 20.6182 28.956C27.1175 28.8505 32.6621 34.5599 32.6491 41.2317C32.636 47.8904 27.1698 53.4547 20.6443 53.4284C13.8967 53.3887 8.52202 47.719 8.65276 41.1658ZM27.6275 41.0735C27.6144 37.1047 24.5675 34.0193 20.6574 34.0193C16.6821 34.0193 13.6351 37.0915 13.6351 41.0999C13.6351 45.0951 16.7213 48.1805 20.6705 48.1673C24.5675 48.1542 27.6405 45.0292 27.6275 41.0735Z" fill="#1C2D5D"></path>
    <path d="M150.62 36.5248C150.829 36.3534 151.235 36.0765 151.601 35.76C153.733 33.9405 156.884 34.0064 158.571 35.971C158.977 36.4457 159.251 37.0523 159.682 37.7643C160.166 37.2896 160.585 36.8677 161.017 36.4457C162.664 34.8767 164.613 34.2042 166.875 34.5338C169.36 34.903 171.217 37.3423 170.681 39.8344C169.961 43.223 169.046 46.5722 168.182 49.9345C168.078 50.33 167.816 50.6992 167.542 51.0157C166.966 51.6618 166.117 51.7805 165.397 51.3585C164.665 50.9365 164.586 50.2509 164.77 49.5257C165.358 47.2315 165.999 44.9504 166.548 42.6429C166.757 41.7463 166.835 40.8102 166.809 39.8872C166.784 38.7795 166.09 38.0807 165.018 37.8434C163.122 37.4083 161.121 38.2917 160.297 40.23C159.604 41.8518 159.185 43.5923 158.702 45.2932C158.283 46.7568 157.982 48.2599 157.499 49.6972C157.289 50.3169 156.858 51.0025 156.321 51.3322C155.903 51.5958 155.131 51.4904 154.608 51.2925C153.994 51.0684 153.889 50.3828 154.02 49.763C154.321 48.4182 154.687 47.0864 155.014 45.7415C155.38 44.2647 155.798 42.788 156.073 41.298C156.283 40.1772 156.296 38.9773 155.184 38.2522C153.968 37.461 152.647 37.5665 151.431 38.239C150.293 38.8719 149.469 39.874 149.103 41.1397C148.332 43.79 147.639 46.4799 146.906 49.1302C146.762 49.6708 146.553 50.2114 146.292 50.6992C145.899 51.4508 144.945 51.7805 144.199 51.5167C143.48 51.253 143.062 50.5542 143.271 49.6575C143.689 47.8117 144.187 45.992 144.67 44.1592C145.324 41.654 145.964 39.1355 146.684 36.6303C146.841 36.0633 147.168 35.4568 147.586 35.0612C148.109 34.547 148.933 34.3888 149.535 34.8371C149.967 35.1667 150.189 35.8392 150.62 36.5248Z" fill="#1C2D5D"></path>
    <path d="M67.8598 2.09717C75.2352 2.26858 81.8132 4.62878 87.645 9.20414C91.1628 11.9599 93.8042 15.4013 95.8182 19.3569C96.3155 20.3327 95.8837 21.6381 94.8771 22.1919C93.8964 22.7324 92.6149 22.2973 92.0263 21.1634C90.8362 18.8691 89.3712 16.8122 87.5932 14.9398C83.735 10.8787 79.0668 8.32069 73.6529 7.13402C69.1282 6.14511 64.6559 6.25059 60.2359 7.75374C58.9151 8.20208 57.8166 7.58233 57.3982 6.27697C57.0451 5.16939 57.6336 4.08817 58.8758 3.62669C61.7789 2.57184 64.7736 2.09717 67.8598 2.09717Z" fill="#1C2D5D"></path>
    <path d="M113.28 51.8058C107.983 51.819 104.622 47.5073 105.799 42.22C106.898 37.2886 111.461 33.9791 116.431 34.5196C119.988 34.9021 122.682 37.9479 122.839 41.5475C123.087 47.0195 118.431 51.819 113.28 51.8058ZM119.295 41.8113C119.268 40.4795 118.837 39.0028 117.32 38.1721C115.646 37.2491 113.881 37.3018 112.285 38.3435C110.128 39.7543 109.108 41.8113 109.16 44.4351C109.226 47.2436 111.279 49.0501 114.051 48.6545C116.967 48.2326 119.295 45.3318 119.295 41.8113Z" fill="#1C2D5D"></path>
    <path d="M67.8766 11.0762C72.9112 11.2344 78.0243 13.1991 82.5093 16.9042C84.7853 18.7765 86.4985 21.0708 87.7404 23.7342C88.2635 24.8419 87.9627 25.9362 87.0734 26.4901C86.0797 27.0966 84.9809 26.7537 84.2751 25.6857C83.3728 24.3276 82.4964 22.9563 81.4898 21.6905C79.6197 19.3699 77.1874 17.7612 74.4543 16.6669C70.6881 15.1505 66.7911 14.8999 62.8288 15.7043C62.345 15.7966 61.7957 15.8494 61.3511 15.7174C60.5795 15.4933 60.0826 14.8999 60.0173 14.0561C59.9519 13.2122 60.318 12.5529 61.0765 12.1969C62.9596 11.2739 65.0258 11.1026 67.8766 11.0762Z" fill="#1C2D5D"></path>
    <path d="M181.412 51.8064C179.15 51.7537 177.149 50.9889 175.331 49.644C174.586 49.0902 174.442 48.2199 174.926 47.4816C175.397 46.7564 176.09 46.6377 176.966 47.1651C177.515 47.4947 178.025 47.8903 178.587 48.2067C179.882 48.9452 181.308 49.0506 182.746 48.9188C183.635 48.8397 184.472 48.1277 184.616 47.442C184.826 46.4663 184.589 45.9125 183.53 45.3192C182.458 44.7258 181.295 44.2907 180.209 43.7105C177.358 42.2074 176.652 39.8472 178.378 37.1177C178.915 36.2739 179.843 35.5092 180.758 35.1004C183.753 33.7819 186.63 34.4939 189.323 36.1157C190.082 36.5772 190.2 37.5265 189.69 38.2781C189.219 38.9901 188.421 39.1747 187.65 38.6209C186.525 37.8166 185.309 37.2892 183.923 37.2496C183.373 37.2364 182.812 37.3156 182.275 37.4606C181.49 37.6716 181.059 38.2517 180.954 39.0429C180.85 39.8472 181.308 40.4009 181.961 40.7438C182.981 41.2712 184.066 41.6932 185.047 42.2733C185.885 42.7612 186.76 43.3017 187.362 44.0402C188.761 45.7411 188.16 48.8265 186.342 50.2505C184.89 51.3845 183.242 51.8459 181.412 51.8064Z" fill="#1C2D5D"></path>
    <path d="M98.669 34.7974C99.5188 34.7974 100.382 34.7579 101.245 34.8106C102.566 34.8766 103.246 36.1424 102.475 37.2104C102.239 37.5401 101.703 37.7774 101.285 37.8169C100.395 37.9092 99.4929 37.8961 98.6035 37.8301C97.8848 37.7774 97.6358 38.0806 97.4789 38.7267C96.5895 42.2209 95.6614 45.7151 94.7195 49.196C94.5755 49.7366 94.354 50.2641 94.0532 50.7256C93.5301 51.5431 92.6666 51.7804 91.8686 51.4376C91.1628 51.1211 90.875 50.5146 91.0973 49.5124C91.424 48.0621 91.8298 46.6116 92.222 45.1744C92.7976 43.0252 93.3725 40.8628 93.9352 38.7136C94.0007 38.4762 94.0136 38.2257 94.0662 37.9356C93.8438 37.8961 93.687 37.8697 93.5301 37.8301C92.7321 37.6719 92.222 37.0654 92.2478 36.3006C92.2616 35.549 92.8494 34.7711 93.6086 34.837C94.903 34.9689 95.1124 34.2569 95.3606 33.2152C96.3284 29.365 99.4145 27.4664 103.089 28.3366C104.161 28.5871 104.646 29.2464 104.462 30.1957C104.266 31.1582 103.612 31.5406 102.488 31.2901C100.134 30.7891 98.6561 32.4109 98.669 34.7974Z" fill="#1C2D5D"></path>
    <path d="M134.453 37.9622C135.147 37.1975 135.604 36.4855 136.232 36.024C137.03 35.4439 137.932 34.9692 138.86 34.6264C139.71 34.3231 140.469 34.8109 140.743 35.6021C141.018 36.38 140.691 37.3294 139.985 37.7381C139.724 37.8964 139.436 38.0546 139.148 38.1337C135.303 39.0303 133.342 41.6806 132.4 45.3329C132.034 46.7834 131.681 48.2337 131.223 49.6578C131.04 50.2247 130.674 50.7786 130.242 51.1873C129.693 51.7279 128.974 51.7411 128.307 51.3192C127.706 50.95 127.535 50.3698 127.692 49.7106C128.425 46.8625 129.157 44.0276 129.916 41.1927C130.347 39.5577 130.765 37.9227 131.25 36.2877C131.602 35.101 132.23 34.6132 133.185 34.6264C134.192 34.6395 134.832 35.4175 134.675 36.4327C134.624 36.8679 134.558 37.303 134.453 37.9622Z" fill="#1C2D5D"></path>
    <path d="M76.0522 40.9284C76.1045 47.4947 70.8344 53.2172 64.1913 53.2304C57.8097 53.2436 52.5658 47.587 52.5658 40.8624C52.5789 34.0719 57.8882 28.5736 64.4267 28.5867C70.769 28.5999 76.0653 34.2169 76.0522 40.9284ZM64.3351 33.7422C60.7259 33.5313 57.6136 36.8013 57.5613 40.7701C57.509 44.6994 60.6082 48.0749 64.2174 48.0881C67.9052 48.1012 71.0437 44.7785 71.0698 40.8361C71.096 36.9595 68.0621 33.7554 64.3351 33.7422Z" fill="#1C2D5D"></path>
  </g>
  <defs>
    <clipPath id="clip0_12_52">
      <rect width="190" height="61.9565" fill="white"></rect>
    </clipPath>
  </defs>
</svg>
