<svg width="50" height="50" viewBox="0 0 50 50" fill="none" xmlns="http://www.w3.org/2000/svg">
<path d="M49 45.7998H1V48.9998H49V45.7998Z" stroke="black" stroke-width="1.8" stroke-linejoin="round"/>
<path d="M47.4004 19.4004V45.8004" stroke="black" stroke-width="1.8" stroke-linejoin="round"/>
<path d="M2.59961 45.8004V19.4004" stroke="black" stroke-width="1.8" stroke-linejoin="round"/>
<path d="M1 9H9V16.2C9 16.7253 8.89654 17.2454 8.69552 17.7307C8.4945 18.216 8.19986 18.657 7.82843 19.0284C7.45699 19.3999 7.01604 19.6945 6.53073 19.8955C6.04543 20.0965 5.52529 20.2 5 20.2C3.93913 20.2 2.92172 19.7786 2.17157 19.0284C1.42143 18.2783 1 17.2609 1 16.2V9Z" stroke="black" stroke-width="1.8" stroke-linejoin="round"/>
<path d="M17 13.472V16.2C17 17.2609 16.5786 18.2783 15.8284 19.0284C15.0783 19.7786 14.0609 20.2 13 20.2C11.9391 20.2 10.9217 19.7786 10.1716 19.0284C9.42143 18.2783 9 17.2609 9 16.2V9H16.24" stroke="black" stroke-width="1.8" stroke-linejoin="round"/>
<path d="M24.2 18.5997C23.8274 19.0965 23.3443 19.4997 22.7889 19.7774C22.2334 20.0551 21.621 20.1997 21 20.1997C19.9391 20.1997 18.9217 19.7783 18.1716 19.0281C17.4214 18.278 17 17.2605 17 16.1997V13.4717" stroke="black" stroke-width="1.8" stroke-linejoin="round"/>
<path d="M33.0008 13.4717V16.1997C33.0008 17.2605 32.5794 18.278 31.8292 19.0281C31.0791 19.7783 30.0616 20.1997 29.0008 20.1997C28.3798 20.1997 27.7673 20.0551 27.2119 19.7774C26.6565 19.4997 26.1734 19.0965 25.8008 18.5997" stroke="black" stroke-width="1.8" stroke-linejoin="round"/>
<path d="M33.8 9H41V16.2C41 17.2609 40.5786 18.2783 39.8284 19.0284C39.0783 19.7786 38.0609 20.2 37 20.2C35.9391 20.2 34.9217 19.7786 34.1716 19.0284C33.4214 18.2783 33 17.2609 33 16.2V13.472" stroke="black" stroke-width="1.8" stroke-linejoin="round"/>
<path d="M41 9H49V16.2C49 17.2609 48.5786 18.2783 47.8284 19.0284C47.0783 19.7786 46.0609 20.2 45 20.2C43.9391 20.2 42.9217 19.7786 42.1716 19.0284C41.4214 18.2783 41 17.2609 41 16.2V9Z" stroke="black" stroke-width="1.8" stroke-linejoin="round"/>
<path d="M24.9992 18.6C29.8593 18.6 33.7992 14.6601 33.7992 9.8C33.7992 4.93989 29.8593 1 24.9992 1C20.1391 1 16.1992 4.93989 16.1992 9.8C16.1992 14.6601 20.1391 18.6 24.9992 18.6Z" stroke="black" stroke-width="1.8" stroke-linejoin="round"/>
<path d="M21 5.7998H27.4V12.1998C27.4 12.6242 27.2314 13.0311 26.9314 13.3312C26.6313 13.6312 26.2243 13.7998 25.8 13.7998H22.6C22.1757 13.7998 21.7687 13.6312 21.4686 13.3312C21.1686 13.0311 21 12.6242 21 12.1998V5.7998Z" stroke="black" stroke-width="1.8" stroke-linejoin="round"/>
<path d="M27.4004 7.40039H28.2004C28.8369 7.40039 29.4474 7.65325 29.8974 8.10333C30.3475 8.55342 30.6004 9.16387 30.6004 9.80039C30.6004 10.4369 30.3475 11.0474 29.8974 11.4974C29.4474 11.9475 28.8369 12.2004 28.2004 12.2004H27.4004" stroke="black" stroke-width="1.8" stroke-linejoin="round"/>
<path d="M28.2008 23.4004H5.80078V41.0004H28.2008V23.4004Z" stroke="black" stroke-width="1.8" stroke-linejoin="round"/>
<path d="M33 45.7998V29.7998H44.2V45.7998" stroke="black" stroke-width="1.8" stroke-linejoin="round"/>
<path d="M5.80078 36.2002H28.2008" stroke="black" stroke-width="1.8" stroke-linejoin="round"/>
<path d="M9 32.2004L13.8 27.4004" stroke="black" stroke-width="1.8" stroke-linejoin="round"/>
<path d="M14.5996 32.2004L19.3996 27.4004" stroke="black" stroke-width="1.8" stroke-linejoin="round"/>
<path d="M20.1992 32.2004L24.9992 27.4004" stroke="black" stroke-width="1.8" stroke-linejoin="round"/>
<path d="M36.1992 35.4004V40.2004" stroke="black" stroke-width="1.8" stroke-linejoin="round"/>
<path d="M42.5996 23.4004H34.5996V26.6004H42.5996V23.4004Z" stroke="black" stroke-width="1.8" stroke-linejoin="round"/>
</svg>
