<svg width="48" height="55" viewBox="0 0 48 55" fill="none" xmlns="http://www.w3.org/2000/svg">
<path d="M0.356082 0.485341L0 0.790554V27.2678V53.745L0.356082 54.0503L0.712164 54.3555H23.972H47.2317L47.5878 54.0503L47.9439 53.745L47.9821 50.5785C48.0329 47.1448 47.9948 46.7124 47.6133 46.3309C47.2572 45.9748 46.545 46.013 46.1635 46.4072L45.8456 46.7124V49.5229V52.3207H44.8282H43.8108V33.3085V14.2962H44.8282H45.8456V28.6667C45.8456 41.0405 45.871 43.1007 46.0363 43.4059C46.3415 44.0164 47.0156 44.1054 47.5878 43.6221L47.9439 43.3169V28.0308V12.7447L47.5878 12.4395C47.2317 12.1343 47.1809 12.1343 44.8282 12.1343C42.4755 12.1343 42.4246 12.1343 42.0686 12.4395L41.7125 12.7447L41.6743 22.1046L41.6489 31.4645H39.8939C37.5412 31.4645 37.6048 31.4009 37.5539 33.8172L37.5158 35.5976H34.4001H31.2844L31.2462 33.7917C31.2208 32.0113 31.2081 31.9859 30.8774 31.7315C30.5849 31.4899 30.3687 31.4645 28.8554 31.4645H27.1513V29.3661V27.2678H33.0648H38.991L39.2962 26.9499C39.4742 26.7845 39.6141 26.5302 39.6141 26.403C39.6141 26.0851 38.6349 21.9774 38.4441 21.5069C38.3678 21.3161 38.2025 21.0999 38.0753 21.0364C37.9482 20.9601 35.6845 20.9092 32.5052 20.9092H27.1513V16.2674V11.6256H30.4577H33.7769L34.0821 11.3077C34.4637 10.9389 34.4637 11.0406 34.1457 8.4336C33.8405 5.90287 33.8278 5.83929 33.5099 5.52136C33.2682 5.27973 33.0775 5.26701 30.2161 5.26701H27.1767L27.1258 4.05888C27.0877 3.01607 27.0495 2.82531 26.7952 2.57096C26.5154 2.29119 26.4391 2.27847 23.972 2.27847C20.8054 2.27847 20.8944 2.2276 20.8181 4.05888L20.7672 5.26701H13.5311H6.30774L6.26959 3.05422C6.23144 0.905009 6.21872 0.828705 5.92622 0.510775L5.62101 0.180127H3.16659C0.763033 0.180127 0.712164 0.180127 0.356082 0.485341ZM4.1331 27.2678V52.3207H3.11572H2.09834V27.2678V2.21488H3.11572H4.1331V27.2678ZM24.9893 28.3488V52.3207H23.972H22.9546V28.3488V4.37681H23.972H24.9893V28.3488ZM20.7927 8.44632V9.59087H13.5438H6.29502V8.44632V7.30177H13.5438H20.7927V8.44632ZM31.9075 7.40351C31.9329 7.45438 31.9965 7.96306 32.0474 8.54806L32.1491 9.59087H29.6438H27.1513V8.44632V7.30177H29.4912C30.7884 7.30177 31.8693 7.33992 31.9075 7.40351ZM20.7927 16.2674V20.9092H13.5438H6.29502V16.2674V11.6256H13.5438H20.7927V16.2674ZM20.7927 24.0885V25.233H13.5438H6.29502V24.0885V22.9439H13.5438H20.7927V24.0885ZM36.8163 23.4781C36.8926 23.7833 37.0071 24.2284 37.0834 24.47C37.147 24.7116 37.1979 24.9914 37.1979 25.0677C37.1979 25.1949 36.1042 25.233 32.1746 25.233H27.1513V24.0885V22.9439H31.9202H36.6765L36.8163 23.4781ZM8.32978 32.0368C8.32978 35.2542 8.38065 36.8947 8.46967 37.0982C8.54597 37.2762 8.74945 37.4797 8.92749 37.556C9.35987 37.7595 17.7787 37.7468 18.1602 37.5433C18.707 37.2635 18.7452 37.0855 18.7579 35.0507V33.0923L19.4319 33.1813C19.788 33.2195 20.2458 33.283 20.4493 33.3212L20.7927 33.3975V42.8591V52.3207H13.5438H6.29502V39.7943V27.2678H7.3124H8.32978V32.0368ZM20.7927 29.239C20.7927 31.5281 21.0216 31.3119 18.9487 31.0321C17.8931 30.8922 17.6006 30.8922 17.27 31.0321C16.7486 31.2356 16.7231 31.35 16.685 33.69L16.6596 35.5976H13.5438H10.4281L10.39 31.5917C10.3772 29.3916 10.39 27.5221 10.4281 27.4331C10.4663 27.3059 11.6108 27.2678 15.6422 27.2678H20.7927V29.239ZM29.186 35.2415C29.1987 37.0728 29.2496 37.2635 29.7837 37.5433C30.1652 37.7468 38.584 37.7595 39.0164 37.556C39.5124 37.3271 39.6141 36.9202 39.6141 35.1525V33.4992H40.6315H41.6489V42.91V52.3207H34.4001H27.1513V42.91V33.4992H28.1686H29.186V35.2415Z" fill="black"/>
<path d="M9.01681 39.8582C8.3428 40.138 8.33008 40.2016 8.33008 45.0469V49.536L8.64801 49.8412L8.95322 50.1592H13.5441H18.1351L18.4403 49.8412L18.7582 49.536V45.0214V40.5068L18.453 40.1507L18.1478 39.7946L13.7095 39.7692C11.2805 39.7565 9.1567 39.7946 9.01681 39.8582ZM16.7234 45.0087V48.1244H13.5441H10.3648V45.0087V41.893H13.5441H16.7234V45.0087Z" fill="black"/>
<path d="M29.8723 39.8582C29.1983 40.138 29.1855 40.2016 29.1855 45.0469V49.536L29.5035 49.8412L29.8087 50.1592H34.3996H38.9905L39.2957 49.8412L39.6137 49.536V45.0214V40.5068L39.3085 40.1507L39.0032 39.7946L34.5649 39.7692C32.1359 39.7565 30.0122 39.7946 29.8723 39.8582ZM37.5789 45.0087V48.1244H34.3996H31.2203V45.0087V41.893H34.3996H37.5789V45.0087Z" fill="black"/>
</svg>
