<?xml version="1.0" encoding="UTF-8"?>
<svg id="Layer_2" data-name="Layer 2" xmlns="http://www.w3.org/2000/svg" viewBox="0 0 28.9 34">
  <defs>
    <style>
      .cls-1 {
        fill: #2fa822;
      }
    </style>
  </defs>
  <g id="Layer_1-2" data-name="Layer 1">
    <g>
      <polygon class="cls-1" points="0 0 6.36 6.36 3.5 6.36 3.5 27.63 7.45 27.63 7.45 33.02 0 33.02 0 0"/>
      <polygon class="cls-1" points="28.9 34 22.54 27.63 25.4 27.63 25.4 6.37 21.45 6.37 21.45 .98 28.9 .98 28.9 34"/>
      <path class="cls-1" d="M23.98,26.47H4.86V7.47h19.11v19ZM5.86,25.47h17.11V8.47H5.86v17Z"/>
      <path class="cls-1" d="M9.9,16.25l1.77.55c.92.29,1.22,1.45.55,2.15l-1.56,1.63c-.77.81-2.14.33-2.24-.78l-.2-2.19c-.09-.93.8-1.65,1.69-1.37Z"/>
      <path class="cls-1" d="M12.84,16.97l-.44-3.52,1.01-.14c.33-.05.67.06.91.3l1.67,1.67c.1.1.18.21.23.34l.95,2.25c.1.24.11.5.03.75l-.67,2.04h-1.14l-.81-2.92c-.13-.47-.56-.79-1.04-.78h-.69Z"/>
      <path class="cls-1" d="M15.41,10.76l3.75-.69c.62-.11,1.19.36,1.19.99v.61c0,.21.07.42.19.59.24.32.62.86.76,1.11.21.37.5,1.16.5,1.37s-.04.25-.79.79-.08,1.66-1.83.79-3.32-1.33-3.28-2.2c.03-.67.01-1.56,0-1.94,0-.12-.03-.23-.07-.34l-.43-1.08Z"/>
      <path class="cls-1" d="M12.08,9.58s.15,2.05,0,2.35-.93.05-1.56.59-.88.88-1.32,1.32c-.16.16-.38.35-.59.52-.42.34-1,.36-1.44.05h0c-.47-.33-.63-.94-.39-1.46l.29-.63c.07-.15.17-.29.3-.4l2.23-1.93,1.17-.39h1.32Z"/>
      <path class="cls-1" d="M11.25,23.88c.55-.34,4.55-2.21,4.96-2.34s.21.07.69,0,1.1.21,1.38.76,2.76.34,0,1.03-2.69.28-3.86.55-1.65.34-1.65.34l-1.52-.34Z"/>
    </g>
  </g>
</svg>