<svg width="48" height="48" viewBox="0 0 48 48" fill="none" xmlns="http://www.w3.org/2000/svg">
<path d="M1.30169 0.359184L0.966102 0.654099V10.5083C0.966102 19.8744 0.976271 20.3727 1.14915 20.6473C1.25085 20.7999 1.47458 20.9727 1.63729 21.0338L1.9322 21.1355V23.21C1.9322 25.1626 1.92203 25.2846 1.73898 25.2846C1.47458 25.2846 1.05763 25.7422 0.976271 26.1083C0.864407 26.688 0.915254 30.6033 1.04746 30.9795C1.12881 31.2236 1.29153 31.3965 1.54576 31.5388L1.9322 31.7422V38.5761V45.4202H1.4339C0.467797 45.4202 0 45.766 0 46.488C0 46.7626 0.0813559 46.9355 0.294915 47.1592L0.6 47.4541L24.0508 47.4338L47.5119 47.4033L47.7559 47.1185C47.9085 46.9355 48 46.7016 48 46.4778C48 45.766 47.522 45.4202 46.5661 45.4202H46.0678V31.3558C46.0678 23.627 46.0271 17.1287 45.9763 16.9253C45.8949 16.5999 45.9153 16.5388 46.078 16.488C46.1797 16.4473 46.3627 16.3049 46.4746 16.1626C46.678 15.9083 46.678 15.7761 46.678 8.39308C46.678 3.86766 46.6373 0.786302 46.5763 0.63376C46.3525 0.0235904 47.9593 0.0642684 23.7559 0.0642684H1.62712L1.30169 0.359184ZM44.6441 8.3524V14.6066H23.7966H2.94915V8.3524V2.09817H23.7966H44.6441V8.3524ZM43.4746 16.6812C43.9525 16.8846 44.0339 17.1083 44.0339 18.1558V19.0812H34.4746H24.9153V18.1761C24.9153 17.3524 24.9356 17.2405 25.1695 16.9558C25.3119 16.7931 25.5356 16.6304 25.6576 16.61C25.7797 16.5897 29.7661 16.5592 34.5051 16.549C41.7356 16.5388 43.1797 16.5592 43.4746 16.6812ZM22.9627 17.8812L22.9932 19.0812H12.9661H2.94915V17.9321C2.94915 17.2914 2.97966 16.7422 3.02034 16.7117C3.05085 16.671 7.55593 16.6507 13.0068 16.6609L22.9322 16.6914L22.9627 17.8812ZM12.4068 23.1999V25.2846H8.18644H3.9661V23.1999V21.1151H8.18644H12.4068V23.1999ZM22.9627 23.1694L22.9322 25.2338L18.6915 25.2643L14.4407 25.2846V23.1999V21.1151H18.7119H22.9831L22.9627 23.1694ZM33.4576 23.1999V25.2846L29.217 25.2643L24.9661 25.2338L24.9356 23.1694L24.9153 21.1151H29.1864H33.4576V23.1999ZM44.0339 23.1999V25.2846H39.7627H35.4915V23.1999V21.1151H39.7627H44.0339V23.1999ZM22.9627 28.4575L22.9932 29.6575H12.9661H2.94915V28.4372V27.2168L12.9458 27.2372L22.9322 27.2677L22.9627 28.4575ZM44.0339 36.3185V45.4202H42.7627H41.5017L41.4712 39.1965C41.4407 33.0236 41.4407 32.9626 41.217 32.5558C41.0949 32.3321 40.8203 31.9761 40.6068 31.7727C39.8746 31.0609 40.017 31.0812 34.5051 31.0812H29.5424L29.0339 31.3253C28.7492 31.4473 28.3729 31.7321 28.1797 31.9456C27.478 32.749 27.5085 32.4134 27.478 39.2372L27.4475 45.4202H26.1864H24.9153V36.3897C24.9153 31.4168 24.9458 27.3185 24.9864 27.288C25.017 27.2473 29.3186 27.2168 34.5458 27.2168H44.0339V36.3185ZM12.4068 38.5558V45.4202H8.18644H3.9661V38.5558V31.6914H8.18644H12.4068V38.5558ZM22.9831 38.5558V45.4202H18.7119H14.4407V38.5558V31.6914H18.7119H22.9831V38.5558ZM33.4576 39.2168V45.4202H31.4746H29.4915V39.4304V33.4304L29.7559 33.227C30.0102 33.0338 30.1627 33.0134 31.739 33.0134H33.4576V39.2168ZM39.0814 33.1253C39.2034 33.1965 39.3356 33.2982 39.3763 33.3592C39.417 33.4202 39.4576 36.1558 39.4576 39.4405V45.4202H37.4746H35.4915V39.2168V33.0134H37.1797C38.2475 33.0134 38.939 33.0541 39.0814 33.1253Z" fill="black"/>
<path d="M13.9025 4.14228C12.8347 4.39652 11.7262 5.28127 11.2584 6.28805C10.1906 8.54567 11.0754 11.2711 13.2008 12.2474C14.6957 12.9389 17.6245 12.4711 18.1228 11.4541C18.2652 11.1694 18.3059 10.8338 18.3059 9.80669C18.3059 9.09483 18.255 8.39313 18.2042 8.24059C18.011 7.74228 17.8584 7.70161 16.3635 7.69144C15.0516 7.69144 14.9703 7.70161 14.7669 7.92533C14.4618 8.25076 14.4821 8.64737 14.8076 8.90161C15.0415 9.08466 15.2245 9.11516 15.9872 9.11516H16.8923L16.8618 9.94906L16.8313 10.7728L16.4347 10.9152C14.8381 11.4643 13.3127 10.9762 12.6923 9.72533C12.1737 8.70838 12.2245 7.5694 12.8143 6.64398C13.2618 5.93211 13.872 5.62703 14.9499 5.57618C15.733 5.5355 15.8957 5.56601 16.4855 5.81008C17.3601 6.18635 17.7567 6.2372 18.0008 6.01347C18.2449 5.78974 18.2652 5.23042 18.0415 4.99652C17.3093 4.26432 15.2143 3.8372 13.9025 4.14228Z" fill="black"/>
<path d="M27.6915 4.14205C27 4.34544 27 4.36578 27 8.43357V12.0844L27.2847 12.3285C27.6407 12.6336 27.8847 12.6336 28.2407 12.3285L28.5254 12.0844L28.5763 9.50137L28.6271 6.92849L29.6847 9.56239C30.6102 11.8505 30.7831 12.2166 31.0576 12.3895C31.4339 12.6234 31.9627 12.5726 32.278 12.2776C32.4 12.1658 32.9797 10.8844 33.5593 9.43018L34.6271 6.79628L34.678 9.4912C34.7288 12.1658 34.7288 12.1861 34.9729 12.3793C35.2983 12.6437 35.6542 12.6234 35.9492 12.3183L36.2034 12.0743V8.41323V4.74205L35.9085 4.41662C35.6441 4.12171 35.5627 4.0912 35.0542 4.0912C34.5966 4.0912 34.4339 4.13188 34.2305 4.3251C34.0678 4.48781 33.5898 5.53527 32.8373 7.42679C32.2068 8.99289 31.6678 10.3149 31.6271 10.3658C31.5966 10.4065 31.0271 9.08442 30.3661 7.43696C29.5322 5.34205 29.0949 4.38611 28.9424 4.28442C28.6373 4.0912 28.078 4.02001 27.6915 4.14205Z" fill="black"/>
<path d="M19.2209 4.33584C18.8242 4.73245 18.9361 5.00702 20.3903 7.04092L21.7632 8.96296V10.407C21.7632 11.9528 21.8344 12.2782 22.2412 12.4613C22.587 12.624 22.7192 12.6036 23.0242 12.3596L23.2886 12.1562V10.6002V9.05448L24.6615 7.13245C25.4242 6.08499 26.0649 5.11889 26.0954 4.98668C26.1564 4.75279 25.9937 4.34601 25.7903 4.2138C25.5768 4.07143 25.0175 4.13245 24.8446 4.3155C24.7429 4.41719 24.2039 5.16974 23.6446 5.99346C23.0853 6.81719 22.5971 7.48838 22.5666 7.48838C22.5361 7.48838 22.0785 6.85787 21.5497 6.09516C20.248 4.19346 20.187 4.13245 19.77 4.13245C19.5564 4.13245 19.3429 4.2138 19.2209 4.33584Z" fill="black"/>
</svg>
