<svg width="50" height="50" viewBox="0 0 50 50" fill="none" xmlns="http://www.w3.org/2000/svg">
<path d="M28.5938 0.0976562C26.7773 0.429688 25.3613 1.21094 23.9648 2.64648C22.7637 3.89648 22.1387 4.93164 21.7578 6.33789C21.3379 7.85156 21.543 11.6602 22.2754 15.5762C22.6367 17.5586 23.1836 19.1699 23.8867 20.3223L24.2188 20.8789V22.8223V24.7656L19.9512 26.5137C17.5977 27.4707 15.3711 28.4082 14.9902 28.5938C13.0664 29.5508 11.5234 31.0059 10.7715 32.5684C10.2441 33.6816 10.1562 34.3066 10.1562 37.0312V39.4531H10.9375H11.7188V37.0801C11.7188 34.5312 11.7871 34.0332 12.2461 33.125C12.627 32.3828 13.3105 31.6113 14.1699 30.957C15.1855 30.1953 15.6445 29.9707 18.6035 28.75C20.4883 27.9785 21.0742 27.7734 21.1621 27.8613C21.2207 27.9297 23.0762 30.4395 25.2832 33.4473C28.1543 37.3535 29.2969 38.9941 29.2969 39.1699C29.2969 39.4238 29.2773 39.4336 28.6133 39.4727C27.8906 39.5117 27.5879 39.6582 27.207 40.1758C27.0117 40.4297 27.002 40.5664 27.002 43.75C27.002 46.9336 27.0117 47.0703 27.207 47.3242C27.7051 47.9883 27.7246 47.998 30.0781 47.998C32.4316 47.998 32.4512 47.9883 32.9492 47.3242C33.1445 47.0703 33.1543 46.9336 33.1543 43.75C33.1543 40.5664 33.1445 40.4297 32.9492 40.1758C32.5684 39.6582 32.2656 39.5117 31.543 39.4727C30.8789 39.4336 30.8594 39.4238 30.8594 39.1699C30.8594 38.9941 32.002 37.3535 34.873 33.4473C37.0801 30.4395 38.9355 27.9297 38.9941 27.8613C39.082 27.7734 39.668 27.9785 41.5527 28.75C42.9004 29.2969 44.3066 29.9121 44.6777 30.1074C46.123 30.8691 47.3438 32.0117 47.9004 33.1152C48.4375 34.1699 48.4375 34.1016 48.4375 42.1191V49.5215L48.6816 49.7559C48.9941 50.0781 49.4434 50.0781 49.7559 49.7559L50 49.5215V42.0703C50 33.8379 50 33.8672 49.3848 32.5684C48.6328 31.0059 47.0898 29.5508 45.166 28.5938C44.7949 28.4082 42.5586 27.4707 40.2148 26.5039L35.9375 24.7656V22.8809V20.9961L36.416 20.0977C37.3633 18.3398 37.7734 16.7188 38.3008 12.832C38.7012 9.87305 38.7305 7.54883 38.3984 6.33789C38.1641 5.44922 37.7344 4.57031 37.1582 3.75977C36.6699 3.07617 35.4102 1.83594 34.7363 1.37695C34.1211 0.957031 33.0176 0.449219 32.2754 0.244141C31.6016 0.0585938 29.2969 -0.0390625 28.5938 0.0976562ZM32.2754 1.89453C33.3203 2.25586 34.082 2.73438 34.9219 3.56445C36.5918 5.21484 37.207 6.86523 37.0801 9.35547C37.002 10.7715 36.4844 14.7852 36.2207 15.9668C35.3711 19.7852 33.7207 21.875 31.0547 22.5C30.2539 22.6953 29.873 22.6953 29.1504 22.5098C26.3281 21.7871 24.7168 19.6973 23.877 15.6543C23.6328 14.4824 23.1445 10.6348 23.0762 9.35547C22.9492 6.86523 23.5352 5.26367 25.1855 3.60352C26.6699 2.10938 28.1445 1.5332 30.3223 1.60156C31.2793 1.63086 31.6406 1.67969 32.2754 1.89453ZM26.2012 22.8906C26.377 23.0176 26.7773 23.252 27.0996 23.418C28.7891 24.2578 30.3906 24.4043 32.002 23.8477C32.8613 23.5547 33.9258 23.0273 34.043 22.8418C34.0723 22.793 34.1602 22.7539 34.2383 22.7539C34.3457 22.7539 34.375 23.0078 34.375 24.1992C34.375 25.459 34.3945 25.6738 34.5508 25.8008C34.6387 25.8887 35.3418 26.2109 36.1133 26.5234C36.875 26.8359 37.4902 27.1387 37.4805 27.1973C37.4414 27.334 30.1465 37.3047 30.0781 37.3047C30.0098 37.3047 22.7148 27.334 22.6758 27.1973C22.666 27.1387 23.291 26.8359 24.0723 26.5137C24.9121 26.1816 25.5566 25.8594 25.6445 25.7422C25.752 25.5859 25.7812 25.1953 25.7812 24.1016C25.7812 23.3008 25.8105 22.6562 25.8398 22.6562C25.8691 22.6562 26.0352 22.7637 26.2012 22.8906ZM31.6406 43.75V46.4844H30.0781H28.5156V43.75V41.0156H30.0781H31.6406V43.75Z" fill="black"/>
<path d="M1.56201 36.8458C1.0835 37.002 0.263184 37.8419 0.116699 38.3399C-0.0493164 38.9161 -0.0493164 47.8028 0.116699 48.379C0.272949 48.9161 1.0835 49.7266 1.62061 49.8829C2.23584 50.0684 4.93115 50.0391 5.49756 49.8438C6.0542 49.6583 6.74756 48.9356 6.91357 48.3594C6.98193 48.1544 7.03076 47.461 7.03076 46.836V45.7032H10.937H14.8433V46.836C14.8433 47.461 14.8921 48.1544 14.9604 48.379C15.1167 48.9161 15.9272 49.7266 16.4644 49.8829C17.0796 50.0684 19.7749 50.0391 20.3413 49.8438C20.8979 49.6583 21.5913 48.9356 21.7573 48.3594C21.9233 47.8126 21.9233 38.9063 21.7573 38.3595C21.5913 37.7833 20.8979 37.0606 20.3413 36.8751C19.7749 36.6798 17.0796 36.6505 16.4644 36.836C15.9272 36.9923 15.1167 37.8028 14.9604 38.3399C14.8921 38.5645 14.8433 39.2579 14.8433 39.8829V41.0157H10.937H7.03076V39.8829C7.03076 38.4962 6.92334 38.1055 6.37646 37.5001C5.76123 36.8165 5.3999 36.7188 3.47607 36.7286C2.60693 36.7384 1.74756 36.7872 1.56201 36.8458ZM5.22412 38.5255L5.46826 38.7598V43.3595V47.9591L5.22412 48.1934C4.99951 48.4278 4.95068 48.4376 3.51514 48.4376C2.07959 48.4376 2.03076 48.4278 1.80615 48.1934L1.56201 47.9591V43.3595V38.7598L1.80615 38.5255C2.03076 38.2911 2.07959 38.2813 3.51514 38.2813C4.95068 38.2813 4.99951 38.2911 5.22412 38.5255ZM20.0679 38.5255L20.312 38.7598V43.3595V47.9591L20.0679 48.1934C19.8433 48.4278 19.7944 48.4376 18.3589 48.4376C16.9233 48.4376 16.8745 48.4278 16.6499 48.1934L16.4058 47.9591V43.3595V38.7598L16.6499 38.5255C16.8745 38.2911 16.9233 38.2813 18.3589 38.2813C19.7944 38.2813 19.8433 38.2911 20.0679 38.5255ZM14.8433 43.3595V44.1407H10.937H7.03076V43.3595V42.5782H10.937H14.8433V43.3595Z" fill="black"/>
<path d="M10.1562 48.3887C10.1562 49.4629 10.166 49.5312 10.4004 49.7559C10.5469 49.9121 10.752 50 10.9375 50C11.123 50 11.3281 49.9121 11.4746 49.7559C11.709 49.5312 11.7188 49.4629 11.7188 48.3887V47.2656H10.9375H10.1562V48.3887Z" fill="black"/>
</svg>
